<?xml version="1.0" encoding="utf-8"?>
<!-- Generator: Adobe Illustrator 23.0.1, SVG Export Plug-In . SVG Version: 6.00 Build 0)  -->
<svg version="1.0" id="Layer_1" xmlns="http://www.w3.org/2000/svg" xmlns:xlink="http://www.w3.org/1999/xlink" x="0px" y="0px"
	 viewBox="0 0 70 70" enable-background="new 0 0 70 70" xml:space="preserve">
<g opacity="0.7">
	<path fill="#FFFFFF" d="M35,1C16.2,1,1,16.2,1,35c0,18.8,15.2,34,34,34c18.8,0,34-15.2,34-34C69,16.2,53.8,1,35,1z M38.7,56.7
		c0,0.5-0.2,0.9-0.5,1.3c-0.4,0.4-0.8,0.5-1.3,0.5h-3.8c-0.5,0-0.9-0.2-1.3-0.5c-0.4-0.4-0.5-0.8-0.5-1.3v-3.8
		c0-0.5,0.2-0.9,0.5-1.3c0.4-0.4,0.8-0.5,1.3-0.5h3.8c0.5,0,0.9,0.2,1.3,0.5s0.5,0.8,0.5,1.3V56.7z M49.3,28.7
		c-0.6,1.3-1.3,2.5-2.2,3.5c-0.9,1-1.9,2-2.9,2.8c-1,0.9-2,1.7-2.9,2.6c-0.9,0.9-1.7,1.9-2.2,3C38.3,41.7,38,43,38,44.5v0.9
		c0,0.5-0.2,0.9-0.5,1.3s-0.8,0.5-1.3,0.5h-2.4c-0.5,0-0.9-0.2-1.3-0.5S32,45.9,32,45.4V44c0-1.8,0.3-3.3,0.9-4.6
		c0.6-1.3,1.3-2.5,2.2-3.5c0.9-1,1.9-2,2.9-2.8s2-1.7,2.9-2.6s1.7-1.9,2.2-2.9c0.6-1,0.9-2.2,0.9-3.6c0-1.1-0.3-2.1-0.8-2.9
		s-1.2-1.6-2-2.1c-0.8-0.6-1.8-1-2.9-1.3c-1.1-0.3-2.2-0.5-3.3-0.5c-2.3,0-4.3,0.6-5.9,1.7c-1.6,1.1-2.8,3-3.4,5.6
		c-0.1,0.5-0.3,0.8-0.7,1.1c-0.4,0.2-0.7,0.4-1.1,0.4h-2.8c-0.4,0-0.7-0.1-1.1-0.4c-0.3-0.3-0.4-0.6-0.4-1c0.1-1.5,0.5-2.9,1.1-4.5
		c0.6-1.5,1.6-2.9,2.8-4.2c1.3-1.3,2.8-2.3,4.7-3.1c1.9-0.8,4.1-1.2,6.6-1.2c2.2,0,4.2,0.3,6,1c1.8,0.6,3.4,1.5,4.8,2.6
		c1.3,1.1,2.4,2.4,3.1,4c0.7,1.5,1.1,3.2,1.1,5C50.2,25.8,49.9,27.4,49.3,28.7z"/>
</g>
</svg>
