<?xml version="1.0" encoding="utf-8"?>
<!-- Generator: Adobe Illustrator 23.0.1, SVG Export Plug-In . SVG Version: 6.00 Build 0)  -->
<svg version="1.1" id="Layer_1" xmlns="http://www.w3.org/2000/svg" xmlns:xlink="http://www.w3.org/1999/xlink" x="0px" y="0px"
     viewBox="0 0 136 136" style="enable-background:new 0 0 136 136;" xml:space="preserve">
<style type="text/css">
	.st0{opacity:0.18;fill-rule:evenodd;clip-rule:evenodd;fill:#50A7E6;}
	.st1{opacity:0.29;fill-rule:evenodd;clip-rule:evenodd;fill:#50A7E6;}
	.st2{opacity:0.57;fill-rule:evenodd;clip-rule:evenodd;fill:#50A7E6;}
	.st3{fill-rule:evenodd;clip-rule:evenodd;fill:#1E85C4;}
	.st4{fill:none;stroke:#FFFFFF;stroke-linecap:round;}
	.st5{fill:#FFFFFF;}
</style>
    <circle class="st0" cx="68" cy="68" r="68"/>
    <circle class="st1" cx="68" cy="68" r="53.1"/>
    <circle class="st2" cx="68" cy="68" r="45.6"/>
    <circle class="st3" cx="68" cy="68" r="38.2"/>
    <g>
	<path class="st4" d="M78.5,47l9,7.3 M87.5,79.5l-9,9 M48.5,79.5l10,9.8 M58.5,46.5l-10,7.8"/>
        <g>
		<path class="st5" d="M46,62c-3.8,0-8-0.8-8-2.5s4.2-2.5,8-2.5s8,0.8,8,2.5S49.8,62,46,62z M46,58c-4.6,0-7,1-7,1.5s2.4,1.5,7,1.5
			s7-1,7-1.5S50.6,58,46,58z"/>
            <path class="st5" d="M46,67c-3.8,0-8-0.8-8-2.5v-3h1v3c0,0.4,2.4,1.5,7,1.5s7-1.1,7-1.5v-3h1v3C54,66.2,49.8,67,46,67z"/>
            <path class="st5" d="M46,72c-3.8,0-8-0.8-8-2.5v-3h1v3c0,0.4,2.4,1.5,7,1.5s7-1.1,7-1.5v-3h1v3C54,71.2,49.8,72,46,72z"/>
            <path class="st5" d="M46,77c-3.8,0-8-0.8-8-2.5v-3h1v3c0,0.4,2.4,1.5,7,1.5s7-1.1,7-1.5v-3h1v3C54,76.2,49.8,77,46,77z"/>
	</g>
        <g>
		<path class="st5" d="M90,62c-3.8,0-8-0.8-8-2.5s4.2-2.5,8-2.5s8,0.8,8,2.5S93.8,62,90,62z M90,58c-4.6,0-7,1-7,1.5s2.4,1.5,7,1.5
			s7-1,7-1.5S94.6,58,90,58z"/>
            <path class="st5" d="M90,67c-3.8,0-8-0.8-8-2.5v-3h1v3c0,0.4,2.4,1.5,7,1.5s7-1.1,7-1.5v-3h1v3C98,66.2,93.8,67,90,67z"/>
            <path class="st5" d="M90,72c-3.8,0-8-0.8-8-2.5v-3h1v3c0,0.4,2.4,1.5,7,1.5s7-1.1,7-1.5v-3h1v3C98,71.2,93.8,72,90,72z"/>
            <path class="st5" d="M90,77c-3.8,0-8-0.8-8-2.5v-3h1v3c0,0.4,2.4,1.5,7,1.5s7-1.1,7-1.5v-3h1v3C98,76.2,93.8,77,90,77z"/>
	</g>
        <g>
		<path class="st5" d="M68,82c-3.8,0-8-0.8-8-2.5s4.2-2.5,8-2.5s8,0.8,8,2.5S71.8,82,68,82z M68,78c-4.6,0-7,1.1-7,1.5
			s2.4,1.5,7,1.5s7-1.1,7-1.5S72.6,78,68,78z"/>
            <path class="st5" d="M68,87c-3.8,0-8-0.8-8-2.5v-3h1v3c0,0.4,2.4,1.5,7,1.5s7-1.1,7-1.5v-3h1v3C76,86.2,71.8,87,68,87z"/>
            <path class="st5" d="M68,92c-3.8,0-8-0.8-8-2.5v-3h1v3c0,0.4,2.4,1.5,7,1.5s7-1.1,7-1.5v-3h1v3C76,91.2,71.8,92,68,92z"/>
            <path class="st5" d="M68,97c-3.8,0-8-0.8-8-2.5v-3h1v3c0,0.4,2.4,1.5,7,1.5s7-1.1,7-1.5v-3h1v3C76,96.2,71.8,97,68,97z"/>
	</g>
        <g>
		<path class="st5" d="M68,42c-3.8,0-8-0.8-8-2.5s4.2-2.5,8-2.5s8,0.8,8,2.5S71.8,42,68,42z M68,38c-4.6,0-7,1-7,1.5s2.4,1.5,7,1.5
			s7-1,7-1.5S72.6,38,68,38z"/>
            <path class="st5" d="M68,47c-3.8,0-8-0.8-8-2.5v-3h1v3c0,0.5,2.4,1.5,7,1.5s7-1,7-1.5v-3h1v3C76,46.2,71.8,47,68,47z"/>
            <path class="st5" d="M68,52c-3.8,0-8-0.8-8-2.5v-3h1v3c0,0.5,2.4,1.5,7,1.5s7-1,7-1.5v-3h1v3C76,51.2,71.8,52,68,52z"/>
            <path class="st5" d="M68,57c-3.8,0-8-0.8-8-2.5v-3h1v3c0,0.5,2.4,1.5,7,1.5s7-1,7-1.5v-3h1v3C76,56.2,71.8,57,68,57z"/>
	</g>
        <path class="st5" d="M70.3,70.6l-1.6-1.4c-0.3-0.2-0.7-0.2-1,0l-1.6,1.4c-0.2,0.2-0.2,0.4,0,0.6c0,0,0,0,0,0c0.2,0.2,0.4,0.2,0.6,0
		l1.1-0.9v5.3c0,0.2,0.2,0.4,0.4,0.4c0.2,0,0.4-0.2,0.4-0.4c0,0,0,0,0,0v-5.3l1.1,0.9c0.2,0.2,0.5,0.1,0.6,0
		C70.5,71,70.5,70.7,70.3,70.6C70.3,70.6,70.3,70.6,70.3,70.6z M70.3,63.4l-1.6,1.4c-0.3,0.2-0.7,0.2-1,0l-1.6-1.4
		c-0.2-0.2-0.2-0.4,0-0.6c0,0,0,0,0,0c0.2-0.2,0.4-0.2,0.6,0l1.1,0.9v-5.3c0-0.2,0.2-0.4,0.4-0.4s0.4,0.2,0.4,0.4v5.3l1.1-0.9
		c0.2-0.2,0.5-0.1,0.6,0C70.5,63,70.5,63.3,70.3,63.4C70.3,63.4,70.3,63.4,70.3,63.4z M74.3,69.6L72.9,68c-0.2-0.3-0.2-0.7,0-1
		l1.4-1.6c0.2-0.2,0.4-0.2,0.6,0c0,0,0,0,0,0c0.2,0.2,0.2,0.4,0,0.6L74,67.1h5.3c0.2,0,0.4,0.2,0.4,0.4c0,0.2-0.2,0.4-0.4,0.4
		c0,0,0,0,0,0H74l0.9,1.1c0.2,0.2,0.1,0.5,0,0.6C74.7,69.8,74.4,69.8,74.3,69.6C74.3,69.6,74.3,69.6,74.3,69.6z M62.1,65.4l1.4,1.6
		c0.2,0.3,0.2,0.7,0,1l-1.4,1.6c-0.2,0.2-0.4,0.2-0.6,0c0,0,0,0,0,0c-0.2-0.2-0.2-0.4,0-0.6l0.9-1.1h-5.3c-0.2,0-0.4-0.2-0.4-0.4
		c0,0,0,0,0,0c0-0.2,0.2-0.4,0.4-0.4h5.3L61.5,66c-0.2-0.2-0.1-0.5,0-0.6C61.7,65.2,62,65.3,62.1,65.4
		C62.1,65.4,62.1,65.4,62.1,65.4z"/>
</g>
</svg>
