<?xml version="1.0" encoding="utf-8"?>
<!-- Generator: Adobe Illustrator 23.0.1, SVG Export Plug-In . SVG Version: 6.00 Build 0)  -->
<svg version="1.1" id="Layer_1" xmlns="http://www.w3.org/2000/svg" xmlns:xlink="http://www.w3.org/1999/xlink" x="0px" y="0px"
     viewBox="0 0 136 136" style="enable-background:new 0 0 136 136;" xml:space="preserve">
<style type="text/css">
	.st0{opacity:0.18;fill-rule:evenodd;clip-rule:evenodd;fill:#50A7E6;}
	.st1{opacity:0.29;fill-rule:evenodd;clip-rule:evenodd;fill:#50A7E6;}
	.st2{opacity:0.57;fill-rule:evenodd;clip-rule:evenodd;fill:#50A7E6;}
	.st3{fill-rule:evenodd;clip-rule:evenodd;fill:#1E85C4;}
	.st4{fill:#FFFFFF;stroke:#FFFFFF;stroke-width:0.5;}
	.st5{fill:#FFFFFF;}
</style>
    <circle class="st0" cx="68" cy="68" r="68"/>
    <circle class="st1" cx="68" cy="68" r="53.1"/>
    <circle class="st2" cx="68" cy="68" r="45.6"/>
    <circle class="st3" cx="68" cy="68" r="38.2"/>
    <g>
	<path class="st4" d="M84.6,62.6h-8.5v-1.1h8.5c3.2,0,5.8-2.6,5.8-5.8c0,0,0,0,0,0c0-3-2.1-5.3-4.8-5.3h-0.5v-0.5
		c0-2.1-1.1-4.3-4.3-4.3H80l-0.2-0.3c-1.4-2.5-4-4-7-4c-4.4,0-8,3.6-8,7.9c0,0,0,0,0,0v0.5h-0.5c-3.2,0-5.8,2.6-5.8,5.8c0,0,0,0,0,0
		c0,0.8,0,1.7-0.1,2.6h-1v-2.6c0-3.6,2.8-6.6,6.4-6.9c0.3-4.7,4.2-8.5,9-8.5c3.3,0,6.2,1.6,7.8,4.3h0.2c3,0,5.1,1.9,5.3,4.8
		c3.1,0.3,5.3,2.9,5.3,6.4C91.5,59.5,88.4,62.6,84.6,62.6C84.6,62.6,84.6,62.6,84.6,62.6z"/>
        <g>
		<path class="st5" d="M61.5,67.4c-6.3,0-13-1.3-13-4.1c0-2.8,6.7-4.1,13-4.1c6.3,0,13,1.3,13,4.1C74.5,66.1,67.8,67.4,61.5,67.4z
			 M61.5,60.9c-7.5,0-11.4,1.7-11.4,2.4c0,0.7,3.9,2.4,11.4,2.4s11.4-1.7,11.4-2.4C72.9,62.6,69,60.9,61.5,60.9z"/>
            <path class="st5" d="M61.5,75.5c-6.3,0-13-1.3-13-4.1v-4.9h1.6v4.9c0,0.7,3.9,2.4,11.4,2.4s11.4-1.7,11.4-2.4v-4.9h1.6v4.9
			C74.5,74.2,67.8,75.5,61.5,75.5z"/>
            <path class="st5" d="M61.5,83.6c-6.3,0-13-1.3-13-4.1v-4.9h1.6v4.9c0,0.7,3.9,2.4,11.4,2.4s11.4-1.7,11.4-2.4v-4.9h1.6v4.9
			C74.5,82.3,67.8,83.6,61.5,83.6z"/>
            <path class="st5" d="M61.5,91.8c-6.3,0-13-1.3-13-4.1v-4.9h1.6v4.9c0,0.7,3.9,2.4,11.4,2.4s11.4-1.7,11.4-2.4v-4.9h1.6v4.9
			C74.5,90.4,67.8,91.8,61.5,91.8z"/>
	</g>
</g>
</svg>
