<?xml version="1.0" encoding="utf-8"?>
<!-- Generator: Adobe Illustrator 23.0.1, SVG Export Plug-In . SVG Version: 6.00 Build 0)  -->
<svg version="1.1" id="Layer_1" xmlns="http://www.w3.org/2000/svg" xmlns:xlink="http://www.w3.org/1999/xlink" x="0px" y="0px"
	 viewBox="0 0 136 136" style="enable-background:new 0 0 136 136;" xml:space="preserve">
<style type="text/css">
	.st0{opacity:0.18;fill-rule:evenodd;clip-rule:evenodd;fill:#2E4550;}
	.st1{opacity:0.29;fill-rule:evenodd;clip-rule:evenodd;fill:#2E4550;}
	.st2{opacity:0.57;fill-rule:evenodd;clip-rule:evenodd;fill:#2E4550;}
	.st3{fill-rule:evenodd;clip-rule:evenodd;fill:#2E4550;}
	.st4{fill:none;stroke:#FFFFFF;stroke-linecap:round;}
	.st5{fill:#FFFFFF;}
</style>
<circle class="st0" cx="68" cy="68" r="68"/>
<circle class="st1" cx="68" cy="68" r="53.1"/>
<circle class="st2" cx="68" cy="68" r="45.6"/>
<circle class="st3" cx="68" cy="68" r="38.2"/>
<g>
	<path class="st4" d="M78.5,48l9,7.3 M87.5,80.5l-9,9 M48.5,80.5l10,9.8 M58.5,47.5l-10,7.8"/>
	<g>
		<path class="st5" d="M46,63c-3.8,0-8-0.8-8-2.5s4.2-2.5,8-2.5s8,0.8,8,2.5S49.8,63,46,63z M46,59c-4.6,0-7,1-7,1.5s2.4,1.5,7,1.5
			s7-1,7-1.5S50.6,59,46,59z"/>
		<path class="st5" d="M46,68c-3.8,0-8-0.8-8-2.5v-3h1v3c0,0.4,2.4,1.5,7,1.5s7-1.1,7-1.5v-3h1v3C54,67.2,49.8,68,46,68z"/>
		<path class="st5" d="M46,73c-3.8,0-8-0.8-8-2.5v-3h1v3c0,0.4,2.4,1.5,7,1.5s7-1.1,7-1.5v-3h1v3C54,72.2,49.8,73,46,73z"/>
		<path class="st5" d="M46,78c-3.8,0-8-0.8-8-2.5v-3h1v3c0,0.4,2.4,1.5,7,1.5s7-1.1,7-1.5v-3h1v3C54,77.2,49.8,78,46,78z"/>
	</g>
	<g>
		<path class="st5" d="M90,63c-3.8,0-8-0.8-8-2.5s4.2-2.5,8-2.5s8,0.8,8,2.5S93.8,63,90,63z M90,59c-4.6,0-7,1-7,1.5s2.4,1.5,7,1.5
			s7-1,7-1.5S94.6,59,90,59z"/>
		<path class="st5" d="M90,68c-3.8,0-8-0.8-8-2.5v-3h1v3c0,0.4,2.4,1.5,7,1.5s7-1.1,7-1.5v-3h1v3C98,67.2,93.8,68,90,68z"/>
		<path class="st5" d="M90,73c-3.8,0-8-0.8-8-2.5v-3h1v3c0,0.4,2.4,1.5,7,1.5s7-1.1,7-1.5v-3h1v3C98,72.2,93.8,73,90,73z"/>
		<path class="st5" d="M90,78c-3.8,0-8-0.8-8-2.5v-3h1v3c0,0.4,2.4,1.5,7,1.5s7-1.1,7-1.5v-3h1v3C98,77.2,93.8,78,90,78z"/>
	</g>
	<g>
		<path class="st5" d="M68,83c-3.8,0-8-0.8-8-2.5s4.2-2.5,8-2.5s8,0.8,8,2.5S71.8,83,68,83z M68,79c-4.6,0-7,1.1-7,1.5
			s2.4,1.5,7,1.5s7-1.1,7-1.5S72.6,79,68,79z"/>
		<path class="st5" d="M68,88c-3.8,0-8-0.8-8-2.5v-3h1v3c0,0.4,2.4,1.5,7,1.5s7-1.1,7-1.5v-3h1v3C76,87.2,71.8,88,68,88z"/>
		<path class="st5" d="M68,93c-3.8,0-8-0.8-8-2.5v-3h1v3c0,0.4,2.4,1.5,7,1.5s7-1.1,7-1.5v-3h1v3C76,92.2,71.8,93,68,93z"/>
		<path class="st5" d="M68,98c-3.8,0-8-0.8-8-2.5v-3h1v3c0,0.4,2.4,1.5,7,1.5s7-1.1,7-1.5v-3h1v3C76,97.2,71.8,98,68,98z"/>
	</g>
	<g>
		<path class="st5" d="M68,43c-3.8,0-8-0.8-8-2.5s4.2-2.5,8-2.5s8,0.8,8,2.5S71.8,43,68,43z M68,39c-4.6,0-7,1-7,1.5s2.4,1.5,7,1.5
			s7-1,7-1.5S72.6,39,68,39z"/>
		<path class="st5" d="M68,48c-3.8,0-8-0.8-8-2.5v-3h1v3c0,0.5,2.4,1.5,7,1.5s7-1,7-1.5v-3h1v3C76,47.2,71.8,48,68,48z"/>
		<path class="st5" d="M68,53c-3.8,0-8-0.8-8-2.5v-3h1v3c0,0.5,2.4,1.5,7,1.5s7-1,7-1.5v-3h1v3C76,52.2,71.8,53,68,53z"/>
		<path class="st5" d="M68,58c-3.8,0-8-0.8-8-2.5v-3h1v3c0,0.5,2.4,1.5,7,1.5s7-1,7-1.5v-3h1v3C76,57.2,71.8,58,68,58z"/>
	</g>
	<path class="st5" d="M70.3,71.6l-1.6-1.4c-0.3-0.2-0.7-0.2-1,0l-1.6,1.4c-0.2,0.2-0.2,0.4,0,0.6c0,0,0,0,0,0c0.2,0.2,0.4,0.2,0.6,0
		l1.1-0.9v5.3c0,0.2,0.2,0.4,0.4,0.4c0.2,0,0.4-0.2,0.4-0.4c0,0,0,0,0,0v-5.3l1.1,0.9c0.2,0.2,0.5,0.1,0.6,0
		C70.5,72,70.5,71.7,70.3,71.6C70.3,71.6,70.3,71.6,70.3,71.6z M70.3,64.4l-1.6,1.4c-0.3,0.2-0.7,0.2-1,0l-1.6-1.4
		c-0.2-0.2-0.2-0.4,0-0.6c0,0,0,0,0,0c0.2-0.2,0.4-0.2,0.6,0l1.1,0.9v-5.3c0-0.2,0.2-0.4,0.4-0.4s0.4,0.2,0.4,0.4v5.3l1.1-0.9
		c0.2-0.2,0.5-0.1,0.6,0C70.5,64,70.5,64.3,70.3,64.4C70.3,64.4,70.3,64.4,70.3,64.4z M74.3,70.6L72.9,69c-0.2-0.3-0.2-0.7,0-1
		l1.4-1.6c0.2-0.2,0.4-0.2,0.6,0c0,0,0,0,0,0c0.2,0.2,0.2,0.4,0,0.6L74,68.1h5.3c0.2,0,0.4,0.2,0.4,0.4c0,0.2-0.2,0.4-0.4,0.4
		c0,0,0,0,0,0H74l0.9,1.1c0.2,0.2,0.1,0.5,0,0.6C74.7,70.8,74.4,70.8,74.3,70.6C74.3,70.6,74.3,70.6,74.3,70.6z M62.1,66.4l1.4,1.6
		c0.2,0.3,0.2,0.7,0,1l-1.4,1.6c-0.2,0.2-0.4,0.2-0.6,0c0,0,0,0,0,0c-0.2-0.2-0.2-0.4,0-0.6l0.9-1.1h-5.3c-0.2,0-0.4-0.2-0.4-0.4
		c0,0,0,0,0,0c0-0.2,0.2-0.4,0.4-0.4h5.3L61.5,67c-0.2-0.2-0.1-0.5,0-0.6C61.7,66.2,62,66.3,62.1,66.4
		C62.1,66.4,62.1,66.4,62.1,66.4z"/>
</g>
</svg>
