<?xml version="1.0" encoding="utf-8"?>
<!-- Generator: Adobe Illustrator 23.0.1, SVG Export Plug-In . SVG Version: 6.00 Build 0)  -->
<svg version="1.1" id="Layer_1" xmlns="http://www.w3.org/2000/svg" xmlns:xlink="http://www.w3.org/1999/xlink" x="0px" y="0px"
	 viewBox="0 0 136 136" style="enable-background:new 0 0 136 136;" xml:space="preserve">
<style type="text/css">
	.st0{opacity:0.18;fill-rule:evenodd;clip-rule:evenodd;fill:#2E4550;}
	.st1{opacity:0.29;fill-rule:evenodd;clip-rule:evenodd;fill:#2E4550;}
	.st2{opacity:0.57;fill-rule:evenodd;clip-rule:evenodd;fill:#2E4550;}
	.st3{fill-rule:evenodd;clip-rule:evenodd;fill:#2E4550;}
	.st4{fill:#FFFFFF;}
</style>
<circle class="st0" cx="68" cy="68" r="68"/>
<circle class="st1" cx="68" cy="68" r="53.1"/>
<circle class="st2" cx="68" cy="68" r="45.6"/>
<circle class="st3" cx="68" cy="68" r="38.2"/>
<g>
	<g>
		<path class="st4" d="M54.4,54.9c-5.7,0-11.8-1.2-11.8-3.7s6.1-3.7,11.8-3.7s11.8,1.2,11.8,3.7C66.2,53.7,60.1,54.9,54.4,54.9z
			 M54.4,49c-6.8,0-10.3,1.5-10.3,2.2s3.5,2.2,10.3,2.2s10.3-1.5,10.3-2.2C64.7,50.5,61.2,49,54.4,49z"/>
		<path class="st4" d="M54.4,62.2c-5.7,0-11.8-1.2-11.8-3.7v-4.4h1.5v4.4c0,0.7,3.5,2.2,10.3,2.2s10.3-1.5,10.3-2.2v-4.4h1.5v4.4
			C66.2,61.1,60.1,62.2,54.4,62.2z"/>
		<path class="st4" d="M54.4,69.6c-5.7,0-11.8-1.2-11.8-3.7v-4.4h1.5v4.4c0,0.7,3.5,2.2,10.3,2.2s10.3-1.5,10.3-2.2v-4.4h1.5v4.4
			C66.2,68.4,60.1,69.6,54.4,69.6z"/>
		<path class="st4" d="M54.4,77c-5.7,0-11.8-1.2-11.8-3.7v-4.4h1.5v4.4c0,0.7,3.5,2.2,10.3,2.2s10.3-1.5,10.3-2.2v-4.4h1.5v4.4
			C66.2,75.8,60.1,77,54.4,77z"/>
		<path class="st4" d="M54,76.5V81h0.9v-4.5H54z M39,83.7h8.1v-0.9H39V83.7z"/>
		<path class="st4" d="M48.1,80.1h12.7c0.5,0,0.9,0.4,0.9,0.9v4.5c0,0.5-0.4,0.9-0.9,0.9H48.1c-0.5,0-0.9-0.4-0.9-0.9V81
			C47.2,80.5,47.6,80.1,48.1,80.1z M48.1,81v4.5h12.7V81H48.1z"/>
	</g>
	<g>
		<path class="st4" d="M81.6,54.9c-5.7,0-11.8-1.2-11.8-3.7s6.1-3.7,11.8-3.7s11.8,1.2,11.8,3.7S87.2,54.9,81.6,54.9z M81.6,49
			c-6.8,0-10.3,1.5-10.3,2.2s3.5,2.2,10.3,2.2s10.3-1.5,10.3-2.2S88.4,49,81.6,49z"/>
		<path class="st4" d="M81.6,62.2c-5.7,0-11.8-1.2-11.8-3.7v-4.4h1.5v4.4c0,0.7,3.5,2.2,10.3,2.2s10.3-1.5,10.3-2.2v-4.4h1.5v4.4
			C93.4,61.1,87.2,62.2,81.6,62.2z"/>
		<path class="st4" d="M81.6,69.6c-5.7,0-11.8-1.2-11.8-3.7v-4.4h1.5v4.4c0,0.7,3.5,2.2,10.3,2.2s10.3-1.5,10.3-2.2v-4.4h1.5v4.4
			C93.4,68.4,87.2,69.6,81.6,69.6z"/>
		<path class="st4" d="M81.6,77c-5.7,0-11.8-1.2-11.8-3.7v-4.4h1.5v4.4c0,0.7,3.5,2.2,10.3,2.2s10.3-1.5,10.3-2.2v-4.4h1.5v4.4
			C93.4,75.8,87.2,77,81.6,77z"/>
		<path class="st4" d="M81.1,76.5V81H82v-4.5H81.1z M60.8,83.8h13.6v-0.9H60.8V83.8z M88.8,83.7H97v-0.9h-8.1L88.8,83.7L88.8,83.7z"
			/>
		<path class="st4" d="M75.2,80.1h12.7c0.5,0,0.9,0.4,0.9,0.9v4.5c0,0.5-0.4,0.9-0.9,0.9H75.2c-0.5,0-0.9-0.4-0.9-0.9V81
			C74.3,80.5,74.7,80.1,75.2,80.1z M75.2,81v4.5h12.7V81H75.2z"/>
	</g>
</g>
</svg>
