<?xml version="1.0" encoding="utf-8"?>
<!-- Generator: Adobe Illustrator 23.0.1, SVG Export Plug-In . SVG Version: 6.00 Build 0)  -->
<svg version="1.0" id="Layer_1" xmlns="http://www.w3.org/2000/svg" xmlns:xlink="http://www.w3.org/1999/xlink" x="0px" y="0px"
	 viewBox="0 0 70 70" enable-background="new 0 0 70 70" xml:space="preserve">
<g opacity="0.6">
	<circle fill="#FFFFFF" cx="35" cy="35" r="33.8"/>
	<path fill="#50A7E6" d="M35,1.5c18.5,0,33.5,15,33.5,33.5S53.5,68.5,35,68.5S1.5,53.5,1.5,35S16.5,1.5,35,1.5 M35,1
		C16.2,1,1,16.2,1,35s15.2,34,34,34s34-15.2,34-34S53.8,1,35,1L35,1z"/>
</g>
<g>
	<path fill="#50A7E6" d="M36.9,51.1h-3.8c-0.5,0-0.9,0.2-1.3,0.5c-0.4,0.4-0.5,0.8-0.5,1.3v3.8c0,0.5,0.2,0.9,0.5,1.3
		c0.4,0.4,0.8,0.5,1.3,0.5h3.8c0.5,0,0.9-0.2,1.3-0.5c0.4-0.4,0.5-0.8,0.5-1.3v-3.8c0-0.5-0.2-0.9-0.5-1.3
		C37.8,51.3,37.4,51.1,36.9,51.1z"/>
	<path fill="#50A7E6" d="M45.9,15.1c-1.3-1.1-2.9-2-4.8-2.6s-3.8-1-6-1c-2.5,0-4.7,0.4-6.6,1.2s-3.5,1.8-4.7,3.1
		c-1.3,1.3-2.2,2.6-2.8,4.2c-0.6,1.5-1,3-1.1,4.5c0,0.4,0.1,0.7,0.4,1c0.3,0.3,0.7,0.4,1.1,0.4h2.8c0.4,0,0.7-0.1,1.1-0.4
		c0.4-0.2,0.6-0.6,0.7-1.1c0.6-2.6,1.7-4.4,3.4-5.6c1.6-1.1,3.6-1.7,5.9-1.7c1.1,0,2.3,0.2,3.3,0.5c1.1,0.3,2,0.7,2.9,1.3
		c0.8,0.6,1.5,1.3,2,2.1s0.8,1.8,0.8,2.9c0,1.4-0.3,2.6-0.9,3.6c-0.6,1-1.3,2-2.2,2.9c-0.9,0.9-1.9,1.8-2.9,2.6
		c-1,0.9-2,1.8-2.9,2.8c-0.9,1-1.7,2.2-2.2,3.5C32.3,40.7,32,42.2,32,44v1.4c0,0.5,0.2,0.9,0.5,1.3c0.4,0.4,0.8,0.5,1.3,0.5h2.4
		c0.5,0,0.9-0.2,1.3-0.5c0.4-0.4,0.5-0.8,0.5-1.3v-0.9c0-1.5,0.3-2.8,0.9-3.9c0.6-1.1,1.3-2.1,2.2-3c0.9-0.9,1.9-1.8,2.9-2.6
		c1-0.9,2-1.8,2.9-2.8c0.9-1,1.7-2.2,2.2-3.5c0.6-1.3,0.9-2.9,0.9-4.7c0-1.8-0.4-3.4-1.1-5C48.3,17.5,47.2,16.2,45.9,15.1z"/>
</g>
<g>
	<path fill="#50A7E6" d="M35,2.5c17.9,0,32.5,14.6,32.5,32.5S52.9,67.5,35,67.5S2.5,52.9,2.5,35S17.1,2.5,35,2.5 M35,1
		C16.2,1,1,16.2,1,35s15.2,34,34,34s34-15.2,34-34S53.8,1,35,1L35,1z"/>
</g>
</svg>
