<svg xmlns="http://www.w3.org/2000/svg" xmlns:xlink="http://www.w3.org/1999/xlink" width="675" height="583" viewBox="0 0 675 583">
    <defs>
        <filter id="a" width="100%" height="100%" x="0%" y="0%" filterUnits="objectBoundingBox">
            <feGaussianBlur in="SourceGraphic"/>
        </filter>
        <filter id="b" width="100%" height="100%" x="0%" y="0%" filterUnits="objectBoundingBox">
            <feGaussianBlur in="SourceGraphic"/>
        </filter>
        <filter id="c" width="100%" height="100%" x="0%" y="0%" filterUnits="objectBoundingBox">
            <feGaussianBlur in="SourceGraphic"/>
        </filter>
        <filter id="d" width="100%" height="100%" x="0%" y="0%" filterUnits="objectBoundingBox">
            <feGaussianBlur in="SourceGraphic"/>
        </filter>
        <path id="f" d="M19.43 14.98c.04-.32.07-.64.07-.98 0-.34-.03-.66-.07-.98l2.11-1.65c.19-.15.24-.42.12-.64l-2-3.46c-.12-.22-.39-.3-.61-.22l-2.49 1c-.52-.4-1.08-.73-1.69-.98l-.38-2.65A.488.488 0 0 0 14 4h-4c-.25 0-.46.18-.49.42l-.38 2.65c-.61.25-1.17.59-1.69.98l-2.49-1c-.23-.09-.49 0-.61.22l-2 3.46c-.13.22-.07.49.12.64l2.11 1.65c-.04.32-.07.65-.07.98 0 .33.03.66.07.98l-2.11 1.65c-.19.15-.24.42-.12.64l2 3.46c.12.22.39.3.61.22l2.49-1c.52.4 1.08.73 1.69.98l.38 2.65c.03.24.24.42.49.42h4c.25 0 .46-.18.49-.42l.38-2.65c.61-.25 1.17-.59 1.69-.98l2.49 1c.23.09.49 0 .61-.22l2-3.46c.12-.22.07-.49-.12-.64l-2.11-1.65zM12 17.5c-1.93 0-3.5-1.57-3.5-3.5s1.57-3.5 3.5-3.5 3.5 1.57 3.5 3.5-1.57 3.5-3.5 3.5z"/>
        <filter id="e" width="136%" height="135%" x="-18%" y="-12.5%" filterUnits="objectBoundingBox">
            <feOffset dy="1" in="SourceAlpha" result="shadowOffsetOuter1"/>
            <feGaussianBlur in="shadowOffsetOuter1" result="shadowBlurOuter1" stdDeviation="1"/>
            <feColorMatrix in="shadowBlurOuter1" values="0 0 0 0 0 0 0 0 0 0 0 0 0 0 0 0 0 0 0.18 0"/>
        </filter>
        <filter id="g" width="100%" height="100%" x="0%" y="0%" filterUnits="objectBoundingBox">
            <feGaussianBlur in="SourceGraphic"/>
        </filter>
        <filter id="h" width="100%" height="100%" x="0%" y="0%" filterUnits="objectBoundingBox">
            <feGaussianBlur in="SourceGraphic"/>
        </filter>
        <filter id="i" width="100%" height="100%" x="0%" y="0%" filterUnits="objectBoundingBox">
            <feGaussianBlur in="SourceGraphic"/>
        </filter>
    </defs>
    <g fill="none" fill-rule="evenodd">
        <path fill="#A7C6DA" fill-opacity=".21" d="M342.5 229l53.26 30.75v61.5L342.5 352l-53.26-30.75v-61.5L342.5 229z"/>
        <path stroke="#000" stroke-dasharray="4,8" d="M342.5 219l61.92 35.75v71.5L342.5 362l-61.92-35.75v-71.5L342.5 219z" opacity=".4"/>
        <path fill="#2E4550" fill-opacity=".26" stroke="#FFF" stroke-width="3" d="M342.5 241l42.868 24.5v49L342.5 339l-42.868-24.5v-49z"/>
        <g transform="translate(96 93)">
            <circle cx="66" cy="84" r="66" fill="#A7C6DA" filter="url(#a)" opacity=".214"/>
            <path stroke="#000" stroke-dasharray="4,8" d="M51 102c28.167 0 51-22.833 51-51S79.167 0 51 0 0 22.833 0 51s22.833 51 51 51z" opacity=".4"/>
            <circle cx="50.5" cy="50.5" r="45.5" fill="#2E4550" fill-opacity=".68"/>
            <g fill="#FFF">
                <path d="M66.317 39.317h2.514v23.459h-2.514zM60.956 43.425h2.51v16h-2.51zM71.912 34.777h2.513v32.54h-2.513z"/>
            </g>
            <g fill="#FFF">
                <path d="M38.466 43.425h-2.51v16h2.51z"/>
                <path fill-rule="nonzero" d="M49.5 59.5a9 9 0 1 1 0-18 9 9 0 0 1 0 18zm0-3a6 6 0 1 0 0-12 6 6 0 0 0 0 12z"/>
                <path fill-rule="nonzero" d="M45.016 50.247c.575-2.614 3.24-4.402 6.199-4.16.39.032.688.344.665.697a.586.586 0 0 1-.012.086c-.068.308-.38.524-.738.495-2.254-.185-4.285 1.178-4.724 3.17-.076.344-.449.56-.832.48-.384-.079-.634-.423-.558-.768z"/>
                <path d="M33.683 39.317h-2.514v23.459h2.514zM28.088 34.777h-2.513v32.54h2.513z"/>
            </g>
        </g>
        <g transform="translate(43 285)">
            <circle cx="80" cy="72" r="66" fill="#A7C6DA" filter="url(#b)" opacity=".214"/>
            <path stroke="#000" stroke-dasharray="4,8" d="M51 102c28.167 0 51-22.833 51-51S79.167 0 51 0 0 22.833 0 51s22.833 51 51 51z" opacity=".4"/>
            <circle cx="50.5" cy="50.5" r="45.5" fill="#2E4550" fill-opacity=".68"/>
        </g>
        <path fill="#FFF" fill-rule="nonzero" d="M92 338.414l22.914-22.914-1.414-1.414L90.586 337z"/>
        <path stroke="#FFF" stroke-width="6" d="M116 330v20a4 4 0 0 1-4 4H78a4 4 0 0 1-4-4v-33a4 4 0 0 1 4-4h21"/>
        <path fill="#FFF" fill-rule="nonzero" d="M81.305 326.385c0 .34-.292.615-.653.615-.36 0-.652-.275-.652-.615v-5.129c0-1.246 1.071-2.256 2.392-2.256h3.956c.36 0 .652.275.652.615 0 .34-.292.616-.652.616h-3.956c-.6 0-1.087.459-1.087 1.025v5.129zM92 336.4v-8h-2v10h9.5v-2zM113.7 315v8h2v-10h-9.5v2z"/>
        <g transform="translate(179 407)">
            <circle cx="66" cy="66" r="66" fill="#A7C6DA" filter="url(#c)" opacity=".214"/>
            <path stroke="#000" stroke-dasharray="4,8" d="M51 140c28.167 0 51-22.833 51-51S79.167 38 51 38 0 60.833 0 89s22.833 51 51 51z" opacity=".4"/>
            <circle cx="50.5" cy="88.5" r="45.5" fill="#2E4550" fill-opacity=".68"/>
        </g>
        <g transform="translate(197 464.379)">
            <path stroke="#FFF" stroke-linecap="round" stroke-width="3" d="M33.146 4.337V19.12"/>
            <path fill="#FFF" fill-rule="nonzero" d="M31.646 45.337V60.12a1.5 1.5 0 1 0 3 0V45.337a1.5 1.5 0 1 0-3 0zM4.88 32.648H22.9a1.5 1.5 0 0 0 0-3H4.88a1.5 1.5 0 0 0 0 3zM45.88 32.648H63.9a1.5 1.5 0 0 0 0-3H45.88a1.5 1.5 0 0 0 0 3z"/>
            <rect width="35" height="35" x="15.5" y="15.121" stroke="#FFF" stroke-width="3" rx="4"/>
            <path fill="#FFF" fill-rule="nonzero" d="M20.305 26.006c0 .34-.292.615-.653.615-.36 0-.652-.275-.652-.615v-5.129c0-1.246 1.071-2.256 2.392-2.256h3.956c.36 0 .652.276.652.616 0 .34-.292.615-.652.615h-3.956c-.6 0-1.087.459-1.087 1.025v5.129zM9.278 25.628l-1.414-1.414-7.071 7.071 7.071 7.071 1.414-1.414-5.657-5.657zM58.657 25.626l1.414-1.415 7.071 7.071-7.07 7.071-1.415-1.414 5.657-5.657zM27.439 9.204L26 7.814 32.947.622l7.193 6.947-1.39 1.439-5.754-5.558zM27.439 54.179L26 55.568l6.947 7.193 7.193-6.946-1.39-1.439-5.754 5.557z"/>
            <path fill="#FFF" fill-rule="nonzero" d="M9.278 25.628l-1.414-1.414-7.071 7.071 7.071 7.071 1.414-1.414-5.657-5.657z"/>
        </g>
        <g transform="translate(366 411)">
            <circle cx="68.5" cy="68.5" r="68.5" fill="#A7C6DA" filter="url(#d)" opacity=".214"/>
            <path stroke="#000" stroke-dasharray="4,8" d="M101 136c28.167 0 51-22.833 51-51s-22.833-51-51-51-51 22.833-51 51 22.833 51 51 51z" opacity=".4"/>
            <circle cx="100.5" cy="84.5" r="45.5" fill="#2E4550" fill-opacity=".68" stroke="#FFF"/>
        </g>
        <path fill="#FFF" fill-rule="nonzero" d="M487.294 483.886l-13-13.177a2.35 2.35 0 0 0-1.706-.709h-22.235a2.365 2.365 0 0 0-2.353 2.364v47.272c0 1.3 1.059 2.364 2.353 2.364h35.294a2.365 2.365 0 0 0 2.353-2.364v-34.095c0-.65-.235-1.241-.706-1.655zM485 487h-14v-12.099l.12-1.901L485 487zm-34 32v-46h17.678v14.043c0 1.293.99 2.41 2.273 2.41H485V519h-34z"/>
        <path d="M456 488h24v24h-24z"/>
        <g fill-rule="nonzero" transform="translate(456 488)">
            <use fill="#000" filter="url(#e)" xlink:href="#f"/>
            <use fill="#FFF" xlink:href="#f"/>
        </g>
        <path fill="#FFF" fill-rule="nonzero" d="M454.305 482.385c0 .34-.292.615-.653.615-.36 0-.652-.275-.652-.615v-5.129c0-1.246 1.071-2.256 2.392-2.256h3.956c.36 0 .652.275.652.615 0 .34-.292.616-.652.616h-3.956c-.6 0-1.087.459-1.087 1.025v5.129z"/>
        <g>
            <g transform="translate(519 285)">
                <circle cx="66" cy="71" r="66" fill="#A7C6DA" filter="url(#g)" opacity=".214"/>
                <path stroke="#000" stroke-dasharray="4,8" d="M81 102c28.167 0 51-22.833 51-51S109.167 0 81 0 30 22.833 30 51s22.833 51 51 51z" opacity=".4"/>
                <circle cx="80.5" cy="50.5" r="45.5" fill="#2E4550" fill-opacity=".68"/>
            </g>
            <path fill="#FFF" d="M588.32 332.363c.032.091.088.137.169.137h1.296v9c0 .068.017.123.052.167a.163.163 0 0 0 .133.064h1.11a.163.163 0 0 0 .134-.064.257.257 0 0 0 .052-.166V332.5h1.296c.077 0 .133-.046.168-.137a.278.278 0 0 0-.03-.253l-2.053-2.77a.173.173 0 0 0-.14-.071c-.05 0-.094.024-.132.072l-2.025 2.77a.277.277 0 0 0-.03.252z"/>
            <g fill="#FFF" fill-rule="nonzero">
                <path d="M599.5 315a9.5 9.5 0 1 0-19 0 9.5 9.5 0 0 0 19 0zm-3 0a6.5 6.5 0 1 1-13 0 6.5 6.5 0 0 1 13 0z"/>
                <path d="M589.247 310.132c-2.614.576-4.402 3.24-4.16 6.2.032.39.344.688.697.664a.586.586 0 0 0 .086-.012c.308-.068.524-.38.495-.738-.185-2.254 1.178-4.285 3.17-4.723.344-.076.56-.45.48-.833-.079-.384-.423-.634-.768-.558zM619.247 328.132c-2.614.576-4.402 3.24-4.16 6.2.032.39.344.688.697.664a.586.586 0 0 0 .086-.012c.308-.068.524-.38.495-.738-.185-2.254 1.178-4.285 3.17-4.723.344-.076.56-.45.48-.833-.079-.384-.423-.634-.768-.558zM590.247 350.132c-2.614.576-4.402 3.24-4.16 6.2.032.39.344.688.697.664a.586.586 0 0 0 .086-.012c.308-.068.524-.38.495-.738-.185-2.254 1.178-4.285 3.17-4.723.344-.076.56-.45.48-.833-.079-.384-.423-.634-.768-.558z"/>
                <path d="M629.5 333a9.5 9.5 0 1 0-19 0 9.5 9.5 0 0 0 19 0zm-3 0a6.5 6.5 0 1 1-13 0 6.5 6.5 0 0 1 13 0zM600.5 355a9.5 9.5 0 1 0-19 0 9.5 9.5 0 0 0 19 0zm-3 0a6.5 6.5 0 1 1-13 0 6.5 6.5 0 0 1 13 0z"/>
            </g>
            <path fill="#FFF" d="M601.527 322.407c.086.018.15-.006.192-.073l.672-1.075 6.94 4.337a.223.223 0 0 0 .156.037.164.164 0 0 0 .118-.08l.576-.92a.164.164 0 0 0 .019-.142.223.223 0 0 0-.1-.123l-6.942-4.337.672-1.075c.04-.064.033-.132-.02-.205a.238.238 0 0 0-.209-.098l-3.2.369a.173.173 0 0 0-.127.08.168.168 0 0 0-.014.146l1.087 3.013a.237.237 0 0 0 .18.146z"/>
            <path fill="#FAFAFA" d="M608.386 343.422c-.057.067-.065.136-.026.204l.634 1.098-7.088 4.092a.223.223 0 0 0-.105.12.164.164 0 0 0 .014.141l.543.941a.164.164 0 0 0 .116.083c.051.01.103 0 .156-.031l7.088-4.092.634 1.097c.038.066.1.092.19.08a.238.238 0 0 0 .184-.14l1.177-2.998a.173.173 0 0 0-.011-.15.168.168 0 0 0-.122-.08l-3.17-.456a.237.237 0 0 0-.214.09z"/>
        </g>
        <g>
            <g transform="translate(277 1)">
                <circle cx="66" cy="83" r="66" fill="#A7C6DA" filter="url(#h)" opacity=".214"/>
                <path stroke="#000" stroke-dasharray="4,8" d="M66 102c28.167 0 51-22.833 51-51S94.167 0 66 0 15 22.833 15 51s22.833 51 51 51z" opacity=".4"/>
                <circle cx="65.5" cy="50.5" r="45.5" fill="#2E4550" fill-opacity=".68"/>
            </g>
            <path fill="#FFF" fill-rule="nonzero" d="M338.258 51.625c5.038 0 9.128-4.11 9.128-9.127a9.117 9.117 0 0 0-9.128-9.128c-5.037 0-9.128 4.11-9.128 9.128.043 5.018 4.134 9.127 9.128 9.127zm0-14.936a5.816 5.816 0 0 1 5.809 5.809 5.816 5.816 0 0 1-5.809 5.808 5.816 5.816 0 0 1-5.808-5.808c.044-3.193 2.64-5.809 5.808-5.809zm4.578 15.834c-.477-.125-.997-.083-1.431.166l-2.732 1.58-2.732-1.58c-.434-.25-.954-.29-1.431-.166-2.645.831-11.188 3.781-11.188 8.227 0 .914.78 1.662 1.735 1.662h27.232c.954 0 1.735-.748 1.735-1.662 0-4.446-8.543-7.396-11.188-8.227zm-14.535 6.57c1.46-1.135 3.908-2.358 6.57-3.319l2.922 1.79c.558.35 1.245.35 1.76 0l2.921-1.79c2.663.917 5.111 2.184 6.571 3.32h-20.744zm34.02 1.32c0 .757-.555 1.336-1.282 1.336h-5.732c-.727 0-1.283-.579-1.283-1.336 0-.756.556-1.335 1.283-1.335h3.807c-.642-.89-1.668-1.602-2.951-2.315a1.314 1.314 0 0 1-.514-1.78 1.25 1.25 0 0 1 1.754-.534c1.84 1.024 4.919 3.205 4.919 5.964zM354.74 47.82c.224-1.825-1.136-3.466-2.973-3.691a3.601 3.601 0 0 0-1.356.086c-.671.17-1.405-.215-1.585-.868-.18-.654.211-1.364.883-1.534a6.221 6.221 0 0 1 2.363-.173c3.29.404 5.624 3.3 5.232 6.495-.392 3.193-3.4 5.434-6.648 5.035-1.709-.21-3.246-1.114-4.204-2.495a1.192 1.192 0 0 1 .342-1.726 1.28 1.28 0 0 1 1.78.345 3.505 3.505 0 0 0 2.426 1.435c1.8.179 3.521-1.126 3.74-2.91z"/>
            <g fill-rule="nonzero">
                <path stroke="#FFF" stroke-width="3" d="M361.151 68.1c9.29 0 16.849-7.465 16.849-16.641 0-9.176-7.558-16.641-16.849-16.641-1.217 0-2.422.128-3.6.381a19.51 19.51 0 0 0-6.269-8.136c-3.432-2.592-7.535-3.963-11.866-3.963-4.229 0-8.254 1.313-11.64 3.797-3.011 2.208-5.277 5.155-6.605 8.573a16.947 16.947 0 0 0-8.373 5.464A16.545 16.545 0 0 0 309 51.46c0 9.176 7.558 16.641 16.849 16.641h35.302z"/>
                <path fill="#FFF" d="M337.152 27.133c-4.024-.54-7.892 1.869-8.996 5.603-.146.493.154 1.006.67 1.145.044.012.088.02.13.027.475.063.937-.216 1.07-.667.842-2.846 3.789-4.682 6.855-4.27.532.07 1.023-.283 1.098-.79.075-.508-.295-.977-.827-1.048z"/>
            </g>
        </g>
        <g>
            <g transform="translate(446 85)">
                <circle cx="66" cy="84" r="66" fill="#A7C6DA" filter="url(#i)" opacity=".214"/>
                <path stroke="#000" stroke-dasharray="4,8" d="M81 102c28.167 0 51-22.833 51-51S109.167 0 81 0 30 22.833 30 51s22.833 51 51 51z" opacity=".4"/>
                <circle cx="80.5" cy="50.5" r="45.5" fill="#2E4550" fill-opacity=".68"/>
            </g>
            <path d="M499 110h54v54h-54z"/>
            <path fill="#FFF" fill-rule="nonzero" d="M509.305 127.385c0 .34-.292.615-.653.615-.36 0-.652-.275-.652-.615v-5.129c0-1.246 1.071-2.256 2.392-2.256h3.956c.36 0 .652.275.652.615 0 .34-.292.616-.652.616h-3.956c-.6 0-1.087.459-1.087 1.025v5.129z"/>
            <path fill-rule="nonzero" stroke="#FFF" stroke-width="3" d="M548.929 131.286h-3.643v-9.715a4.871 4.871 0 0 0-4.857-4.857h-9.715v-3.643a6.074 6.074 0 0 0-6.071-6.071 6.074 6.074 0 0 0-6.072 6.071v3.643h-9.714c-2.671 0-4.833 2.186-4.833 4.857v9.229h3.619a6.56 6.56 0 0 1 6.557 6.557 6.56 6.56 0 0 1-6.557 6.557H504v9.229a4.871 4.871 0 0 0 4.857 4.857h9.229v-3.643a6.56 6.56 0 0 1 6.557-6.557 6.56 6.56 0 0 1 6.557 6.557V158h9.229a4.871 4.871 0 0 0 4.857-4.857v-9.714h3.643a6.074 6.074 0 0 0 6.071-6.072 6.074 6.074 0 0 0-6.071-6.071z"/>
        </g>
        <text fill="#000" font-family="Rubik-Regular, Rubik" font-size="14" transform="translate(-.5 1)">
            <tspan x="300.786" y="132">Multitenancy</tspan>
        </text>
        <text fill="#000" font-family="Rubik-Regular, Rubik" font-size="14" transform="translate(-.5 1)">
            <tspan x="460.392" y="216">Modular, customizable</tspan>
        </text>
        <text fill="#000" font-family="Rubik-Regular, Rubik" font-size="14" transform="translate(-.5 1)">
            <tspan x="94.169" y="224">Open IOT protocol</tspan>
        </text>
        <text fill="#000" font-family="Rubik-Regular, Rubik" font-size="14" transform="translate(-.5 1)">
            <tspan x="531.2" y="417">Application versioning</tspan>
        </text>
        <text fill="#000" font-family="Rubik-Regular, Rubik" font-size="14" transform="translate(-.5 1)">
            <tspan x=".916" y="416">Scalable, elastic, self-healing</tspan>
        </text>
        <text fill="#000" font-family="Rubik-Regular, Rubik" font-size="14" transform="translate(-.5 1)">
            <tspan x="406.672" y="577">Portable blueprints</tspan>
        </text>
        <text fill="#000" font-family="Rubik-Regular, Rubik" font-size="14" transform="translate(-.5 1)">
            <tspan x="151.803" y="577">Freedom of deployment</tspan>
        </text>
        <text fill="#2E4550" font-family="Rubik-Bold, Rubik" font-size="34" font-weight="bold" transform="translate(-.5 1)">
            <tspan x="311.533" y="300">Kaa</tspan>
        </text>
    </g>
</svg>
