<svg xmlns="http://www.w3.org/2000/svg" width="126" height="126" viewBox="0 0 126 126"><path fill="#303941" fill-rule="evenodd" d="M118.686 7.313C114.098 2.724 108.571.429 102.108.429H23.893c-6.463 0-11.99 2.295-16.58 6.884C2.724 11.903.429 17.43.429 23.893v78.214c0 6.463 2.295 11.99 6.884 16.58 4.59 4.59 10.117 6.885 16.58 6.885h78.214c6.463 0 11.99-2.295 16.578-6.885 4.59-4.59 6.885-10.117 6.885-16.58V23.893c0-6.463-2.295-11.991-6.884-16.58zM96.159 48.58c.055.489.082 1.221.082 2.2 0 4.563-.666 9.139-1.996 13.728-1.33 4.59-3.367 8.989-6.11 13.199a51.37 51.37 0 0 1-9.816 11.161c-3.803 3.231-8.364 5.812-13.688 7.739-5.322 1.93-11.026 2.894-17.109 2.894-9.45 0-18.195-2.554-26.234-7.658 1.304.162 2.662.244 4.074.244 7.876 0 14.964-2.444 21.265-7.333-3.693-.054-6.993-1.193-9.899-3.422-2.906-2.227-4.929-5.051-6.07-8.473 1.412.217 2.471.324 3.177.324 1.195 0 2.58-.216 4.155-.65-3.965-.762-7.305-2.729-10.021-5.907-2.716-3.177-4.074-6.803-4.074-10.876v-.163c2.878 1.357 5.594 2.063 8.147 2.118-4.943-3.314-7.414-8.066-7.414-14.258 0-3.042.787-5.92 2.362-8.636 4.291 5.269 9.506 9.478 15.643 12.628 6.137 3.15 12.71 4.916 19.716 5.296-.271-1.032-.407-2.336-.407-3.911 0-4.726 1.67-8.758 5.01-12.099 3.341-3.34 7.374-5.011 12.099-5.011 4.998 0 9.153 1.793 12.466 5.378 3.748-.706 7.389-2.092 10.918-4.155-1.357 4.181-3.884 7.359-7.576 9.532 3.529-.49 6.815-1.413 9.856-2.771a33.258 33.258 0 0 1-8.556 8.882z"/></svg>