<svg xmlns="http://www.w3.org/2000/svg" width="24" height="28" viewBox="0 0 24 28">
    <g fill="none" fill-rule="evenodd">
        <path d="M-3 0h30v30H-3z"/>
        <path fill="#50A7E6" fill-rule="nonzero" d="M12 7.5A2.5 2.5 0 0 0 14.5 5a2.38 2.38 0 0 0-.363-1.288L12 0 9.863 3.712A2.38 2.38 0 0 0 9.5 5c0 1.375 1.125 2.5 2.5 2.5zm-6.25 0A2.5 2.5 0 0 0 8.25 5a2.38 2.38 0 0 0-.363-1.288L5.75 0 3.612 3.712A2.38 2.38 0 0 0 3.25 5c0 1.375 1.125 2.5 2.5 2.5zm12.5 0a2.5 2.5 0 0 0 2.5-2.5 2.38 2.38 0 0 0-.363-1.288L18.25 0l-2.137 3.712A2.38 2.38 0 0 0 15.75 5c0 1.375 1.125 2.5 2.5 2.5zm-.5 12.488l-1.337-1.338-1.35 1.338c-1.626 1.625-4.476 1.637-6.113 0L7.613 18.65 6.25 19.988A4.293 4.293 0 0 1 3.2 21.25c-.913 0-1.75-.288-2.45-.762v5.762c0 .688.563 1.25 1.25 1.25h20c.688 0 1.25-.563 1.25-1.25v-5.762c-.7.474-1.538.762-2.45.762-1.15 0-2.238-.45-3.05-1.262zm1.75-8.738h-6.25v-2.5h-2.5v2.5H4.5A3.745 3.745 0 0 0 .75 15v1.925c0 1.35 1.1 2.45 2.45 2.45.65 0 1.275-.25 1.725-.712L7.6 16l2.662 2.663c.925.924 2.538.924 3.463 0L16.4 16l2.663 2.663a2.42 2.42 0 0 0 1.725.712c1.35 0 2.45-1.1 2.45-2.45V15a3.726 3.726 0 0 0-3.738-3.75z"/>
        <path fill="#50A7E6" fill-rule="nonzero" d="M4.5 8.75H7v2.5H4.5zM17 8.75h2.5v2.5H17z"/>
    </g>
</svg>
