<svg xmlns="http://www.w3.org/2000/svg" xmlns:xlink="http://www.w3.org/1999/xlink" width="278" height="256" viewBox="0 0 278 256">
    <defs>
        <filter id="a" width="161.5%" height="155.8%" x="-30.8%" y="-27.9%" filterUnits="objectBoundingBox">
            <feOffset dy="2" in="SourceAlpha" result="shadowOffsetOuter1"/>
            <feGaussianBlur in="shadowOffsetOuter1" result="shadowBlurOuter1" stdDeviation="2"/>
            <feColorMatrix in="shadowBlurOuter1" result="shadowMatrixOuter1" values="0 0 0 0 0 0 0 0 0 0 0 0 0 0 0 0 0 0 0.5 0"/>
            <feMerge>
                <feMergeNode in="shadowMatrixOuter1"/>
                <feMergeNode in="SourceGraphic"/>
            </feMerge>
        </filter>
        <path id="b" d="M22.268 1.277l13.281 7.622a6 6 0 0 1 3.014 5.204v15.181a6 6 0 0 1-3.014 5.204L22.268 42.11a6 6 0 0 1-5.973 0L3.014 34.488A6 6 0 0 1 0 29.284V14.103a6 6 0 0 1 3.014-5.204l13.28-7.622a6 6 0 0 1 5.974 0z"/>
        <filter id="d" width="165.2%" height="155.6%" x="-31.5%" y="-27.8%" filterUnits="objectBoundingBox">
            <feOffset dy="2" in="SourceAlpha" result="shadowOffsetOuter1"/>
            <feGaussianBlur in="shadowOffsetOuter1" result="shadowBlurOuter1" stdDeviation="2"/>
            <feColorMatrix in="shadowBlurOuter1" result="shadowMatrixOuter1" values="0 0 0 0 0 0 0 0 0 0 0 0 0 0 0 0 0 0 0.5 0"/>
            <feMerge>
                <feMergeNode in="shadowMatrixOuter1"/>
                <feMergeNode in="SourceGraphic"/>
            </feMerge>
        </filter>
        <path id="e" d="M22.07 1.297l13.07 7.547a6 6 0 0 1 3 5.196v15.094a6 6 0 0 1-3 5.196l-13.07 7.547a6 6 0 0 1-6 0L3 34.33a6 6 0 0 1-3-5.196V14.04a6 6 0 0 1 3-5.196l13.07-7.547a6 6 0 0 1 6 0z"/>
        <filter id="g" width="165.2%" height="155.6%" x="-31.5%" y="-27.8%" filterUnits="objectBoundingBox">
            <feOffset dy="2" in="SourceAlpha" result="shadowOffsetOuter1"/>
            <feGaussianBlur in="shadowOffsetOuter1" result="shadowBlurOuter1" stdDeviation="2"/>
            <feColorMatrix in="shadowBlurOuter1" result="shadowMatrixOuter1" values="0 0 0 0 0 0 0 0 0 0 0 0 0 0 0 0 0 0 0.5 0"/>
            <feMerge>
                <feMergeNode in="shadowMatrixOuter1"/>
                <feMergeNode in="SourceGraphic"/>
            </feMerge>
        </filter>
        <path id="h" d="M22.07 1.297l13.07 7.547a6 6 0 0 1 3 5.196v15.094a6 6 0 0 1-3 5.196l-13.07 7.547a6 6 0 0 1-6 0L3 34.33a6 6 0 0 1-3-5.196V14.04a6 6 0 0 1 3-5.196l13.07-7.547a6 6 0 0 1 6 0z"/>
        <filter id="j" width="165.2%" height="155.6%" x="-31.5%" y="-27.8%" filterUnits="objectBoundingBox">
            <feOffset dy="2" in="SourceAlpha" result="shadowOffsetOuter1"/>
            <feGaussianBlur in="shadowOffsetOuter1" result="shadowBlurOuter1" stdDeviation="2"/>
            <feColorMatrix in="shadowBlurOuter1" result="shadowMatrixOuter1" values="0 0 0 0 0 0 0 0 0 0 0 0 0 0 0 0 0 0 0.5 0"/>
            <feMerge>
                <feMergeNode in="shadowMatrixOuter1"/>
                <feMergeNode in="SourceGraphic"/>
            </feMerge>
        </filter>
        <path id="k" d="M22.07 1.297l13.07 7.547a6 6 0 0 1 3 5.196v15.094a6 6 0 0 1-3 5.196l-13.07 7.547a6 6 0 0 1-6 0L3 34.33a6 6 0 0 1-3-5.196V14.04a6 6 0 0 1 3-5.196l13.07-7.547a6 6 0 0 1 6 0z"/>
        <filter id="m" width="165.2%" height="155.6%" x="-31.5%" y="-27.8%" filterUnits="objectBoundingBox">
            <feOffset dy="2" in="SourceAlpha" result="shadowOffsetOuter1"/>
            <feGaussianBlur in="shadowOffsetOuter1" result="shadowBlurOuter1" stdDeviation="2"/>
            <feColorMatrix in="shadowBlurOuter1" result="shadowMatrixOuter1" values="0 0 0 0 0 0 0 0 0 0 0 0 0 0 0 0 0 0 0.5 0"/>
            <feMerge>
                <feMergeNode in="shadowMatrixOuter1"/>
                <feMergeNode in="SourceGraphic"/>
            </feMerge>
        </filter>
        <path id="n" d="M22.07 1.297l13.07 7.547a6 6 0 0 1 3 5.196v15.094a6 6 0 0 1-3 5.196l-13.07 7.547a6 6 0 0 1-6 0L3 34.33a6 6 0 0 1-3-5.196V14.04a6 6 0 0 1 3-5.196l13.07-7.547a6 6 0 0 1 6 0z"/>
        <filter id="p" width="165.2%" height="155.6%" x="-31.5%" y="-27.8%" filterUnits="objectBoundingBox">
            <feOffset dy="2" in="SourceAlpha" result="shadowOffsetOuter1"/>
            <feGaussianBlur in="shadowOffsetOuter1" result="shadowBlurOuter1" stdDeviation="2"/>
            <feColorMatrix in="shadowBlurOuter1" result="shadowMatrixOuter1" values="0 0 0 0 0 0 0 0 0 0 0 0 0 0 0 0 0 0 0.5 0"/>
            <feMerge>
                <feMergeNode in="shadowMatrixOuter1"/>
                <feMergeNode in="SourceGraphic"/>
            </feMerge>
        </filter>
        <path id="q" d="M22.07 1.297l13.07 7.547a6 6 0 0 1 3 5.196v15.094a6 6 0 0 1-3 5.196l-13.07 7.547a6 6 0 0 1-6 0L3 34.33a6 6 0 0 1-3-5.196V14.04a6 6 0 0 1 3-5.196l13.07-7.547a6 6 0 0 1 6 0z"/>
        <linearGradient id="s" x1="50%" x2="50%" y1="0%" y2="100%">
            <stop offset="0%" stop-color="#50A7E6"/>
            <stop offset="100%" stop-color="#2E4550"/>
        </linearGradient>
        <filter id="t" width="161.5%" height="155.8%" x="-30.8%" y="-27.9%" filterUnits="objectBoundingBox">
            <feOffset dy="2" in="SourceAlpha" result="shadowOffsetOuter1"/>
            <feGaussianBlur in="shadowOffsetOuter1" result="shadowBlurOuter1" stdDeviation="2"/>
            <feColorMatrix in="shadowBlurOuter1" result="shadowMatrixOuter1" values="0 0 0 0 0 0 0 0 0 0 0 0 0 0 0 0 0 0 0.5 0"/>
            <feMerge>
                <feMergeNode in="shadowMatrixOuter1"/>
                <feMergeNode in="SourceGraphic"/>
            </feMerge>
        </filter>
        <path id="u" d="M22.051 1.295l13.054 7.528a6 6 0 0 1 3.003 5.197v15.045a6 6 0 0 1-3.003 5.198L22.051 41.79a6 6 0 0 1-5.995 0L3.003 34.263A6 6 0 0 1 0 29.065V14.02a6 6 0 0 1 3.003-5.197l13.053-7.528a6 6 0 0 1 5.995 0z"/>
        <filter id="w" width="161.5%" height="155.8%" x="-30.8%" y="-27.9%" filterUnits="objectBoundingBox">
            <feOffset dy="2" in="SourceAlpha" result="shadowOffsetOuter1"/>
            <feGaussianBlur in="shadowOffsetOuter1" result="shadowBlurOuter1" stdDeviation="2"/>
            <feColorMatrix in="shadowBlurOuter1" result="shadowMatrixOuter1" values="0 0 0 0 0 0 0 0 0 0 0 0 0 0 0 0 0 0 0.5 0"/>
            <feMerge>
                <feMergeNode in="shadowMatrixOuter1"/>
                <feMergeNode in="SourceGraphic"/>
            </feMerge>
        </filter>
        <path id="x" d="M22.07 1.297l13.07 7.547a6 6 0 0 1 3 5.196v15.094a6 6 0 0 1-3 5.196l-13.07 7.547a6 6 0 0 1-6 0L3 34.33a6 6 0 0 1-3-5.196V14.04a6 6 0 0 1 3-5.196l13.07-7.547a6 6 0 0 1 6 0z"/>
        <linearGradient id="z" x1="50%" x2="50%" y1="-.001%" y2="99.998%">
            <stop offset="0%" stop-color="#FCD447"/>
            <stop offset="62.35%" stop-color="#FCD447"/>
            <stop offset="100%" stop-color="#FFDE78"/>
        </linearGradient>
        <linearGradient id="A" x1="0%" y1="50.001%" y2="50.001%">
            <stop offset="0%" stop-color="#ED2224"/>
            <stop offset="100%" stop-color="#E61E25"/>
        </linearGradient>
        <radialGradient id="D" r="50.912%" fx="50%" fy="50%" gradientTransform="matrix(0 .90418 -1 0 1 .048)">
            <stop offset="0%" stop-color="#FFF" stop-opacity=".5"/>
            <stop offset="100%" stop-opacity=".5"/>
        </radialGradient>
        <path id="B" d="M22.07 1.297l13.07 7.547a6 6 0 0 1 3 5.196v15.094a6 6 0 0 1-3 5.196l-13.07 7.547a6 6 0 0 1-6 0L3 34.33a6 6 0 0 1-3-5.196V14.04a6 6 0 0 1 3-5.196l13.07-7.547a6 6 0 0 1 6 0z"/>
        <filter id="C" width="136.7%" height="133.2%" x="-18.4%" y="-11.9%" filterUnits="objectBoundingBox">
            <feOffset dy="2" in="SourceAlpha" result="shadowOffsetOuter1"/>
            <feGaussianBlur in="shadowOffsetOuter1" result="shadowBlurOuter1" stdDeviation="2"/>
            <feColorMatrix in="shadowBlurOuter1" values="0 0 0 0 0 0 0 0 0 0 0 0 0 0 0 0 0 0 0.5 0"/>
        </filter>
        <path id="G" d="M2.417.957C1.078.957 0 2.073 0 3.46v39.01c0 1.386 1.078 2.503 2.417 2.503h37.666c1.339 0 2.417-1.117 2.417-2.504V3.46c0-1.387-1.078-2.503-2.417-2.503H2.417z"/>
        <filter id="F" width="156.5%" height="154.5%" x="-28.2%" y="-22.7%" filterUnits="objectBoundingBox">
            <feMorphology in="SourceAlpha" operator="dilate" radius="2" result="shadowSpreadOuter1"/>
            <feOffset dy="2" in="shadowSpreadOuter1" result="shadowOffsetOuter1"/>
            <feGaussianBlur in="shadowOffsetOuter1" result="shadowBlurOuter1" stdDeviation="2"/>
            <feComposite in="shadowBlurOuter1" in2="SourceAlpha" operator="out" result="shadowBlurOuter1"/>
            <feColorMatrix in="shadowBlurOuter1" values="0 0 0 0 0 0 0 0 0 0 0 0 0 0 0 0 0 0 0.5 0"/>
        </filter>
    </defs>
    <g fill="none" fill-rule="evenodd">
        <g filter="url(#a)" transform="translate(165.604 125.498)">
            <mask id="c" fill="#fff">
                <use xlink:href="#b"/>
            </mask>
            <use fill="#F9B11F" xlink:href="#b"/>
            <g mask="url(#c)">
                <path fill="#FFF" fill-rule="nonzero" d="M-4.484.108h78.022v45.877H-4.484z"/>
                <path fill="#3E73B7" fill-rule="nonzero" d="M-4.484 40.886h78.022v-5.1H-4.484v5.1zm0-10.199h78.022v-5.099H-4.484v5.1zM20.812 20.49h52.726v-5.1H20.812v5.1zm0-10.198h52.726v-5.1H20.812v5.1z"/>
                <path fill="#EAC126" d="M8.195 12.886l.213 3.763c-3.444 2.52-1.326 3.994-3.81 4.808 1.692-1.705-.518-1.705 1.387-5.545"/>
                <path fill="#292C2F" fill-rule="nonzero" d="M8.27 12.886l.214 3.763h-.152l-.29-3.763h.229zm.23 3.763v.077l-.077-.077H8.5zm0 .077c-1.83 1.336-2.058 2.365-2.271 3.103h-.214c.214-.814.519-1.92 2.347-3.257l.137.154zm-2.286 3.103c-.214.814-.366 1.336-1.54 1.704l-.076-.153c1.097-.369 1.25-.891 1.387-1.551h.229zm-1.54 1.69l-.365.153.213-.215h.076l.076.061zm-.137-.062c.732-.814.732-1.26.595-1.843h.213c.076.583.152 1.105-.655 1.92l-.153-.077zm.58-1.859c-.077-.737-.214-1.705.807-3.701l.152.076c-.96 1.997-.883 2.888-.731 3.625h-.229z"/>
                <path fill="#292C2F" fill-rule="nonzero" d="M7.021 15.758c-.884 1.552-1.097 2.734-1.173 3.702l-.214-.077c.153-.89.366-2.135 1.25-3.701l.137.076zM5.848 19.46c-.153.968-.29 1.705-1.174 2.073l-.076-.153c.808-.369.884-1.03 1.021-1.997l.229.077z"/>
                <path fill="#EAC126" d="M8.195 12.886l-.29-3.84c3.444-2.518 1.326-3.993 3.81-4.807-1.616 1.782.518 1.782-1.387 5.545"/>
                <path fill="#292C2F" fill-rule="nonzero" d="M8.057 12.886l-.213-3.763.152-.076.29 3.84h-.229zM7.83 9.108V9.03h.076l-.076.077zm0-.061c1.828-1.337 2.133-2.366 2.27-3.18l.214.077c-.214.814-.518 1.843-2.347 3.18l-.137-.077zm2.27-3.18c.214-.737.366-1.336 1.54-1.705l.076.154c-1.098.369-1.25.89-1.387 1.628l-.229-.077zm1.54-1.705l.365-.076-.213.215-.076-.077-.077-.062zm.152.154c-.732.814-.732 1.183-.58 1.782l-.213.076c-.076-.66-.152-1.106.656-1.996l.137.138zm-.58 1.766c.077.737.214 1.705-.807 3.763l-.152-.077c.96-1.996.884-2.949.731-3.624l.229-.062z"/>
                <path fill="#292C2F" fill-rule="nonzero" d="M9.292 9.922c.884-1.551 1.097-2.734 1.25-3.625h.152c-.153.968-.366 2.135-1.25 3.686l-.152-.061zm1.25-3.61c.152-1.028.213-1.704 1.096-2.15l.077.154c-.808.369-.884 1.029-1.021 1.997h-.153z"/>
                <path fill="#EAC126" d="M8.195 12.886l-3.81.215c-2.5-3.47-3.962-1.336-4.77-3.84 1.753 1.705 1.692-.445 5.501 1.398"/>
                <path fill="#292C2F" fill-rule="nonzero" d="M8.195 12.948l-3.81.292v-.215l3.733-.216.077.139zm-3.81.307l-.076-.077.076-.077v.154zm-.076-.077c-1.25-1.843-2.27-2.073-3.079-2.288v-.154c.884.215 1.905.445 3.231 2.365l-.152.077zM1.23 10.89C.5 10.675-.095 10.52-.46 9.338l.152-.076c.366 1.105.884 1.259 1.54 1.474v.154zM-.446 9.338l-.152-.291.29.215h-.077l-.06.076zm.137-.076c.808.737 1.174.66 1.753.583L1.52 10c-.655.077-1.097.153-1.981-.66l.152-.077zm1.768.583c.732-.153 1.692-.292 3.734.737l-.153.154c-1.98-.968-2.865-.814-3.52-.737l-.06-.154z"/>
                <path fill="#292C2F" fill-rule="nonzero" d="M5.269 11.765c-1.54-.968-2.713-1.106-3.597-1.26v-.214c.96.153 2.134.368 3.673 1.336l-.076.138zm-3.597-1.244c-1.02-.154-1.691-.292-2.133-1.183l.152-.076c.366.814 1.021.967 1.981 1.029v.23z"/>
                <path fill="#EAC126" d="M8.195 12.886l3.733-.292c2.5 3.472 3.962 1.398 4.77 3.84-1.753-1.628-1.692.522-5.501-1.397"/>
                <path fill="#292C2F" fill-rule="nonzero" d="M8.118 12.81l3.81-.292v.153l-3.733.292-.077-.154zm3.825-.292h.076l-.076.076v-.076zm.061 0c1.25 1.843 2.27 2.135 3.078 2.365v.154c-.883-.215-1.904-.523-3.23-2.366l.152-.153zm3.094 2.35c.731.153 1.325.291 1.691 1.55h-.152c-.366-1.105-.884-1.259-1.54-1.397v-.153zm1.676 1.566l.152.292-.29-.215.077-.077h.06zm-.137.062c-.732-.738-1.174-.66-1.753-.6l-.076-.153c.655-.154 1.097-.215 1.981.584l-.152.169zm-1.768-.584c-.731.077-1.691.215-3.672-.814l.076-.154c1.98 1.03 2.865.891 3.52.814l.076.154z"/>
                <path fill="#292C2F" fill-rule="nonzero" d="M11.06 13.992c1.539.891 2.712 1.106 3.672 1.26l-.076.153c-.884-.153-2.134-.292-3.673-1.26l.076-.153zm3.657 1.26c.96.153 1.615.215 2.057 1.182l-.152.077c-.366-.89-1.021-.968-1.981-1.106l.076-.153z"/>
                <path fill="#EAC126" d="M8.195 12.886l-2.5 2.888c-4.251-.737-3.81 1.843-6.08.66 2.423-.077.884-1.551 4.83-2.949"/>
                <path fill="#292C2F" fill-rule="nonzero" d="M8.195 12.886l-2.423 2.888-.153-.077 2.484-2.888.092.077zm-2.408 2.872l-.076.077v-.077h.076zm-.076.077c-2.195-.368-3.155.154-3.81.6l-.152-.154c.731-.446 1.691-1.03 3.962-.66v.214zm-3.81.6c-.655.368-1.173.66-2.347.076l.076-.154c1.098.523 1.54.292 2.134-.076l.137.153zm-2.347.06l-.29-.153h.366v.077l-.076.077zm.061-.138c1.097-.076 1.326-.368 1.692-.89l.152.153c-.366.522-.655.891-1.829.891v-.154h-.015zm1.692-.89c.442-.584 1.02-1.337 3.154-2.074l.076.154c-2.133.737-2.712 1.474-3.078 2.073l-.152-.153z"/>
                <path fill="#292C2F" fill-rule="nonzero" d="M5.345 14.13c-1.753.446-2.713 1.183-3.444 1.705l-.076-.153c.731-.523 1.691-1.26 3.444-1.705l.076.153zM1.9 15.835c-.808.6-1.326 1.03-2.27.66v-.153c.883.292 1.386-.077 2.194-.66l.076.153z"/>
                <path fill="#EAC126" d="M8.195 12.886L10.617 10c4.252.66 3.81-1.92 6.08-.737-2.422.076-.883 1.628-4.845 2.948"/>
                <path fill="#292C2F" fill-rule="nonzero" d="M8.118 12.81l2.423-2.888.153.154-2.5 2.81-.076-.077zm2.423-2.888h.076v.077l-.076-.077zm.076 0c2.195.369 3.155-.215 3.81-.584l.153.154c-.732.445-1.692.968-3.963.584v-.154zm3.81-.584c.732-.445 1.174-.66 2.347-.153l-.076.153c-1.097-.522-1.54-.215-2.134.154l-.137-.154zm2.347-.153l.29.153-.366.077v-.153l.076-.077zm-.076.23c-1.097 0-1.326.369-1.692.814l-.152-.077c.442-.522.655-.89 1.828-.967v.23h.016zm-1.677.799c-.441.583-1.02 1.336-3.154 2.073l-.076-.153c2.133-.66 2.712-1.475 3.078-1.997l.152.077z"/>
                <path fill="#292C2F" fill-rule="nonzero" d="M10.983 11.55c1.753-.369 2.713-1.106 3.444-1.705l.076.154c-.731.583-1.691 1.336-3.444 1.766l-.076-.215zm3.444-1.705c.808-.583 1.387-.967 2.27-.66v.153c-.883-.291-1.386.154-2.194.66l-.076-.153z"/>
                <path fill="#EAC126" d="M8.195 12.886L5.33 10.367c.655-4.285-1.905-3.84-.732-6.128.076 2.442 1.616.89 2.926 4.884"/>
                <path fill="#292C2F" fill-rule="nonzero" d="M8.118 12.948l-2.85-2.504.153-.153 2.789 2.518-.092.139zm-2.85-2.504v-.077h.077l-.076.077zm0-.077c.29-2.211-.213-3.179-.578-3.84l.152-.076c.366.737.96 1.628.58 3.916h-.153zm-.594-3.84c-.442-.66-.731-1.182-.152-2.288l.152.077c-.518 1.029-.213 1.474.153 2.15l-.153.062zM4.537 4.24l.153-.292v.292h-.153zm.137 0c.077 1.106.366 1.336.884 1.705l-.076.154c-.518-.37-.884-.66-.96-1.844h.152V4.24zm.884 1.705c.58.445 1.326 1.029 2.057 3.18l-.152.076C6.732 7.065 6 6.543 5.483 6.098l.075-.154z"/>
                <path fill="#292C2F" fill-rule="nonzero" d="M6.884 9.999c-.366-1.767-1.097-2.734-1.691-3.471l.152-.077c.579.737 1.326 1.705 1.752 3.548h-.213zM5.193 6.528c-.595-.814-.96-1.337-.656-2.289h.153c-.29.89.076 1.398.655 2.212l-.152.077z"/>
                <path fill="#EAC126" d="M8.195 12.886l2.788 2.442c-.655 4.286 1.905 3.84.732 6.129-.077-2.366-1.616-.814-2.926-4.885"/>
                <path fill="#292C2F" fill-rule="nonzero" d="M8.195 12.81l2.864 2.442-.076.153-2.865-2.442.077-.154zm2.864 2.442l.077.076-.077.077-.076-.077.076-.076zm0 .138c-.29 2.212.214 3.102.58 3.84l-.153.076c-.366-.737-.96-1.704-.579-3.993l.152.077zm.58 3.84c.441.66.73 1.182.152 2.288l-.153-.077c.519-1.029.214-1.551-.152-2.135l.152-.076zm.152 2.288l-.153.292v-.369h.077l.076.077zm-.153-.061c-.076-1.03-.365-1.337-.883-1.705l.076-.077c.518.369.884.584.96 1.766h-.153v.016zm-.868-1.705c-.58-.369-1.326-.968-2.057-3.18h.152c.732 2.074 1.463 2.658 1.981 3.103l-.076.077z"/>
                <path fill="#292C2F" fill-rule="nonzero" d="M9.444 15.682c.442 1.781 1.097 2.734 1.692 3.47l-.153.154c-.579-.814-1.326-1.766-1.691-3.548l.152-.076zm1.692 3.486c.579.814.96 1.398.655 2.365l-.153-.076c.29-.891-.076-1.398-.655-2.135l.153-.154z"/>
                <path fill="#EAC126" d="M8.195 12.886H9.81l-1.615 9.308-1.677-9.308h1.677v9.308"/>
                <path fill="#292C2F" fill-rule="nonzero" d="M8.195 12.81H9.81v.153H8.195v-.154zm1.615 0h.152v.076H9.81v-.077zm.152.076l-1.691 9.308h-.214l1.692-9.308h.213zm-1.691 9.308l-.076.445-.153-.445H8.271zm-.214 0l-1.691-9.308h.213l1.692 9.308h-.214zm-1.691-9.385h.152v.077h-.152v-.077zm.152 0H8.21v.154H6.518v-.154zm1.677 0h.076v.077h-.076v-.077zm.076 9.385h-.214v-9.308h.214v9.308z"/>
                <path fill="#EAC126" d="M8.195 12.886H6.518l1.677-9.384 1.615 9.384H8.195V3.502"/>
                <path fill="#292C2F" fill-rule="nonzero" d="M8.195 12.948H6.518v-.154H8.21v.154h-.015zm-1.677 0h-.152v-.077h.152v.077zm-.152-.062l1.691-9.384.214.077-1.692 9.307h-.213zm1.691-9.384l.153-.446.076.446H8.057zm.214 0l1.691 9.384H9.75L8.057 3.58l.214-.077zm1.691 9.446H9.81v-.077h.152v.077zm-.152 0H8.195v-.154H9.81v.154zm-1.615 0h-.153v-.077h.153v.077zm-.138-9.446h.214v9.384h-.214V3.502z"/>
                <path fill="#EAC126" d="M8.195 12.886v1.69l-9.311-1.69 9.31-1.705v1.705h-9.31"/>
                <path fill="#292C2F" fill-rule="nonzero" d="M8.27 14.576h-.213V12.87h.214v1.705zm0 0v.077h-.152l.077-.077h.076zm-.152.077l-9.234-1.705.076-.154L8.195 14.5l-.077.154zm-9.234-1.705l-.442-.077.442-.077v.154zm0-.139l9.234-1.704.077.153-9.235 1.705-.076-.154zm9.234-1.704l.153-.077v.153h-.076l-.077-.076zm.153 1.781h-.214v-1.705h.214v1.705zm0 .062h-.076v-.077h.076v.077zm-.076 0h-9.311v-.154h9.31v.154z"/>
                <path fill="#EAC126" d="M8.195 12.886v-1.705l9.234 1.705-9.234 1.69v-1.69h9.234"/>
                <path fill="#292C2F" fill-rule="nonzero" d="M8.057 11.181h.214v1.705h-.214v-1.705zm0 0v-.153l.153.077v.076h-.153zm.138-.076l9.234 1.704-.076.154-9.235-1.705.077-.153zm9.234 1.704l.442.077-.442.077v-.154zm0 .139l-9.234 1.705-.077-.154 9.235-1.705.076.154zm-9.234 1.705h-.153v-.077h.153v.077zm-.138-1.767h.214v1.705h-.214v-1.705zm0-.077h.153v.077h-.153v-.077zm.138 0h9.234v.154H8.195v-.154z"/>
                <path fill="#EAC126" d="M8.195 12.886l1.173 1.183-7.772 5.391 5.364-7.833 1.235 1.26-6.599 6.573"/>
                <path fill="#292C2F" fill-rule="nonzero" d="M8.195 12.81l1.25 1.182-.153.154-1.174-1.183.077-.154zm1.25 1.182l.075.077-.152.077v-.077l.076-.077zm-.077.138l-7.696 5.391-.076-.153 7.696-5.391.076.153zm-7.696 5.407l-.365.292.213-.446.076.077.076.077zm-.152-.154l5.349-7.756.152.077-5.349 7.833-.152-.154zm5.364-7.756l.076-.077.076.077h-.152zm.137 0l1.174 1.182-.077.154-1.25-1.26.153-.076zm1.174 1.182l.076.077-.076.077v-.154zm0 .139L1.672 19.52l-.076-.153 6.522-6.574.077.154z"/>
                <path fill="#EAC126" d="M8.195 12.886l-1.235-1.26 7.757-5.39-5.35 7.833-1.172-1.183 6.522-6.65"/>
                <path fill="#292C2F" fill-rule="nonzero" d="M8.118 12.948l-1.25-1.26.153-.077 1.174 1.183-.077.154zm-1.234-1.244v-.077h.076l-.076.077zm.076-.077l7.696-5.468.076.154-7.696 5.39-.076-.076zm7.696-5.468l.365-.215-.213.369-.076-.077-.076-.077zm.137.154l-5.349 7.833-.152-.154 5.349-7.756.152.077zM9.444 14.13l-.076.077-.076-.077.076-.076.076.076zm-.152 0l-1.174-1.182.077-.154 1.25 1.183-.153.153zm-1.174-1.182l-.076-.077.076-.077.077.077-.077.077zm0-.139l6.523-6.573.152.077-6.598 6.65-.077-.154z"/>
                <path fill="#EAC126" d="M8.195 12.886L6.96 14.07 1.596 6.236l7.772 5.39-1.173 1.26-6.599-6.65"/>
                <path fill="#292C2F" fill-rule="nonzero" d="M8.195 12.948L7.02 14.13l-.152-.153 1.25-1.183.076.154zM7.02 14.13l-.076.077-.076-.077.076-.076.076.076zm-.137 0L1.535 6.297l.153-.077 5.348 7.757-.152.153zM1.52 6.313l-.213-.369.365.215-.076.077-.076.077zm.152-.154l7.696 5.468-.076.077-7.696-5.391.076-.154zm7.696 5.468h.152l-.076.077-.076-.077zm.076.077l-1.25 1.26-.076-.155 1.174-1.182.152.077zm-1.25 1.244h-.076l.077-.077v.077zm-.076 0l-6.522-6.65.076-.078 6.523 6.574-.077.154z"/>
                <path fill="#EAC126" d="M8.195 12.886l1.173-1.26 5.349 7.834-7.757-5.391 1.235-1.183 6.522 6.574"/>
                <path fill="#292C2F" fill-rule="nonzero" d="M8.118 12.81l1.174-1.183.152.077-1.25 1.26-.076-.155zm1.174-1.183l.076-.077.076.077h-.152zm.152 0l5.349 7.756-.152.154-5.35-7.833.153-.077zm5.349 7.756l.213.446-.365-.292.076-.077.076-.077zm-.137.154L6.96 14.13l.076-.153 7.696 5.39-.076.17zM6.96 14.13l-.076-.076v-.077l.076.077v.076zm-.076-.138l1.25-1.183.076.154-1.174 1.183-.152-.154zm1.234-1.183l.077-.076v.153l-.077-.077zm.077 0l6.598 6.574-.152.154-6.523-6.574.077-.154z"/>
                <path fill="#EAC126" d="M11.273 12.886c0-1.766-1.387-3.102-3.078-3.102-1.753 0-3.155 1.336-3.155 3.102 0 1.705 1.387 3.103 3.155 3.103 1.691 0 3.078-1.413 3.078-3.103"/>
                <path fill="#292C2F" fill-rule="nonzero" d="M11.136 12.886c0-.89-.29-1.628-.884-2.135l.152-.153c.58.583.96 1.397.96 2.288h-.228zm-.884-2.15c-.518-.584-1.25-.89-2.057-.89V9.63c.807 0 1.615.369 2.194.968l-.137.138zm-2.057-.89c-.884 0-1.616.291-2.134.89l-.152-.154c.594-.583 1.386-.967 2.27-.967v.23h.016zm-2.119.89c-.579.522-.883 1.26-.883 2.135h-.214c0-.89.366-1.705.96-2.289l.137.154zm-.883 2.15c0 .814.29 1.552.883 2.135l-.152.077c-.58-.584-.96-1.336-.96-2.212h.229zm.883 2.135c.518.522 1.25.891 2.134.891v.154a3.153 3.153 0 0 1-2.27-.968l.136-.077zm2.119.891c.807 0 1.539-.369 2.057-.89l.152.076c-.594.584-1.387.968-2.194.968v-.154h-.015zm2.057-.89c.579-.584.884-1.337.884-2.136h.213c0 .891-.366 1.628-.96 2.212l-.137-.077z"/>
                <path fill="#292C2F" d="M10.404 11.627c-.152.215-.29-.154-.96-.154-.731 0-.808.369-.96.292-.076-.077.594-.584.808-.584.228-.076.884.154 1.112.446M9.597 11.842c.213.215.076.584-.153.584-.213 0-.579-.37-.366-.584"/>
                <path fill="#292C2F" d="M8.713 12.149c0-.369.29-.445.731-.445.442 0 .655.368.808.445-.153 0-.366-.292-.808-.292-.442-.015-.442-.015-.731.292"/>
                <path fill="#292C2F" d="M8.789 12.216c.076-.163.213.164.579.164.29 0 .442-.082.655-.23.153-.163-.29.394-.579.394-.29 0-.731-.246-.655-.328"/>
                <path fill="#292C2F" d="M9.734 12.364c.754-.154.314-.445 0-.522.157.077.628.368 0 .522M8.195 14.08c.152 0 .213-.088.441-.088.214 0 .732.424 1.021.247-.655.336-.365.089-1.462.089h-.153"/>
                <path fill="#292C2F" d="M9.86 14.499c-.173-.215-.086-.154-.416-.522.33.23.33.307.417.522"/>
                <path fill="#292C2F" d="M8.195 14.73c.655 0 .594-.154 1.462-.523-.655.077-.807.292-1.462.292h-.153M8.195 13.7c.152 0 .213-.153.441-.153.214 0 .519.077.656.215.076 0-.076-.215-.29-.215-.213-.077-.152-.446-.366-.522 0 .153.077.153.077.291 0 .154-.214.154-.29 0 .076.215-.152.215-.213.215M5.924 11.627c.152.215.29-.154.96-.154.731 0 .808.369.96.292.076-.077-.579-.584-.808-.584-.228-.076-.883.154-1.112.446M6.732 11.842c-.214.215-.077.584.152.584.213 0 .58-.37.366-.584"/>
                <path fill="#292C2F" d="M7.615 12.149c0-.369-.29-.445-.731-.445-.442 0-.655.368-.808.445.214 0 .366-.292.808-.292.442-.015.442-.015.731.292"/>
                <path fill="#292C2F" d="M7.54 12.216c-.077-.163-.214.164-.58.164-.29 0-.442-.082-.655-.23-.152-.163.29.394.594.394.35 0 .716-.246.64-.328"/>
                <path fill="#292C2F" d="M6.794 12.364c-.754-.154-.315-.445 0-.522-.126.077-.597.368 0 .522M8.195 14.08c-.214 0-.29-.088-.519-.088-.213 0-.731.424-1.02.247.655.336.365.089 1.539.089h.076"/>
                <path fill="#292C2F" d="M6.518 14.499c.174-.215.174-.154.417-.522-.26.23-.347.307-.417.522"/>
                <path fill="#292C2F" d="M8.195 14.73c-.732 0-.58-.154-1.54-.523.656.077.808.292 1.54.292h.076M8.195 13.7c-.214 0-.29-.153-.519-.153-.213 0-.518.077-.655.215-.076 0 .076-.215.29-.215.213-.077.152-.446.365-.522 0 .153-.076.153-.076.291 0 .154.214.154.29 0-.076.215.152.215.29.215M8.195 15.021c-.153 0-.519.212 0 .212.441 0 .076-.212 0-.212"/>
            </g>
        </g>
        <g filter="url(#d)" transform="translate(188.689 5.012)">
            <mask id="f" fill="#fff">
                <use xlink:href="#e"/>
            </mask>
            <use fill="#FAAE42" xlink:href="#e"/>
            <g fill-rule="nonzero" mask="url(#f)">
                <path fill="#C6001E" d="M-16.852.998h70.956v41.98h-70.956z"/>
                <path fill="#FFF" d="M5.696 18.045h9.05V8.868h7.76v9.177h9.05v7.87h-9.05v9.178h-7.76v-9.177h-9.05z"/>
            </g>
        </g>
        <g filter="url(#g)" transform="translate(47.172 84.332)">
            <mask id="i" fill="#fff">
                <use xlink:href="#h"/>
            </mask>
            <use fill="#F9B11F" xlink:href="#h"/>
            <g fill-rule="nonzero" mask="url(#i)">
                <path fill="#E91E26" d="M-14.191-.9H3.548v44.974h-17.74zM44.348-.9h17.74v44.974h-17.74z"/>
                <path fill="#FFF" d="M3.548-.9h40.8v44.974h-40.8z"/>
                <path fill="#E91E26" d="M23.933 5.397l-2.642 5.158c-.296.568-.83.508-1.365.194l-1.914-1.031 1.424 7.924c.297 1.45-.668 1.45-1.128.823l-3.324-3.918-.534 1.989a.637.637 0 0 1-.742.463l-4.215-.927 1.113 4.217c.237.942.416 1.33-.237 1.57l-1.5.732 7.243 6.175c.282.24.43.658.326 1.032L15.8 31.98l7.228-.867c.222 0 .593.194.593.463l-.326 8h1.217l-.193-7.985c0-.27.326-.478.549-.478l7.227.867-.638-2.183a1.022 1.022 0 0 1 .327-1.032l7.242-6.175-1.499-.732c-.653-.255-.475-.643-.237-1.57l1.098-4.217-4.215.927c-.415.06-.682-.21-.742-.463l-.534-1.989-3.324 3.918c-.475.627-1.44.627-1.128-.823l1.424-7.924-1.914 1.031c-.534.314-1.069.36-1.365-.194l-2.657-5.158z"/>
            </g>
        </g>
        <path fill="#2E4550" d="M93.273 127.27l13.07 7.359a6 6 0 0 1 3.056 5.228v14.456a6 6 0 0 1-3.056 5.228l-13.07 7.358a6 6 0 0 1-5.887 0l-13.07-7.358a6 6 0 0 1-3.056-5.228v-14.456a6 6 0 0 1 3.057-5.228l13.07-7.358a6 6 0 0 1 5.886 0z"/>
        <g filter="url(#j)" transform="translate(47.172 2)">
            <mask id="l" fill="#fff">
                <use xlink:href="#k"/>
            </mask>
            <use fill="#F9B11F" xlink:href="#k"/>
            <g mask="url(#l)">
                <path fill="#BF3636" d="M-5.302 3.65h59.764V.286H-5.302z"/>
                <path fill="#FFF" d="M-5.302 7.02h59.764V3.65H-5.302z"/>
                <path fill="#BF3636" d="M-5.302 10.385h59.764V7.02H-5.302z"/>
                <path fill="#FFF" d="M-5.302 13.756h59.764v-3.371H-5.302z"/>
                <path fill="#BF3636" d="M-5.302 17.126h59.764v-3.37H-5.302z"/>
                <path fill="#FFF" d="M-5.302 20.49h59.764v-3.364H-5.302z"/>
                <path fill="#BF3636" d="M-5.302 23.861h59.764v-3.37H-5.302z"/>
                <path fill="#FFF" d="M-5.302 27.232h59.764v-3.37H-5.302z"/>
                <path fill="#BF3636" d="M-5.302 30.596h59.764v-3.364H-5.302zM-5.302 44.072h59.764v-3.37H-5.302z"/>
                <path fill="#FFF" d="M-5.302 33.967h59.764v-3.371H-5.302z"/>
                <path fill="#BF3636" d="M-5.302 37.33h59.764v-3.363H-5.302z"/>
                <path fill="#FFF" d="M-5.302 40.701h59.764v-3.37H-5.302z"/>
                <path fill="#3C395D" d="M-5.302 23.807h32.764V.287H-5.302z"/>
                <path fill="#FFF" d="M.354 3.453l.322 1.006h1.045l-.844.625.322 1.013-.845-.626-.85.626.321-1.013-.844-.625H.026l.328-1.006M5.762 3.453l.322 1.006H7.13l-.845.625.322 1.013-.845-.626-.85.626.321-1.013-.844-.625h1.045l.328-1.006M11.17 3.453l.322 1.006h1.046l-.845.625.322 1.013-.844-.626-.852.626.322-1.013-.844-.625h1.045l.329-1.006M16.579 3.453l.321 1.006h1.046l-.845.625.322 1.013-.844-.626-.851.626.328-1.013-.851-.625h1.045l.329-1.006M21.987 3.453l.321 1.006h1.053l-.852.625.322 1.013-.844-.626-.851.626.328-1.013-.851-.625h1.045l.329-1.006M.354 8.163l.322 1.012h1.045L.877 9.8l.322 1.006-.845-.625-.85.625.321-1.006-.844-.625H.026l.328-1.012M5.762 8.163l.322 1.012H7.13l-.845.625.322 1.006-.845-.625-.85.625.321-1.006-.844-.625h1.045l.328-1.012M11.17 8.163l.322 1.012h1.046l-.845.625.322 1.006-.844-.625-.852.625.322-1.006-.844-.625h1.045l.329-1.012M16.579 8.163l.321 1.012h1.046L17.1 9.8l.322 1.006-.844-.625-.851.625.328-1.006-.851-.625h1.045l.329-1.012M21.987 8.163l.321 1.012h1.053l-.852.625.322 1.006-.844-.625-.851.625.328-1.006-.851-.625h1.045l.329-1.012M.354 12.872l.322 1.013h1.045l-.844.625.322 1.013-.845-.626-.85.626.321-1.013-.844-.625H.026l.328-1.013M5.762 12.872l.322 1.013H7.13l-.845.625.322 1.013-.845-.626-.85.626.321-1.013-.844-.625h1.045l.328-1.013M11.17 12.872l.322 1.013h1.046l-.845.625.322 1.013-.844-.626-.852.626.322-1.013-.844-.625h1.045l.329-1.013M16.579 12.872l.321 1.013h1.046l-.845.625.322 1.013-.844-.626-.851.626.328-1.013-.851-.625h1.045l.329-1.013M21.987 12.872l.321 1.013h1.053l-.852.625.322 1.013-.844-.626-.851.626.328-1.013-.851-.625h1.045l.329-1.013M.354 17.582l.322 1.012h1.045l-.844.625.322 1.013-.845-.625-.85.625.321-1.013-.844-.625H.026l.328-1.012M5.762 17.582l.322 1.012H7.13l-.845.625.322 1.013-.845-.625-.85.625.321-1.013-.844-.625h1.045l.328-1.012M11.17 17.582l.322 1.012h1.046l-.845.625.322 1.013-.844-.625-.852.625.322-1.013-.844-.625h1.045l.329-1.012M16.579 17.582l.321 1.012h1.046l-.845.625.322 1.013-.844-.625-.851.625.328-1.013-.851-.625h1.045l.329-1.012M21.987 17.582l.321 1.012h1.053l-.852.625.322 1.013-.844-.625-.851.625.328-1.013-.851-.625h1.045l.329-1.012M-2.407 1.095l.329 1.012h1.045l-.844.626.321 1.005-.85-.618-.845.618.322-1.005-.845-.626h1.046l.321-1.012M3.001 1.095l.329 1.012h1.045l-.844.626.322 1.005L3 3.12l-.844.618.322-1.005-.845-.626H2.68L3 1.095M8.41 1.095l.328 1.012h1.045l-.844.626.322 1.005-.851-.618-.845.618.322-1.005-.845-.626h1.046l.322-1.012M13.818 1.095l.328 1.012h1.045l-.844.626.322 1.005-.851-.618-.845.618.322-1.005-.844-.626h1.045l.322-1.012M19.226 1.095l.328 1.012H20.6l-.845.626.322 1.005-.851-.618-.845.618.322-1.005-.844-.626h1.045l.322-1.012M24.634 1.095l.328 1.012h1.046l-.845.626.322 1.005-.851-.618-.845.618.322-1.005-.844-.626h1.045l.322-1.012M-2.407 5.804l.329 1.013h1.045l-.844.625.321 1.013-.85-.625-.845.625.322-1.013-.845-.625h1.046l.321-1.013M3.001 5.804l.329 1.013h1.045l-.844.625.322 1.013L3 7.83l-.844.625.322-1.013-.845-.625H2.68L3 5.804M8.41 5.804l.328 1.013h1.045l-.844.625.322 1.013-.851-.625-.845.625.322-1.013-.845-.625h1.046l.322-1.013M13.818 5.804l.328 1.013h1.045l-.844.625.322 1.013-.851-.625-.845.625.322-1.013-.844-.625h1.045l.322-1.013M19.226 5.804l.328 1.013H20.6l-.845.625.322 1.013-.851-.625-.845.625.322-1.013-.844-.625h1.045l.322-1.013M24.634 5.804l.328 1.013h1.046l-.845.625.322 1.013-.851-.625-.845.625.322-1.013-.844-.625h1.045l.322-1.013M-2.407 10.52l.329 1.007h1.045l-.844.625.321 1.012-.85-.625-.845.625.322-1.012-.845-.625h1.046l.321-1.006M3.001 10.52l.329 1.007h1.045l-.844.625.322 1.012L3 12.54l-.844.625.322-1.012-.845-.625H2.68L3 10.52M8.41 10.52l.328 1.007h1.045l-.844.625.322 1.012-.851-.625-.845.625.322-1.012-.845-.625h1.046l.322-1.006M13.818 10.52l.328 1.007h1.045l-.844.625.322 1.012-.851-.625-.845.625.322-1.012-.844-.625h1.045l.322-1.006M19.226 10.52l.328 1.007H20.6l-.845.625.322 1.012-.851-.625-.845.625.322-1.012-.844-.625h1.045l.322-1.006M24.634 10.52l.328 1.007h1.046l-.845.625.322 1.012-.851-.625-.845.625.322-1.012-.844-.625h1.045l.322-1.006M-2.407 15.23l.329 1.013h1.045l-.844.625.321 1.006-.85-.625-.845.625.322-1.006-.845-.625h1.046l.321-1.013M3.001 15.23l.329 1.013h1.045l-.844.625.322 1.006L3 17.249l-.844.625.322-1.006-.845-.625H2.68L3 15.23M8.41 15.23l.328 1.013h1.045l-.844.625.322 1.006-.851-.625-.845.625.322-1.006-.845-.625h1.046l.322-1.013M13.818 15.23l.328 1.013h1.045l-.844.625.322 1.006-.851-.625-.845.625.322-1.006-.844-.625h1.045l.322-1.013M19.226 15.23l.328 1.013H20.6l-.845.625.322 1.006-.851-.625-.845.625.322-1.006-.844-.625h1.045l.322-1.013M24.634 15.23l.328 1.013h1.046l-.845.625.322 1.006-.851-.625-.845.625.322-1.006-.844-.625h1.045l.322-1.013M-2.407 19.94l.329 1.012h1.045l-.844.626.321 1.012-.85-.625-.845.625.322-1.012-.845-.626h1.046l.321-1.012M3.001 19.94l.329 1.012h1.045l-.844.626.322 1.012L3 21.965l-.844.625.322-1.012-.845-.626H2.68L3 19.94M8.41 19.94l.328 1.012h1.045l-.844.626.322 1.012-.851-.625-.845.625.322-1.012-.845-.626h1.046l.322-1.012M13.818 19.94l.328 1.012h1.045l-.844.626.322 1.012-.851-.625-.845.625.322-1.012-.844-.626h1.045l.322-1.012M19.226 19.94l.328 1.012H20.6l-.845.626.322 1.012-.851-.625-.845.625.322-1.012-.844-.626h1.045l.322-1.012M24.634 19.94l.328 1.012h1.046l-.845.626.322 1.012-.851-.625-.845.625.322-1.012-.844-.626h1.045l.322-1.012"/>
            </g>
        </g>
        <path fill="#2E4550" d="M93.273 47.95l13.07 7.359a6 6 0 0 1 3.056 5.228v14.456a6 6 0 0 1-3.056 5.229l-13.07 7.357a6 6 0 0 1-5.887 0l-13.07-7.357a6 6 0 0 1-3.056-5.229V60.537a6 6 0 0 1 3.057-5.228l13.07-7.358a6 6 0 0 1 5.886 0zM46.101 47.95l13.07 7.359a6 6 0 0 1 3.056 5.228v14.456a6 6 0 0 1-3.056 5.229L46.1 87.579a6 6 0 0 1-5.887 0l-13.07-7.357a6 6 0 0 1-3.056-5.229V60.537a6 6 0 0 1 3.056-5.228l13.07-7.358a6 6 0 0 1 5.887 0zM22.013 85.1l13.07 7.359a6 6 0 0 1 3.056 5.228v14.456a6 6 0 0 1-3.056 5.228l-13.07 7.358a6 6 0 0 1-5.887 0l-13.07-7.358A6 6 0 0 1 0 112.143V97.687a6 6 0 0 1 3.057-5.228l13.07-7.358a6 6 0 0 1 5.886 0zM46.101 127.27l13.07 7.359a6 6 0 0 1 3.056 5.228v14.456a6 6 0 0 1-3.056 5.228L46.1 166.9a6 6 0 0 1-5.887 0l-13.07-7.358a6 6 0 0 1-3.056-5.228v-14.456a6 6 0 0 1 3.056-5.228l13.07-7.358a6 6 0 0 1 5.887 0zM116.357 85.1l13.07 7.359a6 6 0 0 1 3.057 5.228v14.456a6 6 0 0 1-3.057 5.228l-13.07 7.358a6 6 0 0 1-5.887 0l-13.07-7.358a6 6 0 0 1-3.056-5.228V97.687a6 6 0 0 1 3.057-5.228l13.07-7.358a6 6 0 0 1 5.886 0zM116.357 4.777l13.07 7.358a6 6 0 0 1 3.057 5.228v14.456a6 6 0 0 1-3.057 5.229l-13.07 7.357a6 6 0 0 1-5.887 0L97.4 37.048a6 6 0 0 1-3.056-5.229V17.363a6 6 0 0 1 3.057-5.228l13.07-7.358a6 6 0 0 1 5.886 0zM210.702 169.44l13.07 7.359a6 6 0 0 1 3.056 5.228v14.456a6 6 0 0 1-3.057 5.229l-13.07 7.357a6 6 0 0 1-5.886 0l-13.07-7.357a6 6 0 0 1-3.056-5.229v-14.456a6 6 0 0 1 3.056-5.228l13.07-7.358a6 6 0 0 1 5.887 0zM93.273 209.603l13.07 7.358a6 6 0 0 1 3.056 5.228v14.456a6 6 0 0 1-3.056 5.228l-13.07 7.358a6 6 0 0 1-5.887 0l-13.07-7.358a6 6 0 0 1-3.056-5.228V222.19a6 6 0 0 1 3.057-5.228l13.07-7.358a6 6 0 0 1 5.886 0z"/>
        <g filter="url(#m)" transform="translate(48.176 167.668)">
            <mask id="o" fill="#fff">
                <use xlink:href="#n"/>
            </mask>
            <use fill="#F9B11F" xlink:href="#n"/>
            <g fill-rule="nonzero" mask="url(#o)">
                <path fill="#324095" d="M-16.409.1H7.544v42.504H-16.41z"/>
                <path fill="#F4F4F4" d="M7.544.1h23.952v42.504H7.544z"/>
                <path fill="#D81E34" d="M31.482.1h23.953v42.504H31.482z"/>
            </g>
        </g>
        <path fill="#2E4550" d="M233.786 47.95l13.07 7.359a6 6 0 0 1 3.056 5.228v14.456a6 6 0 0 1-3.056 5.229l-13.07 7.357a6 6 0 0 1-5.887 0l-13.07-7.357a6 6 0 0 1-3.056-5.229V60.537a6 6 0 0 1 3.056-5.228l13.07-7.358a6 6 0 0 1 5.887 0zM162.526 167.433l13.07 7.358a6 6 0 0 1 3.056 5.228v14.456a6 6 0 0 1-3.057 5.228l-13.07 7.358a6 6 0 0 1-5.886 0l-13.07-7.358a6 6 0 0 1-3.056-5.228v-14.456a6 6 0 0 1 3.056-5.228l13.07-7.358a6 6 0 0 1 5.887 0zM116.357 167.433l13.07 7.358a6 6 0 0 1 3.057 5.228v14.456a6 6 0 0 1-3.057 5.228l-13.07 7.358a6 6 0 0 1-5.887 0l-13.07-7.358a6 6 0 0 1-3.056-5.228v-14.456a6 6 0 0 1 3.057-5.228l13.07-7.358a6 6 0 0 1 5.886 0zM140.445 209.603l13.07 7.358a6 6 0 0 1 3.056 5.228v14.456a6 6 0 0 1-3.056 5.228l-13.07 7.358a6 6 0 0 1-5.887 0l-13.07-7.358a6 6 0 0 1-3.056-5.228V222.19a6 6 0 0 1 3.057-5.228l13.07-7.358a6 6 0 0 1 5.886 0z"/>
        <g filter="url(#p)" transform="translate(235.86 84.332)">
            <mask id="r" fill="#fff">
                <use xlink:href="#q"/>
            </mask>
            <use fill="#FAAE42" xlink:href="#q"/>
            <g fill-rule="nonzero" mask="url(#r)">
                <path fill="#032774" d="M43.562 8.857C36.575-.359 25.61-6.296 13.304-6.296 1-6.296-9.966-.36-16.939 8.857c-.477.62-.938 1.27-1.385 1.934-.432.65-.85 1.314-1.237 1.994-.268.454-.521.907-.76 1.375-.134.227-.238.453-.357.68a35.35 35.35 0 0 0-.88 1.858 28.526 28.526 0 0 0-.655 1.556 36.518 36.518 0 0 0-1.475 4.7 26.216 26.216 0 0 0-.357 1.555 40.628 40.628 0 0 0-.581 3.853 40.51 40.51 0 0 0-.179 2.704c-.015.453-.03.876-.03 1.315 0 8.853 2.95 17.011 7.896 23.523C-9.966 65.104 1 71.057 13.304 71.057c12.306 0 23.271-5.952 30.244-15.153 4.96-6.527 7.896-14.685 7.896-23.523 0-8.839-2.935-17.012-7.882-23.524z"/>
                <path fill="#032774" d="M-17.115 24.6l-7.514 3.823c.133-1.29.325-2.579.575-3.823h6.939zM-8.187 9.04v7.12l-10.21-5.217c.428-.66.884-1.289 1.37-1.918h8.84v.015zM-17.115 16.82h-4.479c.266-.63.56-1.244.87-1.844l3.609 1.844zM18.582 16.82v-5.187L8.387 16.82zM13.426 9.025H-.541v7.12zM18.582 29.772V24.6H8.387zM-22.154 32.38h13.967v-7.12zM-.54 32.38h13.966L-.541 25.26z"/>
                <path fill="#FFF" d="M18.582 11.633L8.387 16.835h10.195V24.6H8.387l10.195 5.187v.885L6.663 24.6H3.245l15.293 7.78h-5.112L-.556 25.26v7.12h-7.631v-7.12l-13.967 7.12h-1.723l15.292-7.78h-3.418l-12.802 6.506c.03-.9.088-1.799.176-2.683l7.514-3.823h-6.939c.103-.524.236-1.05.354-1.544a37.188 37.188 0 0 1 1.458-4.662c.206-.525.413-1.05.648-1.544h4.479l-3.61-1.844c.118-.24.236-.45.354-.675l4.95 2.519h3.433l-7.632-3.898c.384-.674.796-1.334 1.223-1.979l10.21 5.202v-7.12h7.631v7.12l13.982-7.12h1.709l-15.293 7.78h3.433l15.292-7.78h.03v2.578h-.015z"/>
                <path fill="#DF0333" d="M-11.988 16.82h-3.433l-4.95-2.519c.236-.464.486-.914.751-1.364l7.632 3.883zM3.245 24.6l15.293 7.78h.044v-1.723L6.678 24.6zM-.173 16.82H3.26l15.307-7.795h-3.432zM-8.585 24.6l-15.292 7.78h-.958c0-.434.015-.854.03-1.274l12.802-6.506h3.418z"/>
                <path fill="#DF0333" d="M18.582 18.379v4.662H-2.073v9.34h-4.582v-9.34H-23.7a37.188 37.188 0 0 1 1.458-4.662H-6.67v-9.34h4.582v9.34h20.67z"/>
                <path fill="#FFF" d="M-3.991 47.194l-2.954 3.176.527-4.391-4.225-.426 3.64-2.294-2.325-3.707 3.992 1.52 1.345-4.194 1.345 4.193 3.991-1.52-2.31 3.708 3.626 2.294-4.225.426.54 4.39zM33.26 49.791l-1.38 1.478.256-2.054-1.98-.192 1.695-1.064-1.082-1.73 1.865.71.627-1.966.626 1.966 1.866-.71-1.082 1.73 1.694 1.064-1.98.192.257 2.054zM25.278 30.9l-1.381 1.48.242-2.044-1.965-.207 1.695-1.067-1.083-1.733 1.866.71.626-1.955.627 1.956 1.865-.711-1.082 1.733 1.695 1.067-1.98.207.257 2.045zM33.26 17.419l-1.38 1.47.242-2.05-1.965-.193 1.68-1.069-1.068-1.737 1.865.713.627-1.96.626 1.96 1.866-.713-1.082 1.737 1.694 1.07-1.98.192.243 2.05zM43.904 27.301l-1.38 1.482.241-2.045-1.965-.192 1.695-1.082-1.083-1.718 1.866.696.626-1.955.627 1.955 1.851-.696-1.068 1.718 1.695 1.082-1.98.192.257 2.045zM38.132 35.205l-1.085.773.348-1.352-1.03-.878 1.322-.06.445-1.307.46 1.308 1.321.06-1.03.877.348 1.352z"/>
            </g>
        </g>
        <path fill="url(#s)" d="M233.786 125.27l13.07 7.359a6 6 0 0 1 3.056 5.228v14.456a6 6 0 0 1-3.056 5.228l-13.07 7.358a6 6 0 0 1-5.887 0l-13.07-7.358a6 6 0 0 1-3.056-5.228v-14.456a6 6 0 0 1 3.056-5.228l13.07-7.358a6 6 0 0 1 5.887 0zM210.702 83.1l13.07 7.359a6 6 0 0 1 3.056 5.228v14.456a6 6 0 0 1-3.057 5.228l-13.07 7.358a6 6 0 0 1-5.886 0l-13.07-7.358a6 6 0 0 1-3.056-5.228V95.687a6 6 0 0 1 3.056-5.228l13.07-7.358a6 6 0 0 1 5.887 0z" transform="translate(0 2)"/>
        <g filter="url(#t)" transform="translate(165.604 206.826)">
            <mask id="v" fill="#fff">
                <use xlink:href="#u"/>
            </mask>
            <use fill="#F9B11F" xlink:href="#u"/>
            <g fill-rule="nonzero" mask="url(#v)">
                <path fill="#ED1C24" d="M19.911-.898c-9.654 0-17.841 6.402-20.74 15.279h41.482C37.753 5.504 29.566-.898 19.911-.898zM19.911 43.983c9.655 0 17.843-6.401 20.742-15.278H-.83c2.9 8.877 11.087 15.278 20.741 15.278z"/>
                <path fill="#F9F9F9" d="M42.539 21.543c0-2.504-.406-4.91-1.144-7.162H-.63a22.948 22.948 0 0 0-1.143 7.162c0 2.503.405 4.91 1.143 7.162h42.024a22.945 22.945 0 0 0 1.144-7.162z"/>
            </g>
        </g>
        <path fill="url(#s)" d="M162.526 83.1l13.07 7.359a6 6 0 0 1 3.056 5.228v14.456a6 6 0 0 1-3.057 5.228l-13.07 7.358a6 6 0 0 1-5.886 0l-13.07-7.358a6 6 0 0 1-3.056-5.228V95.687a6 6 0 0 1 3.056-5.228l13.07-7.358a6 6 0 0 1 5.887 0zM162.526 3.78l13.07 7.359a6 6 0 0 1 3.056 5.228v14.456a6 6 0 0 1-3.057 5.229l-13.07 7.357a6 6 0 0 1-5.886 0l-13.07-7.357a6 6 0 0 1-3.056-5.229V16.367a6 6 0 0 1 3.056-5.228l13.07-7.358a6 6 0 0 1 5.887 0z" transform="translate(0 2)"/>
        <g filter="url(#w)" transform="translate(118.432 126.502)">
            <mask id="y" fill="#fff">
                <use xlink:href="#x"/>
            </mask>
            <use fill="#FAAE42" xlink:href="#x"/>
            <g fill-rule="nonzero" mask="url(#y)">
                <path fill="#1A1A1A" d="M18.625-2.698c-10.32 0-19.072 6.783-22.173 16.19H40.8c-3.1-9.407-11.853-16.19-22.175-16.19z"/>
                <path fill="url(#z)" d="M23.06 47.671c10.322 0 19.074-6.782 22.175-16.19H.887c3.1 9.408 11.853 16.19 22.173 16.19z" transform="translate(-4.435 -2.698)"/>
                <path fill="url(#A)" d="M47.009 23.837c0-2.674-.431-5.243-1.213-7.647H1.213A24.654 24.654 0 0 0 0 23.837c0 2.673.43 5.242 1.213 7.644h44.583a24.655 24.655 0 0 0 1.213-7.644z" transform="translate(-4.435 -2.698)"/>
            </g>
        </g>
        <path fill="url(#s)" d="M187.617 45.95l13.07 7.359a6 6 0 0 1 3.057 5.228v14.456a6 6 0 0 1-3.057 5.229l-13.07 7.357a6 6 0 0 1-5.886 0l-13.07-7.357a6 6 0 0 1-3.057-5.229V58.537a6 6 0 0 1 3.057-5.228l13.07-7.358a6 6 0 0 1 5.886 0z" transform="translate(0 2)"/>
        <g transform="translate(118.432 46.178)">
            <mask id="E" fill="#fff">
                <use xlink:href="#B"/>
            </mask>
            <use fill="#000" filter="url(#C)" xlink:href="#B"/>
            <use fill="#FAAE42" xlink:href="#B"/>
            <use fill="url(#D)" xlink:href="#B"/>
            <g fill-rule="nonzero" mask="url(#E)">
                <g transform="translate(-3.548)">
                    <use fill="#000" filter="url(#F)" xlink:href="#G"/>
                    <use fill="#00247D" stroke="#979797" xlink:href="#G"/>
                </g>
                <path fill="#CF142B" d="M-2.624 7.678v3.88l18.438 10.929-18.438 10.927v3.88l21.712-12.867L40.8 37.295v-3.88L22.362 22.486 40.8 11.559v-3.88L19.088 20.545z"/>
                <path fill="#CF142B" d="M15.354 0v18.62H-2.624v7.734h17.978v18.619h7.468v-18.62H40.8V18.62H22.822V0H19.22z"/>
                <path fill="#FFF" d="M14.628 0v16.994L-2.624 6.678v1.737l15.808 9.452H9.542l-12.166-7.274v1.737l9.261 5.537h-9.26v1.504h16.19c.989 0 1.594-.043 2.513-.043V0h-1.452zm7.468 0v19.378c.886 0 1.713-.007 2.513-.007H40.8v-1.504h-9.26l9.26-5.537v-1.737l-12.165 7.274h-3.643L40.8 8.415V6.678L23.548 16.994V0h-1.452zM16.08 25.62c-.837 0-1.713-.018-2.513-.018H-2.624v1.504h9.26l-9.26 5.537v1.737l12.166-7.274h3.642l-15.808 9.452v1.737l17.252-10.316v16.994h1.452V25.62zm6.016 0V44.973h1.452V27.979L40.8 38.295v-1.737l-15.808-9.452h3.643L40.8 34.38v-1.737l-9.26-5.537h9.26v-1.504H24.61c-.918 0-2.513.018-2.513.018z"/>
            </g>
        </g>
    </g>
</svg>
