<svg xmlns="http://www.w3.org/2000/svg" width="391" height="69" viewBox="0 0 391 69"><g fill="none" fill-rule="evenodd"><path fill="#444" fill-rule="nonzero" d="M64.873 40.648V30.344a.393.393 0 0 0-.395-.396H54.192a.392.392 0 0 0-.395.396v10.304a.393.393 0 0 0 .395.396h10.286a.382.382 0 0 0 .395-.396z"/><path fill="#FAAE42" fill-rule="nonzero" d="M64.873 13.7V3.396A.393.393 0 0 0 64.478 3H54.193a.392.392 0 0 0-.396.396V13.7a.393.393 0 0 0 .396.396h10.285a.392.392 0 0 0 .395-.396z"/><path fill="#444" fill-rule="nonzero" d="M64.873 53.352v-9.739a.366.366 0 0 0-.11-.265.382.382 0 0 0-.27-.109h-9.93a.382.382 0 0 0-.271.109.367.367 0 0 0-.111.265v9.739a.376.376 0 0 0 .381.374h9.93a.385.385 0 0 0 .381-.374zM10.693 40.06v-9.738c0-.1-.04-.195-.111-.265a.382.382 0 0 0-.27-.109H.381a.382.382 0 0 0-.271.109.367.367 0 0 0-.111.265v9.738c0 .1.04.195.11.266.073.07.17.109.271.108h9.93a.374.374 0 0 0 .273-.106.359.359 0 0 0 .108-.268zm0 13.292v-9.739c0-.1-.04-.195-.111-.265a.382.382 0 0 0-.27-.109H.381a.382.382 0 0 0-.271.109.367.367 0 0 0-.111.265v9.739a.376.376 0 0 0 .381.374h9.93a.385.385 0 0 0 .381-.374z"/><path fill="#444" fill-rule="nonzero" d="M11.076 13.7V3.396A.393.393 0 0 0 10.68 3H.395A.392.392 0 0 0 0 3.396V13.7a.393.393 0 0 0 .395.396h10.286a.392.392 0 0 0 .395-.396z" opacity=".6"/><path fill="#444" fill-rule="nonzero" d="M10.692 27.476v-9.832a.375.375 0 0 0-.11-.268.38.38 0 0 0-.27-.11H.381a.38.38 0 0 0-.271.11.373.373 0 0 0-.111.268v9.832c0 .1.04.196.11.267a.38.38 0 0 0 .271.11h9.93a.387.387 0 0 0 .381-.377zm54.181 40.139v-9.832a.375.375 0 0 0-.11-.268.38.38 0 0 0-.27-.11h-9.93a.38.38 0 0 0-.271.11.373.373 0 0 0-.111.268v9.832c0 .1.04.196.11.267a.38.38 0 0 0 .271.11h9.93a.387.387 0 0 0 .381-.377zm-13.537 0v-9.832a.38.38 0 0 0-.111-.268.38.38 0 0 0-.27-.11h-9.93a.38.38 0 0 0-.271.11.373.373 0 0 0-.11.268v9.832c-.002.1.038.196.11.267a.38.38 0 0 0 .27.11h9.915a.39.39 0 0 0 .397-.377zm-13.553 0v-9.832c0-.1-.04-.197-.11-.268a.38.38 0 0 0-.271-.11h-9.93a.38.38 0 0 0-.27.11.373.373 0 0 0-.112.268v9.832c0 .1.04.196.111.267a.38.38 0 0 0 .27.11h9.93a.387.387 0 0 0 .382-.377zm-27.09 0v-9.832a.38.38 0 0 0-.111-.268.38.38 0 0 0-.27-.11H.381a.38.38 0 0 0-.271.11.373.373 0 0 0-.111.268v9.832c0 .1.04.196.11.267a.38.38 0 0 0 .271.11h9.93a.387.387 0 0 0 .381-.377zm13.537 0v-9.832a.375.375 0 0 0-.11-.268.38.38 0 0 0-.271-.11h-9.93a.38.38 0 0 0-.27.11.373.373 0 0 0-.111.268v9.832c0 .1.039.196.11.267a.38.38 0 0 0 .271.11h9.93a.38.38 0 0 0 .27-.11.373.373 0 0 0 .111-.267z"/><path fill="#444" fill-rule="nonzero" d="M37.975 13.7V3.396A.393.393 0 0 0 37.58 3H27.294a.392.392 0 0 0-.395.396V13.7a.393.393 0 0 0 .395.396H37.58a.392.392 0 0 0 .395-.396z" opacity=".2"/><path fill="#444" fill-rule="nonzero" d="M25.316 13.7V3.396A.393.393 0 0 0 24.921 3H14.636a.392.392 0 0 0-.395.396V13.7a.393.393 0 0 0 .395.396H24.92a.382.382 0 0 0 .395-.396z" opacity=".4"/><path d="M305.38 64.444V35.081a.37.37 0 0 0-.113-.268.392.392 0 0 0-.276-.11h-32.45a.392.392 0 0 0-.276.11.37.37 0 0 0-.113.268v29.363c0 .1.04.197.113.268.073.071.172.11.276.11h32.45a.392.392 0 0 0 .276-.11.37.37 0 0 0 .113-.268z"/><path fill="#FAAE42" fill-rule="nonzero" d="M117.37 44.898l14.86-14.95h13.502L126.824 48.97l18.908 19.022H132.23l-14.86-14.95h-10.8v14.95H95.773V29.948h10.799v14.95h10.798zm32.41-14.847l39.161-.103c6.298 0 9.45 2.72 9.454 8.159v29.885h-39.16c-6.299 0-9.45-2.72-9.455-8.159v-9.54c0-5.41 3.156-8.13 9.454-8.13h28.392l-.03-2.719c0-.911-.438-1.352-1.329-1.352H149.78V30.05zm12.128 20.242c-.877 0-1.33.47-1.33 1.411v6.762c0 .912.453 1.353 1.345 1.353h25.688l-.029-9.511-25.674-.015zm41.894-20.242l39.161-.103c6.298 0 9.45 2.72 9.455 8.159v29.885h-39.162c-6.298 0-9.45-2.72-9.454-8.159v-9.54c0-5.41 3.156-8.13 9.454-8.13h28.392l-.029-2.719c0-.911-.438-1.352-1.33-1.352h-36.487V30.05zm12.128 20.242c-.876 0-1.33.47-1.33 1.411v6.762c0 .912.454 1.353 1.345 1.353h25.689l-.015-9.497-25.689-.029z"/><path fill="#444" fill-rule="nonzero" d="M275.92 30.036v37.956h-10.844V30.036h10.844zm14.922 37.956c-6.324 0-9.488-2.713-9.493-8.14V38.161c0-5.426 3.164-8.14 9.493-8.14h29.86c6.325 0 9.494 2.714 9.509 7.964l-.03 21.691c-.014 5.588-3.169 8.301-9.478 8.301h-29.86v.015zm2.686-29.802c-.88 0-1.336.455-1.336 1.35v18.948c0 .91.44 1.35 1.336 1.35l24.46-.03c.91 0 1.35-.454 1.35-1.349V39.525c0-.91-.455-1.35-1.35-1.35l-24.46.015zM379 30.007v8.154h-16.243v29.816h-10.873l-.03-29.816-16.243.03v-8.243l43.389.059z"/><path fill="#0A0B09" d="M89.803 66.212V34.381c.418-.131 2.195-.183 3.56-1.11 1.082-.734 2.476-2.676 2.511-3.818.081-2.584-.775-4.36-2.51-6.999-1.256-1.909-2.805-2.545-3.56-1.909-.757.636-.434 1.888 0 2.545 1.677 2.545 2.932 3.818 2.735 5.727-.292 2.839-4.576 1.99-4.945 2.048a5.613 5.613 0 0 1-.413.05c-.15.006-.212.01-.273.018h-7.465c-.08 0-.159.007-.236.017a1.819 1.819 0 0 0-.834.155c-.133.063-2.272 1.021-4.458 3.276-2.183 2.24-4.397 5.877-4.387 10.962 0 .138 0 .283.005.435.003.109.018.214.04.316-1.524.693-2.57 2.297-2.573 4.134a4.69 4.69 0 0 0 .67 2.415v8.277h7.151v-8.277a4.69 4.69 0 0 0 .67-2.415c-.003-1.783-.99-3.342-2.44-4.066.04-.153.06-.314.056-.48-.003-.108-.004-.22-.004-.339.01-4.092 1.696-6.78 3.414-8.575.407-.42.814-.784 1.2-1.095v30.54c0 1.486 1.236 2.69 2.762 2.69s2.763-1.204 2.763-2.69V49.178h1.036v17.033c0 1.487 1.237 2.69 2.763 2.69 1.525 0 2.762-1.203 2.762-2.69zM74.597 50.228c0 .327-.043.642-.118.943h-6.467a3.895 3.895 0 0 1-.118-.943c0-1.014.384-1.926.996-2.58a3.36 3.36 0 0 1 1.082-.775 1.805 1.805 0 0 0 1.397.598 1.804 1.804 0 0 0 1.253-.548c.363.178.696.422.98.725.61.654.995 1.566.995 2.58z"/><path fill="#0A0B09" d="M88.948 25.334c.614-2.67-1.025-5.34-3.66-5.962-2.634-.622-5.267 1.04-5.88 3.71-.614 2.67 1.025 5.34 3.66 5.961 2.634.622 5.267-1.039 5.88-3.71z"/><path fill="#F9B11F" d="M84.178 18c2.132 0 4.409 1.117 4.899 4.47-4.41 1.117-9.798 0-9.798 0s.49-4.47 4.899-4.47z"/><path fill="#000" d="M83.55 18h1.225v2.483H83.55z"/><g><path fill="#000" d="M235.254 16.93c1.173-.706 2.409-1.768 3.45-3.305 1.044-1.536 1.887-3.537 2.342-6.088a1.589 1.589 0 1 0-3.128-.56c-.39 2.171-1.072 3.724-1.843 4.861-1.156 1.7-2.532 2.514-3.642 2.942a6.934 6.934 0 0 1-1.364.372c-.164.027-.29.04-.366.046-.134.006-7.02.023-7.09.032-.246-.012-.5.032-.74.142-.119.057-2.02.933-3.964 2.993-1.94 2.046-3.908 5.37-3.9 10.016 0 .126-.222 1.618 1.478 1.618s1.708-1.156 1.704-1.308c-.003-.1-.003-.202-.003-.31.008-3.739 1.508-6.196 3.035-7.835.361-.384.724-.716 1.066-1-.71 7.075-1.066 10.828-1.066 11.258 0 .645 1.066.645 1.066 1.082v9.978c0 1.358 1.382 2.01 2.738 2.01 1.357 0 2.174-.652 2.174-2.01v-9.978h.92l-.085 9.978c0 1.358 1.31 2.01 2.667 2.01 1.356 0 2.346-.604 2.346-2.01 0-3.193-.041-3.817-.053-9.953 0-.34 1.057-.768 1.056-1.107 0-.34-1.05-8.465-1.003-11.259.03-1.708 2.067-2.533 2.205-2.615z"/><path fill="#000" d="M226.511 13.591a4.51 4.51 0 0 0 5.417-3.38 4.524 4.524 0 0 0-3.37-5.431 4.512 4.512 0 0 0-5.418 3.38 4.525 4.525 0 0 0 3.371 5.431"/><path fill="#F9B11F" d="M227.534 3.655c2.183 0 4.513 1.006 5.014 4.022-4.512 1.006-10.027 0-10.027 0s.5-4.022 5.013-4.022z"/><path fill="#000" d="M227.033 3.655h1.003v2.011h-1.003z"/><path stroke="#212121" stroke-width=".5" d="M227.033 31.744c-.38-1.16-1.321-1.982-2.42-1.982-1.057 0-1.965.757-2.373 1.844m10.635.148c-.384-1.172-1.333-2.002-2.444-2.002-1.066 0-1.984.764-2.395 1.862"/><path fill="#0A0B09" d="M240.09 5.352l-.094-.642a2.212 2.212 0 0 0 1.013-2.197 2.223 2.223 0 0 0-1.602-1.819l.2 1.366a.892.892 0 0 1-.754 1.014.897.897 0 0 1-1.015-.759l-.2-1.365a2.212 2.212 0 0 0-1.013 2.196c.131.897.782 1.59 1.602 1.82l.13.89a1.636 1.636 0 0 1 1.733-.503"/></g><g><path fill="#0A0B09" d="M386.33 33.93a4.52 4.52 0 1 1-1.629-8.892 4.52 4.52 0 0 1 1.629 8.891m-5.537 8.561c0 1.09.307 2.11.799 2.756v1.02h-7.42v-1.21h-1.962V44.02h-9.51v-2.076h9.51v-1.037h1.963v-1.21h7.419v.033c-.247.32-.456.743-.6 1.257-.132.474-.199.98-.199 1.503z"/><path fill="#F9B11F" d="M383.718 23.135c-2.485.76-4.777 2.747-4.268 6.454 5.497-.393 11.415-3.49 11.415-3.49s-2.01-4.535-7.147-2.964z"/><path fill="#0A0B09" d="M385.87 68.604a2.445 2.445 0 0 1-2.354-1.79c-1.006-3.626-1.365-6.846-1.365-9.576 0-3.37.545-5.982 1.072-7.725.007-.236.025-.497.056-.787.518-2.832.047-6.116-.355-8.731-.055-.36.333-4.893.66-5.239h4.12c.847.587 1.587 1.534 1.987 2.905 1.14 4.002 1.304 6.58.593 10.893-.466 1.907-1.462 2.728-2.574 3.054-.345 1.337-.672 3.234-.672 5.63 0 2.303.3 5.071 1.187 8.27a2.443 2.443 0 0 1-2.356 3.096z"/><path fill="#0A0B09" d="M380.005 41.83c.76.101 1.279-.025 1.72-.236.527-.259.986-.718 1.374-1.315.222-.339.411-.716.57-1.09a9.998 9.998 0 0 0 .614-2.087l.007-.047v-.003c.117-.844.881-1.458 1.707-1.372.826.087 1.401.84 1.284 1.685-.022.092-.21 1.611-1.019 3.333-.186.396-.405.803-.662 1.206a7.368 7.368 0 0 1-1.56 1.755 5.762 5.762 0 0 1-3.79 1.278 7.58 7.58 0 0 1-2.04-.343c-.913-.278-1.874-.728-2.895-1.362a1.44 1.44 0 0 1-.567-.665 1.57 1.57 0 0 1 .123-1.442 1.57 1.57 0 0 1 1.298-.747c.272-.005.546.063.791.215 1.01.627 1.86.98 2.55 1.145.176.041.34.07.495.092"/></g></g></svg>