<svg id="Layer_1" xmlns="http://www.w3.org/2000/svg" viewBox="676 -53.2 596.9 206.6"><style>.st0{fill:#265645}.st1{fill:#eaeaea}.st2{fill:#42a880}.st3{fill:#494949}.st4,.st5,.st6{fill:#f9af43}.st5,.st6{stroke:#ebac00;stroke-width:1.1508;stroke-miterlimit:10}.st6{fill:#42a880;stroke:#42a880;stroke-width:.8239}</style><path class="st0" d="M1155.2 137.2V121h-4.4V91h-15.6v30h-20v-19.7H1081V65.7h-29.7v23h-15V23.9h-58.6v50.3h-13.8V50.1h-19.4V34.8h-5.6v-70.3h-4.4V-42h-7.4v-5.3h-7.7v-5.9h-5.3v5.9H903v4.7h-4.7v6.8h-4.7v94.5h-2.1v3.8h-2.9v5.9h-10V46h-3.8V23.9h-2.6V.7h-10v-4.1h-38V.7h-6.8v33.8h-7.1v19.7h-.6v10h-3.8v-3.8H795V21h-1.8v-2.9h-2.1v2.6h-2.6v-2.6h-1.8v3.5H785v28.8l-1.8-.9V33.7h-2.9v-5h-4.1v7.9h-3.8v9.7l-.9.3v-62.4h-1.2v-2.6h-1.5v-8.2H767v-3.5h-1.8V-34h-2.4l-.3-16.8H760l-.6 17.4h-1.5v3.5h-1.8v3.2h-1.5v8.2h-1.5v2.6H752v67.4h-7V4.8h-1.5v.3h-10.3v-7.6h-6.5v7.9h-4.4V.7h-8.5v-10H704v45.1c0 1.8-.9 3.1-2.1 3.7-.7 1.2-1.9 2.1-3.7 2.1H676v111.7h510.7v-16.2l-31.5.1z"/><path class="st1" d="M1085.1 119c-1.2 2.6-2.9 5-5 7.4v-6.8c-3.2 2.4-7.1 3.5-11.2 3.5v29.4h11.2v-17.9c5-3.8 9.1-8.5 12.1-14.1h-.3c-2-.3-4.4-.6-6.8-1.5z"/><path class="st2" d="M1136.9 101c0-8.5-5-15.6-12.1-19.1 0-6.2-2.6-11.5-7.1-15.3-.3-10.3-8.2-18.5-18.2-19.4-4.7-12.1-16.5-20.6-30-20.6-15.6 0-28.5 11.2-31.5 25.6-9.7 2.6-17.1 11.8-17.1 22.4 0 4.1 1.2 7.9 2.9 11.5h-.9c-8.2 0-15 6.8-15 15s6.8 15 15 15c2.6 0 5.3-.6 7.4-2.1 3.8 5 10 8.2 17.1 8.2 4.1 0 7.9-1.2 11.2-3.2 2.9 2.1 6.5 3.2 10.6 3.2 5.3 0 10-2.1 13.5-5.6 2.6 1.8 6.2 2.6 9.4 2.6 3.5 0 6.5-.9 9.4-2.6 3.8 3.2 8.8 5.3 14.1 5.3 11.6.3 21.3-9.1 21.3-20.9z"/><path class="st3" d="M895.1 139.9h7.4v7.4h-7.4zM884.2 139.9h7.4v7.4h-7.4zM862.1 139.9h7.4v7.4h-7.4zM873 139.9h7.4v7.4H873zM932.1 139h54.7v11.5h-54.7zM906.2 139.9h7.4v7.4h-7.4zM917.1 138.4h7.4v12.7h-7.4zM884.2 94.3h7.4v7.4h-7.4zM884.2 85.1h7.4v7.4h-7.4zM884.2 103.4h7.4v7.4h-7.4zM884.2 76h7.4v7.4h-7.4zM884.2 112.5h7.4v7.4h-7.4zM884.2 66.9h7.4v7.4h-7.4zM884.2 57.8h7.4v7.4h-7.4zM884.2 121.6h7.4v7.4h-7.4zM880.9 22.5h1.5v6.8h-1.5zM900.1 22.5h1.5v6.8h-1.5zM873 48.7h7.4v7.4H873zM884.2 130.8h7.4v7.4h-7.4zM895.1 48.7h7.4v7.4h-7.4zM885.1 22.5h1.5v6.8h-1.5zM895.1 76h7.4v7.4h-7.4zM895.1 85.1h7.4v7.4h-7.4zM895.1 94.3h7.4v7.4h-7.4zM884.2 48.7h7.4v7.4h-7.4zM895.1 57.8h7.4v7.4h-7.4zM895.1 103.4h7.4v7.4h-7.4zM895.1 66.9h7.4v7.4h-7.4zM895.1 112.5h7.4v7.4h-7.4z"/><circle class="st3" cx="893.3" cy="39.8" r="5"/><path class="st3" d="M895.1 121.6h7.4v7.4h-7.4zM895.1 130.8h7.4v7.4h-7.4zM862.1 85.1h7.4v7.4h-7.4zM862.1 94.3h7.4v7.4h-7.4zM873 57.8h7.4v7.4H873zM862.1 103.4h7.4v7.4h-7.4zM862.1 57.8h7.4v7.4h-7.4zM862.1 66.9h7.4v7.4h-7.4zM862.1 130.8h7.4v7.4h-7.4zM864.2 22.5h1.5v6.8h-1.5zM862.1 48.7h7.4v7.4h-7.4zM862.1 121.6h7.4v7.4h-7.4zM862.1 112.5h7.4v7.4h-7.4zM862.1 76h7.4v7.4h-7.4zM873 112.5h7.4v7.4H873zM873 94.3h7.4v7.4H873zM873 103.4h7.4v7.4H873zM873 85.1h7.4v7.4H873zM873 76h7.4v7.4H873zM873 66.9h7.4v7.4H873zM868.3 22.5h1.5v6.8h-1.5zM872.4 22.5h1.5v6.8h-1.5zM876.8 22.5h1.5v6.8h-1.5zM873 130.8h7.4v7.4H873zM873 121.6h7.4v7.4H873zM954.5 45.7h6.5v6.5h-6.5zM965.1 64h6.5v6.5h-6.5zM971.6 73.1h-6.5v1.5l6.5 1.4zM954.5 54.8h6.5v6.5h-6.5zM961 73.1h-3.3l3.3.6zM943.9 45.7h6.5v6.5h-6.5zM943.9 54.8h6.5v6.5h-6.5zM976 64h6.5v6.5H976zM917.1 48.7h7.4v7.4h-7.4zM976 45.7h6.5v6.5H976zM982.2 73.1H976v3.8l6.2 1.5zM965.1 54.8h6.5v6.5h-6.5zM965.1 45.7h6.5v6.5h-6.5zM976 54.8h6.5v6.5H976zM986.6 79.3l1.4.3h4.8v-6.5h-6.2zM986.6 54.8h6.5v6.5h-6.5zM950.4 70.4V64h-6.5v6.1l.9.3zM986.6 45.7h6.5v6.5h-6.5zM904.2 22.5h1.5v6.8h-1.5zM986.6 64h6.5v6.5h-6.5zM932.1 128.7h54.7v7.4h-54.7zM932.1 86.6h54.7V94h-54.7zM932.1 118.1h54.7v7.4h-54.7zM932.1 107.5h54.7v7.4h-54.7zM932.1 96.9h54.7v7.4h-54.7zM954.5 64h6.5v6.5h-6.5zM906.2 94.3h7.4v7.4h-7.4zM906.2 85.1h7.4v7.4h-7.4zM912.7 22.5h1.5v6.8h-1.5zM917.1 57.8h7.4v7.4h-7.4zM906.2 48.7h7.4v7.4h-7.4zM906.2 57.8h7.4v7.4h-7.4zM906.2 66.9h7.4v7.4h-7.4zM908.6 22.5h1.5v6.8h-1.5zM906.2 103.4h7.4v7.4h-7.4zM906.2 130.8h7.4v7.4h-7.4zM906.2 112.5h7.4v7.4h-7.4zM906.2 121.6h7.4v7.4h-7.4zM906.2 76h7.4v7.4h-7.4zM917.1 94.3h7.4v7.4h-7.4zM921.2 22.5h1.5v6.8h-1.5zM917.1 85.1h7.4v7.4h-7.4zM917.1 66.9h7.4v7.4h-7.4zM917.1 112.5h7.4v7.4h-7.4zM917.1 76h7.4v7.4h-7.4zM917.1 103.4h7.4v7.4h-7.4zM917.1 121.6h7.4v7.4h-7.4zM916.8 22.5h1.5v6.8h-1.5zM917.1 130.8h7.4v7.4h-7.4z"/><path class="st1" d="M990.4 33.1h-43.9v7.6h-5v28.8l-13.2-2.9V34.8h-1.5v-5.3h-2.1v-7.1l-7.9-11.2h-11.2l-7.9 11.2v7.1h-9.1v-7.1l-7.9-11.2h-11.2l-7.9 11.2v7.1h-2.1v5.3h-1.2v117.7h136.8V40.7h-5v-7.6h.3zM864.2 22.5h1.5v6.8h-1.5v-6.8zm5.3 124.7h-7.4v-7.4h7.4v7.4zm0-9.1h-7.4v-7.4h7.4v7.4zm0-9.1h-7.4v-7.4h7.4v7.4zm0-9.1h-7.4v-7.4h7.4v7.4zm0-9.2h-7.4v-7.4h7.4v7.4zm0-9.1h-7.4v-7.4h7.4v7.4zm0-9.1h-7.4v-7.4h7.4v7.4zm0-9.1h-7.4V76h7.4v7.4zm0-9.1h-7.4v-7.4h7.4v7.4zm0-9.2h-7.4v-7.4h7.4v7.4zm0-9.1h-7.4v-7.4h7.4V56zm.3-26.8h-1.5v-6.8h1.5v6.8zm7-6.7h1.5v6.8h-1.5v-6.8zm-4.4 0h1.5v6.8h-1.5v-6.8zm7.9 124.7H873v-7.4h7.4v7.4zm0-9.1H873v-7.4h7.4v7.4zm0-9.1H873v-7.4h7.4v7.4zm0-9.1H873v-7.4h7.4v7.4zm0-9.2H873v-7.4h7.4v7.4zm0-9.1H873v-7.4h7.4v7.4zm0-9.1H873v-7.4h7.4v7.4zm0-9.1H873V76h7.4v7.4zm0-9.1H873v-7.4h7.4v7.4zm0-9.2H873v-7.4h7.4v7.4zm0-9.1H873v-7.4h7.4V56zm19.8-33.5h1.5v6.8h-1.5v-6.8zm-15 0h1.5v6.8h-1.5v-6.8zm-2.7 6.7h-1.5v-6.8h1.5v6.8zm9.1 118h-7.4v-7.4h7.4v7.4zm0-9.1h-7.4v-7.4h7.4v7.4zm0-9.1h-7.4v-7.4h7.4v7.4zm0-9.1h-7.4v-7.4h7.4v7.4zm0-9.2h-7.4v-7.4h7.4v7.4zm0-9.1h-7.4v-7.4h7.4v7.4zm0-9.1h-7.4v-7.4h7.4v7.4zm0-9.1h-7.4V76h7.4v7.4zm0-9.1h-7.4v-7.4h7.4v7.4zm0-9.2h-7.4v-7.4h7.4v7.4zm0-9.1h-7.4v-7.4h7.4V56zm-3.2-16.2c0-2.6 2.1-5 5-5 2.6 0 5 2.1 5 5 0 2.6-2.1 5-5 5-2.7-.3-5-2.3-5-5zm14.1 107.4H895v-7.4h7.4v7.4zm0-9.1H895v-7.4h7.4v7.4zm0-9.1H895v-7.4h7.4v7.4zm0-9.1H895v-7.4h7.4v7.4zm0-9.2H895v-7.4h7.4v7.4zm0-9.1H895v-7.4h7.4v7.4zm0-9.1H895v-7.4h7.4v7.4zm0-9.1H895V76h7.4v7.4zm0-9.1H895v-7.4h7.4v7.4zm0-9.2H895v-7.4h7.4v7.4zm0-9.1H895v-7.4h7.4V56zm3.3-26.8h-1.5v-6.8h1.5v6.8zm2.9-6.7h1.5v6.8h-1.5v-6.8zm5 124.7h-7.4v-7.4h7.4v7.4zm0-9.1h-7.4v-7.4h7.4v7.4zm0-9.1h-7.4v-7.4h7.4v7.4zm0-9.1h-7.4v-7.4h7.4v7.4zm0-9.2h-7.4v-7.4h7.4v7.4zm0-9.1h-7.4v-7.4h7.4v7.4zm0-9.1h-7.4v-7.4h7.4v7.4zm0-9.1h-7.4V76h7.4v7.4zm0-9.1h-7.4v-7.4h7.4v7.4zm0-9.2h-7.4v-7.4h7.4v7.4zm0-9.1h-7.4v-7.4h7.4V56zm.6-26.8h-1.5v-6.8h1.5v6.8zm7-6.7h1.5v6.8h-1.5v-6.8zm-4.4 0h1.5v6.8h-1.5v-6.8zm8 124.7h-7.4v-7.4h7.4v7.4zm0-9.1h-7.4v-7.4h7.4v7.4zm0-9.1h-7.4v-7.4h7.4v7.4zm0-9.1h-7.4v-7.4h7.4v7.4zm0-9.2h-7.4v-7.4h7.4v7.4zm0-9.1h-7.4v-7.4h7.4v7.4zm0-9.1h-7.4v-7.4h7.4v7.4zm0-9.1h-7.4V76h7.4v7.4zm0-9.1h-7.4v-7.4h7.4v7.4zm0-9.2h-7.4v-7.4h7.4v7.4zm0-9.1h-7.4v-7.4h7.4V56zM976 45.7h6.5v6.5H976v-6.5zm0 9.1h6.5v6.5H976v-6.5zm0 9.2h6.5v6.5H976V64zm0 9.1h6.5v5.3l-6.5-1.5v-3.8zm-10.9-27.4h6.5v6.5h-6.5v-6.5zm0 9.1h6.5v6.5h-6.5v-6.5zm0 9.2h6.5v6.5h-6.5V64zm0 9.1h6.5V76l-6.5-1.5v-1.4zm-10.6-27.4h6.5v6.5h-6.5v-6.5zm0 9.1h6.5v6.5h-6.5v-6.5zm0 9.2h6.5v6.5h-6.5V64zm6.5 9.1v.6l-3.2-.6h3.2zm-17.1-27.4h6.5v6.5h-6.5v-6.5zm0 9.1h6.5v6.5h-6.5v-6.5zm0 9.2h6.5v6.5h-5.6l-.9-.3V64zm43 82.6h-54.7v-7.4h54.7v7.4zm0-10.5h-54.7v-7.4h54.7v7.4zm0-10.6h-54.7v-7.4h54.7v7.4zm0-10.6h-54.7v-7.4h54.7v7.4zm0-10.3h-54.7v-7.4h54.7v7.4zm0-10.6h-54.7v-7.4h54.7V94zm5.9-14.4h-5l-1.5-.3v-6.2h6.5v6.5zm0-9.2h-6.5V64h6.5v6.4zm0-9.1h-6.5v-6.5h6.5v6.5zm0-15.6v6.5h-6.5v-6.5h6.5z"/><path class="st3" d="M792.4 100.4h16.5v16.5h-16.5zM727 100.4v-1.1h-16.1v17.6H727zM727 133.4v-15.3h-16.1v16.5H727zM735.6 95.4h30.3v53h-30.3zM792.4 118.1h16.5v16.5h-16.5zM774.4 118.1h16.5v16.5h-16.5zM774.4 100.4h16.5v16.5h-16.5zM709.4 118.1h-16.5v16.5h16.5z"/><path class="st1" d="M775.6 52.5h-10.3l7.1 20.3V84h9.7V71.9c0-.6 0-1.2-.3-1.5l-6.2-17.9zM795.9 52.5h-11.5c0 .3.3.6.6.9l13.5 20V84h9.7V71.9c0-.9-.3-2.1-.9-2.6l-11.4-16.8z"/><path class="st3" d="M709.4 100.4v-1.1h-16.5v17.6h16.5z"/><path class="st1" d="M750 52.5h-3.8v31.8H755.6V52.5h-3.8zM720 70.4c-.3.6-.3.9-.3 1.5V84h9.7V72.8l7.1-20.3h-10.3L720 70.4zM694.1 69.3c-.6.9-.9 1.8-.9 2.6V84h9.7V73.4l13.5-20c.3-.3.3-.6.6-.9h-11.5l-11.4 16.8zM685.6 152.5h131V86.6h-131v65.9zm106.8-52.1h16.5v16.5h-16.5v-16.5zm0 17.7h16.5v16.5h-16.5v-16.5zm-18-17.7h16.5v16.5h-16.5v-16.5zm0 17.7h16.5v16.5h-16.5v-16.5zm-38.8-22.7h30.3v53h-30.3v-53zm-24.7 5v-1.2h16.5v17.7h-16.5v-16.5zm0 17.7h16.5v16.5h-16.5v-16.5zm-18-17.7v-1.2h16.5v17.7h-16.5v-16.5zm0 33v-15.3h16.5v16.5h-16.5v-1.2z"/><g><path class="st4" d="M805.2 61.4v-9.8c0-1.9-1.6-3.5-3.5-3.5H699.6c-1.9 0-3.5 1.6-3.5 3.5v9.8c-4.1 4.6-10.4 11.5-11.7 13.4-2.5 2.7-.5 11.7-.3 12.8l.3.8H817l.3-.8c.3-1.1 2.2-10.1-.3-12.8-1.7-2-7.7-9.1-11.8-13.4z"/><path class="st1" d="M718.9 58.9l-12.6 18.8v10.1h-9V76.4c0-.8.3-1.9.8-2.5l10.6-15.8h10.6c-.1.3-.4.5-.4.8zM730.7 76.9v10.6h-9V76.1c0-.5 0-1.1.3-1.4l5.7-16.9h9.6l-6.6 19.1zM755 87.6h-8.8V57.8h8.8zM779.5 87.6h-9V76.9L764 57.8h9.6l5.7 16.9c.3.5.3 1.1.3 1.4l-.1 11.5zM803.8 87.6h-9V77.5l-12.6-18.8c-.3-.3-.3-.5-.5-.8h10.6L803 73.6c.5.8.8 1.6.8 2.5v11.5z"/></g><g><path class="st4" d="M1217.6 56.3l1.2 5c10.9-4.7 18.5-15.6 18.5-28.2 0-17.1-13.8-30.6-30.6-30.6-17.1 0-30.6 13.8-30.6 30.6 0 12.7 7.7 23.5 18.5 28.2l1.2-5c-8.8-4.1-15-12.9-15-23.5 0-14.1 11.5-25.9 25.9-25.9 14.1 0 25.9 11.5 25.9 25.9 0 10.3-6.2 19.4-15 23.5z"/><path class="st4" d="M1253.5 32.8c0-25.9-20.9-46.8-46.8-46.8s-46.8 20.9-46.8 46.8c0 20.3 12.9 37.7 31.2 44.1l1.2-4.7c-15.9-5.9-27.4-21.5-27.4-39.4 0-23.2 18.8-42.1 42.1-42.1s42 18.8 42 42.1c0 17.9-11.5 33.3-27.4 39.4l1.2 4.7c17.7-6.5 30.7-23.8 30.7-44.1z"/><path class="st4" d="M1206.7-33.4c-36.5 0-66.2 29.7-66.2 66.2 0 29.4 19.4 54.4 45.9 63l1.2-4.7c-24.4-7.9-42.1-31.2-42.1-58.3 0-33.8 27.4-61.2 61.2-61.2 33.8 0 61.2 27.4 61.2 61.2 0 27.1-17.7 50-42.1 58.3l1.2 4.7c26.5-8.5 45.9-33.5 45.9-63 0-36.5-29.7-66.2-66.2-66.2z"/><path class="st3" d="M1226.1 102.8l-13.8-59.4c3.5-2.1 6.2-5.9 6.2-10.3 0-6.5-5.3-11.5-11.5-11.5-6.5 0-11.5 5.3-11.5 11.5 0 4.4 2.4 8.2 6.2 10.3l-25.3 106.2c-.3.9 0 1.8.9 2.4.6.3.9.6 1.5.6.3 0 .9 0 1.2-.3l26.8-13.5 26.8 13.5c.3.3.6.3 1.2.3s1.2-.3 1.5-.6c.9-.6 1.2-1.5.9-2.4l-11.1-46.8zm-.9 17.9l-13.5-7.6 10.3-5.9 3.2 13.5zM1214 85.4l-7.4 4.7-7.4-4.7 7.4-6.5 7.4 6.5zm-12-17l4.7-3.5 4.7 3.5-4.7 4.1-4.7-4.1zm4.7 27.3l12.1 7.4-12.1 6.8-12.1-6.8 12.1-7.4zm13.2 2.4l-8.5-5.3 6.5-3.8 2 9.1zm-5.9-25.3l1.8 7.6-5.3-4.4 3.5-3.2zm-2.6-11.2l.3.9-.6-.6.3-.3zm-5.3-17.1h1.2l2.6 11.8-3.5 2.4-3.5-2.4 3.2-11.8zm-4.1 17.1l.6.3-.6.6v-.9zm-2.7 11.2l3.5 2.9-5.3 4.4 1.8-7.3zm-3.8 16.2l6.5 3.8-8.5 5.3 2-9.1zm-4.1 18.2l10.3 5.9-13.5 7.6 3.2-13.5zm-9.1 38.3l4.1-17.1 14.7 7.6-18.8 9.5zm8.2-20.6l16.2-9.1 16.2 9.1-16.2 8.2-16.2-8.2zm21.5 11.2l14.7-7.6 4.1 17.1-18.8-9.5z"/></g><g><path class="st5" d="M799.7 33.9c-2.6 0-5-2.4-5-5s2.4-5 5-5 5 2.4 5 5c-.3 3-2.3 5-5 5zm0-8.2c-1.8 0-3.2 1.5-3.2 3.2s1.5 3.2 3.2 3.2 3.2-1.5 3.2-3.2-1.4-3.2-3.2-3.2zM810.9 18.4c-.3 0-.6 0-.6-.3-2.9-2.9-6.8-4.4-10.9-4.4-4.1 0-7.9 1.5-10.9 4.4-.3.3-.9.3-1.2 0-.3-.3-.3-.9 0-1.2 3.2-3.2 7.4-5 12.1-5 4.4 0 8.8 1.8 12.1 5 .3.3.3.9 0 1.2 0 .3-.3.3-.6.3zM819.1 10.4c-.3 0-.6 0-.6-.3-10.3-10.3-27.4-10.3-38 0-.3.3-.9.3-1.2 0-.3-.3-.3-.9 0-1.2 11.2-11.2 29.1-11.2 40.3 0 .3.3.3.9 0 1.2-.2.3-.2.3-.5.3z"/><path class="st5" d="M827.1 2.2c-.3 0-.6 0-.6-.3-15-15-39.1-15-54.1 0-.3.3-.9.3-1.2 0-.3-.3-.3-.9 0-1.2 15.6-15.6 40.9-15.6 56.5 0 .3.3.3.9 0 1.2 0 .3-.3.3-.6.3z"/></g><g><path class="st6" d="M1026.3 13.3c-1.2 0-2.4-.9-2.4-2.4 0-1.2.9-2.4 2.4-2.4 1.2 0 2.4.9 2.4 2.4s-1.2 2.4-2.4 2.4zm0-3.8c-.9 0-1.5.6-1.5 1.5s.6 1.5 1.5 1.5 1.5-.6 1.5-1.5c0-.6-.6-1.5-1.5-1.5zM1031.6 6.3c-.3 0-.3 0 0 0-1.5-1.5-3.2-2.1-5.3-2.1-1.8 0-3.5.6-5 2.1-.3.3-.3.3-.6 0s-.3-.3 0-.6c1.5-1.5 3.5-2.4 5.6-2.4 2.1 0 4.1.9 5.6 2.4 0 0 0 .3-.3.6zM1035.1 2.5c-5-5-12.9-5-17.7 0-.3.3-.3.3-.6 0s-.3-.3 0-.6c5-5 13.5-5 18.5 0 .4.3.4.3-.2.6.3 0 .3 0 0 0z"/><path class="st6" d="M1038.9-1.1s-.2 0 0 0c-7.1-7.1-18.2-7.1-25 0-.3.3-.3.3-.6 0s-.3-.3 0-.6c7.1-7.1 18.8-7.1 25.9 0 .3 0 .3.3-.3.6.3 0 .3 0 0 0z"/></g></svg>