<svg id="Layer_1" xmlns="http://www.w3.org/2000/svg" viewBox="780.4 -70.9 388.6 241.3"><style>.st0{fill:#265645}.st1{fill:#eaeaea}.st2{fill:#f9af43}.st3,.st4,.st5{fill:#42a880}.st4,.st5{stroke:#42a880;stroke-miterlimit:10}.st5{stroke-width:.7457}</style><path class="st0" d="M1169 53.9h-22.6v-8.3h-18.8v-3.8h-12.1v5.3h-7.6v2.7H1097V-2.9h-22.7v6.5h-16.2v89.7h-12.9V10.9h-2.7V-8.2h-2l-8.9-41.2h-2v-21.5h-2.1v21.5h-1.4L1019-8.2h-2.9v18.8h-4.2V93h-10V31.2h-13.5v-6.1h-13.2v5.2h-25.9V113l-5.3.3V89.8L895.1 71v35h-3.8V39.8H881v-9.2h-10.9v8h-16.8v71.5h-42v32.4h-30.9v27.9H1169z"/><path class="st0" d="M1043.7 152.5h12.7v11.8h-12.7zM1043.7 138.6h12.7v11.8h-12.7zM1029.9 152.5h13.2v11.8h-13.2zM1029.9 138.6h13.2v11.8h-13.2zM1102.3 138.6h12.4v29.1h-12.4zM1115.2 138.6h13.2v29.1h-13.2zM1115.2 101.9h13.2v11.8h-13.2zM1102.6 101.9h12.4v11.8h-12.4zM1115.2 88.3h13.2v11.8h-13.2zM1102.6 88.3h12.4v11.8h-12.4z"/><path class="st1" d="M1067.8 84.5h5.9v29.4l-30-23.2-47.7 36.7h5.9v42.1H1157.3v-85h5.9L1115.5 48l-47.7 36.5zm-25 79.7H1031v-11.8h11.8v11.8zm0-13.8H1031v-11.8h11.8v11.8zm13.6 13.8h-11.8v-11.8h11.8v11.8zm0-13.8h-11.8v-11.8h11.8v11.8zm58.2 17.4h-11.8v-29.1h11.8v29.1zm0-53.9h-11.8v-11.8h11.8v11.8zm0-13.8h-11.8V88.3h11.8v11.8zm1.8-11.8h11.8v11.8h-11.8V88.3zm0 13.8h11.8v11.8h-11.8v-11.8zm0 36.5h11.8v29.1h-11.8v-29.1z"/><path class="st2" d="M1102.9 112.4h11.8v2.6h-11.8zM1116.4 112.4h11.8v2.6h-11.8zM1102.9 98.6h11.8v2.6h-11.8zM1116.4 98.6h11.8v2.6h-11.8zM1030.8 148.3h12.1v2.6h-12.1zM1044.3 148.3h12.4v2.6h-12.4zM1030.8 161.9h12.1v2.6h-12.1zM1044.3 161.9h12.4v2.6h-12.4zM1102.9 165.1h12.1v2.6h-12.1zM1116.1 165.1h12.4v2.6h-12.4z"/><g><path class="st1" d="M919.2 136.9v32.7h11.2v-32.4c-2.4-.6-4.4-1.5-6.2-2.6-1.7 1.1-3.5 1.7-5 2.3z"/><path class="st3" d="M971.6 103c2.1-3.2 3.2-6.8 3.2-10.9 0-10.9-8.8-19.7-19.7-19.7-.3-17.7-14.7-31.8-32.4-31.8-17.1 0-31.2 13.2-32.1 30.3-8.2 3.5-14.1 11.8-14.1 21.2 0 4.1.9 7.6 2.9 11.2-3.5 2.6-5.9 7.1-5.9 12.1 0 8.2 6.8 15 15 15 2.6 0 5.3-.6 7.4-2.1 3.8 5 10 8.2 17.1 8.2 4.1 0 7.9-1.2 11.2-3.2 2.9 2.1 6.5 3.2 10.6 3.2 5.3 0 10-2.1 13.5-5.6 2.6 1.8 6.2 2.6 9.4 2.6 10.3 0 18.5-8.2 18.5-18.5-.2-4.3-1.9-8.7-4.6-12z"/></g><g><path class="st4" d="M1142.3 31.5c-1.5 0-2.6-1.2-2.6-2.6s1.2-2.6 2.6-2.6c1.5 0 2.6 1.2 2.6 2.6.3 1.4-1.1 2.6-2.6 2.6zm0-4.4c-.9 0-1.8.9-1.8 1.8s.9 1.8 1.8 1.8 1.8-.9 1.8-1.8-.6-1.8-1.8-1.8zM1148.8 23h-.3c-1.5-1.5-3.8-2.4-5.9-2.4-2.4 0-4.4.9-5.9 2.4-.3.3-.6.3-.6 0s-.3-.6 0-.6c1.8-1.8 4.1-2.6 6.8-2.6 2.6 0 5 .9 6.8 2.6.3.3.3.6 0 .6h-.9zM1153.2 18.6h-.3c-5.9-5.9-15.3-5.9-21.2 0-.3.3-.6.3-.6 0-.3-.3-.3-.6 0-.6 6.2-6.2 16.2-6.2 22.4 0 .3.3.3.6 0 .6 0-.3 0 0-.3 0z"/><path class="st4" d="M1157.9 13.9h-.3c-8.2-8.2-21.8-8.2-30.3 0-.3.3-.6.3-.6 0s-.3-.6 0-.6c8.8-8.8 23-8.8 31.5 0 .3.3.3.6 0 .6h-.3z"/></g><g><path class="st5" d="M873.9 19.8c-1.2 0-2.1-.9-2.1-2.1s.9-2.1 2.1-2.1 2.1.9 2.1 2.1c0 1.2-1.2 2.1-2.1 2.1zm0-3.3c-.9 0-1.5.6-1.5 1.5s.6 1.5 1.5 1.5 1.5-.6 1.5-1.5c-.3-.9-.9-1.5-1.5-1.5zM878.6 13.3c-.3 0-.3 0 0 0-1.5-1.2-2.9-2.1-4.7-2.1s-3.2.6-4.4 1.8h-.6v-.6c1.5-1.5 3.2-2.1 5-2.1s3.5.6 5 2.1c0 .6 0 .9-.3.9zM881.9 10s-.3 0 0 0c-4.7-4.4-11.8-4.4-15.9 0h-.6c-.3 0 0-.3 0-.6 4.7-4.7 12.1-4.7 16.8 0 0 .1 0 .4-.3.6.3 0 0 0 0 0z"/><path class="st5" d="M885.4 6.8c-.3 0-.3-.3 0 0-6.5-6.2-16.5-6.2-22.7 0h-.6c-.3 0 0-.3 0-.6 6.5-6.5 17.1-6.5 23.5 0 .1 0 .1.3-.2.6 0-.3 0 0 0 0z"/></g></svg>