<svg xmlns="http://www.w3.org/2000/svg" width="30" height="26" viewBox="0 0 30 26">
    <g fill="none" fill-rule="evenodd">
        <path d="M-3-1h30v30H-3z"/>
        <path fill="#50A7E6" fill-rule="nonzero" d="M0 20.275V12.2h30v8.075c-.003 1.172-.934 2.122-2.083 2.125H2.056a1.982 1.982 0 0 1-1.443-.624A2.061 2.061 0 0 1 0 20.303v-.03.001zM8.335 17.3V19h5v-1.7h-5zm-5 0V19h3.333v-1.7H3.334zM27.917 2c1.149.004 2.08.954 2.083 2.126V7.1H0V4.126v-.03c0-.576.235-1.098.612-1.47l.001-.001A1.982 1.982 0 0 1 2.056 2h.03-.002 25.833z"/>
        <path stroke="#50A7E6" d="M5.5.5l22 24"/>
        <path stroke="#FFF" stroke-linecap="square" d="M4.5.5l23 25"/>
    </g>
</svg>
