<svg xmlns="http://www.w3.org/2000/svg" width="28" height="28" viewBox="0 0 28 28">
    <g fill="none" fill-rule="evenodd">
        <path fill="#50A7E6" d="M14 24.475l-5.74 3.383-1.667-6.45L.142 19.74 3.525 14 .142 8.26l6.45-1.667L8.26.142 14 3.525 19.74.142l1.667 6.45 6.451 1.668L24.475 14l3.383 5.74-6.45 1.667-1.668 6.451z"/>
        <path fill="#FFF" fill-rule="nonzero" d="M6.594 17H5.402v-5.71h3.274v.991H6.594v1.473H8.53v.988H6.594V17zm4.41-3.176h.39c.383 0 .666-.064.848-.191.182-.128.274-.328.274-.602 0-.27-.093-.463-.28-.578-.186-.114-.474-.172-.865-.172h-.367v1.543zm0 .985V17H9.793v-5.71h1.664c.776 0 1.35.14 1.723.423.372.282.558.711.558 1.287 0 .336-.092.635-.277.896a1.835 1.835 0 0 1-.785.616c.86 1.284 1.42 2.113 1.68 2.488h-1.344l-1.364-2.191h-.644zM18.364 17h-3.29v-5.71h3.29v.991h-2.079v1.254h1.934v.992h-1.934V16h2.078v1zm4.48 0h-3.29v-5.71h3.29v.991h-2.078v1.254h1.933v.992h-1.933V16h2.078v1z"/>
    </g>
</svg>
