<svg xmlns="http://www.w3.org/2000/svg" width="26" height="28" viewBox="0 0 26 28">
    <g fill="none" fill-rule="evenodd">
        <path d="M-3-2h30v30H-3z"/>
        <path fill="#50A7E6" fill-rule="nonzero" stroke="#50A7E6" d="M17.373 26a.37.37 0 0 1-.373-.373.37.37 0 0 1 .373-.372 3.886 3.886 0 0 0 3.882-3.882.37.37 0 0 1 .372-.373.37.37 0 0 1 .373.373A4.634 4.634 0 0 1 17.373 26z"/>
        <path fill="#50A7E6" fill-rule="nonzero" stroke="#50A7E6" stroke-width="2" d="M22.588 13a.399.399 0 0 1-.411-.39v-2.116c0-4.806-4.115-8.713-9.177-8.713-5.062 0-9.177 3.907-9.177 8.713v2.087c0 .218-.182.391-.411.391a.399.399 0 0 1-.412-.39v-2.088C3 5.259 7.486 1 13 1s10 4.259 10 9.494v2.115c0 .218-.188.391-.412.391z"/>
        <path fill="#50A7E6" fill-rule="nonzero" stroke="#50A7E6" stroke-width="2" d="M4.441 21h-.449C2.342 21 1 19.599 1 17.877v-2.754C1 13.4 2.342 12 3.992 12h.45C5.3 12 6 12.73 6 13.627v5.752C6 20.276 5.3 21 4.441 21zM22.008 21h-.45C20.7 21 20 20.27 20 19.374v-5.748c0-.896.7-1.626 1.559-1.626h.449C23.658 12 25 13.4 25 15.12v2.753C25 19.6 23.658 21 22.008 21z"/>
        <path fill="#50A7E6" fill-rule="nonzero" stroke="#50A7E6" d="M16.406 27h-1.812c-.88 0-1.594-.672-1.594-1.5s.714-1.5 1.594-1.5h1.812c.425 0 .827.156 1.128.439.3.283.466.661.466 1.061 0 .828-.714 1.5-1.594 1.5z"/>
    </g>
</svg>
