<svg xmlns="http://www.w3.org/2000/svg" width="52" height="48" viewBox="0 0 52 48">
    <g fill="#23282C" fill-rule="nonzero">
        <path d="M51.73 17.448c-.508-1.672-1.526-3.01-3.052-3.79-1.923-1.004-4.185-.893-5.768-.614l-3.28-11.43c-.225-.78-.847-1.393-1.639-1.56-.792-.167-1.64.056-2.205.669C27.7 9.643 24.364 11.817 15.43 15.664l-7.01 2.007C2.255 19.4-1.307 25.867.446 31.944a11.518 11.518 0 0 0 5.597 6.969c1.753.947 3.676 1.45 5.598 1.45.905 0 1.866-.112 2.77-.335l.736 2.62c.395 1.394 1.187 2.62 2.205 3.624l1.187 1.115a2.45 2.45 0 0 0 1.583.613 2.28 2.28 0 0 0 1.64-.669c.848-.892.848-2.286-.113-3.178l-1.187-1.115a3.652 3.652 0 0 1-.962-1.617l-.735-2.62 3.28-.948c9.386-1.394 13.627-1.282 25.105 1.952.226.055.396.111.622.111.565 0 1.187-.223 1.583-.669a2.2 2.2 0 0 0 .566-2.174l-3.337-11.43c1.47-.557 3.45-1.56 4.58-3.4.849-1.45 1.075-3.066.566-4.795zM8.25 35.01c-1.697-.892-2.884-2.453-3.45-4.237-1.074-3.791 1.131-7.694 4.863-8.809l5.089-1.45 2.318 8.084 1.583 5.576-5.089 1.45c-1.752.5-3.675.278-5.315-.614zm23.012-2.453c-2.544 0-5.088.223-8.085.613l-3.28-11.429-.791-2.788c7.124-3.233 10.969-5.742 17.302-12.265l8.029 27.82c-5.372-1.394-9.217-1.951-13.175-1.951zM47.321 19.9c-.34.614-1.188 1.06-1.98 1.394l-1.13-3.903c.848-.111 1.81-.111 2.431.223.283.168.565.39.792 1.004.17.669 0 1.004-.113 1.282z"/>
        <path d="M11.52 23.464c-3.103 1.38-4.783 4.752-3.91 7.844.116.408.558.635.987.507a.87.87 0 0 0 .104-.039c.365-.162.57-.559.464-.933-.666-2.356.614-4.926 2.978-5.977.41-.182.603-.644.43-1.031-.172-.387-.644-.554-1.054-.371z"/>
    </g>
</svg>
