<svg xmlns="http://www.w3.org/2000/svg" xmlns:xlink="http://www.w3.org/1999/xlink" width="400" height="403" viewBox="0 0 400 403">
    <defs>
        <path id="c" d="M314.414 135.744V91.492a15.538 15.538 0 0 0 5.36-3.078l38.639 22.12c-9.889 14.093-25.794 23.72-44 25.21zm-53.87-25.208l38.638-22.12a15.594 15.594 0 0 0 5.36 3.076v44.252c-18.205-1.49-34.11-11.117-43.999-25.208zm43.998-92.542v44.25a15.588 15.588 0 0 0-5.362 3.076l-38.637-22.123c9.889-14.088 25.794-23.718 44-25.203zm53.868 25.203L319.774 65.32a15.532 15.532 0 0 0-5.36-3.076v-44.25c18.205 1.485 34.108 11.115 43.996 25.203zm-64.183 36.75l-38.639 22.12a58.305 58.305 0 0 1-5.703-25.2 58.36 58.36 0 0 1 5.703-25.2l38.639 22.122a15.437 15.437 0 0 0 0 6.157zm69.141 22.12l-38.641-22.123a15.394 15.394 0 0 0 0-6.155l38.639-22.124a58.301 58.301 0 0 1 5.705 25.203c0 9.01-2.05 17.549-5.703 25.198zM387 71.968l-8.373-1.579a67.926 67.926 0 0 0-6.012-22.193l6.466-5.52-4.936-8.488-8.082 2.797a69.745 69.745 0 0 0-16.372-16.232l2.826-8.004-8.554-4.907-5.574 6.414a69.297 69.297 0 0 0-22.384-5.959L314.414 0h-9.872l-1.589 8.298a69.329 69.329 0 0 0-22.388 5.962l-5.57-6.41-8.549 4.895 2.819 8.007a69.823 69.823 0 0 0-16.374 16.237l-8.073-2.795-4.94 8.477 6.463 5.523a67.86 67.86 0 0 0-6.012 22.204l-8.366 1.57-.002 9.794 8.368 1.579a67.832 67.832 0 0 0 6.012 22.198l-6.463 5.518 4.938 8.485 8.075-2.795a69.766 69.766 0 0 0 16.374 16.234l-2.824 8.005 8.554 4.9 5.572-6.41a69.374 69.374 0 0 0 22.389 5.962l1.581 8.295 9.882.003 1.591-8.298a69.365 69.365 0 0 0 22.384-5.964l5.565 6.411 8.558-4.896-2.82-8.012a69.734 69.734 0 0 0 16.368-16.233l8.073 2.802 4.945-8.484-6.468-5.53a67.851 67.851 0 0 0 6.012-22.191l8.368-1.574.005-9.798z"/>
        <filter id="b" width="115.5%" height="115.6%" x="-7.7%" y="-6.5%" filterUnits="objectBoundingBox">
            <feMorphology in="SourceAlpha" operator="dilate" radius="5" result="shadowSpreadOuter1"/>
            <feOffset dy="2" in="shadowSpreadOuter1" result="shadowOffsetOuter1"/>
            <feGaussianBlur in="shadowOffsetOuter1" result="shadowBlurOuter1" stdDeviation="2"/>
            <feComposite in="shadowBlurOuter1" in2="SourceAlpha" operator="out" result="shadowBlurOuter1"/>
            <feColorMatrix in="shadowBlurOuter1" values="0 0 0 0 0 0 0 0 0 0 0 0 0 0 0 0 0 0 0.15 0"/>
        </filter>
        <path id="e" d="M82.547 34.367l-6.107-1.035a34.48 34.48 0 0 0-2.453-5.925l3.598-5.035a5.358 5.358 0 0 0-.581-6.924l-5.416-5.416a5.335 5.335 0 0 0-3.799-1.581 5.28 5.28 0 0 0-3.107 1l-5.053 3.598a34.122 34.122 0 0 0-6.143-2.526L52.47 4.489A5.369 5.369 0 0 0 47.162 0H39.51a5.369 5.369 0 0 0-5.307 4.489l-1.054 6.18a33.63 33.63 0 0 0-5.907 2.49l-4.998-3.6c-.909-.654-1.999-.999-3.126-.999a5.304 5.304 0 0 0-3.798 1.581l-5.434 5.416a5.38 5.38 0 0 0-.582 6.925l3.635 5.106c-1 1.909-1.8 3.89-2.417 5.943L4.489 34.55A5.369 5.369 0 0 0 0 39.856v7.651c0 2.636 1.89 4.871 4.489 5.307l6.18 1.054a33.631 33.631 0 0 0 2.49 5.907l-3.581 4.98a5.358 5.358 0 0 0 .581 6.924l5.416 5.416a5.335 5.335 0 0 0 3.799 1.581 5.28 5.28 0 0 0 3.107-1l5.107-3.634a34.381 34.381 0 0 0 5.743 2.362l1.018 6.107A5.369 5.369 0 0 0 39.656 87h7.67c2.635 0 4.87-1.89 5.306-4.489l1.036-6.107a34.48 34.48 0 0 0 5.925-2.453l5.034 3.598c.909.655 2 1 3.126 1 1.436 0 2.78-.563 3.798-1.581l5.416-5.416a5.38 5.38 0 0 0 .582-6.924l-3.599-5.053c1-1.908 1.836-3.89 2.454-5.925l6.106-1.017A5.37 5.37 0 0 0 87 47.326v-7.652a5.305 5.305 0 0 0-4.453-5.307z"/>
        <filter id="d" width="116.1%" height="116.1%" x="-8%" y="-5.7%" filterUnits="objectBoundingBox">
            <feOffset dy="2" in="SourceAlpha" result="shadowOffsetOuter1"/>
            <feGaussianBlur in="shadowOffsetOuter1" result="shadowBlurOuter1" stdDeviation="2"/>
            <feComposite in="shadowBlurOuter1" in2="SourceAlpha" operator="out" result="shadowBlurOuter1"/>
            <feColorMatrix in="shadowBlurOuter1" values="0 0 0 0 0 0 0 0 0 0 0 0 0 0 0 0 0 0 0.15 0"/>
        </filter>
        <linearGradient id="f" x1="50%" x2="50%" y1="0%" y2="100%">
            <stop offset="0%" stop-color="#50A7E6"/>
            <stop offset="100%" stop-color="#2E4550"/>
        </linearGradient>
        <rect id="a" width="260" height="270" x="53" y="76" rx="6"/>
        <mask id="g" width="260" height="270" x="0" y="0" fill="#fff">
            <use xlink:href="#a"/>
        </mask>
        <linearGradient id="h" x1="50%" x2="50%" y1="137.073%" y2="-32.921%">
            <stop offset="0%" stop-color="#50A7E6"/>
            <stop offset="100%" stop-color="#2E4550"/>
        </linearGradient>
        <path id="j" d="M20.257 24.975c5.04-2.197 8.554-7.14 8.555-12.894C28.811 6.947 26.01 2.47 21.834 0v11.978c0 2.92-2.42 5.294-5.405 5.294h-4.05c-2.985-.001-5.403-2.371-5.403-5.297L6.974 0C2.799 2.47 0 6.953 0 12.081c.001 5.754 3.516 10.695 8.551 12.894v47.48c-3.364 1.96-5.625 5.552-5.625 9.666 0 6.214 5.14 11.25 11.48 11.25 6.338 0 11.48-5.035 11.48-11.25 0-4.114-2.263-7.706-5.628-9.665V24.975z"/>
        <filter id="i" width="183.3%" height="127.7%" x="-41.6%" y="-12.7%" filterUnits="objectBoundingBox">
            <feMorphology in="SourceAlpha" operator="dilate" radius="5" result="shadowSpreadOuter1"/>
            <feOffset dy="2" in="shadowSpreadOuter1" result="shadowOffsetOuter1"/>
            <feGaussianBlur in="shadowOffsetOuter1" result="shadowBlurOuter1" stdDeviation="2"/>
            <feComposite in="shadowBlurOuter1" in2="SourceAlpha" operator="out" result="shadowBlurOuter1"/>
            <feColorMatrix in="shadowBlurOuter1" values="0 0 0 0 0 0 0 0 0 0 0 0 0 0 0 0 0 0 0.15 0"/>
        </filter>
    </defs>
    <g fill="none" fill-rule="evenodd" transform="translate(4 7)">
        <g fill-rule="nonzero">
            <use fill="#000" filter="url(#b)" xlink:href="#c"/>
            <path fill="#2E4550" fill-rule="evenodd" stroke="#FFF" stroke-width="5" d="M316.914 132.967a57.188 57.188 0 0 0 37.82-21.658L320 91.423c-.967.69-2 1.285-3.085 1.774v39.77zm-52.692-21.656a57.193 57.193 0 0 0 37.82 21.656v-39.77a18.09 18.09 0 0 1-3.083-1.772l-34.737 19.886zm37.82-90.54a57.18 57.18 0 0 0-37.82 21.652l34.735 19.888c.968-.69 2-1.285 3.085-1.773V20.771zm52.69 21.652a57.175 57.175 0 0 0-37.818-21.652v39.767a18.023 18.023 0 0 1 3.084 1.773l34.734-19.888zm-63.23 36.202a17.876 17.876 0 0 1 0-3.515L256.74 55.207a55.83 55.83 0 0 0-4.355 21.66c0 7.528 1.495 14.851 4.354 21.66l34.763-19.902zm70.714 19.901a55.794 55.794 0 0 0 4.355-21.658 55.79 55.79 0 0 0-4.356-21.663L327.45 75.11a17.853 17.853 0 0 1 0 3.513l34.765 19.903zm18.696-13.071a70.313 70.313 0 0 1-5.251 19.391l6.633 5.672-7.033 12.065-8.278-2.874a72.245 72.245 0 0 1-14.31 14.195l2.894 8.22-12.15 6.951-5.703-6.57a71.829 71.829 0 0 1-19.597 5.223l-1.632 8.508-14.016-.003-1.622-8.505a71.84 71.84 0 0 1-19.601-5.222l-5.712 6.57-12.143-6.956 2.896-8.212a72.272 72.272 0 0 1-14.315-14.198l-8.282 2.867-7.023-12.066 6.628-5.659a70.293 70.293 0 0 1-5.252-19.399l-8.583-1.618.004-13.94 8.579-1.612a70.32 70.32 0 0 1 5.253-19.403l-6.63-5.664 7.028-12.057 8.278 2.866a72.333 72.333 0 0 1 14.316-14.2l-2.891-8.215 12.138-6.95 5.709 6.57a71.797 71.797 0 0 1 19.602-5.222l1.63-8.508h14.004l1.632 8.508a71.761 71.761 0 0 1 19.598 5.219l5.715-6.575 12.143 6.966-2.899 8.21a72.252 72.252 0 0 1 14.312 14.195l8.29-2.87 7.02 12.07-6.63 5.66a70.39 70.39 0 0 1 5.251 19.394l8.589 1.62-.007 13.944-8.582 1.614z"/>
        </g>
        <g fill-rule="nonzero">
            <g transform="translate(0 303)">
                <use fill="#000" filter="url(#d)" xlink:href="#e"/>
                <path fill="#2E4550" fill-rule="evenodd" stroke="#FFF" stroke-linejoin="square" stroke-width="5" d="M82.133 36.833h-.004l-7.622-1.294-.455-1.468a31.98 31.98 0 0 0-2.275-5.496l-.722-1.365.898-1.257 3.596-5.03a2.861 2.861 0 0 0-.313-3.707L69.82 11.8a2.835 2.835 0 0 0-2.03-.849c-.603 0-1.164.18-1.658.536l-6.307 4.492-1.363-.719a31.617 31.617 0 0 0-5.692-2.342l-1.49-.446-.259-1.533-1.018-6.036A2.869 2.869 0 0 0 47.162 2.5H39.51a2.87 2.87 0 0 0-2.843 2.41l-1.311 7.688-1.462.456a31.13 31.13 0 0 0-5.467 2.305l-1.377.742-6.267-4.513a2.836 2.836 0 0 0-1.665-.528 2.82 2.82 0 0 0-2.033.852l-5.432 5.413a2.88 2.88 0 0 0-.312 3.707l4.525 6.357-.712 1.36a31.178 31.178 0 0 0-2.238 5.503l-.448 1.486-1.53.259-6.036 1.018A2.869 2.869 0 0 0 2.5 39.856v7.651a2.87 2.87 0 0 0 2.41 2.843l7.688 1.311.456 1.462a31.131 31.131 0 0 0 2.305 5.467l.741 1.376-.912 1.268-3.574 4.97a2.861 2.861 0 0 0 .313 3.707l5.416 5.416a2.835 2.835 0 0 0 2.03.85c.603 0 1.165-.181 1.659-.537l6.358-4.526 1.36.714a31.872 31.872 0 0 0 5.326 2.19l1.468.458.253 1.517 1.018 6.104a2.869 2.869 0 0 0 2.84 2.403h7.67a2.87 2.87 0 0 0 2.842-2.407l1.293-7.622 1.468-.455a31.98 31.98 0 0 0 5.496-2.275l1.366-.722 1.257.898 5.04 3.604a2.836 2.836 0 0 0 1.666.528c.768 0 1.478-.296 2.03-.849l5.417-5.416a2.88 2.88 0 0 0 .313-3.706l-4.49-6.303.713-1.36a31.718 31.718 0 0 0 2.276-5.49l.45-1.486 1.531-.255 6.104-1.017a2.87 2.87 0 0 0 2.403-2.841V39.64c.02-1.391-.975-2.573-2.367-2.807zm.83-4.93h.002l-.004-.001h.002z"/>
            </g>
            <path fill="#FFF" d="M43.69 327.398c-10.437 0-18.914 8.477-18.914 18.913s8.477 18.913 18.913 18.913 18.913-8.477 18.913-18.913-8.477-18.913-18.913-18.913zm0 32.883c-7.709 0-13.97-6.262-13.97-13.97 0-7.708 6.261-13.97 13.97-13.97 7.707 0 13.969 6.262 13.969 13.97 0 7.708-6.262 13.97-13.97 13.97z"/>
        </g>
        <path stroke="#FFF" stroke-linecap="round" stroke-width="3" d="M45 337c-5.523 0-10 4.477-10 10"/>
        <rect width="258.398" height="267.94" x="54.035" y="76.868" fill="#2E4550" fill-rule="nonzero" stroke="url(#f)" stroke-width="13" rx="2"/>
        <use stroke="#FFF" stroke-dasharray="3" stroke-linecap="square" stroke-linejoin="round" stroke-width="2" mask="url(#g)" xlink:href="#a"/>
        <g fill-rule="nonzero">
            <path fill="#FFF" d="M74.054 308.607v9.747l8.657 4.901 8.657-4.901v-9.747l-8.657-4.9-8.657 4.9zm-2.473 11.203v-12.659l11.13-6.302 11.13 6.302v12.66l-11.13 6.3-11.13-6.3z"/>
            <path fill="#FFF" d="M87.857 313.017c0 2.817-2.304 5.101-5.146 5.101s-5.146-2.284-5.146-5.101 2.304-5.101 5.146-5.101 5.146 2.284 5.146 5.1" opacity=".4"/>
            <path fill="#50A7E6" d="M87.857 293.446c0 2.766-2.304 20.035-5.146 20.035s-5.146-17.269-5.146-20.035c0-2.766 2.304-5.008 5.146-5.008s5.146 2.242 5.146 5.008"/>
        </g>
        <g fill-rule="nonzero">
            <path fill="#FFF" d="M134.594 309.144v9.746l8.655 4.902 8.658-4.902v-9.746l-8.658-4.901-8.655 4.901zm-2.474 11.203v-12.66l11.13-6.301 11.13 6.302v12.659l-11.13 6.301-11.13-6.301z"/>
            <path fill="#FFF" d="M148.396 314.482c0 2.818-2.304 5.1-5.146 5.1s-5.146-2.282-5.146-5.1c0-2.818 2.304-5.102 5.146-5.102s5.146 2.284 5.146 5.102" opacity=".4"/>
            <path fill="#50A7E6" d="M148.396 294.91c0 2.766-2.304 20.035-5.146 20.035s-5.146-17.269-5.146-20.035c0-2.766 2.304-5.008 5.146-5.008s5.146 2.242 5.146 5.008"/>
        </g>
        <g fill-rule="nonzero">
            <path fill="#FFF" d="M105.062 308.607v9.747l8.657 4.901 8.657-4.901v-9.747l-8.657-4.9-8.657 4.9zm-2.473 11.203v-12.659l11.13-6.302 11.13 6.302v12.66l-11.13 6.3-11.13-6.3z"/>
            <path fill="#FFF" d="M118.865 313.017c0 2.817-2.304 5.101-5.146 5.101s-5.146-2.284-5.146-5.101 2.304-5.101 5.146-5.101 5.146 2.284 5.146 5.1" opacity=".4"/>
            <path fill="#50A7E6" d="M118.865 293.446c0 2.766-2.304 20.035-5.146 20.035s-5.146-17.269-5.146-20.035c0-2.766 2.304-5.008 5.146-5.008s5.146 2.242 5.146 5.008"/>
        </g>
        <path stroke="#EEE" d="M64.29 87.117h237.89v247.441H64.29z"/>
        <g fill="#FFF" fill-rule="nonzero">
            <path d="M153.703 183.019c0 1.617-1.322 2.928-2.953 2.928-1.63 0-2.953-1.311-2.953-2.928s1.322-2.928 2.953-2.928c1.63 0 2.953 1.31 2.953 2.928M143.367 183.019c0 1.617-1.322 2.928-2.953 2.928-1.63 0-2.953-1.311-2.953-2.928s1.322-2.928 2.953-2.928c1.63 0 2.953 1.31 2.953 2.928M133.031 183.019c0 1.617-1.322 2.928-2.953 2.928-1.63 0-2.953-1.311-2.953-2.928s1.322-2.928 2.953-2.928c1.631 0 2.953 1.31 2.953 2.928M121.219 183.019c0 1.617-1.323 2.928-2.953 2.928-1.631 0-2.954-1.311-2.954-2.928s1.323-2.928 2.954-2.928c1.63 0 2.953 1.31 2.953 2.928M110.883 183.019c0 1.617-1.322 2.928-2.953 2.928-1.631 0-2.953-1.311-2.953-2.928s1.322-2.928 2.953-2.928c1.63 0 2.953 1.31 2.953 2.928M99.07 183.019c0 1.617-1.322 2.928-2.953 2.928-1.63 0-2.953-1.311-2.953-2.928s1.322-2.928 2.953-2.928c1.631 0 2.953 1.31 2.953 2.928M88.734 183.019c0 1.617-1.322 2.928-2.953 2.928-1.63 0-2.953-1.311-2.953-2.928s1.322-2.928 2.953-2.928c1.631 0 2.953 1.31 2.953 2.928M76.922 183.019c0 1.617-1.322 2.928-2.953 2.928-1.631 0-2.953-1.311-2.953-2.928s1.322-2.928 2.953-2.928c1.63 0 2.953 1.31 2.953 2.928M153.703 172.77c0 1.617-1.322 2.928-2.953 2.928-1.63 0-2.953-1.311-2.953-2.928s1.322-2.928 2.953-2.928c1.63 0 2.953 1.31 2.953 2.928M143.367 172.77c0 1.617-1.322 2.928-2.953 2.928-1.63 0-2.953-1.311-2.953-2.928s1.322-2.928 2.953-2.928c1.63 0 2.953 1.31 2.953 2.928M133.031 172.77c0 1.617-1.322 2.928-2.953 2.928-1.63 0-2.953-1.311-2.953-2.928s1.322-2.928 2.953-2.928c1.631 0 2.953 1.31 2.953 2.928M121.219 172.77c0 1.617-1.323 2.928-2.953 2.928-1.631 0-2.954-1.311-2.954-2.928s1.323-2.928 2.954-2.928c1.63 0 2.953 1.31 2.953 2.928M110.883 172.77c0 1.617-1.322 2.928-2.953 2.928-1.631 0-2.953-1.311-2.953-2.928s1.322-2.928 2.953-2.928c1.63 0 2.953 1.31 2.953 2.928M99.07 172.77c0 1.617-1.322 2.928-2.953 2.928-1.63 0-2.953-1.311-2.953-2.928s1.322-2.928 2.953-2.928c1.631 0 2.953 1.31 2.953 2.928M88.734 172.77c0 1.617-1.322 2.928-2.953 2.928-1.63 0-2.953-1.311-2.953-2.928s1.322-2.928 2.953-2.928c1.631 0 2.953 1.31 2.953 2.928M76.922 172.77c0 1.617-1.322 2.928-2.953 2.928-1.631 0-2.953-1.311-2.953-2.928s1.322-2.928 2.953-2.928c1.63 0 2.953 1.31 2.953 2.928M153.703 162.52c0 1.618-1.322 2.93-2.953 2.93-1.63 0-2.953-1.312-2.953-2.93 0-1.616 1.322-2.928 2.953-2.928 1.63 0 2.953 1.312 2.953 2.929M143.367 162.52c0 1.618-1.322 2.93-2.953 2.93-1.63 0-2.953-1.312-2.953-2.93 0-1.616 1.322-2.928 2.953-2.928 1.63 0 2.953 1.312 2.953 2.929M133.031 162.52c0 1.618-1.322 2.93-2.953 2.93-1.63 0-2.953-1.312-2.953-2.93 0-1.616 1.322-2.928 2.953-2.928 1.631 0 2.953 1.312 2.953 2.929M121.219 162.52c0 1.618-1.323 2.93-2.953 2.93-1.631 0-2.954-1.312-2.954-2.93 0-1.616 1.323-2.928 2.954-2.928 1.63 0 2.953 1.312 2.953 2.929M110.883 162.52c0 1.618-1.322 2.93-2.953 2.93-1.631 0-2.953-1.312-2.953-2.93 0-1.616 1.322-2.928 2.953-2.928 1.63 0 2.953 1.312 2.953 2.929M99.07 162.52c0 1.618-1.322 2.93-2.953 2.93-1.63 0-2.953-1.312-2.953-2.93 0-1.616 1.322-2.928 2.953-2.928 1.631 0 2.953 1.312 2.953 2.929M88.734 162.52c0 1.618-1.322 2.93-2.953 2.93-1.63 0-2.953-1.312-2.953-2.93 0-1.616 1.322-2.928 2.953-2.928 1.631 0 2.953 1.312 2.953 2.929M76.922 162.52c0 1.618-1.322 2.93-2.953 2.93-1.631 0-2.953-1.312-2.953-2.93 0-1.616 1.322-2.928 2.953-2.928 1.63 0 2.953 1.312 2.953 2.929M153.703 150.808c0 1.617-1.322 2.928-2.953 2.928-1.63 0-2.953-1.311-2.953-2.928 0-1.618 1.322-2.929 2.953-2.929 1.63 0 2.953 1.311 2.953 2.929M143.367 150.808c0 1.617-1.322 2.928-2.953 2.928-1.63 0-2.953-1.311-2.953-2.928 0-1.618 1.322-2.929 2.953-2.929 1.63 0 2.953 1.311 2.953 2.929M133.031 150.808c0 1.617-1.322 2.928-2.953 2.928-1.63 0-2.953-1.311-2.953-2.928 0-1.618 1.322-2.929 2.953-2.929 1.631 0 2.953 1.311 2.953 2.929M121.219 150.808c0 1.617-1.323 2.928-2.953 2.928-1.631 0-2.954-1.311-2.954-2.928 0-1.618 1.323-2.929 2.954-2.929 1.63 0 2.953 1.311 2.953 2.929M110.883 150.808c0 1.617-1.322 2.928-2.953 2.928-1.631 0-2.953-1.311-2.953-2.928 0-1.618 1.322-2.929 2.953-2.929 1.63 0 2.953 1.311 2.953 2.929M96.117 153.736c-1.63 0-2.953-1.311-2.953-2.928 0-1.618 1.322-2.929 2.953-2.929 1.631 0 2.953 1.311 2.953 2.929 0 1.617-1.322 2.928-2.953 2.928zM88.734 150.808c0 1.617-1.322 2.928-2.953 2.928-1.63 0-2.953-1.311-2.953-2.928 0-1.618 1.322-2.929 2.953-2.929 1.631 0 2.953 1.311 2.953 2.929M76.922 150.808c0 1.617-1.322 2.928-2.953 2.928-1.631 0-2.953-1.311-2.953-2.928 0-1.618 1.322-2.929 2.953-2.929 1.63 0 2.953 1.311 2.953 2.929M153.703 139.094c0 1.617-1.322 2.929-2.953 2.929-1.63 0-2.953-1.312-2.953-2.929 0-1.617 1.322-2.928 2.953-2.928 1.63 0 2.953 1.311 2.953 2.928M143.367 139.094c0 1.617-1.322 2.929-2.953 2.929-1.63 0-2.953-1.312-2.953-2.929 0-1.617 1.322-2.928 2.953-2.928 1.63 0 2.953 1.311 2.953 2.928M133.031 139.094c0 1.617-1.322 2.929-2.953 2.929-1.63 0-2.953-1.312-2.953-2.929 0-1.617 1.322-2.928 2.953-2.928 1.631 0 2.953 1.311 2.953 2.928M121.219 139.094c0 1.617-1.323 2.929-2.953 2.929-1.631 0-2.954-1.312-2.954-2.929 0-1.617 1.323-2.928 2.954-2.928 1.63 0 2.953 1.311 2.953 2.928M110.883 139.094c0 1.617-1.322 2.929-2.953 2.929-1.631 0-2.953-1.312-2.953-2.929 0-1.617 1.322-2.928 2.953-2.928 1.63 0 2.953 1.311 2.953 2.928M99.07 139.094c0 1.617-1.322 2.929-2.953 2.929-1.63 0-2.953-1.312-2.953-2.929 0-1.617 1.322-2.928 2.953-2.928 1.631 0 2.953 1.311 2.953 2.928M88.734 139.094c0 1.617-1.322 2.929-2.953 2.929-1.63 0-2.953-1.312-2.953-2.929 0-1.617 1.322-2.928 2.953-2.928 1.631 0 2.953 1.311 2.953 2.928M76.922 139.094c0 1.617-1.322 2.929-2.953 2.929-1.631 0-2.953-1.312-2.953-2.929 0-1.617 1.322-2.928 2.953-2.928 1.63 0 2.953 1.311 2.953 2.928"/>
        </g>
        <path stroke="#EEE" stroke-linecap="square" d="M162.563 88.312V334.83"/>
        <g transform="translate(177.328 256.226)">
            <g stroke="#FFF" stroke-linecap="round" stroke-width="4">
                <path d="M8.715.454v69.961M37.146.454v69.961M65.576.454v69.961M96.584.454v69.961"/>
            </g>
            <ellipse cx="8.121" cy="30.015" fill="#50A7E6" fill-rule="nonzero" rx="8.121" ry="8.053"/>
            <ellipse cx="37.652" cy="50.513" fill="#50A7E6" fill-rule="nonzero" rx="8.121" ry="8.053"/>
            <ellipse cx="65.707" cy="19.766" fill="#50A7E6" fill-rule="nonzero" rx="8.121" ry="8.053"/>
            <ellipse cx="96.715" cy="19.766" fill="#50A7E6" fill-rule="nonzero" rx="8.121" ry="8.053"/>
        </g>
        <g fill="#FFF" fill-rule="nonzero">
            <path d="M220.88 220.533c0 2.802-2.292 5.072-5.117 5.072-2.826 0-5.117-2.27-5.117-5.072 0-2.801 2.29-5.073 5.117-5.073 2.825 0 5.116 2.272 5.116 5.073"/>
            <path d="M215.763 211.853c-4.828 0-8.756 3.894-8.756 8.68s3.928 8.68 8.756 8.68 8.755-3.894 8.755-8.68-3.927-8.68-8.755-8.68zm0 19.839c-6.207 0-11.257-5.006-11.257-11.16 0-6.152 5.05-11.158 11.257-11.158s11.257 5.006 11.257 11.159c0 6.153-5.05 11.159-11.257 11.159z"/>
        </g>
        <g fill-rule="nonzero">
            <path fill="#FFF" d="M194.842 220.533c0 5.603-4.581 10.144-10.233 10.144-5.653 0-10.234-4.541-10.234-10.144s4.581-10.145 10.234-10.145c5.652 0 10.233 4.542 10.233 10.145"/>
            <path fill="#2E4550" d="M178.264 228.648l-1.842-1.826 7.368-7.304 1.842 1.826-7.368 7.304"/>
        </g>
        <g fill="#FFF" fill-rule="nonzero">
            <path d="M281.418 220.533c0 2.802-2.29 5.072-5.116 5.072-2.826 0-5.117-2.27-5.117-5.072 0-2.801 2.29-5.073 5.117-5.073 2.825 0 5.116 2.272 5.116 5.073"/>
            <path d="M276.302 211.853c-4.828 0-8.756 3.894-8.756 8.68s3.928 8.68 8.756 8.68 8.755-3.894 8.755-8.68-3.927-8.68-8.755-8.68zm0 19.839c-6.207 0-11.257-5.006-11.257-11.16 0-6.152 5.05-11.158 11.257-11.158s11.257 5.006 11.257 11.159c0 6.153-5.05 11.159-11.257 11.159z"/>
        </g>
        <g fill-rule="nonzero">
            <path fill="#FFF" d="M255.381 220.533c0 5.603-4.581 10.144-10.233 10.144s-10.234-4.541-10.234-10.144 4.582-10.145 10.234-10.145 10.233 4.542 10.233 10.145"/>
            <path fill="#2E4550" d="M238.803 228.648l-1.842-1.826 7.368-7.304 1.842 1.826-7.368 7.304"/>
        </g>
        <g fill-rule="nonzero">
            <path fill="#FFF" d="M72.492 265.66h10.766v-11.785H72.492z" opacity=".403"/>
            <path fill="#FFF" d="M89.718 265.66h10.767v-11.785H89.718z"/>
            <path fill="#FFF" d="M105.868 265.66h10.766v-11.785h-10.766z" opacity=".733"/>
            <path fill="#FFF" d="M123.094 265.66h10.766v-11.785h-10.766z" opacity=".403"/>
            <path fill="#FFF" d="M140.32 265.66h10.766v-11.785H140.32zM72.492 249.589h10.766v-11.786H72.492z" opacity=".733"/>
            <path fill="#BFBFBF" d="M89.718 249.589h10.767v-11.786H89.718z"/>
            <path fill="#FFF" d="M105.868 249.589h10.766v-11.786h-10.766z" opacity=".733"/>
            <path fill="#FFF" d="M123.094 249.589h10.766v-11.786h-10.766z" opacity=".403"/>
            <path fill="#FFF" d="M140.32 249.589h10.766v-11.786H140.32z"/>
            <path fill="#BFBFBF" d="M72.492 232.446h10.766V220.66H72.492z"/>
            <path fill="#FFF" d="M89.718 232.446h10.767V220.66H89.718z" opacity=".403"/>
            <path fill="#FFF" d="M105.868 232.446h10.766V220.66h-10.766z"/>
            <path fill="#FFF" d="M123.094 232.446h10.766V220.66h-10.766zM140.32 232.446h10.766V220.66H140.32zM72.492 215.303h10.766v-11.786H72.492z" opacity=".403"/>
            <path fill="#FFF" d="M89.718 215.303h10.767v-11.786H89.718zM105.868 215.303h10.766v-11.786h-10.766z" opacity=".733"/>
            <path fill="#FFF" d="M123.094 215.303h10.766v-11.786h-10.766z" opacity=".403"/>
            <path fill="#FFF" d="M140.32 215.303h10.766v-11.786H140.32z" opacity=".733"/>
        </g>
        <path stroke="#BFBFBF" stroke-linecap="square" stroke-opacity=".393" d="M65.1 128.845h97.01"/>
        <path stroke="#EEE" stroke-linecap="square" d="M65.1 276.725h97.01M161.55 241.585h137.597M65.1 197.66h234.32"/>
        <g fill-rule="nonzero">
            <path fill="#FFF" d="M69.54 114.204h17.718v-17.57H69.539zM137.46 114.204h17.72v-17.57h-17.72zM113.836 114.204h17.719v-17.57h-17.72z"/>
            <path fill="#50A7E6" d="M91.688 114.204h17.718v-17.57H91.687z"/>
            <path fill="#FFF" d="M100.547 108.933c-1.957 0-3.544-1.574-3.544-3.514 0-1.94 1.587-3.514 3.544-3.514s3.544 1.573 3.544 3.514c0 1.94-1.587 3.514-3.544 3.514z"/>
        </g>
        <g fill-rule="nonzero">
            <path fill="#FFF" d="M192.668 104.85a8.003 8.003 0 0 1 0 11.387c-3.17 3.146-8.313 3.146-11.485 0a8.005 8.005 0 0 1 0-11.388c3.171-3.145 8.314-3.145 11.485 0"/>
            <path fill="#50A7E6" d="M189.172 108.347l1.969 5.857-5.907-1.953z"/>
            <path fill="#FFF" d="M243.2 116.237a8.004 8.004 0 0 1 0-11.388c3.17-3.145 8.312-3.145 11.484 0a8.004 8.004 0 0 1 0 11.388c-3.172 3.146-8.314 3.146-11.485 0"/>
            <path fill="#50A7E6" d="M250.68 107.907l-3.938 3.904-1.969-5.856 5.907 1.952"/>
            <path fill="#FFF" d="M226.055 110.544c0 4.447-3.636 8.052-8.121 8.052s-8.12-3.605-8.122-8.052c.001-4.448 3.637-8.054 8.122-8.053 4.485-.001 8.12 3.605 8.12 8.053"/>
            <path fill="#50A7E6" d="M214.719 109.811h5.906l-2.953 5.857-2.953-5.857M279.95 102.49c4.484 0 8.12 3.606 8.12 8.053 0 4.448-3.636 8.053-8.12 8.053-4.486 0-8.122-3.605-8.122-8.053 0-4.447 3.636-8.052 8.121-8.052"/>
            <path fill="#FFF" d="M279.64 114.204v-5.857l5.907 2.928-5.906 2.929"/>
            <path fill="url(#h)" d="M0 80.528h115.172V24.891H0z" transform="translate(175.852 102.49)"/>
            <path stroke="#FFF" stroke-width="3" d="M281.903 150.674v20.587h-11.725v-10.293h-19.543v10.293h-20.846v10.294h-11.726v-30.88h-10.422V140.38h-9.12v20.587h-21.498v-1.287h20.195v-20.587h11.725v10.294h10.423v30.88h9.12v-10.293h20.846V159.68h22.149v10.294h9.119v-20.587h10.423"/>
        </g>
        <g fill-rule="nonzero">
            <g transform="translate(10.477 29.283)">
                <use fill="#000" filter="url(#i)" xlink:href="#j"/>
                <path fill="#2E4550" fill-rule="evenodd" stroke="#FFF" stroke-width="5" d="M22.757 26.523l.001 44.585c3.49 2.558 5.628 6.601 5.628 11.013 0 7.606-6.271 13.75-13.98 13.75-7.71 0-13.98-6.144-13.98-13.75 0-4.412 2.137-8.455 5.625-11.012V26.522c-5.206-2.91-8.55-8.37-8.551-14.441C-2.499 6.184.66.83 5.701-2.152l3.772-2.231V0l.003 11.975c0 1.534 1.288 2.796 2.903 2.797h4.05c1.614 0 2.905-1.265 2.905-2.794v-16.36l3.772 2.23c5.046 2.983 8.205 8.333 8.206 14.234-.001 6.072-3.346 11.532-8.555 14.44z"/>
            </g>
            <path fill="#FFF" d="M24.83 117.276c-3.166 0-5.74-2.518-5.74-5.619 0-3.106 2.574-5.625 5.74-5.625 3.163 0 5.738 2.52 5.737 5.624 0 3.102-2.575 5.62-5.737 5.62z"/>
        </g>
    </g>
</svg>
