<svg xmlns="http://www.w3.org/2000/svg" width="377" height="414" viewBox="0 0 377 414">
    <defs>
        <linearGradient id="a" x1="50%" x2="50%" y1="0%" y2="100%">
            <stop offset="0%" stop-color="#50A7E6"/>
            <stop offset="100%" stop-color="#2E4550"/>
        </linearGradient>
    </defs>
    <g fill="none" fill-rule="evenodd">
        <path fill="#2E4550" fill-rule="nonzero" stroke="url(#a)" stroke-width="13" d="M314.386 190.252H48.416c-23.316 0-42.286-19.065-42.286-42.483 0-21.137 15.45-38.714 35.612-41.944 3.498-31.897 32.38-56.472 65.761-52.253C116.677 22.15 145.616 0 178.767 0c29.435 0 55.683 17.277 67.617 43.745 7.624-3.236 15.818-4.926 24.087-4.926 33.07 0 60.189 26.109 61.986 58.891 17.772 7.293 29.786 24.877 29.786 44.468 0 26.503-21.476 48.074-47.857 48.074z" transform="translate(1 7)"/>
        <path fill-rule="nonzero" stroke="#FFF" stroke-dasharray="3,3" d="M315.386 197.252H49.416c-23.316 0-42.286-19.065-42.286-42.483 0-21.137 15.45-38.714 35.612-41.944 3.498-31.897 32.38-56.472 65.761-52.253C117.677 29.15 146.616 7 179.767 7c29.435 0 55.683 17.277 67.617 43.745 7.624-3.236 15.818-4.926 24.087-4.926 33.07 0 60.189 26.109 61.986 58.891 17.772 7.293 29.786 24.877 29.786 44.468 0 26.503-21.476 48.074-47.857 48.074z"/>
        <g fill="#50A7E6">
            <g transform="translate(11.5 293.34)">
                <circle cx="60.5" cy="60.661" r="60" opacity=".09"/>
                <circle cx="60" cy="61.161" r="47.5" opacity=".181"/>
                <circle cx="60" cy="61.161" r="35.5" opacity=".326"/>
            </g>
            <g transform="translate(134.5 294.34)">
                <circle cx="60.5" cy="59.661" r="60" opacity=".09"/>
                <circle cx="60" cy="60.161" r="47.5" opacity=".181"/>
                <circle cx="60" cy="60.161" r="35.5" opacity=".326"/>
            </g>
            <g transform="translate(256.5 294.34)">
                <circle cx="60.5" cy="59.661" r="60" opacity=".09"/>
                <circle cx="60" cy="60.161" r="47.5" opacity=".181"/>
                <circle cx="60" cy="60.161" r="35.5" opacity=".326"/>
            </g>
        </g>
        <g fill-rule="nonzero">
            <path fill="#2E4550" d="M233.364 390.9v7.462c0 1.96-1.637 3.638-3.546 3.638h-7.636c-1.91 0-3.546-1.679-3.546-3.638v-7.461h-49.363v7.461c0 1.96-1.637 3.638-3.546 3.638h-7.636c-1.91 0-3.546-1.679-3.546-3.638v-7.461h-1.363c-2.727-9.327-3.364-18.747 0-28.074l5.182-9.048-3.273-2.238h-8.182c-1 0-1.909-.84-1.909-1.959v-4.57c0-1.026.818-1.959 1.91-1.959h9.726c1 0 1.91.84 1.91 1.96v4.01l1.09 1.865 3.273-13.804v-.093c.546-1.772 1.546-3.171 3-4.01 1.364-.747 3-1.027 4.91-.933h46.09c2-.187 3.636.186 4.91.932 1.454.84 2.454 2.145 3 4.01v.094l3.363 13.99 1.273-2.051v-4.01c0-1.027.818-1.96 1.909-1.96h9.727c1 0 1.909.84 1.909 1.96v4.57c0 1.025-.818 1.958-1.91 1.958h-8.18l-3.728 2.518 5.363 8.768c3.637 9.513 2.728 18.84 0 28.074h-1.181z"/>
            <path fill="#FFF" d="M162 365.97c-3.91 0-7 3.276-7 7.206 0 4.025 3.182 7.206 7 7.206 3.91 0 7-3.275 7-7.206 0-4.024-3.09-7.205-7-7.205zM224 365.97c-3.91 0-7 3.276-7 7.206 0 4.025 3.182 7.206 7 7.206 3.91 0 7-3.275 7-7.206 0-4.024-3.182-7.205-7-7.205zM177.874 367c-1.617 0-2.874 1.321-2.874 3.02v5.284c0 1.698 1.257 3.02 2.874 3.02h31.252c1.617 0 2.874-1.322 2.874-3.02v-5.284c0-1.699-1.257-3.02-2.874-3.02h-31.252zM199.326 336.151h-28.68c-1.183-.093-2.094 0-2.64.374-.455.28-.82.747-1.001 1.4l-2.823 11.67-.182.934h60l-3.005-12.604c-.182-.653-.546-1.12-1.001-1.4-.637-.374-1.457-.467-2.64-.374h-18.028z"/>
        </g>
        <path fill="#2E4550" fill-rule="nonzero" d="M71 398.14c-2.88 0-5.223-2.38-5.223-5.297 0-2.918 2.344-5.293 5.223-5.293 2.88 0 5.223 2.375 5.223 5.293s-2.344 5.296-5.223 5.296zm-6.017-71.424H77.02c.918 0 1.665.753 1.665 1.692 0 .938-.747 1.691-1.665 1.691H64.983a1.68 1.68 0 0 1-1.67-1.691c0-.939.751-1.692 1.67-1.692zM84.802 319H57.195C50.475 319 45 324.548 45 331.355v59.282C45 397.452 50.474 403 57.195 403h27.607C91.526 403 97 397.452 97 390.637v-59.282C97 324.548 91.526 319 84.802 319z"/>
        <path fill="#FFF" fill-rule="nonzero" d="M49 383h44v-52H49z"/>
        <path fill="#FFF" d="M71.002 387c-3.032 0-5.502 2.47-5.502 5.498A5.51 5.51 0 0 0 71.002 398a5.507 5.507 0 0 0 5.498-5.502A5.506 5.506 0 0 0 71.002 387z"/>
        <path stroke="#2E4550" stroke-dasharray="4,8" stroke-linecap="round" stroke-width="3" d="M71.38 294.5v-98M194.38 294.5v-98M317.38 294.5v-98"/>
        <g fill-rule="nonzero" transform="translate(53.4 298.2)">
            <circle cx="17.887" cy="17.887" r="17.887" fill="#2E4550" stroke="#50A7E6" stroke-opacity=".44" stroke-width="2"/>
            <g fill="#50A7E6">
                <path d="M8.823 15.725c4.7-4.806 12.348-4.806 17.093.053l.106.122c.437.477 1.146.475 1.61.028a.131.131 0 0 0 .028-.023c.441-.452.434-1.205.006-1.673a3.002 3.002 0 0 0-.16-.18 14.16 14.16 0 0 0-20.318 0c-.45.461-.45 1.21.002 1.673.45.461 1.183.461 1.633 0"/>
                <path d="M22.693 20.683l.107.115c.428.45 1.127.45 1.587.029.009-.01.018-.016.026-.024.433-.424.429-1.134.005-1.575a3.82 3.82 0 0 0-.158-.172c-3.811-3.727-10.013-3.727-13.825 0a1.1 1.1 0 0 0 0 1.577 1.157 1.157 0 0 0 1.612 0c2.921-2.858 7.678-2.858 10.646.05M19.145 23.482a2.44 2.44 0 1 1-3.453 3.448 2.44 2.44 0 0 1 3.453-3.448"/>
            </g>
        </g>
        <g fill-rule="nonzero" transform="translate(297 321)">
            <path fill="#2E4550" d="M9.67.391h23v81h-23z"/>
            <path fill="#FFF" stroke="#2E4550" stroke-width="2" d="M41.67 57.646c0 2.622-2.256 4.745-5.032 4.745H5.7c-2.78 0-5.031-2.123-5.031-4.745v-32.51c0-2.621 2.251-4.745 5.031-4.745h30.937c2.776 0 5.032 2.124 5.032 4.746v32.509z"/>
            <circle cx="28.67" cy="45.391" r="10" fill="#2E4550"/>
            <circle cx="14.17" cy="33.891" r="4.5" fill="#2E4550"/>
        </g>
        <g fill-rule="nonzero" transform="translate(299.617 297.878)">
            <circle cx="18.757" cy="18.835" r="17.887" fill="#2E4550" stroke="#50A7E6"/>
            <path fill="#50A7E6" d="M25.26 15.113l-5.843-6.035h-1.024v8.023l-4.698-4.852-1.443 1.49 5.722 5.909-5.722 5.908 1.443 1.49 4.698-4.85v8.021h1.024l5.844-6.035-4.401-4.534 4.4-4.535zm-4.82-1.987l1.924 1.987-1.924 1.988v-3.975zm1.924 11.056L20.44 26.17v-3.974l1.924 1.987z"/>
        </g>
        <g transform="translate(175.991 299.33)">
            <circle cx="17.896" cy="18.557" r="17.887" fill="#2E4550" fill-rule="nonzero" stroke="#50A7E6"/>
            <path d="M6 6h24.391v24.391H6z"/>
            <g transform="translate(14.333 10.333)">
                <path fill="#50A7E6" stroke="#50A7E6" d="M3.667 5.667l3.666 12H0z"/>
                <path fill="#D8D8D8" d="M3.69 1.565V8.87"/>
                <circle cx="3.69" cy="1.261" r="1.218" fill="#50A7E6"/>
            </g>
            <g fill="#50A7E6" fill-rule="nonzero">
                <path d="M15.376 15.1c-1.78-1.74-1.78-4.573.02-6.33l.045-.04a.41.41 0 0 0 .001-.606.458.458 0 0 0-.62-.003l-.066.06a5.245 5.245 0 0 0 0 7.525c.17.167.448.167.62-.001a.421.421 0 0 0 0-.605"/>
                <path d="M16.2 10.028l.043-.04a.418.418 0 0 0 .01-.588l-.008-.01a.417.417 0 0 0-.583-.001 1.414 1.414 0 0 0-.064.058c-1.38 1.412-1.38 3.709 0 5.12a.407.407 0 0 0 .584 0 .429.429 0 0 0 0-.596c-1.058-1.082-1.058-2.844.019-3.943"/>
            </g>
            <g fill="#50A7E6" fill-rule="nonzero">
                <path d="M20.624 15.1c1.78-1.74 1.78-4.573-.02-6.33l-.045-.04a.41.41 0 0 1-.001-.606.458.458 0 0 1 .62-.003l.066.06a5.245 5.245 0 0 1 0 7.525.445.445 0 0 1-.62-.001.421.421 0 0 1 0-.605"/>
                <path d="M19.8 10.028l-.043-.04a.418.418 0 0 1-.01-.588l.008-.01a.417.417 0 0 1 .583-.001l.064.058c1.38 1.412 1.38 3.709 0 5.12a.407.407 0 0 1-.584 0 .429.429 0 0 1 0-.596c1.058-1.082 1.058-2.844-.019-3.943"/>
            </g>
        </g>
        <g>
            <g fill="#FFF" fill-rule="nonzero">
                <path d="M192.29 127.343l-6.457-1.096a36.462 36.462 0 0 0-2.594-6.265l3.805-5.324a5.666 5.666 0 0 0-.615-7.322l-5.727-5.727a5.641 5.641 0 0 0-4.017-1.672 5.584 5.584 0 0 0-3.286 1.057l-5.343 3.805a36.083 36.083 0 0 0-6.496-2.671l-1.076-6.381A5.677 5.677 0 0 0 154.872 91h-8.09a5.677 5.677 0 0 0-5.613 4.747l-1.114 6.534a35.564 35.564 0 0 0-6.246 2.633l-5.285-3.805a5.642 5.642 0 0 0-3.306-1.057c-1.518 0-2.96.596-4.017 1.672l-5.746 5.727a5.69 5.69 0 0 0-.615 7.323l3.844 5.4a35.615 35.615 0 0 0-2.556 6.285l-6.381 1.076a5.677 5.677 0 0 0-4.747 5.612v8.09a5.677 5.677 0 0 0 4.747 5.613l6.534 1.114a35.564 35.564 0 0 0 2.633 6.246l-3.786 5.266a5.666 5.666 0 0 0 .615 7.323l5.727 5.727a5.641 5.641 0 0 0 4.017 1.672 5.584 5.584 0 0 0 3.286-1.057l5.4-3.844a36.357 36.357 0 0 0 6.074 2.498l1.076 6.458a5.677 5.677 0 0 0 5.612 4.747h8.11a5.677 5.677 0 0 0 5.612-4.747l1.096-6.458a36.462 36.462 0 0 0 6.265-2.594l5.323 3.805a5.642 5.642 0 0 0 3.306 1.057c1.518 0 2.94-.595 4.017-1.672l5.727-5.727a5.69 5.69 0 0 0 .615-7.322l-3.806-5.343c1.058-2.018 1.942-4.113 2.595-6.265l6.457-1.077a5.678 5.678 0 0 0 4.748-5.611v-8.092c.038-2.786-1.96-5.15-4.71-5.611zm-1.553 13.593a.484.484 0 0 1-.411.486l-7.852 1.308a2.51 2.51 0 0 0-2.02 1.851 29.928 29.928 0 0 1-3.252 7.833 2.528 2.528 0 0 0 .112 2.749l4.618 6.506a.51.51 0 0 1-.056.635l-5.572 5.571a.475.475 0 0 1-.355.15.46.46 0 0 1-.28-.094l-6.487-4.617a2.526 2.526 0 0 0-2.749-.112 29.928 29.928 0 0 1-7.833 3.253 2.481 2.481 0 0 0-1.85 2.019l-1.328 7.852a.484.484 0 0 1-.486.41h-7.87a.484.484 0 0 1-.487-.41l-1.309-7.852a2.51 2.51 0 0 0-1.85-2.02 31.076 31.076 0 0 1-7.665-3.14 2.588 2.588 0 0 0-1.272-.337c-.504 0-1.028.15-1.458.468l-6.543 4.655a.556.556 0 0 1-.28.093.501.501 0 0 1-.356-.15l-5.571-5.57a.507.507 0 0 1-.056-.636l4.599-6.45a2.56 2.56 0 0 0 .112-2.767 29.646 29.646 0 0 1-3.29-7.814 2.56 2.56 0 0 0-2.02-1.851l-7.907-1.346a.484.484 0 0 1-.412-.486v-7.871c0-.243.169-.449.412-.486l7.795-1.309a2.528 2.528 0 0 0 2.038-1.87 29.898 29.898 0 0 1 3.197-7.851 2.496 2.496 0 0 0-.13-2.73l-4.656-6.543a.51.51 0 0 1 .056-.636l5.571-5.571c.131-.13.262-.15.356-.15a.46.46 0 0 1 .28.094l6.45 4.599a2.56 2.56 0 0 0 2.767.112 29.646 29.646 0 0 1 7.814-3.29 2.56 2.56 0 0 0 1.851-2.02l1.346-7.907a.484.484 0 0 1 .486-.412h7.871c.243 0 .449.169.486.412l1.309 7.796c.168.99.897 1.794 1.87 2.037a30.345 30.345 0 0 1 8.02 3.29c.86.505 1.925.468 2.748-.112l6.45-4.636a.556.556 0 0 1 .28-.093c.075 0 .224.018.355.15l5.571 5.57c.169.169.187.43.056.636l-4.617 6.487a2.526 2.526 0 0 0-.112 2.748 29.928 29.928 0 0 1 3.252 7.834 2.481 2.481 0 0 0 2.02 1.85l7.852 1.328a.484.484 0 0 1 .41.486v7.87h-.018z"/>
                <path d="M152 116c-11.036 0-20 8.964-20 20s8.964 20 20 20 20-8.964 20-20-8.964-20-20-20zm0 34.773c-8.151 0-14.773-6.622-14.773-14.773s6.622-14.773 14.773-14.773 14.773 6.622 14.773 14.773-6.622 14.773-14.773 14.773z"/>
            </g>
            <g fill="#FFF" fill-rule="nonzero">
                <path d="M261.315 110.442l-5.054-.857a28.536 28.536 0 0 0-2.03-4.904l2.978-4.166a4.434 4.434 0 0 0-.482-5.73l-4.482-4.483a4.415 4.415 0 0 0-3.143-1.308 4.37 4.37 0 0 0-2.572.827l-4.182 2.978a28.239 28.239 0 0 0-5.083-2.09l-.843-4.994A4.443 4.443 0 0 0 232.03 82h-6.332a4.443 4.443 0 0 0-4.392 3.715l-.872 5.114a27.832 27.832 0 0 0-4.888 2.06l-4.136-2.978a4.416 4.416 0 0 0-2.587-.827 4.39 4.39 0 0 0-3.144 1.309l-4.497 4.482a4.452 4.452 0 0 0-.481 5.73l3.008 4.227a27.873 27.873 0 0 0-2 4.918l-4.994.842a4.443 4.443 0 0 0-3.715 4.392v6.332c0 2.181 1.564 4.031 3.715 4.392l5.114.873a27.833 27.833 0 0 0 2.06 4.888l-2.963 4.121a4.434 4.434 0 0 0 .482 5.73l4.482 4.483a4.415 4.415 0 0 0 3.143 1.308 4.37 4.37 0 0 0 2.572-.827l4.227-3.008a28.453 28.453 0 0 0 4.753 1.955l.842 5.054a4.443 4.443 0 0 0 4.392 3.715h6.347c2.18 0 4.03-1.564 4.392-3.715l.857-5.054a28.535 28.535 0 0 0 4.903-2.03l4.167 2.978a4.416 4.416 0 0 0 2.587.827 4.415 4.415 0 0 0 3.143-1.308l4.482-4.483a4.452 4.452 0 0 0 .481-5.73l-2.978-4.181a28.331 28.331 0 0 0 2.03-4.904l5.055-.842a4.444 4.444 0 0 0 3.715-4.392v-6.332a4.39 4.39 0 0 0-3.685-4.392zm-1.216 10.638c0 .19-.132.351-.322.38l-6.145 1.025a1.964 1.964 0 0 0-1.58 1.448 23.422 23.422 0 0 1-2.546 6.13 1.978 1.978 0 0 0 .088 2.151l3.613 5.092a.398.398 0 0 1-.043.497l-4.36 4.36a.372.372 0 0 1-.279.117.36.36 0 0 1-.219-.073l-5.077-3.614a1.977 1.977 0 0 0-2.15-.087 23.422 23.422 0 0 1-6.131 2.545c-.76.19-1.332.82-1.449 1.58l-1.038 6.146a.379.379 0 0 1-.38.321h-6.16a.379.379 0 0 1-.38-.321l-1.025-6.145a1.964 1.964 0 0 0-1.448-1.58 24.32 24.32 0 0 1-6-2.459 2.025 2.025 0 0 0-.994-.263c-.395 0-.805.117-1.141.366l-5.121 3.643a.435.435 0 0 1-.22.073.392.392 0 0 1-.278-.117l-4.36-4.36a.397.397 0 0 1-.044-.497l3.6-5.048a2.003 2.003 0 0 0 .087-2.166 23.201 23.201 0 0 1-2.575-6.115 2.004 2.004 0 0 0-1.58-1.449l-6.189-1.053a.379.379 0 0 1-.322-.38v-6.16c0-.19.132-.351.322-.38l6.101-1.025a1.978 1.978 0 0 0 1.595-1.463 23.398 23.398 0 0 1 2.502-6.145 1.953 1.953 0 0 0-.102-2.136l-3.643-5.121a.398.398 0 0 1 .043-.497l4.36-4.36a.372.372 0 0 1 .279-.118c.087 0 .16.03.219.074l5.048 3.599a2.003 2.003 0 0 0 2.165.088 23.201 23.201 0 0 1 6.116-2.575 2.004 2.004 0 0 0 1.448-1.58l1.054-6.19c.029-.19.19-.321.38-.321h6.16c.19 0 .351.131.38.321l1.024 6.102a1.978 1.978 0 0 0 1.463 1.594c2.21.556 4.317 1.42 6.277 2.575a1.978 1.978 0 0 0 2.151-.087l5.048-3.629a.435.435 0 0 1 .22-.073c.058 0 .175.015.277.117l4.36 4.36a.397.397 0 0 1 .044.498l-3.614 5.077a1.977 1.977 0 0 0-.088 2.15 23.422 23.422 0 0 1 2.546 6.13c.19.762.82 1.332 1.58 1.45l6.145 1.038c.19.03.322.19.322.38v6.16h-.014z"/>
                <path d="M229.5 102c-8.553 0-15.5 6.947-15.5 15.5s6.947 15.5 15.5 15.5 15.5-6.947 15.5-15.5-6.947-15.5-15.5-15.5zm0 26.949c-6.317 0-11.449-5.132-11.449-11.449s5.132-11.449 11.449-11.449 11.449 5.132 11.449 11.449-5.132 11.449-11.449 11.449z"/>
            </g>
            <g fill="#FFF" fill-rule="nonzero">
                <path d="M201.26 78.431l-2.387-.405a13.475 13.475 0 0 0-.959-2.315l1.407-1.968a2.094 2.094 0 0 0-.228-2.706l-2.116-2.116a2.085 2.085 0 0 0-2.7-.228l-1.974 1.407a13.335 13.335 0 0 0-2.4-.988l-.398-2.358A2.098 2.098 0 0 0 187.431 65h-2.99c-1.03 0-1.904.739-2.074 1.754l-.412 2.415c-.795.249-1.57.576-2.308.973l-1.954-1.406a2.085 2.085 0 0 0-1.221-.39c-.561 0-1.094.22-1.485.617l-2.123 2.117a2.103 2.103 0 0 0-.228 2.706l1.421 1.996c-.39.745-.703 1.52-.945 2.322l-2.358.398A2.098 2.098 0 0 0 169 80.576v2.99c0 1.03.739 1.904 1.754 2.074l2.415.412c.249.796.575 1.57.973 2.308l-1.399 1.946a2.094 2.094 0 0 0 .227 2.707l2.117 2.116a2.085 2.085 0 0 0 2.699.227l1.996-1.42c.717.376 1.47.682 2.244.923l.398 2.387A2.098 2.098 0 0 0 184.498 99h2.997c1.03 0 1.903-.739 2.074-1.754l.405-2.387a13.475 13.475 0 0 0 2.315-.959l1.968 1.407c.355.255.78.39 1.221.39.561 0 1.087-.22 1.485-.618l2.116-2.116a2.103 2.103 0 0 0 .227-2.706l-1.406-1.975c.39-.746.718-1.52.959-2.315l2.386-.398A2.098 2.098 0 0 0 203 83.495v-2.99a2.073 2.073 0 0 0-1.74-2.074zm-.575 5.023c0 .09-.062.166-.152.18l-2.901.484a.928.928 0 0 0-.747.684 11.06 11.06 0 0 1-1.202 2.895.934.934 0 0 0 .042 1.015l1.706 2.405a.188.188 0 0 1-.02.235l-2.06 2.058a.175.175 0 0 1-.13.056.17.17 0 0 1-.104-.035l-2.398-1.706a.934.934 0 0 0-1.015-.042c-.905.54-1.88.94-2.895 1.202a.917.917 0 0 0-.684.747l-.49 2.901a.179.179 0 0 1-.18.152h-2.91a.179.179 0 0 1-.179-.152l-.483-2.901a.928.928 0 0 0-.684-.747 11.485 11.485 0 0 1-2.833-1.16.956.956 0 0 0-.47-.125.91.91 0 0 0-.539.173l-2.418 1.72a.206.206 0 0 1-.104.035.185.185 0 0 1-.131-.055l-2.059-2.06a.187.187 0 0 1-.02-.234l1.699-2.384a.946.946 0 0 0 .041-1.022 10.956 10.956 0 0 1-1.216-2.888.946.946 0 0 0-.746-.684l-2.922-.498a.179.179 0 0 1-.152-.18v-2.908c0-.09.062-.166.152-.18l2.88-.483a.934.934 0 0 0 .754-.691 11.05 11.05 0 0 1 1.181-2.902.922.922 0 0 0-.048-1.009l-1.72-2.418a.188.188 0 0 1 .02-.235l2.06-2.059a.175.175 0 0 1 .13-.055.17.17 0 0 1 .104.034l2.384 1.7a.946.946 0 0 0 1.022.041 10.956 10.956 0 0 1 2.888-1.216.946.946 0 0 0 .684-.746l.498-2.922a.179.179 0 0 1 .18-.152h2.908c.09 0 .166.062.18.152l.483 2.88a.934.934 0 0 0 .691.754c1.044.262 2.039.67 2.964 1.216a.934.934 0 0 0 1.016-.042l2.384-1.713a.206.206 0 0 1 .103-.035c.028 0 .083.007.132.056l2.058 2.059c.063.062.07.159.021.235l-1.706 2.397a.934.934 0 0 0-.042 1.016c.54.905.94 1.879 1.202 2.895.09.359.387.628.747.684l2.901.49c.09.014.152.09.152.18v2.908h-.007z"/>
                <path d="M186.5 74a7.505 7.505 0 0 0-7.5 7.5c0 4.138 3.362 7.5 7.5 7.5s7.5-3.362 7.5-7.5-3.362-7.5-7.5-7.5zm0 13.04a5.543 5.543 0 0 1-5.54-5.54 5.543 5.543 0 0 1 5.54-5.54 5.543 5.543 0 0 1 5.54 5.54 5.543 5.543 0 0 1-5.54 5.54z"/>
            </g>
            <path stroke="#FFF" stroke-linecap="round" stroke-width="3" d="M152.5 126c-5.523 0-10 4.477-10 10M229.5 110a7.5 7.5 0 0 0-7.5 7.5"/>
            <path stroke="#FFF" stroke-linecap="round" stroke-width="2" d="M187 78a4 4 0 0 0-4 4"/>
        </g>
    </g>
</svg>
