<?xml version="1.0" encoding="UTF-8" standalone="no"?>
<svg width="356px" height="191px" viewBox="0 0 356 191" version="1.1" xmlns="http://www.w3.org/2000/svg" xmlns:xlink="http://www.w3.org/1999/xlink">
    <!-- Generator: Sketch 50.2 (55047) - http://www.bohemiancoding.com/sketch -->
    <title>community bg</title>
    <desc>Created with Sketch.</desc>
    <defs>
        <linearGradient x1="0%" y1="0%" x2="100%" y2="0%" id="linearGradient-1">
            <stop stop-color="#FFCD69" offset="0%"></stop>
            <stop stop-color="#F59A1B" offset="100%"></stop>
        </linearGradient>
    </defs>
    <g id="Kaaproject-Documentation" stroke="none" stroke-width="1" fill="none" fill-rule="evenodd">
        <g id="Documentation" transform="translate(-140.000000, -397.000000)">
            <g id="Community-card" transform="translate(140.000000, 397.000000)">
                <g id="community-bg">
                    <path d="M356,105.617571 L356,191 L0,191 L0,0 C51.3161857,21.8337928 105.61025,41.2463682 162.882192,58.2377261 C220.154134,75.229084 284.526737,91.0223657 356,105.617571 Z" id="Triangle" fill="url(#linearGradient-1)" transform="translate(178.000000, 95.500000) scale(1, -1) translate(-178.000000, -95.500000) "></path>
                    <path d="M301.88369,110.734646 L309.88369,115.119161 C311.80535,116.172354 313,118.189406 313,120.380751 L313,128.619249 C313,130.810594 311.80535,132.827646 309.88369,133.880839 L301.88369,138.265354 C300.087284,139.249901 297.912716,139.249901 296.11631,138.265354 L288.11631,133.880839 C286.19465,132.827646 285,130.810594 285,128.619249 L285,120.380751 C285,118.189406 286.19465,116.172354 288.11631,115.119161 L296.11631,110.734646 C297.912716,109.750099 300.087284,109.750099 301.88369,110.734646 Z" id="Polygon" fill="#9B9B9B" opacity="0.132123162"></path>
                    <path d="M285.88369,136.734646 L293.88369,141.119161 C295.80535,142.172354 297,144.189406 297,146.380751 L297,154.619249 C297,156.810594 295.80535,158.827646 293.88369,159.880839 L285.88369,164.265354 C284.087284,165.249901 281.912716,165.249901 280.11631,164.265354 L272.11631,159.880839 C270.19465,158.827646 269,156.810594 269,154.619249 L269,146.380751 C269,144.189406 270.19465,142.172354 272.11631,141.119161 L280.11631,136.734646 C281.912716,135.750099 284.087284,135.750099 285.88369,136.734646 Z" id="Polygon" fill="#9B9B9B" opacity="0.132123162"></path>
                    <path d="M317.88369,136.734646 L325.88369,141.119161 C327.80535,142.172354 329,144.189406 329,146.380751 L329,154.619249 C329,156.810594 327.80535,158.827646 325.88369,159.880839 L317.88369,164.265354 C316.087284,165.249901 313.912716,165.249901 312.11631,164.265354 L304.11631,159.880839 C302.19465,158.827646 301,156.810594 301,154.619249 L301,146.380751 C301,144.189406 302.19465,142.172354 304.11631,141.119161 L312.11631,136.734646 C313.912716,135.750099 316.087284,135.750099 317.88369,136.734646 Z" id="Polygon" fill="#9B9B9B" opacity="0.132123162"></path>
                </g>
            </g>
        </g>
    </g>
</svg>