<?xml version="1.0" encoding="UTF-8" standalone="no"?>
<svg width="356px" height="191px" viewBox="0 0 356 191" version="1.1" xmlns="http://www.w3.org/2000/svg" xmlns:xlink="http://www.w3.org/1999/xlink">
    <!-- Generator: Sketch 50.2 (55047) - http://www.bohemiancoding.com/sketch -->
    <title>enterprise bg</title>
    <desc>Created with Sketch.</desc>
    <defs></defs>
    <g id="Kaaproject-Documentation" stroke="none" stroke-width="1" fill="none" fill-rule="evenodd">
        <g id="Documentation" transform="translate(-532.000000, -397.000000)">
            <g id="Enterprise-card" transform="translate(532.000000, 397.000000)">
                <g id="enterprise-bg">
                    <path d="M294.416918,127.764196 L304.916918,133.605551 C306.819995,134.66427 308,136.671044 308,138.848793 L308,150.151207 C308,152.328956 306.819995,154.33573 304.916918,155.394449 L294.416918,161.235804 C292.603193,162.244814 290.396807,162.244814 288.583082,161.235804 L278.083082,155.394449 C276.180005,154.33573 275,152.328956 275,150.151207 L275,138.848793 C275,136.671044 276.180005,134.66427 278.083082,133.605551 L288.583082,127.764196 C290.396807,126.755186 292.603193,126.755186 294.416918,127.764196 Z" id="Polygon" stroke="#F9B11F" stroke-width="4" opacity="0.132123162" transform="translate(291.500000, 144.500000) scale(1, -1) translate(-291.500000, -144.500000) "></path>
                    <path d="M309.416918,111.764196 L319.916918,117.605551 C321.819995,118.66427 323,120.671044 323,122.848793 L323,134.151207 C323,136.328956 321.819995,138.33573 319.916918,139.394449 L309.416918,145.235804 C307.603193,146.244814 305.396807,146.244814 303.583082,145.235804 L293.083082,139.394449 C291.180005,138.33573 290,136.328956 290,134.151207 L290,122.848793 C290,120.671044 291.180005,118.66427 293.083082,117.605551 L303.583082,111.764196 C305.396807,110.755186 307.603193,110.755186 309.416918,111.764196 Z" id="Polygon" stroke="#F9B11F" stroke-width="4" opacity="0.132123162" transform="translate(306.500000, 128.500000) scale(1, -1) translate(-306.500000, -128.500000) "></path>
                    <path d="M326.416918,128.764196 L336.916918,134.605551 C338.819995,135.66427 340,137.671044 340,139.848793 L340,151.151207 C340,153.328956 338.819995,155.33573 336.916918,156.394449 L326.416918,162.235804 C324.603193,163.244814 322.396807,163.244814 320.583082,162.235804 L310.083082,156.394449 C308.180005,155.33573 307,153.328956 307,151.151207 L307,139.848793 C307,137.671044 308.180005,135.66427 310.083082,134.605551 L320.583082,128.764196 C322.396807,127.755186 324.603193,127.755186 326.416918,128.764196 Z" id="Polygon" stroke="#F9B11F" stroke-width="4" opacity="0.132123162" transform="translate(323.500000, 145.500000) scale(1, -1) translate(-323.500000, -145.500000) "></path>
                    <path d="M356,105.617571 L356,191 L0,191 L0,0 C51.3161857,21.8337928 105.61025,41.2463682 162.882192,58.2377261 C220.154134,75.229084 284.526737,91.0223657 356,105.617571 Z" id="Triangle" fill="#303941" transform="translate(178.000000, 95.500000) scale(1, -1) translate(-178.000000, -95.500000) "></path>
                </g>
            </g>
        </g>
    </g>
</svg>