<svg xmlns="http://www.w3.org/2000/svg" width="116" height="47" viewBox="0 0 116 47">
    <path fill="#2E4550" fill-rule="nonzero" d="M5.313 47H0V0h46.71c20.488 0 23.722 18.372 23.722 18.372L81.929 0h12.048L116 35.635l-6.9 11.363H80.063v-5.67h32.48L87.94 0S71.726 28.161 68.245 33.647c-3.481 5.486-10.02 13.35-21.22 13.35H29.68v-27.98h5.496v22.31h12.641c5.59 0 17.589-4.754 17.589-18.195S52.58 5.485 48.367 5.485H5.313V46.999zm1.832 0V27.065h20.52v5.487H12.64V47H7.145zm20.52-22.31v-5.67H12.64v-6.013h34.57c5.182 0 10.684 4.184 10.684 10.31S52.333 33.65 48.368 33.65h-5.389V19.02h-5.68v20.117h11.069c7.01 0 15.114-6.074 15.114-15.636 0-9.47-7.37-16.001-16.184-16.001H7.146v17.19h20.52-.002zM62.747 47L87.94 5.488l20.702 33.647H80.063V33.65h18.504L87.94 16.368 70.445 47h-7.697z" opacity=".168"/>
</svg>
