<?xml version="1.0" encoding="UTF-8"?>
<svg width="42px" height="42px" viewBox="0 0 42 42" version="1.1" xmlns="http://www.w3.org/2000/svg" xmlns:xlink="http://www.w3.org/1999/xlink">
    <!-- Generator: Sketch 55.2 (78181) - https://sketchapp.com -->
    <title>logo</title>
    <desc>Created with Sketch.</desc>
    <g id="Contact" stroke="none" stroke-width="1" fill="none" fill-rule="evenodd">
        <g id="Contact_2" transform="translate(-781.000000, -1342.000000)" fill-rule="nonzero">
            <g id="kaa_logo" transform="translate(775.000000, 1341.000000)">
                <g id="logo" transform="translate(6.000000, 1.000000)">
                    <path d="M42,23.3904407 L42,17.2965348 C42,17.1615147 41.8919753,17.0625 41.7659465,17.0625 L35.6715535,17.0625 C35.5365226,17.0625 35.4375,17.1705161 35.4375,17.2965348 L35.4375,23.3904407 C35.4375,23.5254607 35.5455247,23.6244755 35.6715535,23.6244755 L41.7659465,23.6244755 C41.8919753,23.6334768 42,23.5254607 42,23.3904407 Z" id="Shape" fill="#444444"></path>
                    <path d="M42,6.3284465 L42,0.234053498 C42,0.0990226337 41.8919753,0 41.7659465,0 L35.6715535,0 C35.5365226,0 35.4375,0.108024691 35.4375,0.234053498 L35.4375,6.3284465 C35.4375,6.46347737 35.5455247,6.5625 35.6715535,6.5625 L41.7659465,6.5625 C41.8919753,6.5625 42,6.46347737 42,6.3284465 Z" id="Shape" fill="#FAAE42"></path>
                    <path d="M42,32.5647686 L42,26.1142241 C42,25.9713022 41.8860502,25.8664927 41.7531087,25.8664927 L35.3244404,25.8664927 C35.1820032,25.8664927 35.0775492,25.9808303 35.0775492,26.1142241 L35.0775492,32.5647686 C35.0775492,32.7076906 35.191499,32.8125 35.3244404,32.8125 L41.7531087,32.8125 C41.8860502,32.8125 42,32.6981624 42,32.5647686 Z M6.92245083,23.7607759 L6.92245083,17.3102314 C6.92245083,17.1673094 6.80850102,17.0625 6.67555957,17.0625 L0.24689125,17.0625 C0.104453991,17.0625 0,17.1768376 0,17.3102314 L0,23.7607759 C0,23.9036978 0.113949808,24.0085073 0.24689125,24.0085073 L6.67555957,24.0085073 C6.80850102,24.0180354 6.92245083,23.9036978 6.92245083,23.7607759 Z M6.92245083,32.5647686 L6.92245083,26.1142241 C6.92245083,25.9713022 6.80850102,25.8664927 6.67555957,25.8664927 L0.24689125,25.8664927 C0.104453991,25.8664927 0,25.9808303 0,26.1142241 L0,32.5647686 C0,32.7076906 0.113949808,32.8125 0.24689125,32.8125 L6.67555957,32.8125 C6.80850102,32.8125 6.92245083,32.6981624 6.92245083,32.5647686 Z" id="Shape" fill="#444444"></path>
                    <path d="M6.5625,6.3284465 L6.5625,0.234053498 C6.5625,0.0990226337 6.45447531,0 6.3284465,0 L0.234053498,0 C0.0990226337,0 0,0.108024691 0,0.234053498 L0,6.3284465 C0,6.46347737 0.108024691,6.5625 0.234053498,6.5625 L6.3284465,6.5625 C6.45447531,6.5625 6.5625,6.46347737 6.5625,6.3284465 Z" id="Shape" fill="#444444" opacity="0.6"></path>
                    <path d="M6.92245083,15.7913327 L6.92245083,9.43173848 C6.92245083,9.29083166 6.80850102,9.1875 6.67555957,9.1875 L0.24689125,9.1875 C0.104453991,9.1875 0,9.30022545 0,9.43173848 L0,15.7913327 C0,15.9322395 0.113949808,16.0355711 0.24689125,16.0355711 L6.67555957,16.0355711 C6.80850102,16.0355711 6.92245083,15.9228457 6.92245083,15.7913327 Z M42,41.7557615 L42,35.3961673 C42,35.2552605 41.8860502,35.1519289 41.7531087,35.1519289 L35.3244404,35.1519289 C35.1820032,35.1519289 35.0775492,35.2646543 35.0775492,35.3961673 L35.0775492,41.7557615 C35.0775492,41.8966683 35.191499,42 35.3244404,42 L41.7531087,42 C41.8860502,42 42,41.8872745 42,41.7557615 Z M33.2353606,41.7557615 L33.2353606,35.3961673 C33.2353606,35.2552605 33.1214108,35.1519289 32.9884694,35.1519289 L26.559801,35.1519289 C26.4173638,35.1519289 26.3129098,35.2646543 26.3129098,35.3961673 L26.3129098,41.7557615 C26.3129098,41.8966683 26.4268596,42 26.559801,42 L32.9789735,42 C33.1214108,42 33.2353606,41.8872745 33.2353606,41.7557615 Z M24.4612254,41.7557615 L24.4612254,35.3961673 C24.4612254,35.2552605 24.3472756,35.1519289 24.2143342,35.1519289 L17.7856658,35.1519289 C17.6432286,35.1519289 17.5387746,35.2646543 17.5387746,35.3961673 L17.5387746,41.7557615 C17.5387746,41.8966683 17.6527244,42 17.7856658,42 L24.2143342,42 C24.3472756,42 24.4612254,41.8872745 24.4612254,41.7557615 Z M6.92245083,41.7557615 L6.92245083,35.3961673 C6.92245083,35.2552605 6.80850102,35.1519289 6.67555957,35.1519289 L0.24689125,35.1519289 C0.104453991,35.1519289 5.68434189e-14,35.2646543 5.68434189e-14,35.3961673 L5.68434189e-14,41.7557615 C5.68434189e-14,41.8966683 0.113949808,42 0.24689125,42 L6.67555957,42 C6.80850102,42 6.92245083,41.8872745 6.92245083,41.7557615 L6.92245083,41.7557615 Z M15.6870902,41.7557615 L15.6870902,35.3961673 C15.6870902,35.2552605 15.5731404,35.1519289 15.440199,35.1519289 L9.01153064,35.1519289 C8.86909338,35.1519289 8.76463939,35.2646543 8.76463939,35.3961673 L8.76463939,41.7557615 C8.76463939,41.8966683 8.87858919,42 9.01153064,42 L15.440199,42 C15.5826362,42 15.6870902,41.8872745 15.6870902,41.7557615 Z" id="Shape" fill="#444444"></path>
                    <path d="M23.625,6.3284465 L23.625,0.234053498 C23.625,0.0990226337 23.5169753,0 23.3909465,0 L17.2965535,0 C17.1615226,0 17.0625,0.108024691 17.0625,0.234053498 L17.0625,6.3284465 C17.0625,6.46347737 17.1705247,6.5625 17.2965535,6.5625 L23.3909465,6.5625 C23.5169753,6.5625 23.625,6.46347737 23.625,6.3284465 Z" id="Shape" fill="#444444" opacity="0.2"></path>
                    <path d="M15.75,6.3284465 L15.75,0.234053498 C15.75,0.0990226337 15.6419753,0 15.5159465,0 L9.4215535,0 C9.28652263,0 9.1875,0.108024691 9.1875,0.234053498 L9.1875,6.3284465 C9.1875,6.46347737 9.29552469,6.5625 9.4215535,6.5625 L15.5159465,6.5625 C15.6509774,6.5625 15.75,6.46347737 15.75,6.3284465 Z" id="Shape" fill="#444444" opacity="0.4"></path>
                </g>
            </g>
        </g>
    </g>
</svg>