<svg xmlns="http://www.w3.org/2000/svg" xmlns:xlink="http://www.w3.org/1999/xlink" width="1440" height="692" viewBox="0 0 1440 692">
    <defs>
        <linearGradient id="b" x1="50%" x2="50%" y1="0%" y2="99.881%">
            <stop offset="0%" stop-color="#A7C6DA" stop-opacity=".04"/>
            <stop offset="100%" stop-color="#A7C6DA" stop-opacity=".195"/>
        </linearGradient>
        <path id="a" d="M9.328 320.177C358.518 177.535 626.408 119.741 813 146.797c183.39 26.59 407.352-19.162 671.885-137.257 7.565-3.377 16.435.018 19.812 7.583a15 15 0 0 1 1.303 6.115V706c0 8.284-6.716 15-15 15H15c-8.284 0-15-6.716-15-15V334.064a15 15 0 0 1 9.328-13.887z"/>
        <linearGradient id="c" x1="50%" x2="50%" y1="99.881%" y2="0%">
            <stop offset="0%" stop-color="#A7C6DA" stop-opacity=".16"/>
            <stop offset="100%" stop-color="#A7C6DA" stop-opacity=".088"/>
        </linearGradient>
    </defs>
    <g fill="none" fill-rule="evenodd" transform="translate(0 -29)">
        <mask id="d" fill="#fff">
            <use xlink:href="#a"/>
        </mask>
        <use fill="url(#b)" xlink:href="#a"/>
        <path fill="url(#c)" d="M785 484c397.333 50.667 615.667-94.333 655-435l69 691.37c-388.688 50.332-758.206 75.498-1108.554 75.498C48.729 798.945-92.42 765.655-23 716c141.333-205.333 410.667-282.667 808-232z" mask="url(#d)"/>
    </g>
</svg>
