<svg xmlns="http://www.w3.org/2000/svg" width="54" height="37" viewBox="0 0 54 37">
    <path fill="#23282C" fill-rule="nonzero" stroke="#23282C" d="M36.717 18.406L50.045 6.744v23.192l-13.328-11.53zm-17.174 1.975l4.68 4.092a4.2 4.2 0 0 0 2.74 1.009h.036-.002.03a4.223 4.223 0 0 0 2.75-1.015l4.673-4.088 14.227 12.307H5.323l14.22-12.305zM5.303 3.98h43.4L27.857 22.215a1.32 1.32 0 0 1-.823.288h-.059c-.312 0-.6-.11-.825-.29l.002.002L5.303 3.979zM3.958 6.742l13.325 11.662L3.958 29.927V6.742zM50.76 1.415c-.347-.175-.94-.313-1.78-.415H5.029a4.029 4.029 0 0 0-1.81.43l.025-.011A4.054 4.054 0 0 0 1 5.049v26.563c.002 2.239 1.805 4.052 4.026 4.055h43.948c2.223-.003 4.024-1.818 4.026-4.055V5.057v-.009a4.046 4.046 0 0 0-2.23-3.622L51 1l-.24.415z"/>
</svg>
