<svg xmlns="http://www.w3.org/2000/svg" xmlns:xlink="http://www.w3.org/1999/xlink" width="357" height="348" viewBox="0 0 357 348">
    <defs>
        <path id="b" d="M10 0h339a8 8 0 0 1 8 8v215a8 8 0 0 1-8 8H8a8 8 0 0 1-8-8V10C0 4.477 4.477 0 10 0z"/>
        <linearGradient id="d" x1="50%" x2="50%" y1="0%" y2="93.184%">
            <stop offset="0%" stop-color="#50A7E6"/>
            <stop offset="100%" stop-color="#2E4550"/>
        </linearGradient>
        <linearGradient id="e" x1="50%" x2="50%" y1="0%" y2="100%">
            <stop offset="0%" stop-color="#50A7E6"/>
            <stop offset="100%" stop-color="#2E4550"/>
        </linearGradient>
        <rect id="a" width="346" height="217" x="6" y="6.5" rx="6"/>
        <mask id="f" width="346" height="217" x="0" y="0" fill="#fff">
            <use xlink:href="#a"/>
        </mask>
        <linearGradient id="g" x1="50%" x2="50%" y1="0%" y2="100%">
            <stop offset="0%" stop-color="#50A7E6"/>
            <stop offset="100%" stop-color="#2E4550"/>
        </linearGradient>
        <path id="i" d="M119.164 9.336C88.547 20.287 66.641 44.517 50.057 68.747c-2.584.325-7.787.719-12.75 1.027a905.2 905.2 0 0 1-10.388.582 2.932 2.932 0 0 0-2.003.958l-25.414 28.85c-.942 1.078-.89 2.892.12 3.901l5.561 5.562c.89.89 2.396 1.06 3.475.41l20.708-12.56 2.362.925a834.778 834.778 0 0 1-2.567 4.483c-.6 1.078-.411 2.532.462 3.405l25.09 25.085c.872.873 2.344 1.079 3.422.463 1.455-.822 2.96-1.695 4.467-2.567l.924 2.361-12.562 20.705c-.65 1.078-.48 2.584.41 3.474l5.563 5.561c1.01 1.01 2.824 1.078 3.902.12l28.837-25.428a2.864 2.864 0 0 0 .959-2.002s.257-4.894.582-10.387c.308-4.962.701-10.164 1.027-12.748 24.233-16.598 48.484-38.484 59.42-69.096.137-.394 11.188-32.808 5.653-38.342-4.944-4.944-37.76 5.71-38.153 5.847zm-1.54 34.052c4.638 4.637 4.655 12.166 0 16.82-4.638 4.638-12.185 4.638-16.823 0-4.638-4.637-4.638-12.166 0-16.82a11.88 11.88 0 0 1 16.823 0z"/>
        <filter id="h" width="111.8%" height="111.8%" x="-5.9%" y="-4.6%" filterUnits="objectBoundingBox">
            <feMorphology in="SourceAlpha" operator="dilate" radius="2.5" result="shadowSpreadOuter1"/>
            <feOffset dy="2" in="shadowSpreadOuter1" result="shadowOffsetOuter1"/>
            <feGaussianBlur in="shadowOffsetOuter1" result="shadowBlurOuter1" stdDeviation="2"/>
            <feComposite in="shadowBlurOuter1" in2="SourceAlpha" operator="out" result="shadowBlurOuter1"/>
            <feColorMatrix in="shadowBlurOuter1" values="0 0 0 0 0 0 0 0 0 0 0 0 0 0 0 0 0 0 0.15 0"/>
        </filter>
    </defs>
    <g fill="none" fill-rule="evenodd">
        <g transform="translate(0 95)">
            <mask id="c" fill="#fff">
                <use xlink:href="#b"/>
            </mask>
            <use fill="#ECF7FF" xlink:href="#b"/>
            <g stroke="#979797" mask="url(#c)">
                <path stroke-linecap="square" d="M79.568 60.34l-9.322 19.852M65.302 64.975l19.21 10.582"/>
                <path stroke-width="2" d="M64.672 64.654L79.89 59.71l5.253 16.168-15.217 4.944z"/>
                <path stroke-linecap="square" d="M84.821 76.508L75.5 96.36M70.555 81.143l19.21 10.582"/>
                <path stroke-width="2" d="M69.925 80.822l15.217-4.944 5.254 16.168-15.217 4.944z"/>
                <path stroke-linecap="square" d="M90.075 92.676l-9.322 19.852M75.809 97.311l19.21 10.582"/>
                <path stroke-width="2" d="M75.179 96.99l15.217-4.944 5.253 16.168-15.217 4.944z"/>
                <g>
                    <path stroke-linecap="square" d="M95.328 108.844l-9.322 19.852M81.062 113.48l19.21 10.58"/>
                    <path stroke-width="2" d="M80.432 113.158l15.217-4.944 5.253 16.168-15.217 4.944z"/>
                </g>
                <g>
                    <path stroke-linecap="square" d="M100.581 125.012l-9.321 19.852M86.315 129.647l19.21 10.582"/>
                    <path stroke-width="2" d="M85.685 129.326l15.217-4.944 5.253 16.168-15.217 4.944z"/>
                </g>
                <g>
                    <path stroke-linecap="square" d="M105.834 141.18l-9.321 19.852M91.569 145.815l19.21 10.582"/>
                    <path stroke-width="2" d="M90.938 145.494l15.217-4.944 5.254 16.168-15.217 4.944z"/>
                </g>
                <g>
                    <path stroke-linecap="square" d="M111.088 157.348l-9.322 19.852M96.822 161.983l19.21 10.582"/>
                    <path stroke-width="2" d="M96.192 161.662l15.217-4.944 5.253 16.168-15.217 4.944z"/>
                </g>
                <g>
                    <path stroke-linecap="square" d="M116.341 173.516l-9.322 19.852M102.075 178.151l19.21 10.582"/>
                    <path stroke-width="2" d="M101.445 177.83l15.217-4.944 5.253 16.168-15.217 4.944z"/>
                </g>
                <path stroke-width="2" d="M64.672 64.654l26.63-8.652.618 1.902-26.63 8.653z"/>
            </g>
            <path fill="#FFF" d="M203.785 147.079C211.158 134.469 224.84 126 240.5 126c5.92 0 11.557 1.21 16.677 3.397C260.394 119.307 269.844 112 281 112a24.9 24.9 0 0 1 16.039 5.822C305.495 108.684 317.36 103 330.5 103c25.681 0 46.5 21.714 46.5 48.5S356.181 200 330.5 200a44.72 44.72 0 0 1-18.949-4.196C307.521 204.202 298.938 210 289 210c-8.171 0-15.427-3.92-19.988-9.982-7.54 6.825-17.54 10.982-28.512 10.982a42.304 42.304 0 0 1-24.167-7.535A23.902 23.902 0 0 1 201 209c-10 0-18.573-6.117-22.179-14.813C175.561 204.513 165.904 212 154.5 212a25.385 25.385 0 0 1-12.364-3.192C135.363 217.448 124.83 223 113 223c-12.407 0-23.388-6.107-30.101-15.48A26.874 26.874 0 0 1 68 212c-10.796 0-20.113-6.337-24.433-15.494A45.315 45.315 0 0 1 14.5 207c-25.129 0-45.5-20.371-45.5-45.5S-10.629 116 14.5 116c24.365 0 44.257 19.152 45.444 43.222A26.99 26.99 0 0 1 68 158a26.878 26.878 0 0 1 15.885 5.165C90.66 154.54 101.182 149 113 149c12.15 0 22.932 5.856 29.678 14.9.21-.11.424-.218.638-.323L163 75h26l14.785 72.079z" mask="url(#c)"/>
            <path fill="url(#d)" stroke="#FFF" stroke-width="2" d="M194.565 198.92a19.489 19.489 0 0 1 5.935-.92c3.13 0 6.088.737 8.71 2.048A34.376 34.376 0 0 1 232.5 191c7.343 0 14.15 2.294 19.743 6.204A20.414 20.414 0 0 1 261.5 195c4.306 0 8.301 1.327 11.6 3.595C274.512 178.136 290.717 162 310.5 162c20.71 0 37.5 17.685 37.5 39.5S331.21 241 310.5 241c-6.78 0-13.139-1.895-18.627-5.21-1.138 10.244-9.825 18.21-20.373 18.21a20.423 20.423 0 0 1-13.596-5.157C251.598 255.702 242.551 260 232.5 260c-15.024 0-27.805-9.604-32.54-23.007-7.492-.204-13.93-4.634-17.015-10.993h-.966a20.918 20.918 0 0 1 2.021 9c0 11.598-9.402 21-21 21a20.922 20.922 0 0 1-14.012-5.358A29.522 29.522 0 0 1 132 256c-9.09 0-17.235-4.11-22.737-10.602C105.391 251.195 98.88 255 91.5 255c-10.649 0-19.49-7.922-21.2-18.32-6.084 4.598-13.628 7.32-21.8 7.32-20.158 0-36.5-16.565-36.5-37s16.342-37 36.5-37S85 186.565 85 207c0 1.744-.119 3.46-.35 5.14A21.033 21.033 0 0 1 91.5 211c4.589 0 8.842 1.471 12.333 3.977C108.05 203.317 119.07 195 132 195c9.725 0 18.37 4.705 23.851 11.997L168.711 75h14.71l11.144 123.92z" mask="url(#c)"/>
            <rect width="344" height="218" x="6.5" y="6.5" stroke="url(#e)" stroke-width="13" mask="url(#c)" rx="8"/>
            <g stroke="#D8D8D8" stroke-dasharray="3" stroke-width="2" mask="url(#c)">
                <use mask="url(#f)" xlink:href="#a"/>
            </g>
        </g>
        <g stroke="#F5F5F5" stroke-width="2">
            <path fill="url(#g)" d="M25.652 190.892c-2.049 5.494-2.227 12.86-.225 19.763 2.274 7.843 7.111 14.56 14.41 19.178 6.505-3.88 11.225-10.561 13.706-18.644 2.253-7.343 2.368-15.149.42-20.375-3.648-12.585-23.361-12.588-28.311.078z" transform="translate(136 -12)"/>
            <path fill="#50A7E6" d="M168.89 175.485c-2.502 6.923.08 16.457 7.382 21.406 6.613-4.302 9.68-14.97 7.326-21.482-1.887-6.712-12.13-6.714-14.708.076z"/>
        </g>
        <path fill="#FFB817" fill-rule="nonzero" d="M177.137 8.185c-1.214 0-2.06.774-2.702 1.583-3.75 4.821-12.343 15.89-17.438 25.175h40.28c-5.094-9.284-13.7-20.342-17.438-25.175-.643-.81-1.488-1.583-2.702-1.583z"/>
        <g fill-rule="nonzero" transform="rotate(-45 168.983 -19.515)">
            <use fill="#000" filter="url(#h)" xlink:href="#i"/>
            <use fill="#2E4550" stroke="#FFF" stroke-width="5" xlink:href="#i"/>
        </g>
        <path stroke="#FFF" stroke-linecap="round" stroke-width="3" d="M173.197 24.606c-8.21 6.888-12.675 16.583-13.171 26.504"/>
        <g>
            <path fill="#2E4550" d="M90.541 329h177.624a2 2 0 0 1 1.907 1.396l4.749 15a2 2 0 0 1-1.907 2.604H85a2 2 0 0 1-1.876-2.693l5.541-15A2 2 0 0 1 90.541 329z"/>
            <path stroke="#D8D8D8" stroke-dasharray="3" stroke-linecap="square" d="M99.544 338.5h158.423"/>
        </g>
    </g>
</svg>
