<svg xmlns="http://www.w3.org/2000/svg" xmlns:xlink="http://www.w3.org/1999/xlink" width="374" height="312" viewBox="0 0 374 312">
    <defs>
        <rect id="c" width="374" height="312" rx="6"/>
        <linearGradient id="d" x1="50%" x2="50%" y1="0%" y2="100%">
            <stop offset="0%" stop-color="#50A7E6"/>
            <stop offset="100%" stop-color="#2E4550"/>
        </linearGradient>
        <linearGradient id="f" x1="50%" x2="50%" y1="0%" y2="100%">
            <stop offset="0%" stop-color="#50A7E6"/>
            <stop offset="100%" stop-color="#2E4550"/>
        </linearGradient>
        <rect id="a" width="362" height="300" x="6" y="6" rx="6"/>
        <mask id="g" width="362" height="300" x="0" y="0" fill="#fff">
            <use xlink:href="#a"/>
        </mask>
        <linearGradient id="h" x1="50%" x2="50%" y1="0%" y2="100%">
            <stop offset="0%" stop-color="#50A7E6"/>
            <stop offset="100%" stop-color="#2E4550"/>
        </linearGradient>
        <linearGradient id="j" x1="6.108%" y1="47.016%" y2="55.019%">
            <stop offset="0%" stop-color="#50A7E6"/>
            <stop offset="100%" stop-color="#2E4550"/>
        </linearGradient>
        <path id="i" d="M108.946 35.07C99.766 14.41 79.066 0 55 0 30.86 0 10.105 14.499.97 35.264A4448.994 4448.994 0 0 0 32 50c5.972-9.953 13.638-14.93 23-14.93S71.695 40.048 77 50c15.333-7.333 25.982-12.31 31.946-14.93z"/>
        <rect id="b" width="362" height="300" x="6" y="6" rx="2"/>
        <mask id="l" width="362" height="300" x="0" y="0" fill="#fff">
            <use xlink:href="#b"/>
        </mask>
        <linearGradient id="m" x1="50%" x2="50%" y1="1.266%" y2="130.355%">
            <stop offset="0%" stop-color="#50A7E6"/>
            <stop offset="100%" stop-color="#2E4550"/>
        </linearGradient>
        <path id="n" d="M0 0h94v84H0z"/>
        <linearGradient id="o" x1="5.732%" y1="37.939%" y2="82%">
            <stop offset="0%" stop-color="#50A7E6"/>
            <stop offset="100%" stop-color="#2E4550"/>
        </linearGradient>
    </defs>
    <g fill="none" fill-rule="evenodd">
        <mask id="e" fill="#fff">
            <use xlink:href="#c"/>
        </mask>
        <path fill="#FFF" stroke="url(#d)" stroke-width="13" d="M6.5 6.5V299a6.5 6.5 0 0 0 6.5 6.5h354.5V13a6.5 6.5 0 0 0-6.5-6.5H6.5z" mask="url(#e)"/>
        <path fill="#F5F5F5" d="M201 185h141v84H201z" mask="url(#e)"/>
        <g fill="#2E4550" stroke="url(#f)" stroke-dasharray="3" stroke-linecap="square" stroke-linejoin="round" stroke-width="6" mask="url(#e)">
            <use mask="url(#g)" xlink:href="#a"/>
        </g>
        <path fill="url(#h)" d="M6 0h74v312H6a6 6 0 0 1-6-6V6a6 6 0 0 1 6-6z" mask="url(#e)"/>
        <path fill="#50A7E6" d="M80 0h282c6.627 0 12 5.373 12 12v20H80V0z" mask="url(#e)" opacity=".315"/>
        <rect width="40" height="4" x="20" y="64" fill="#FFF" mask="url(#e)" rx="1"/>
        <rect width="40" height="4" x="20" y="92" fill="#FFF" mask="url(#e)" rx="1"/>
        <rect width="40" height="4" x="20" y="120" fill="#FFF" mask="url(#e)" rx="1"/>
        <rect width="40" height="4" x="20" y="148" fill="#FFF" mask="url(#e)" rx="1"/>
        <g mask="url(#e)">
            <g transform="translate(97 201)">
                <mask id="k" fill="#fff">
                    <use xlink:href="#i"/>
                </mask>
                <use fill="url(#j)" xlink:href="#i"/>
                <path fill="#FFF" d="M68 41l25-29 19 22-35 18z" mask="url(#k)" opacity=".589"/>
                <path stroke="#FFF" stroke-dasharray="3" stroke-linecap="round" d="M55.5.5v34" mask="url(#k)"/>
                <path fill="#FFF" d="M97.048 6.42c.92.718-12.527 19.823-40.338 57.315l-5.516-4.31C80.844 23.37 96.129 5.702 97.048 6.42z"/>
                <circle cx="55" cy="60" r="5" fill="#FFF"/>
            </g>
        </g>
        <g stroke="#FFF" stroke-dasharray="3" stroke-width="2" mask="url(#e)">
            <use mask="url(#l)" xlink:href="#b"/>
        </g>
        <g mask="url(#e)">
            <g transform="translate(97 57)">
                <rect width="92" height="88" x="1.5" y="1.5" fill="url(#m)" stroke="#FFF" stroke-width="3" rx="6"/>
                <path fill="#FFF" fill-opacity=".73" stroke="#FFF" stroke-linecap="round" stroke-width="3" d="M3.445 84.782c12.122-15.788 21.303-25.171 27.542-28.15C40.965 51.87 57.973 71.735 70.88 41.53 79.484 21.392 86.524 10.55 92 9v79H5.031a2 2 0 0 1-1.586-3.218z"/>
                <ellipse cx="26.5" cy="25" fill="#FFF" opacity=".879" rx="13.5" ry="13"/>
            </g>
        </g>
        <circle cx="350" cy="21" r="8" fill="#FFF" mask="url(#e)" opacity=".701"/>
        <g mask="url(#e)">
            <g transform="translate(230 178)">
                <mask id="p" fill="#fff">
                    <use xlink:href="#n"/>
                </mask>
                <path fill="url(#o)" d="M0 60c1.333 1.333 5.667 2 13 2 14 0 8-12.88 25-9 10.786 2.462 6.053-13 19-13 4.424 0 3.219 9.12 12 9.12 6 0 19.956-40.982 26-41.12v76H0V60z" mask="url(#p)"/>
                <g mask="url(#p)">
                    <g fill="#50A7E6" transform="translate(4 12)">
                        <circle cx="16" cy="16" r="16" opacity=".289"/>
                        <circle cx="16.5" cy="15.5" r="12.5" opacity=".358"/>
                        <circle cx="16" cy="16" r="8"/>
                    </g>
                </g>
                <g mask="url(#p)">
                    <g fill="#50A7E6" transform="translate(59 4)">
                        <circle cx="8" cy="8" r="8" opacity=".289"/>
                        <circle cx="8" cy="8" r="6" opacity=".358"/>
                        <circle cx="8" cy="8" r="4"/>
                    </g>
                </g>
            </g>
        </g>
        <g stroke="#FFF" stroke-linecap="round" stroke-width="7" mask="url(#e)">
            <path d="M222.432 127.5h119.979M222.432 102.5h119.979M222.432 77.5h119.979"/>
        </g>
    </g>
</svg>
