<svg xmlns="http://www.w3.org/2000/svg" xmlns:xlink="http://www.w3.org/1999/xlink" width="376" height="421" viewBox="0 0 376 421">
    <defs>
        <linearGradient id="a" x1="50%" x2="50%" y1="0%" y2="100%">
            <stop offset="0%" stop-color="#50A7E6"/>
            <stop offset="100%" stop-color="#2E4550"/>
        </linearGradient>
        <path id="c" d="M109.114 45.428l-8.072-1.37a45.578 45.578 0 0 0-3.243-7.83l4.756-6.655c2.018-2.835 1.706-6.703-.768-9.153l-7.16-7.16a7.052 7.052 0 0 0-5.02-2.09 6.98 6.98 0 0 0-4.108 1.322L78.82 17.25a45.104 45.104 0 0 0-8.12-3.34l-1.345-7.975A7.097 7.097 0 0 0 62.34 0H52.227a7.097 7.097 0 0 0-7.015 5.934l-1.394 8.168c-2.69.84-5.309 1.946-7.807 3.29l-6.607-4.756a7.053 7.053 0 0 0-4.132-1.321 7.01 7.01 0 0 0-5.02 2.09l-7.183 7.159a7.111 7.111 0 0 0-.77 9.153l4.806 6.75a44.519 44.519 0 0 0-3.196 7.856l-7.975 1.345A7.097 7.097 0 0 0 0 52.683v10.114a7.097 7.097 0 0 0 5.934 7.015l8.168 1.393c.84 2.691 1.946 5.31 3.29 7.808l-4.732 6.582c-2.018 2.835-1.705 6.703.769 9.153l7.159 7.16a7.052 7.052 0 0 0 5.02 2.09 6.98 6.98 0 0 0 4.109-1.322l6.75-4.805a45.446 45.446 0 0 0 7.592 3.123l1.345 8.072A7.097 7.097 0 0 0 52.419 115h10.138a7.097 7.097 0 0 0 7.014-5.934l1.37-8.072a45.577 45.577 0 0 0 7.831-3.243l6.655 4.757a7.053 7.053 0 0 0 4.132 1.321 7.052 7.052 0 0 0 5.02-2.09l7.16-7.159a7.111 7.111 0 0 0 .768-9.153l-4.756-6.678c1.32-2.523 2.426-5.141 3.243-7.832l8.072-1.345A7.097 7.097 0 0 0 115 62.557V52.443c.047-3.483-2.451-6.438-5.886-7.015z"/>
        <filter id="b" width="112.2%" height="112.2%" x="-6.1%" y="-4.3%" filterUnits="objectBoundingBox">
            <feOffset dy="2" in="SourceAlpha" result="shadowOffsetOuter1"/>
            <feGaussianBlur in="shadowOffsetOuter1" result="shadowBlurOuter1" stdDeviation="2"/>
            <feComposite in="shadowBlurOuter1" in2="SourceAlpha" operator="out" result="shadowBlurOuter1"/>
            <feColorMatrix in="shadowBlurOuter1" values="0 0 0 0 0 0 0 0 0 0 0 0 0 0 0 0 0 0 0.15 0"/>
        </filter>
    </defs>
    <g fill="none" fill-rule="evenodd">
        <g fill-rule="nonzero" transform="translate(130.08 343.442)">
            <rect width="112.531" height="74.857" x=".827" y=".851" fill="#50A7E6" fill-opacity=".1" stroke="#2E4550" stroke-width="3" rx="2"/>
            <path fill="#2E4550" d="M81.51 54.144c-.72 0-1.304-.579-1.304-1.293 0-.715.584-1.293 1.304-1.293.72 0 1.304.578 1.304 1.293 0 .714-.585 1.293-1.304 1.293zm-4.887 0c-.721 0-1.303-.579-1.303-1.293 0-.715.582-1.293 1.303-1.293.72 0 1.303.578 1.303 1.293 0 .714-.583 1.293-1.303 1.293zm-5.31 0c-.719 0-1.303-.579-1.303-1.293 0-.715.584-1.293 1.304-1.293.72 0 1.303.578 1.303 1.293 0 .714-.584 1.293-1.303 1.293zm14.174-6.508H25.39a2.213 2.213 0 0 0-2.22 2.204v10.905c0 1.217.993 2.203 2.22 2.203h60.098c1.227 0 2.221-.986 2.221-2.203V49.84a2.212 2.212 0 0 0-2.22-2.204z"/>
            <path fill="#50A7E6" d="M46.114 55.967c0 1.003-.9 1.188-2.464 1.188H30.374c-1.565 0-2.464-.185-2.464-1.188v-2.73c0-1.002.898-1.186 2.464-1.186H43.65c1.565 0 2.464.184 2.464 1.187v2.73z"/>
            <path fill="#2E4550" d="M81.51 37.13c-.72 0-1.304-.578-1.304-1.293 0-.714.584-1.292 1.304-1.292.72 0 1.304.578 1.304 1.292 0 .715-.585 1.293-1.304 1.293zm-4.887 0c-.721 0-1.303-.578-1.303-1.293 0-.714.582-1.292 1.303-1.292.72 0 1.303.578 1.303 1.292 0 .715-.583 1.293-1.303 1.293zm-5.31 0c-.719 0-1.303-.578-1.303-1.293 0-.714.584-1.292 1.304-1.292.72 0 1.303.578 1.303 1.292 0 .715-.584 1.293-1.303 1.293zm14.174-6.507H25.39a2.212 2.212 0 0 0-2.22 2.203v10.906c0 1.217.993 2.203 2.22 2.203h60.098c1.227 0 2.221-.986 2.221-2.203V32.826a2.212 2.212 0 0 0-2.22-2.203z"/>
            <path fill="#50A7E6" d="M46.114 38.954c0 1.003-.9 1.188-2.464 1.188H30.374c-1.565 0-2.464-.185-2.464-1.188v-2.73c0-1.002.898-1.186 2.464-1.186H43.65c1.565 0 2.464.184 2.464 1.187v2.73z"/>
            <path fill="#2E4550" d="M81.51 20.118c-.72 0-1.304-.58-1.304-1.294 0-.714.584-1.292 1.304-1.292.72 0 1.304.578 1.304 1.292a1.3 1.3 0 0 1-1.304 1.294zm-4.887 0c-.721 0-1.303-.58-1.303-1.294 0-.714.582-1.292 1.303-1.292.72 0 1.303.578 1.303 1.292 0 .715-.583 1.294-1.303 1.294zm-5.31 0c-.719 0-1.303-.58-1.303-1.294 0-.714.584-1.292 1.304-1.292.72 0 1.303.578 1.303 1.292 0 .715-.584 1.294-1.303 1.294zm14.174-6.508H25.39a2.212 2.212 0 0 0-2.22 2.203v10.906c0 1.217.993 2.203 2.22 2.203h60.098c1.227 0 2.221-.986 2.221-2.203V15.813a2.211 2.211 0 0 0-2.22-2.203z"/>
            <path fill="#50A7E6" d="M46.114 21.941c0 1.003-.9 1.188-2.464 1.188H30.374c-1.565 0-2.464-.185-2.464-1.188v-2.73c0-1.002.898-1.186 2.464-1.186H43.65c1.565 0 2.464.184 2.464 1.187v2.73z"/>
        </g>
        <g fill-rule="nonzero" transform="translate(260.814 343.442)">
            <rect width="112.531" height="74.857" x=".827" y=".851" fill="#50A7E6" fill-opacity=".1" stroke="#2E4550" stroke-width="3" rx="2"/>
            <path fill="#2E4550" d="M13.584 37.186h46.244a2 2 0 0 0 2-2v-.375a2 2 0 0 0-2-2H13.584a2 2 0 0 0-2 2v.375a2 2 0 0 0 2 2zM13.584 54.199h46.244a2 2 0 0 0 2-2v-.375a2 2 0 0 0-2-2H13.584a2 2 0 0 0-2 2v.375a2 2 0 0 0 2 2zM13.584 19.686h85.363a2 2 0 0 0 2-2v-.374a2 2 0 0 0-2-2H13.584a2 2 0 0 0-2 2v.374a2 2 0 0 0 2 2z"/>
            <path fill="#FFF" d="M13.584 45.935h15.66a2 2 0 0 0 2-2v-.375a2 2 0 0 0-2-2h-15.66a2 2 0 0 0-2 2v.375a2 2 0 0 0 2 2z"/>
            <path fill="#50A7E6" d="M13.584 62.948h15.66a2 2 0 0 0 2-2v-.375a2 2 0 0 0-2-2h-15.66a2 2 0 0 0-2 2v.375a2 2 0 0 0 2 2z"/>
            <path fill="#FFF" d="M13.584 28.436h59.351a2 2 0 0 0 2-2v-.375a2 2 0 0 0-2-2h-59.35a2 2 0 0 0-2 2v.375a2 2 0 0 0 2 2z"/>
            <path fill="#50A7E6" d="M81.304 28.436h15.013a2 2 0 0 0 2-2v-.375a2 2 0 0 0-2-2H81.304a2 2 0 0 0-2 2v.375a2 2 0 0 0 2 2z"/>
        </g>
        <g transform="translate(1 343.442)">
            <rect width="112.531" height="74.857" x=".827" y=".851" fill="#50A7E6" fill-opacity=".1" fill-rule="nonzero" stroke="#2E4550" stroke-width="3" rx="2"/>
            <g fill-rule="nonzero" transform="translate(68.85 10.208)">
                <ellipse cx="17.204" cy="17.013" fill="#2E4550" rx="16.549" ry="17.013"/>
                <path fill="#50A7E6" stroke="#FFF" d="M0 17.714h16.549v17.013C7.409 34.727 0 27.11 0 17.714z"/>
            </g>
            <path stroke="#2E4550" stroke-linecap="round" stroke-width="2" d="M13.239 10.208v32.3h44.874"/>
            <path stroke="#50A7E6" stroke-linecap="round" stroke-width="2" d="M16 39.28l15.744-11.337 5.719 4.427L56.856 14"/>
            <path fill="#FFF" fill-rule="nonzero" d="M9.929 51.039h94.327v3.403H9.929zM9.929 56.143h28.133v3.403H9.929zM9.929 66.351h28.133v3.403H9.929zM9.929 61.247H54.61v3.403H9.929z"/>
        </g>
        <path stroke="#2E4550" stroke-dasharray="4,8" stroke-linecap="round" stroke-width="3" d="M58.886 338.735c0-17.524 13.819-31.73 30.865-31.73h62.498c13.328 0 24.133-11.108 24.133-24.81M319.08 338.735c0-17.524-13.819-31.73-30.865-31.73h-62.498c-13.328 0-24.133-11.108-24.133-24.81M187.518 339.188v-54.441"/>
        <path fill="#2E4550" d="M83 110v31.924l80.114 75.38a2 2 0 0 1 .63 1.457v68.333c1.13.909 2.693 1.684 4.767 2.379C173.25 291.06 179.875 292 187 292c7.124 0 13.749-.94 18.488-2.527 1.383-.464 2.896-1.192 4.54-2.186l-5.229-54.437c0-12.814 2.181-21.134 7.336-25.17 46.802-39.52 72.907-61.299 78.865-65.78V110a2 2 0 0 0-2-2H85a2 2 0 0 0-2 2zm81.007 177.011a.329.329 0 0 0 .024.027l-.024-.027zM291.73 142.194c.095-.07.185-.134.269-.194-9.282 7.842-13.948 11.842-14 12l13.73-11.806z"/>
        <path stroke="url(#a)" stroke-width="13" d="M82 110v31.924l80.114 75.38a2 2 0 0 1 .63 1.457v68.333c1.13.909 2.693 1.684 4.767 2.379C172.25 291.06 178.875 292 186 292c7.124 0 13.749-.94 18.488-2.527 1.383-.464 2.896-1.192 4.54-2.186L207 233v-14.129a2 2 0 0 1 .638-1.464C258.59 170.044 286.044 144.875 290 141.9V110a2 2 0 0 0-2-2H84a2 2 0 0 0-2 2zm81.007 177.011a.329.329 0 0 0 .024.027l-.024-.027z" transform="translate(1)"/>
        <path stroke="#FFF" stroke-dasharray="3,3" d="M83 110v31.924l80.114 75.38a2 2 0 0 1 .63 1.457v68.333c1.13.909 2.693 1.684 4.767 2.379C173.25 291.06 179.875 292 187 292c7.124 0 13.749-.94 18.488-2.527 1.383-.464 2.896-1.192 4.54-2.186L208 233v-13.693a3 3 0 0 1 .958-2.197c50.747-47.171 78.095-72.241 82.042-75.21V110a2 2 0 0 0-2-2H85a2 2 0 0 0-2 2zm81.007 177.011a.329.329 0 0 0 .024.027l-.024-.027z"/>
        <g>
            <g fill-rule="nonzero">
                <g transform="translate(187 124)">
                    <use fill="#000" filter="url(#b)" xlink:href="#c"/>
                    <path fill="#2E4550" fill-rule="evenodd" stroke="#FFF" stroke-linejoin="square" stroke-width="5" d="M108.7 47.894l-.005-.001-9.587-1.626-.454-1.468a43.077 43.077 0 0 0-3.065-7.403l-.723-1.366.899-1.257 4.754-6.65a4.586 4.586 0 0 0-.5-5.935l-7.16-7.16a4.552 4.552 0 0 0-3.252-1.357 4.49 4.49 0 0 0-2.658.857l-7.933 5.65-1.363-.718a42.596 42.596 0 0 0-7.67-3.155l-1.49-.446-.258-1.534-1.345-7.977A4.597 4.597 0 0 0 62.34 2.5H52.227a4.599 4.599 0 0 0-4.55 3.854l-1.652 9.677-1.46.457a41.955 41.955 0 0 0-7.369 3.106l-1.377.742-7.875-5.67a4.553 4.553 0 0 0-2.672-.851c-1.234 0-2.391.48-3.256 1.36l-7.18 7.157a4.611 4.611 0 0 0-.5 5.935l5.695 8.001-.712 1.36a42.016 42.016 0 0 0-3.016 7.415l-.447 1.487-1.53.258-7.978 1.346a4.597 4.597 0 0 0-3.848 4.55v10.113a4.599 4.599 0 0 0 3.854 4.55l9.677 1.651.457 1.462a41.955 41.955 0 0 0 3.106 7.368l.74 1.376-.911 1.268-4.726 6.573a4.586 4.586 0 0 0 .5 5.936l7.159 7.158a4.552 4.552 0 0 0 3.253 1.358c.965 0 1.871-.291 2.658-.858l8.002-5.695 1.36.714a42.933 42.933 0 0 0 7.174 2.95l1.469.458.253 1.517 1.344 8.07a4.597 4.597 0 0 0 4.55 3.847h10.138a4.598 4.598 0 0 0 4.55-3.852l1.626-9.587 1.468-.455a43.077 43.077 0 0 0 7.403-3.065l1.365-.722 1.257.898 6.661 4.762c.77.554 1.699.85 2.672.85a4.552 4.552 0 0 0 3.253-1.358l7.159-7.159a4.611 4.611 0 0 0 .5-5.934l-5.647-7.93.712-1.36c1.288-2.459 2.317-4.93 3.066-7.397l.45-1.485 1.53-.255 8.07-1.345a4.597 4.597 0 0 0 3.848-4.55V52.41c.03-2.238-1.57-4.14-3.8-4.515z"/>
                </g>
                <path fill="#FFF" d="M244.75 156.25c-13.795 0-25 11.205-25 25s11.205 25 25 25 25-11.205 25-25-11.205-25-25-25zm0 43.466c-10.189 0-18.466-8.277-18.466-18.466 0-10.189 8.277-18.466 18.466-18.466 10.189 0 18.466 8.277 18.466 18.466 0 10.189-8.277 18.466-18.466 18.466z"/>
            </g>
            <path stroke="#FFF" stroke-linecap="round" stroke-width="3" d="M247 169c-7.18 0-13 5.82-13 13"/>
        </g>
        <g fill="#2E4550" fill-rule="nonzero">
            <path d="M126.402 2.352l.362 1.502 2.497-1.367h.05v12.842h1.855V.63h-1.642zM141.033 14.036c-1.742 0-2.908-2.177-2.908-5.99 0-4 1.232-6.126 2.94-6.126 1.988 0 2.908 2.38 2.908 5.99 0 3.747-.953 6.126-2.94 6.126m.131-13.668c-2.908 0-4.961 2.733-4.961 7.66.033 4.86 1.922 7.544 4.715 7.544 3.186 0 4.977-2.75 4.977-7.746 0-4.691-1.725-7.458-4.731-7.458M152.326 14.036c-1.74 0-2.907-2.177-2.907-5.99 0-4 1.232-6.126 2.94-6.126 1.988 0 2.891 2.38 2.891 5.99 0 3.747-.936 6.126-2.924 6.126m.132-13.668c-2.908 0-4.961 2.733-4.961 7.66.033 4.86 1.922 7.544 4.714 7.544 3.187 0 4.978-2.75 4.978-7.746 0-4.691-1.725-7.458-4.731-7.458M163.139 2.485h.05v12.842h1.855V.646h-1.642L160.28 2.35l.378 1.502zM174.433 2.485h.049v12.842h1.856V.646h-1.643l-3.12 1.704.377 1.502zM186.208 14.036c-1.758 0-2.908-2.177-2.908-5.99 0-4 1.232-6.126 2.924-6.126 2.004 0 2.908 2.38 2.908 5.99 0 3.747-.953 6.126-2.924 6.126m.131-13.668c-2.908 0-4.977 2.733-4.977 7.66.049 4.86 1.938 7.544 4.73 7.544 3.171 0 4.978-2.75 4.978-7.746 0-4.691-1.725-7.458-4.73-7.458M197.02 2.485h.033v12.842h1.873V.646h-1.643l-3.138 1.704.395 1.502zM208.795 14.036c-1.758 0-2.907-2.177-2.907-5.99 0-4 1.232-6.126 2.924-6.126 2.004 0 2.907 2.38 2.907 5.99 0 3.747-.953 6.126-2.924 6.126m.132-13.668c-2.908 0-4.978 2.733-4.978 7.66.05 4.86 1.939 7.544 4.731 7.544 3.17 0 4.978-2.75 4.978-7.746 0-4.691-1.725-7.458-4.731-7.458M219.591 2.485h.05v12.842h1.872V.646h-1.643l-3.137 1.704.394 1.502zM231.383 14.036c-1.758 0-2.924-2.177-2.924-5.99 0-4 1.248-6.126 2.94-6.126 2.004 0 2.908 2.38 2.908 5.99 0 3.747-.953 6.126-2.924 6.126m.131-13.668c-2.907 0-4.977 2.733-4.977 7.66.033 4.86 1.922 7.544 4.73 7.544 3.171 0 4.978-2.75 4.978-7.746 0-4.691-1.741-7.458-4.73-7.458M242.693 1.925c2.004 0 2.908 2.38 2.908 5.974 0 3.763-.953 6.142-2.924 6.142-1.758 0-2.925-2.177-2.925-6.007 0-3.983 1.233-6.109 2.941-6.109m-.131 13.635c3.154 0 4.977-2.75 4.977-7.729 0-4.69-1.725-7.458-4.731-7.458-2.908 0-4.978 2.716-4.978 7.644.033 4.86 1.922 7.543 4.732 7.543" opacity=".161"/>
            <path d="M126.402 29.478l.362 1.519 2.497-1.367h.05v12.842h1.855V27.757h-1.642zM141.033 41.16c-1.742 0-2.908-2.16-2.908-5.973 0-4.016 1.232-6.143 2.94-6.143 1.988 0 2.908 2.38 2.908 6.008 0 3.729-.953 6.108-2.94 6.108m.131-13.651c-2.908 0-4.961 2.733-4.961 7.66.033 4.86 1.922 7.544 4.715 7.544 3.186 0 4.977-2.768 4.977-7.763 0-4.674-1.725-7.441-4.731-7.441M152.326 41.16c-1.74 0-2.907-2.16-2.907-5.973 0-4.016 1.232-6.143 2.94-6.143 1.988 0 2.891 2.38 2.891 6.008 0 3.729-.936 6.108-2.924 6.108m.132-13.651c-2.908 0-4.961 2.733-4.961 7.66.033 4.86 1.922 7.544 4.714 7.544 3.187 0 4.978-2.768 4.978-7.763 0-4.674-1.725-7.441-4.731-7.441M163.139 29.627h.05v12.841h1.855V27.77h-1.642l-3.122 1.705.378 1.518zM174.433 29.627h.049v12.841h1.856V27.77h-1.643l-3.12 1.705.377 1.518zM186.208 41.16c-1.758 0-2.908-2.16-2.908-5.973 0-4.016 1.232-6.143 2.924-6.143 2.004 0 2.908 2.38 2.908 6.008 0 3.729-.953 6.108-2.924 6.108m.131-13.651c-2.908 0-4.977 2.733-4.977 7.66.049 4.86 1.938 7.544 4.73 7.544 3.171 0 4.978-2.768 4.978-7.763 0-4.674-1.725-7.441-4.73-7.441M197.501 41.16c-1.757 0-2.907-2.16-2.907-5.973 0-4.016 1.232-6.143 2.924-6.143 2.004 0 2.907 2.38 2.907 6.008 0 3.729-.952 6.108-2.924 6.108m.132-13.651c-2.908 0-4.978 2.733-4.978 7.66.05 4.86 1.939 7.544 4.731 7.544 3.17 0 4.978-2.768 4.978-7.763 0-4.674-1.725-7.441-4.731-7.441M208.795 41.16c-1.758 0-2.907-2.16-2.907-5.973 0-4.016 1.232-6.143 2.924-6.143 2.004 0 2.907 2.38 2.907 6.008 0 3.729-.953 6.108-2.924 6.108m.132-13.651c-2.908 0-4.978 2.733-4.978 7.66.05 4.86 1.939 7.544 4.731 7.544 3.17 0 4.978-2.768 4.978-7.763 0-4.674-1.725-7.441-4.731-7.441M219.591 29.627h.05v12.841h1.872V27.77h-1.643l-3.137 1.705.394 1.518zM231.383 41.16c-1.758 0-2.924-2.16-2.924-5.973 0-4.016 1.248-6.143 2.94-6.143 2.004 0 2.908 2.38 2.908 6.008 0 3.729-.953 6.108-2.924 6.108m.131-13.651c-2.907 0-4.977 2.733-4.977 7.66.033 4.86 1.922 7.544 4.73 7.544 3.171 0 4.978-2.768 4.978-7.763 0-4.674-1.741-7.441-4.73-7.441M244.088 42.463V27.765h-1.643l-3.121 1.705.361 1.518 2.497-1.367h.05v12.842z" opacity=".244"/>
            <path d="M126.402 56.62l.362 1.518 2.497-1.384h.05V69.58h1.855V54.898h-1.642zM142.46 69.587v-14.68h-1.643l-3.12 1.72.36 1.503 2.498-1.384h.049v12.841zM152.326 68.302c-1.74 0-2.907-2.177-2.907-5.974 0-4.016 1.232-6.142 2.94-6.142 1.988 0 2.891 2.379 2.891 5.99 0 3.746-.936 6.126-2.924 6.126m.132-13.635c-2.908 0-4.961 2.717-4.961 7.644.033 4.843 1.922 7.526 4.714 7.526 3.187 0 4.978-2.75 4.978-7.745 0-4.675-1.725-7.425-4.731-7.425M163.139 56.75h.05v12.842h1.855v-14.68h-1.642l-3.122 1.704.378 1.519zM174.914 68.302c-1.758 0-2.908-2.177-2.908-5.974 0-4.016 1.232-6.142 2.94-6.142 1.988 0 2.892 2.379 2.892 5.99 0 3.746-.953 6.126-2.924 6.126m.131-13.635c-2.907 0-4.977 2.717-4.977 7.644.05 4.843 1.938 7.526 4.73 7.526 3.188 0 4.978-2.75 4.978-7.745 0-4.675-1.724-7.425-4.73-7.425M182.871 56.62l.362 1.518 2.497-1.384h.032V69.58h1.873V54.898h-1.659zM198.929 69.587v-14.68h-1.66l-3.12 1.72.377 1.503 2.497-1.384h.033v12.841zM208.795 68.302c-1.758 0-2.907-2.177-2.907-5.974 0-4.016 1.232-6.142 2.924-6.142 2.004 0 2.907 2.379 2.907 5.99 0 3.746-.953 6.126-2.924 6.126m.132-13.635c-2.908 0-4.978 2.717-4.978 7.644.05 4.843 1.939 7.526 4.731 7.526 3.17 0 4.978-2.75 4.978-7.745 0-4.675-1.725-7.425-4.731-7.425M220.089 68.302c-1.758 0-2.908-2.177-2.908-5.974 0-4.016 1.232-6.142 2.924-6.142 2.005 0 2.908 2.379 2.908 5.99 0 3.746-.953 6.126-2.924 6.126m.131-13.635c-2.907 0-4.977 2.717-4.977 7.644.05 4.843 1.938 7.526 4.731 7.526 3.17 0 4.977-2.75 4.977-7.745 0-4.675-1.724-7.425-4.73-7.425M232.81 69.587v-14.68h-1.659l-3.121 1.72.378 1.503 2.497-1.384h.033v12.841zM242.677 68.302c-1.758 0-2.925-2.177-2.925-5.974 0-4.016 1.249-6.142 2.941-6.142 2.004 0 2.908 2.379 2.908 5.99 0 3.746-.953 6.126-2.924 6.126m.13-13.635c-2.907 0-4.977 2.717-4.977 7.644.033 4.843 1.922 7.526 4.732 7.526 3.17 0 4.977-2.75 4.977-7.745 0-4.675-1.725-7.425-4.731-7.425" opacity=".515"/>
            <path d="M126.402 83.76l.362 1.502 2.497-1.367h.05V96.72h1.855V82.022h-1.642zM141.033 95.443c-1.742 0-2.908-2.177-2.908-5.99 0-4 1.232-6.126 2.94-6.126 1.988 0 2.908 2.362 2.908 5.99 0 3.73-.953 6.126-2.94 6.126m.131-13.669c-2.908 0-4.961 2.734-4.961 7.661.033 4.86 1.922 7.526 4.715 7.526 3.186 0 4.977-2.75 4.977-7.745 0-4.674-1.725-7.442-4.731-7.442M148.99 83.76l.361 1.502 2.497-1.367h.033V96.72h1.873V82.022h-1.643zM163.62 95.443c-1.758 0-2.908-2.177-2.908-5.99 0-4 1.233-6.126 2.941-6.126 1.988 0 2.891 2.362 2.891 5.99 0 3.73-.936 6.126-2.924 6.126m.132-13.669c-2.908 0-4.978 2.734-4.978 7.661.05 4.86 1.938 7.526 4.731 7.526 3.187 0 4.978-2.75 4.978-7.745 0-4.674-1.725-7.442-4.731-7.442M171.578 83.76l.36 1.502 2.498-1.367h.05V96.72h1.855V82.022h-1.659zM182.871 83.76l.362 1.502 2.497-1.367h.032V96.72h1.873V82.022h-1.659zM197.501 95.443c-1.757 0-2.907-2.177-2.907-5.99 0-4 1.232-6.126 2.924-6.126 2.004 0 2.907 2.362 2.907 5.99 0 3.73-.952 6.126-2.924 6.126m.132-13.669c-2.908 0-4.978 2.734-4.978 7.661.05 4.86 1.939 7.526 4.731 7.526 3.17 0 4.978-2.75 4.978-7.745 0-4.674-1.725-7.442-4.731-7.442M205.442 83.76l.378 1.502 2.497-1.367h.033V96.72h1.873V82.022h-1.66zM216.736 83.76l.378 1.502 2.48-1.367h.05V96.72h1.873V82.022h-1.66zM231.383 95.443c-1.758 0-2.924-2.177-2.924-5.99 0-4 1.248-6.126 2.94-6.126 2.004 0 2.908 2.362 2.908 5.99 0 3.73-.953 6.126-2.924 6.126m.131-13.669c-2.907 0-4.977 2.734-4.977 7.661.033 4.86 1.922 7.526 4.73 7.526 3.171 0 4.978-2.75 4.978-7.745 0-4.674-1.741-7.442-4.73-7.442M239.324 83.76l.361 1.502 2.497-1.367h.05V96.72h1.856V82.022h-1.643z" opacity=".782"/>
        </g>
    </g>
</svg>
