<svg xmlns="http://www.w3.org/2000/svg" xmlns:xlink="http://www.w3.org/1999/xlink" width="388" height="446" viewBox="0 0 388 446">
    <defs>
        <linearGradient id="a" x1="50%" x2="50%" y1="0%" y2="100%">
            <stop offset="0%" stop-color="#50A7E6"/>
            <stop offset="100%" stop-color="#2E4550"/>
        </linearGradient>
        <path id="c" d="M204.452 56.417C186.83-21.118 67.61-19.423 44.096 67.87c-22.908 1.762-63.438 41.41-32.6 84.583 13.216 17.112 36.767 16.741 53.745 16.741h149.786c14.59 0 24.668-1.762 37.375-13.587 31.347-30.467 15.488-107.12-47.95-99.191z"/>
        <filter id="b" width="131.8%" height="150.3%" x="-15.9%" y="-24%" filterUnits="objectBoundingBox">
            <feMorphology in="SourceAlpha" operator="dilate" radius="6.5" result="shadowSpreadOuter1"/>
            <feOffset dy="2" in="shadowSpreadOuter1" result="shadowOffsetOuter1"/>
            <feGaussianBlur in="shadowOffsetOuter1" result="shadowBlurOuter1" stdDeviation="9"/>
            <feComposite in="shadowBlurOuter1" in2="SourceAlpha" operator="out" result="shadowBlurOuter1"/>
            <feColorMatrix in="shadowBlurOuter1" values="0 0 0 0 0 0 0 0 0 0 0 0 0 0 0 0 0 0 0.12 0"/>
        </filter>
        <linearGradient id="d" x1="50%" x2="50%" y1="0%" y2="100%">
            <stop offset="0%" stop-color="#50A7E6"/>
            <stop offset="100%" stop-color="#2E4550"/>
        </linearGradient>
        <linearGradient id="e" x1="50%" x2="50%" y1="0%" y2="100%">
            <stop offset="0%" stop-color="#50A7E6"/>
            <stop offset="100%" stop-color="#2E4550"/>
        </linearGradient>
    </defs>
    <g fill="none" fill-rule="evenodd">
        <path fill="#E1EFF9" stroke="#FFF" stroke-dasharray="4" d="M194.242 7l4.199 2.421 183.043 105.554v215.951L194.242 438.902 7 330.926v-215.95L189.862 9.525 194.242 7z"/>
        <path fill="url(#a)" fill-rule="nonzero" d="M194.244 14.503L13.5 118.731v208.443l180.744 104.228 180.743-104.228V118.731L194.244 14.503zm189.49 94.265a8.5 8.5 0 0 1 4.253 7.364v213.642a8.5 8.5 0 0 1-4.254 7.363L198.49 443.96a8.5 8.5 0 0 1-8.493 0L4.754 337.137A8.5 8.5 0 0 1 .5 329.774V116.132a8.5 8.5 0 0 1 4.254-7.364L189.997 1.945a8.5 8.5 0 0 1 8.493 0l185.243 106.823z"/>
        <path stroke="#FFF" stroke-dasharray="4" d="M194.242 7l4.199 2.421 183.043 105.554v215.951L194.242 438.902 7 330.926v-215.95L189.862 9.525 194.242 7z"/>
        <g fill="#50A7E6" transform="translate(74.5 269.5)">
            <circle cx="33" cy="33" r="33" opacity=".09"/>
            <circle cx="33" cy="33" r="26.231" opacity=".181"/>
            <circle cx="33" cy="33" r="19.462" opacity=".326"/>
        </g>
        <g fill="#50A7E6" transform="translate(160.5 317.5)">
            <circle cx="33" cy="33" r="33" opacity=".09"/>
            <circle cx="33" cy="33" r="26.231" opacity=".181"/>
            <circle cx="33" cy="33" r="19.462" opacity=".326"/>
        </g>
        <g fill="#50A7E6" transform="translate(245.5 269.5)">
            <circle cx="33" cy="33" r="33" opacity=".09"/>
            <circle cx="33" cy="33" r="26.231" opacity=".181"/>
            <circle cx="33" cy="33" r="19.462" opacity=".326"/>
        </g>
        <g transform="translate(60 70)">
            <use fill="#000" filter="url(#b)" xlink:href="#c"/>
            <use fill="#2E4550" stroke="#FFF" stroke-width="5" xlink:href="#c"/>
        </g>
        <circle cx="12" cy="12" r="12" fill="#50A7E6" transform="translate(182 194)"/>
        <text fill="#50A7E6" font-family="Rubik-Regular, Rubik" font-size="10" transform="translate(146 96)">
            <tspan x=".785" y="109">v1.0.0</tspan>
        </text>
        <text fill="#50A7E6" font-family="Rubik-Regular, Rubik" font-size="10" transform="translate(146 96)">
            <tspan x=".85" y="60">v1.1.0</tspan>
        </text>
        <text fill="#50A7E6" font-family="Rubik-Regular, Rubik" font-size="10" transform="translate(146 96)">
            <tspan x=".98" y="11">v2.0.0</tspan>
        </text>
        <text fill="#50A7E6" font-family="Rubik-Regular, Rubik" font-size="10" transform="translate(146 96)">
            <tspan x="107.85" y="83">v1.0.1</tspan>
        </text>
        <path fill="#FFF" d="M190.077 176.19c.056.155.157.233.302.233h2.333v15.232c0 .114.032.208.094.28a.3.3 0 0 0 .24.11h2a.3.3 0 0 0 .239-.11.417.417 0 0 0 .094-.28v-15.232h2.333c.139 0 .24-.078.302-.233a.446.446 0 0 0-.052-.427l-3.698-4.687a.318.318 0 0 0-.25-.121c-.09 0-.17.04-.24.121l-3.645 4.687a.446.446 0 0 0-.052.428zM190.077 127.19c.056.155.157.233.302.233h2.333v15.232c0 .114.032.208.094.28a.3.3 0 0 0 .24.11h2a.3.3 0 0 0 .239-.11.417.417 0 0 0 .094-.28v-15.232h2.333c.139 0 .24-.078.302-.233a.446.446 0 0 0-.052-.427l-3.698-4.687a.318.318 0 0 0-.25-.121c-.09 0-.17.04-.24.121l-3.645 4.687a.446.446 0 0 0-.052.428zM209.419 169.013c.16.035.28-.01.357-.133l1.236-1.979 12.918 8.072c.096.06.192.084.287.07a.3.3 0 0 0 .22-.145l1.06-1.696a.3.3 0 0 0 .034-.262.417.417 0 0 0-.189-.228l-12.917-8.072 1.236-1.978c.074-.118.061-.245-.037-.38a.446.446 0 0 0-.39-.182l-5.934.652a.318.318 0 0 0-.236.148.308.308 0 0 0-.023.267l2.043 5.576a.446.446 0 0 0 .335.27z"/>
        <circle cx="12" cy="12" r="12" fill="#50A7E6" transform="translate(182 96)"/>
        <circle cx="12" cy="12" r="12" fill="#50A7E6" transform="translate(225 169)"/>
        <path fill="#FFF" d="M218.913 187.448c-.106.126-.123.252-.05.378l1.167 2.02-13.192 7.616a.417.417 0 0 0-.196.222.3.3 0 0 0 .024.262l1 1.732a.3.3 0 0 0 .215.153.417.417 0 0 0 .29-.06l13.192-7.616 1.166 2.02c.07.12.187.17.352.146a.446.446 0 0 0 .344-.259l2.21-5.545a.318.318 0 0 0-.019-.277.308.308 0 0 0-.225-.147l-5.882-.813a.446.446 0 0 0-.396.168z"/>
        <circle cx="12" cy="12" r="12" fill="#50A7E6" transform="translate(182 145)"/>
        <g>
            <path fill="#2E4550" stroke="#FFF" stroke-width="3" d="M150.631 286.362c-.967-.88-2.142-1.32-3.525-1.32h-24.058l-7.05 6.41c-2.005 1.758-4.356 2.638-7.052 2.638-2.695 0-5.046-.879-7.05-2.639l-7-6.408h-24.11c-1.381 0-2.557.44-3.525 1.319-.968.88-1.451 1.947-1.451 3.204v15.08c0 1.257.483 2.326 1.451 3.205.968.879 2.144 1.32 3.526 1.32h76.32c1.382 0 2.558-.441 3.524-1.32.968-.88 1.452-1.948 1.452-3.205v-15.08c0-1.257-.484-2.325-1.452-3.204z"/>
            <path fill="#FFF" fill-rule="nonzero" d="M71.305 296.385c0 .34-.292.615-.653.615-.36 0-.652-.275-.652-.615v-5.129c0-1.246 1.071-2.256 2.392-2.256h3.956c.36 0 .652.275.652.615 0 .34-.292.616-.652.616h-3.956c-.6 0-1.087.459-1.087 1.025v5.129z"/>
            <path fill="url(#d)" d="M55.119 50.958c-.168-.497-.472-.746-.913-.746h-7.044V1.255c0-.366-.095-.667-.283-.902A.885.885 0 0 0 46.156 0h-6.039a.886.886 0 0 0-.723.353c-.189.235-.283.536-.283.902v48.958h-7.045c-.42 0-.723.249-.912.746-.168.496-.115.954.157 1.373l11.165 15.063c.21.262.461.392.755.392.273 0 .514-.13.723-.392l11.007-15.063c.273-.42.326-.877.158-1.374z" transform="translate(65.81 220.702)"/>
            <path fill="#50A7E6" d="M135.125 293.381c-.57.569-1.244.853-2.023.853-.779 0-1.452-.284-2.022-.853-.568-.568-.853-1.241-.853-2.019 0-.777.285-1.451.853-2.02.57-.568 1.243-.853 2.022-.853.779 0 1.454.285 2.023.854.569.568.854 1.242.854 2.019 0 .778-.285 1.45-.854 2.02z"/>
            <path fill="#F5F5F5" d="M145.477 293.381c-.569.569-1.243.853-2.022.853-.779 0-1.453-.284-2.022-.853-.569-.568-.853-1.241-.853-2.019 0-.777.284-1.451.853-2.02.57-.568 1.243-.853 2.022-.853.779 0 1.453.285 2.022.854.57.568.854 1.242.854 2.019 0 .778-.284 1.45-.854 2.02z"/>
            <path fill="#FFF" d="M76.012 298.83h58.967a1 1 0 0 1 1 1v1.447a1 1 0 0 1-1 1H76.012a1 1 0 0 1-1-1v-1.447a1 1 0 0 1 1-1z"/>
            <path fill="#50A7E6" d="M76.587 299.404h42.862a1 1 0 0 1 1 1v.298a1 1 0 0 1-1 1H76.587a1 1 0 0 1-1-1v-.298a1 1 0 0 1 1-1z"/>
            <g>
                <path fill="#2E4550" stroke="#FFF" stroke-width="3" d="M236.185 334.362c-.967-.88-2.143-1.32-3.525-1.32h-24.058l-7.051 6.41c-2.005 1.758-4.355 2.638-7.051 2.638-2.696 0-5.046-.879-7.051-2.639l-7-6.408h-24.108c-1.383 0-2.558.44-3.526 1.319-.968.88-1.452 1.947-1.452 3.204v15.08c0 1.257.484 2.326 1.452 3.205s2.143 1.32 3.526 1.32h76.32c1.381 0 2.557-.441 3.524-1.32.968-.88 1.452-1.948 1.452-3.205v-15.08c0-1.257-.484-2.325-1.452-3.204z"/>
                <path fill="#FFF" fill-rule="nonzero" d="M156.305 344.285c0 .34-.292.615-.653.615-.36 0-.652-.275-.652-.615v-5.129c0-1.246 1.071-2.256 2.392-2.256h3.956c.36 0 .652.275.652.615 0 .34-.292.616-.652.616h-3.956c-.6 0-1.087.459-1.087 1.025v5.129z"/>
                <path fill="url(#e)" d="M39.137 41.948V1.798a1 1 0 0 1 1-1h6a1 1 0 0 1 1 1v40.135c.018.1.027.208.027.322v48.957h7.045c.441 0 .746.25.913.746.168.497.116.954-.157 1.374l-11.009 15.063c-.21.262-.45.392-.723.392-.294 0-.546-.13-.755-.392L31.31 93.332c-.272-.42-.325-.877-.157-1.373.189-.497.493-.746.912-.746h7.046V42.255c0-.108.008-.21.025-.307z" transform="translate(151.363 227.702)"/>
                <path fill="#50A7E6" d="M220.679 341.381c-.57.569-1.244.853-2.023.853-.779 0-1.452-.284-2.022-.853-.569-.568-.853-1.241-.853-2.019 0-.777.284-1.451.853-2.02.57-.568 1.243-.853 2.022-.853.779 0 1.453.285 2.023.854.569.568.853 1.242.853 2.019 0 .778-.284 1.45-.853 2.02z"/>
                <path fill="#F5F5F5" d="M231.03 341.381c-.568.569-1.243.853-2.021.853-.78 0-1.453-.284-2.022-.853-.569-.568-.854-1.241-.854-2.019 0-.777.285-1.451.854-2.02.569-.568 1.243-.853 2.022-.853.778 0 1.453.285 2.022.854.569.568.854 1.242.854 2.019 0 .778-.285 1.45-.854 2.02z"/>
                <path fill="#FFF" d="M161.566 346.83h58.966a1 1 0 0 1 1 1v1.447a1 1 0 0 1-1 1h-58.966a1 1 0 0 1-1-1v-1.447a1 1 0 0 1 1-1z"/>
                <path fill="#50A7E6" d="M162.141 347.404h20.86a1 1 0 0 1 1 1v.298a1 1 0 0 1-1 1h-20.86a1 1 0 0 1-1-1v-.298a1 1 0 0 1 1-1z"/>
            </g>
            <g>
                <path fill="#2E4550" stroke="#FFF" stroke-width="3" d="M321.739 286.362c-.968-.88-2.143-1.32-3.525-1.32h-24.058l-7.051 6.41c-2.005 1.758-4.356 2.638-7.051 2.638-2.696 0-5.047-.879-7.051-2.639l-7-6.408h-24.109c-1.382 0-2.557.44-3.525 1.319-.968.88-1.452 1.947-1.452 3.204v15.08c0 1.257.484 2.326 1.452 3.205s2.143 1.32 3.525 1.32h76.32c1.382 0 2.558-.441 3.525-1.32.968-.88 1.451-1.948 1.451-3.205v-15.08c0-1.257-.483-2.325-1.451-3.204z"/>
                <path fill="#FFF" fill-rule="nonzero" d="M241.705 295.585c0 .34-.292.615-.653.615-.36 0-.652-.275-.652-.615v-5.129c0-1.246 1.071-2.256 2.392-2.256h3.956c.36 0 .652.275.652.615 0 .34-.292.616-.652.616h-3.956c-.6 0-1.087.459-1.087 1.025v5.129z"/>
                <path fill="url(#d)" d="M55.119 50.958c-.168-.497-.472-.746-.913-.746h-7.044V1.255c0-.366-.095-.667-.283-.902A.885.885 0 0 0 46.156 0h-6.039a.886.886 0 0 0-.723.353c-.189.235-.283.536-.283.902v48.958h-7.045c-.42 0-.723.249-.912.746-.168.496-.115.954.157 1.373l11.165 15.063c.21.262.461.392.755.392.273 0 .514-.13.723-.392l11.007-15.063c.273-.42.326-.877.158-1.374z" transform="translate(236.917 220.702)"/>
                <path fill="#50A7E6" d="M306.233 293.381c-.57.569-1.245.853-2.023.853-.78 0-1.453-.284-2.022-.853-.569-.568-.854-1.241-.854-2.019 0-.777.285-1.451.854-2.02.57-.568 1.243-.853 2.022-.853.778 0 1.453.285 2.023.854.568.568.853 1.242.853 2.019 0 .778-.285 1.45-.853 2.02z"/>
                <path fill="#F5F5F5" d="M316.584 293.381c-.568.569-1.243.853-2.022.853-.778 0-1.452-.284-2.022-.853-.568-.568-.853-1.241-.853-2.019 0-.777.285-1.451.853-2.02.57-.568 1.244-.853 2.022-.853.78 0 1.454.285 2.022.854.57.568.855 1.242.855 2.019 0 .778-.285 1.45-.855 2.02z"/>
                <path fill="#FFF" d="M247.12 298.83h58.966a1 1 0 0 1 1 1v1.447a1 1 0 0 1-1 1H247.12a1 1 0 0 1-1-1v-1.447a1 1 0 0 1 1-1z"/>
                <path fill="#50A7E6" d="M247.695 299.404h54.86a1 1 0 0 1 1 1v.298a1 1 0 0 1-1 1h-54.86a1 1 0 0 1-1-1v-.298a1 1 0 0 1 1-1z"/>
            </g>
        </g>
        <path stroke="#979797" stroke-dasharray="3" d="M194.705 33l3.693 2.13 161.012 92.85v189.958l-164.705 94.979L30 317.937V127.98l160.852-92.757L194.705 33z"/>
    </g>
</svg>
