<svg xmlns="http://www.w3.org/2000/svg" xmlns:xlink="http://www.w3.org/1999/xlink" width="420" height="476" viewBox="0 0 420 476">
    <defs>
        <filter id="a" width="122.1%" height="119.4%" x="-11.2%" y="-9.7%" filterUnits="objectBoundingBox">
            <feOffset dy="2" in="SourceAlpha" result="shadowOffsetOuter1"/>
            <feGaussianBlur in="shadowOffsetOuter1" result="shadowBlurOuter1" stdDeviation="8"/>
            <feColorMatrix in="shadowBlurOuter1" result="shadowMatrixOuter1" values="0 0 0 0 0 0 0 0 0 0 0 0 0 0 0 0 0 0 0.4 0"/>
            <feMerge>
                <feMergeNode in="shadowMatrixOuter1"/>
                <feMergeNode in="SourceGraphic"/>
            </feMerge>
        </filter>
        <linearGradient id="b" x1="0%" x2="0%" y1="0%" y2="100%">
            <stop offset="0%" stop-color="#50A7E6"/>
            <stop offset="100%" stop-color="#2E4550"/>
        </linearGradient>
        <linearGradient id="c" x1="50%" x2="50%" y1="0%" y2="100%">
            <stop offset="0%" stop-color="#50A7E6"/>
            <stop offset="100%" stop-color="#2E4550"/>
        </linearGradient>
        <path id="d" d="M5 38h82V0h21v38h16a5 5 0 0 1 5 5v43a5 5 0 0 1-5 5H5a5 5 0 0 1-5-5V43a5 5 0 0 1 5-5zm69 11a2 2 0 0 0-2 2v15a2 2 0 0 0 2 2h42a2 2 0 0 0 2-2V51a2 2 0 0 0-2-2H74z"/>
    </defs>
    <g fill="none" fill-rule="evenodd" filter="url(#a)" transform="translate(23 20)">
        <path fill="#2E4550" d="M4 112L187 7v420L6 320z"/>
        <path fill="#50A7E6" fill-opacity=".1" d="M373 112L190 7v420l181-107z"/>
        <path fill="url(#b)" d="M183 4h8v423h-8z"/>
        <path stroke="url(#c)" stroke-width="13" d="M188.061.577l3.195 1.845 181.867 105a2 2 0 0 1 1 1.733v213.69a2 2 0 0 1-1 1.732L188.061 431.423a2 2 0 0 1-2 0L1 324.577a2 2 0 0 1-1-1.732v-213.69a2 2 0 0 1 1-1.732L182.685 2.527l3.376-1.95a2 2 0 0 1 2 0z"/>
        <path stroke="#D8D8D8" stroke-dasharray="4" d="M187.06 0l4.194 2.422L374.12 107.999v215.998l-187.06 108L0 323.997V108L182.684 2.527 187.06 0z"/>
        <path stroke="#2E4550" stroke-dasharray="3" d="M187.364 26l3.69 2.13L351.909 121v190l-164.545 95V26z"/>
        <path stroke="#FFF" stroke-dasharray="3" d="M187.464 25.4h-.364l.364 380-164.545-95v-190l160.696-92.777 3.85-2.223z"/>
        <g fill="#50A7E6" transform="translate(25.5 156.5)">
            <circle cx="78" cy="78" r="78" opacity=".09"/>
            <circle cx="78" cy="78" r="62" opacity=".181"/>
            <circle cx="78" cy="78" r="46" opacity=".326"/>
        </g>
        <g transform="translate(36 170)">
            <path fill="#2E4550" stroke="#FFF" stroke-width="5" d="M15 40.5C8.096 40.5 2.5 46.096 2.5 53v23c0 6.904 5.596 12.5 12.5 12.5h99c6.904 0 12.5-5.596 12.5-12.5V47.5a7 7 0 0 0-7-7H111a3.5 3.5 0 0 1-3.5-3.5V5a2.5 2.5 0 0 0-2.5-2.5H93A2.5 2.5 0 0 0 90.5 5v32a3.5 3.5 0 0 1-3.5 3.5H15z"/>
            <path fill="#FFF" fill-rule="nonzero" d="M16.502 46.473c-4.057.167-7.448 3.21-7.887 7.08-.058.511.327.964.86 1.011.044.004.089.005.132.004.478-.02.885-.375.938-.843.334-2.949 2.918-5.268 6.01-5.396.535-.022.958-.455.943-.968-.014-.513-.46-.91-.996-.888z"/>
            <rect width="6" height="6" x="15" y="55" stroke="#FFF" stroke-width="2" rx="3"/>
            <rect width="6" height="6" x="39" y="55" stroke="#FFF" stroke-width="2" rx="3"/>
            <rect width="6" height="6" x="27" y="55" stroke="#FFF" stroke-width="2" rx="3"/>
            <rect width="6" height="6" x="15" y="67" stroke="#FFF" stroke-width="2" rx="3"/>
            <rect width="6" height="6" x="39" y="67" stroke="#FFF" stroke-width="2" rx="3"/>
            <rect width="6" height="6" x="27" y="67" stroke="#FFF" stroke-width="2" rx="3"/>
            <rect width="42" height="17" x="71.5" y="55.5" stroke="#FFF" stroke-width="3" rx="5"/>
        </g>
        <g>
            <g transform="translate(206 170)">
                <mask id="e" fill="#fff">
                    <use xlink:href="#d"/>
                </mask>
                <text fill="#2E4550" font-family="OpenSans-Bold, Open Sans" font-size="9" font-weight="bold" mask="url(#e)">
                    <tspan x="0" y="10">195068473920395769403275565</tspan> <tspan x="0" y="23">586966093758316452918474655</tspan> <tspan x="0" y="36">889586746675849393837584937</tspan> <tspan x="0" y="49">758699890974636284922536575</tspan> <tspan x="0" y="62">451265719384336859025568720</tspan> <tspan x="0" y="75">388839484756320983746598798</tspan> <tspan x="0" y="88">153426372635474569803283747</tspan> 
                </text>
            </g>
        </g>
    </g>
</svg>
