<svg xmlns="http://www.w3.org/2000/svg" width="91" height="91" viewBox="0 0 91 91">
    <g fill="#A7C6DA" fill-rule="evenodd">
        <circle cx="45.5" cy="45.5" r="45.5" opacity=".085"/>
        <path fill-rule="nonzero" d="M35 54.355C42.5 53.447 48.447 47.5 49.355 40H48.5a1.5 1.5 0 0 1 0-3h.945C48.928 28.367 41.763 21.525 33 21.525S17.072 28.367 16.555 37h.945a1.5 1.5 0 0 1 0 3h-.855c.948 7.83 7.389 13.968 15.355 14.445V53.5a1.5 1.5 0 0 1 3 0v.855zm-5.127-14.48a3.612 3.612 0 0 1 1.32-4.928 3.614 3.614 0 0 1 4.149.383l7.469-4.313a1.202 1.202 0 1 1 1.202 2.083l-7.469 4.312c.27 1.461-.385 3-1.743 3.784a3.612 3.612 0 0 1-4.928-1.32zm4.166-2.405a1.204 1.204 0 0 0-2.083 1.203 1.204 1.204 0 0 0 2.083-1.203zM33.5 25a1.5 1.5 0 0 1-1.5-1.5V22h3v1.5a1.5 1.5 0 0 1-1.5 1.5zM33 57c-10.493 0-19-8.507-19-19s8.507-19 19-19 19 8.507 19 19-8.507 19-19 19z"/>
        <g fill-rule="nonzero">
            <path d="M72.027 32.506l-1.333-.227a7.53 7.53 0 0 0-.536-1.294l.786-1.1a1.17 1.17 0 0 0-.127-1.511l-1.183-1.183a1.165 1.165 0 0 0-1.508-.127l-1.104.786a7.452 7.452 0 0 0-1.341-.552l-.222-1.318a1.172 1.172 0 0 0-1.16-.98h-1.67c-.576 0-1.064.413-1.16.98l-.23 1.35a7.345 7.345 0 0 0-1.29.544l-1.09-.786a1.165 1.165 0 0 0-.684-.219c-.313 0-.61.123-.83.346l-1.186 1.183a1.175 1.175 0 0 0-.127 1.512l.794 1.115c-.218.417-.393.85-.528 1.298l-1.318.222c-.567.095-.98.584-.98 1.16v1.67c0 .576.413 1.064.98 1.16l1.35.23c.139.444.321.877.544 1.29l-.782 1.087a1.17 1.17 0 0 0 .127 1.512l1.182 1.183a1.165 1.165 0 0 0 1.509.127l1.115-.794c.4.21.822.381 1.254.516l.223 1.334c.095.567.583.98 1.158.98h1.675c.576 0 1.064-.413 1.16-.98l.226-1.334a7.53 7.53 0 0 0 1.294-.536l1.099.786c.198.143.437.218.683.218.313 0 .607-.123.83-.345l1.182-1.183c.405-.405.46-1.044.127-1.512l-.786-1.103c.218-.417.401-.85.536-1.294l1.334-.223c.567-.095.98-.583.98-1.159v-1.67a1.158 1.158 0 0 0-.973-1.16zm-.09 2.83a.103.103 0 0 1-.088.103l-1.667.278a.533.533 0 0 0-.429.392 6.354 6.354 0 0 1-.69 1.664.537.537 0 0 0 .023.583l.98 1.381c.029.04.025.1-.011.135l-1.183 1.183a.1.1 0 0 1-.075.032.097.097 0 0 1-.06-.02l-1.377-.98a.536.536 0 0 0-.584-.024c-.52.31-1.08.54-1.663.69a.527.527 0 0 0-.393.429l-.281 1.667a.103.103 0 0 1-.104.087h-1.67a.103.103 0 0 1-.104-.087l-.278-1.667a.533.533 0 0 0-.393-.429 6.598 6.598 0 0 1-1.627-.667.55.55 0 0 0-.27-.071.523.523 0 0 0-.31.1l-1.388.988a.118.118 0 0 1-.06.02.106.106 0 0 1-.075-.032l-1.183-1.183a.108.108 0 0 1-.012-.135l.976-1.37a.543.543 0 0 0 .024-.587 6.294 6.294 0 0 1-.698-1.659.544.544 0 0 0-.43-.393l-1.678-.286a.103.103 0 0 1-.087-.103v-1.67c0-.052.035-.096.087-.104l1.655-.278a.537.537 0 0 0 .433-.397 6.347 6.347 0 0 1 .678-1.667.53.53 0 0 0-.027-.58l-.989-1.388a.108.108 0 0 1 .012-.135l1.183-1.183a.1.1 0 0 1 .075-.032c.024 0 .044.008.06.02l1.37.976a.543.543 0 0 0 .587.024 6.294 6.294 0 0 1 1.659-.698.544.544 0 0 0 .393-.43l.285-1.678a.103.103 0 0 1 .104-.087h1.67c.052 0 .096.035.104.087l.278 1.655c.035.21.19.381.397.433.599.15 1.17.385 1.702.698.183.107.41.1.584-.024l1.37-.984c.019-.012.039-.02.059-.02.015 0 .047.004.075.032l1.183 1.183c.036.036.04.091.012.135l-.98 1.377a.536.536 0 0 0-.024.584c.31.52.54 1.08.69 1.663a.527.527 0 0 0 .429.393l1.667.281a.103.103 0 0 1 .087.104v1.67h-.004z"/>
            <path d="M63.5 30.5c-2.207 0-4 1.793-4 4s1.793 4 4 4 4-1.793 4-4-1.793-4-4-4zm0 6.955a2.956 2.956 0 0 1-2.955-2.955 2.956 2.956 0 0 1 2.955-2.955 2.956 2.956 0 0 1 2.955 2.955 2.956 2.956 0 0 1-2.955 2.955z"/>
        </g>
        <g fill-rule="nonzero">
            <path d="M72.618 58.666l-1.895-.322a10.7 10.7 0 0 0-.762-1.838l1.117-1.563c.474-.665.4-1.573-.18-2.149l-1.681-1.68a1.656 1.656 0 0 0-2.143-.181l-1.568 1.117a10.59 10.59 0 0 0-1.907-.784l-.316-1.873A1.666 1.666 0 0 0 61.636 48h-2.374c-.818 0-1.512.587-1.647 1.393l-.327 1.918c-.632.197-1.247.457-1.833.773l-1.551-1.117a1.656 1.656 0 0 0-.97-.31c-.446 0-.87.174-1.18.49l-1.686 1.681a1.67 1.67 0 0 0-.18 2.149l1.128 1.585c-.31.592-.559 1.207-.75 1.844l-1.873.316A1.666 1.666 0 0 0 47 60.37v2.375c0 .818.587 1.511 1.393 1.647l1.918.327c.197.631.457 1.246.773 1.833l-1.112 1.545c-.473.666-.4 1.574.18 2.15l1.682 1.68a1.656 1.656 0 0 0 2.143.18l1.585-1.128c.57.3 1.167.542 1.782.734l.316 1.895c.135.806.83 1.393 1.647 1.393h2.38c.818 0 1.512-.587 1.647-1.393l.322-1.895a10.7 10.7 0 0 0 1.838-.762l1.563 1.117c.282.203.62.31.97.31.445 0 .863-.175 1.179-.49l1.68-1.681a1.67 1.67 0 0 0 .18-2.15L69.95 66.49c.31-.592.57-1.207.762-1.839l1.895-.316A1.666 1.666 0 0 0 74 62.687v-2.374a1.646 1.646 0 0 0-1.382-1.647zm-.13 4.021c0 .074-.05.136-.124.147l-2.369.395a.757.757 0 0 0-.609.558 9.03 9.03 0 0 1-.981 2.363.763.763 0 0 0 .034.83l1.393 1.962a.154.154 0 0 1-.017.192l-1.681 1.68a.143.143 0 0 1-.107.046.139.139 0 0 1-.085-.028l-1.957-1.393a.762.762 0 0 0-.83-.034 9.03 9.03 0 0 1-2.362.981.749.749 0 0 0-.559.61l-.4 2.368a.146.146 0 0 1-.147.124h-2.374a.146.146 0 0 1-.147-.124l-.395-2.369a.757.757 0 0 0-.558-.609 9.375 9.375 0 0 1-2.313-.947.78.78 0 0 0-.383-.102.743.743 0 0 0-.44.141l-1.974 1.405a.168.168 0 0 1-.085.028.151.151 0 0 1-.107-.045l-1.68-1.681a.153.153 0 0 1-.018-.192l1.388-1.946a.772.772 0 0 0 .034-.835 8.944 8.944 0 0 1-.993-2.357.772.772 0 0 0-.61-.559l-2.385-.406a.146.146 0 0 1-.124-.146v-2.375c0-.073.05-.135.124-.147l2.352-.394a.763.763 0 0 0 .615-.564c.208-.83.53-1.63.964-2.37a.753.753 0 0 0-.04-.823l-1.404-1.974a.154.154 0 0 1 .017-.192l1.681-1.68a.143.143 0 0 1 .107-.046c.034 0 .062.012.085.029l1.946 1.387a.772.772 0 0 0 .834.034 8.944 8.944 0 0 1 2.358-.993.772.772 0 0 0 .558-.609l.407-2.386a.146.146 0 0 1 .146-.124h2.375c.073 0 .135.051.146.124l.395 2.352c.05.3.27.542.564.615a9.155 9.155 0 0 1 2.42.993c.26.152.58.14.829-.034l1.946-1.399a.168.168 0 0 1 .084-.028c.023 0 .068.006.108.045l1.68 1.68c.051.052.057.13.017.193l-1.393 1.957a.762.762 0 0 0-.034.829 9.03 9.03 0 0 1 .982 2.363.749.749 0 0 0 .609.559l2.369.4a.146.146 0 0 1 .124.147v2.374h-.006z"/>
            <path d="M60.5 55.5c-3.31 0-6 2.69-6 6s2.69 6 6 6 6-2.69 6-6-2.69-6-6-6zm0 10.432a4.435 4.435 0 0 1-4.432-4.432 4.435 4.435 0 0 1 4.432-4.432 4.435 4.435 0 0 1 4.432 4.432 4.435 4.435 0 0 1-4.432 4.432z"/>
        </g>
    </g>
</svg>
