<svg xmlns="http://www.w3.org/2000/svg" width="703" height="313" viewBox="0 0 703 313">
    <defs>
        <linearGradient id="a" x1="50%" x2="50%" y1="0%" y2="100%">
            <stop offset="0%" stop-color="#50A7E6"/>
            <stop offset="100%" stop-color="#2E4550"/>
        </linearGradient>
    </defs>
    <g fill="none" fill-rule="evenodd" transform="translate(0 7)">
        <path stroke="#50A7E6" stroke-dasharray="6" stroke-linecap="square" stroke-width="3" d="M15.43 117.12l166.73-.088M133.583 151.646h124.139M132.234 153v65.753M525.563 151.646h55.997M581.56 151.646v21.664"/>
        <path fill="#000" fill-rule="nonzero" d="M281.427 125.663c-.34 1.02-.679 2.552-.17 5.105.509 2.723 2.036 4.424 3.054 5.446 2.206 2.552 4.411 3.573 7.635 5.275 3.223 1.702 11.028 3.574 14.421 3.914 6.956.85 17.984 0 25.789-6.807 4.58-3.914-2.545-13.274-9.162-23.654-2.036-3.064-3.563-6.297-5.599-9.36a165.244 165.244 0 0 1-5.938-9.02c-2.206-3.573-2.884-7.147-3.393-9.87-.34-2.042-.51-3.403-.34-5.956.17-1.19.17-2.212.34-2.893.17-.85.509-2.042 1.187-3.233.679-1.021 2.206-2.553 3.733-2.723 2.884-.17 6.447 1.702 8.822 3.234l6.787-4.085c-1.188-1.02-2.206-1.531-3.224-2.552-2.036-1.702-2.205-2.553-5.09-3.234a28.335 28.335 0 0 0-7.125-.51c-4.072.51-5.939 2.042-6.787 2.723-.509.34-2.545 2.382-3.223 3.403-1.358 2.042-2.885 4.935-3.224 9.02-.34 4.424.509 9.019 1.018 11.06 1.018 3.575 3.223 8.34 5.09 11.232 1.866 2.893 2.375 3.404 4.58 6.637.51.851 2.037 2.893 2.546 3.744.509.851 1.018 1.872 1.527 2.723 1.187 2.382 1.527 3.233 1.696 4.935.17.68-.17 2.212-.509 2.553-1.187 1.701-2.884 2.893-7.295 2.722-2.885-.17-.849.17-4.072-.17 1.357-.85 1.187-.51 3.393-2.042 4.072-2.723 3.224-8.849-.848-11.572-5.09-3.063-9.671-2.552-12.386-2.552-.509 0-1.527 0 .17-.851 2.715-1.532 3.224-3.234 3.393-4.425.34-4.935-5.09-7.317-12.215-6.807-2.885.17-5.09.34-6.957.51-.17 0 .34-.17 1.188-1.02.848-.851 1.357-1.872 1.188-3.063-.34-2.213-2.885-2.553-4.072-2.553-1.867 0-7.635.34-7.465 2.212.17.851 1.527 1.021 2.884 1.191 1.018 0 2.545.17 3.223 0-.509.34-1.018.34-2.205.851-1.357.681-1.866.851-3.054 1.362-5.26 2.722-4.75 9.19 4.411 9.36 2.375 0 3.733-.17 3.393 0-1.696.85-2.714 1.701-3.223 2.382-3.054 2.893-3.563 5.275-3.054 7.658.34 2.042 2.545 5.105 7.295 5.956 2.376.51 2.715.51 3.563.51 0 0-1.187 1.362-1.696 3.234z"/>
        <path fill="#211F1F" fill-rule="nonzero" d="M292.794 121.068c1.866-.51 5.09-.851 6.278 1.021.17.34.848 0 .509-.34-1.358-2.042-4.92-1.872-6.957-1.362-.339.17-.17.851.17.68z"/>
        <path fill="#F7AD41" fill-rule="nonzero" d="M317.395 122.43c0 .51-.509 1.53-.848 2.041-.51.681-1.866 1.702-2.545 1.872-2.036.851-2.884 1.021-5.769.851-2.714-.17-4.75-.34-7.974-1.02 2.545-1.022 4.581-2.043 6.617-3.574 2.545-1.872 3.224-6.467-.679-9.02-4.75-2.893-10.519-3.233-13.064-3.063-2.375.17-3.732 0-3.732 0s3.393-1.702 4.58-2.382c1.867-1.362 2.715-2.213 2.715-4.255 0-1.702-2.036-6.126-11.028-5.445-1.357.17-8.313.68-9.67.68-.68 0 .339-.68 1.526-1.531 1.018-.851 2.885-2.042 2.885-3.574-.17-2.553-4.92-1.872-4.92-1.872s-4.072 0-4.581.51c-.51.511 2.544.341 3.562.511.849.17 3.054.17 2.885.851-1.188 1.021-2.036 1.361-2.885 1.872-.848.51-1.526.68-2.884 1.361-4.92 2.723-2.714 7.318 4.411 7.318 4.072 0 12.047-1.532 8.314 0-2.375 1.021-4.75 1.531-7.465 3.914-3.563 3.063-3.394 4.935-2.885 6.807.51 1.872 3.054 4.254 7.805 4.765 2.545.34 2.715.85 5.599.34-.679.34-1.188.68-1.866 1.191-1.188 1.192-1.867 2.043-2.376 3.234-.678 1.531-.678 3.403-.339 4.935.509 1.531 1.188 3.063 2.036 4.084 1.866 2.383 4.58 4.084 7.635 5.616 3.054 1.531 8.822 3.063 12.046 3.233 6.447.51 13.064-1.191 16.966-5.445 3.902-4.425 6.108-12.253-.17-22.293-1.866-3.064-3.393-6.127-5.26-9.02-1.865-2.893-3.901-5.786-5.598-8.679-2.206-3.403-2.715-6.977-3.054-9.7-.34-1.872-.509-3.403-.34-5.786.17-1.19.17-2.042.34-2.893.17-.85.51-2.042 1.018-3.063.679-1.02 2.206-2.552 3.563-2.723 2.715-.17 6.108 1.532 8.313 3.064l6.278-3.914c-1.018-1.021-2.036-1.532-3.054-2.383-1.866-1.702-2.206-2.212-5.09-2.893-1.696-.34-3.732-.68-6.447-.34-3.902.51-5.26 2.382-6.108 3.063-.34.34-1.357 1.361-2.036 2.382-1.187 1.872-2.884 5.106-3.223 9.02-.17 3.403.17 6.977.848 9.53.848 3.403 3.393 9.36 5.43 12.082 2.035 2.553 3.732 4.765 5.598 7.998.509.68 1.188 1.872 1.697 2.723.509.85.848 1.532 1.187 2.382 1.527 2.383 2.376 3.915 2.036 6.637z"/>
        <path fill="#000" fill-rule="nonzero" d="M306.876 86.863c.34 2.212.848 4.594 1.527 6.126 4.242 8.168 7.805 12.763 11.367 18.89 3.394 5.615 5.939 11.401 4.581 17.868-1.187 5.105-6.616 12.082-15.778 13.274l-5.43.17c1.527 1.02 7.975 1.701 14.93 1.02 3.903-.17 7.975-1.36 11.029-3.403 11.028-6.637 11.028-15.656 8.822-22.463-1.357-3.914-4.75-9.02-7.804-12.082-3.224-3.404-6.617-6.127-10.859-11.742-2.714-3.404-2.375-6.127-3.053-10.211 0-.51-.17-.85-.17-1.191 3.054-6.637 2.375-9.87-2.884-10.551-1.527-.17-3.903.68-4.92 2.553-.68 1.02-.849 2.042-1.358 3.914-.34 2.042-.34 5.445 0 7.828z"/>
        <path fill="#FFF" fill-rule="nonzero" d="M307.724 87.033c.34 2.212 1.018 4.765 1.697 6.296 3.224 6.807 7.126 12.253 11.028 18.72 3.224 5.105 5.938 10.72 4.92 17.528-1.018 6.466-6.617 11.742-11.876 13.273-2.036.681-3.563.681-3.563.681 3.733.34 6.956-.17 8.483-.34 3.733-.51 6.787-1.532 9.671-3.404 9.501-6.466 10.689-13.954 8.144-21.442-1.358-3.914-3.393-7.147-6.617-10.72-3.054-3.404-5.938-6.808-10.35-11.573-2.544-2.893-3.393-6.637-4.071-10.72 0-.511-.17-.852-.17-1.192 2.884-6.467 3.563-9.53-1.357-10.21-1.527-.341-3.563.17-4.412 1.701-.509 1.021-1.187 2.553-1.527 4.425-.339 2.722-.339 4.424 0 6.977z"/>
        <path fill="#F7AD41" fill-rule="nonzero" d="M316.717 71.887c.17-.17.848-.68 1.187-1.191.17-.51 2.036-3.233 2.884-3.744-1.018-.34-2.205-.51-2.205-.68-1.697-.34-2.545-.511-5.26-.17-1.187.17-2.205.51-2.884.85 1.018 6.807 1.697 4.595 2.206 5.446.17 0 .339.17.509.17 1.357.34.678-.17 2.205.68.849-.85.34-.17 1.358-1.36z"/>
        <path fill="#000" fill-rule="nonzero" d="M307.385 126.854c-1.866-.51-9.84.68-11.707 10.72 0-.17-3.563-16.506 11.707-10.72zM284.48 120.728c-.17.17 0 .85 0 .85l-.339 1.702c1.867-2.552 6.617-4.935 9.332-5.786 3.223-.85 4.58-.68 4.58-1.02 0-.341-2.884-.171-3.223 0-3.224.68-5.599 1.19-10.35 4.254zM290.928 110.517c.34 0 .509-.17.848-.17h5.09c0-.17 0-.51-.17-.68-5.599-.341-5.768-.171-8.992.17-.848.17-4.411.85-4.75 1.36.17.17.17.17 3.563-.34 1.018-.17 2.884-.51 4.41-.34zM315.699 124.471c-1.358 2.723-6.108 4.595-4.242 14.976 0 0-10.01-10.551 4.242-14.976zM306.028 71.547c0 1.872.509 3.233.509 4.254-1.188-.51-2.206-2.893-2.376-4.935 0 0 3.224-3.063 2.885-2.552.509-1.022-1.018 1.02-1.018 3.233z"/>
        <path fill="#000" fill-rule="nonzero" d="M285.668 124.982c2.206-2.553 6.787-4.595 12.386-1.702-8.823-8.679-17.306 1.702-16.627 4.935.678 3.744 3.563 5.616 3.732 5.616-1.866-2.723-1.866-6.126.51-8.849zM314.85 112.9c2.545 2.042 4.411 1.36 5.43 1.531-1.697 2.212-4.751 1.532-5.09 1.361 0 0-2.885-5.785-4.242-6.977 1.697 1.362 2.036 1.702 3.902 4.085zM308.064 102.86c2.714 1.19 4.411.34 5.26.51-.68 1.19-2.885 3.573-4.582 2.042 0 0-3.054-4.255-4.75-6.297 1.357 1.702 1.866 2.723 4.072 3.744zM302.295 91.968c2.206 1.872 4.411 1.191 5.43 1.361-1.528 2.042-4.751 1.872-5.09 1.702 0 0-1.697-5.616-2.376-7.317 1.188 3.403.51 1.871 2.036 4.254zM301.447 80.736c.848 2.553 1.697 2.893 2.714 3.914-2.544.851-3.732-1.361-3.902-1.701 0 0 .849-5.446.849-7.318 0 2.212-.34 2.383.339 5.105zM290.588 117.494c.68.34 2.206-.34 2.715.17 4.75-1.19 8.144-.68 11.367 2.213 0 0-.848-3.404-3.393-4.255-1.527-.68-3.902-1.361-10.689 1.872zM280.748 117.494c.679-3.403 4.58-7.658 12.385-7.487 0 0-12.046-5.786-12.385 7.487zM317.056 119.196c1.188 1.361.848 6.126 6.447 9.53 0 0-9.84 1.191-6.447-9.53z"/>
        <path fill="#000" fill-rule="nonzero" d="M274.64 110.347c3.902-4.425 10.689-6.807 16.118-2.212 0 0-4.411-10.892-16.118 2.212zM314.341 67.463c-.848 1.361-1.357 2.382-1.866 3.233-.509-.85-.17-3.063.848-4.595 0 0 3.733-.51 3.224-.34.848-.17-1.188.34-2.206 1.702zM296.696 111.878c-3.054 1.022-4.75 3.914-6.108 5.786-.678-3.403 1.867-7.317 4.412-7.828 6.786-1.531 10.858 2.893 11.028 3.064-3.563-1.362-6.787-1.702-9.332-1.022zM323.503 99.626c-.34.51-.679 1.191-1.018 1.702-.679.85-2.036 1.361-3.054 1.872-1.357.51-3.054.51-4.58.17v.34c1.696.34 3.393.51 5.259 0 1.866-.51 3.393-1.872 4.072-3.403l-.679-.681zM337.246 117.324c-3.902 4.084-7.805 4.425-12.386 4.254v.34c1.527.171 2.885.341 4.581.171 3.054-.34 5.769-1.361 7.805-4.425v-.34zM338.264 127.024c-2.206 2.042-3.054 3.574-7.126 4.254-2.884.511-5.26.17-6.956-.17 0 .17-.17.51-.34.681 1.697.68 4.072 1.191 6.617.85 3.393-.51 5.09-1.02 7.805-4.424.34-.34.17-1.361 0-1.19zM335.04 134.512c-1.018 1.702-3.393 3.744-6.956 4.765-1.188.34-2.884.68-4.242.34a21.892 21.892 0 0 1-3.563-1.191c-.17-.17-.509-.34-.678-.51-.17.17-.17.34-.34.34.51.34.849.68 1.358 1.02 1.018.681 2.205.852 3.393 1.022 2.036.34 4.75 0 6.787-1.191 4.071-2.383 4.41-4.765 4.241-4.595zM330.629 107.454c-2.206 3.574-5.09 4.084-10.689 4.254 0 .17.17.17 0 .34 1.357.17 2.545.341 4.072.17 2.375-.17 5.769-1.19 6.787-4.424 0-.34-.17-.51-.17-.34zM318.752 94.18l-.17.17c-.678.51-1.187 1.021-1.865 1.362-.849.34-1.358.51-2.545.85-1.697.341-2.885 0-3.733-.34-.17 0 .509.34.679.51 1.527.852 4.41.341 5.599-.17.678-.34 1.357-.85 2.035-1.36l.34-.341c-.17-.34-.17-.51-.34-.68zM316.208 88.735l-.17.17c-.679.34-1.357.68-2.036.85-.848.17-1.527.17-2.545.17-1.697-.17-2.884-.68-3.563-1.36-.17 0 .34.51.51.68 1.187 1.191 4.24 1.362 5.598 1.191.679-.17 1.527-.34 2.206-.85.17 0 .17-.17.339-.17-.34-.341-.34-.511-.34-.681zM314.002 83.119c-.34 0-.51.17-.848.17-.849 0-1.527 0-2.545-.17-1.697-.34-2.715-1.021-3.394-1.702-.17 0 .34.51.51.68 1.017 1.192 4.071 1.703 5.429 1.703.509 0 1.018-.17 1.357-.34-.34 0-.34-.171-.51-.341zM312.814 78.014c-.339-.17-.848-.511-1.357-.851-1.357-1.021-1.866-2.213-2.206-3.063-.17-.17 0 .68 0 .85.34 1.362 2.036 2.893 3.394 3.744.17-.34.17-.51.17-.68z"/>
        <path fill="#F7AD41" d="M335.04 67.973c-1.866-.51-7.804-3.063-8.144-4.424-.848-2.383-1.357-2.553-2.375-2.893-1.018-.51-2.375 1.361-3.054 1.701-14.421-6.636-19.172 5.106-19.172 6.127-.17 1.02-.678 1.531-.678 1.531-8.653 8.68-2.715 11.402-2.715 11.402s0 .51.679.68c.17 0 .339.17.509.17.509.171 1.018.511 1.357.682.509.17 1.018.51 1.527.68 2.036 1.021 4.241 1.192 6.447 1.872 2.884 1.021 5.599 2.213 8.483 2.893.17-.17.34-.34.51-.34 1.696-.34 6.277-1.532 7.125-2.553 2.036-2.382 2.375-4.254 6.617-4.424 5.768.17 10.689-10.892 2.884-13.104z"/>
        <path fill="#000" fill-rule="nonzero" d="M309.251 85.331c1.018.851 1.527 1.021 2.545 1.361 2.376.681 5.09 1.702 7.296 1.702 5.09-.34 7.635-1.872 8.822-4.084l5.43-2.553c3.393.34 5.26-1.701 6.786-9.36 1.018-4.764-6.956-5.275-8.653-6.636-1.866-1.361-3.393-2.042-4.241-3.744-.34-.68-1.358-1.872-2.376-1.872-1.527-.17-2.375.34-3.223 1.021-5.6-4.254-16.967-1.702-19.681 5.616-.51 1.021-.51 1.702-.848 2.382-.51 1.021-1.697 1.532-2.376 2.383-1.357 1.531-3.054 4.424-2.545 6.977.34 1.361.17 1.191.849 2.212.339.51.678.851.848 1.021.17.34.679.681 1.527 1.532 1.188.68 4.241 2.212 7.804 2.382 2.545.17 1.697.17 4.072.851-.848-.85-2.375-1.872-3.054-2.382-5.26-.17-10.18-3.914-10.519-6.467-.339-3.233 2.376-5.786 4.581-7.998.34-.34.34-.51.51-.68.678-2.553 1.696-4.936 3.732-6.127 4.58-2.893 11.028-2.553 14.421 0 .848-1.361 2.375-2.383 3.393-2.212.51 0 .51.34.849.85 1.018 1.192 1.187 2.553 1.696 2.723 3.054 2.042 7.465 3.404 10.18 5.276 1.697 1.02 0 7.487-1.357 8.849-1.697 1.702-3.733 1.191-5.6 2.042 0 0-4.071 2.553-10.179 2.042-2.375-.17-5.09-.51-6.956-1.191-.848-.34-1.866-.851-2.884-1.532-.17 0-.34-.17-.679-.17 2.884 1.872 6.787 2.893 10.689 3.404.848.17-.34.85 1.018 1.19l2.884.171c1.018 0 1.527-.17 1.527-.17-.848 1.191-3.733 3.063-8.483 2.723-3.054-.17-8.314-2.553-11.368-5.106.849.681 1.018 1.362 2.036 2.383"/>
        <path fill="#000" fill-rule="nonzero" d="M326.727 82.608c.848.681-1.867 2.042-1.867 2.042-13.233.51-17.475-7.658-17.475-7.658 4.92 6.808 19.342 5.616 19.342 5.616z"/>
        <path fill="#000" fill-rule="nonzero" d="M324.351 82.608c-6.107.17-9.67-1.02-13.403-3.063-2.375-1.361-4.411-3.233-4.58-5.786 0-.51 0-.68.508-1.191-1.018.17-1.527 1.021-1.866 2.042.34-.34.509-.68.678-.17 1.188 5.275 8.653 9.19 15.44 9.87l3.223-1.702z"/>
        <path fill="#000" fill-rule="nonzero" d="M309.59 85.501c1.019.681 1.358 1.021 2.376 1.362 2.206.85 4.242 1.701 7.804 1.701 3.394-.17 4.751-1.02 6.278-2.382-.17-.17-.17-.51-.17-.68v-.511c-1.187 1.02-4.072 2.382-8.143 2.042-3.054-.17-8.314-2.553-11.368-5.105 0 .17 1.357 2.382 3.224 3.573zM335.38 74.44c1.017.34 2.375-1.362 1.526-2.383-1.187-1.02-2.545 1.362-1.527 2.383z"/>
        <path fill="#945F28" d="M335.719 74.78c.509.17 1.357-.68 1.018-1.361-.679-.68-1.527.68-1.018 1.361z"/>
        <path fill="#FFF" d="M323.673 58.443c1.018-.34 2.375-1.531 4.411.851 2.036 2.213 1.697 4.765-.17 6.127 0 0-3.902-1.192-7.126-.511.34-1.532 1.358-5.786 2.885-6.467z"/>
        <path fill="#000" fill-rule="nonzero" d="M324.521 57.422c2.375-.51 5.938 1.872 4.92 5.616 0-2.893-3.223-5.275-4.92-4.424-.848.51-1.357 1.19-1.866 2.042-.34.51-1.188 2.382.17 2.722.339.17 1.187.34 1.357-.51.339-.851-.34-1.532-.51-1.532 1.188-.85 3.224 1.192 1.867 3.234.509.34 4.072-.34 6.278 2.212-4.072-1.872-9.162-2.042-11.707-1.532.678-.51.678-.68.678-.85-.678-4.085 1.527-6.637 3.733-6.978zM330.46 81.587c-.68.34-1.358.51-2.206.51 2.714 4.766 4.072 10.211 4.072 10.211l1.018-3.914 2.884 2.213c-.51-2.383-3.224-6.127-5.769-9.02z"/>
        <g>
            <path fill="#FFF" d="M316.547 65.76c1.527-2.552 1.357-6.125-2.206-7.827-3.563-1.702-4.92.34-6.108 1.361-1.866 1.702-1.527 7.318-1.357 9.19 4.242-2.042 9.501-2.553 9.67-2.723 0 .17.17-.51 0 0z"/>
            <path fill="#000" fill-rule="nonzero" d="M305.01 69.505c2.205-1.362 7.635-2.893 12.894-3.744 1.018-.17-1.187-.34-1.187-.34-2.206 0-3.394.68-3.903.51.849-3.233-2.545-4.935-3.732-3.063 0-.17 1.187.51 1.187 1.532 0 1.02-1.187 1.19-1.696 1.36-1.867.341-1.358-2.552-1.188-3.232.34-1.362.848-2.553 1.866-3.744 2.036-2.042 6.957-.851 8.144 2.723-.17-5.276-5.599-6.297-8.653-4.425-2.714 1.702-4.58 6.126-2.205 10.891-.849 1.362.34.17-1.527 1.532z"/>
        </g>
        <g>
            <path fill="#000" fill-rule="nonzero" d="M322.485 74.78c.679-1.872 3.393-.85 3.224 1.702-1.018.68-2.036.51-2.885-.17.17.17-.678-.851-.339-1.532z"/>
            <path fill="#945F28" d="M323.164 76.312c.17-1.191 2.036-1.191 2.375.51-.509.681-1.188.681-1.866.51.17-.17-.679-.51-.51-1.02z"/>
        </g>
        <path fill="#F7AD41" fill-rule="nonzero" d="M306.876 86.522l-5.768-2.212s.848 0 2.036-.17c1.526-.17 3.223-1.702 3.223-1.702l.51 4.084z"/>
        <path fill="#000" fill-rule="nonzero" d="M308.742 84.82l-2.036 1.022-.339-3.744 2.375 1.872zM287.195 98.094c-.678-.34-4.92.17-6.786 4.765 0 .17-4.072-7.317 6.786-4.765zM294.151 100.477c-2.036-.851-4.072-.51-7.295 2.212 1.527-7.828 9.84-3.914 10.689-1.532.848 2.383-.51 4.255-.51 4.425.34-2.212-.678-4.254-2.884-5.105z"/>
        <g fill="#000" fill-rule="nonzero">
            <path d="M348.274 128.726c-.51-.17-.848-.51-1.018-.68-.17-.171-.17-.511-.34-.852.849-6.466 1.019-7.487 1.867-13.614.848-5.956 1.527-11.912 2.375-17.698.51-1.021 1.527-1.872 3.054-2.723 1.527-.85 2.545-.51 3.224 1.191-.679 5.786-1.358 11.572-2.036 17.528-.679 6.127-.849 7.148-1.697 13.614-.679 1.362-1.357 2.213-2.206 2.723-.848.34-2.036.51-3.223.51z"/>
            <path d="M366.937 124.471c-2.206-1.02-9.501-7.487-11.028-9.019-1.527-.34-2.206-1.02-2.206-1.872 0-.85.509-1.702 1.357-2.552.849-.851 1.697-1.702 2.715-2.553 1.018-.85 1.697-1.361 2.036-1.702.17-.17.679-.85 1.697-2.382s2.205-2.893 3.562-4.255c1.358-1.361 2.715-2.552 3.903-3.233 1.357-.68 2.375-.51 3.223.68.17 1.022 0 2.213-.678 3.574-.679 1.362-1.697 2.553-2.715 3.914-1.018 1.362-2.206 2.553-3.393 3.744l-2.884 2.893c0 .17.509 1.021 1.526 2.383 1.018 1.361 1.867 2.893 2.885 4.594.848 1.702 1.527 3.064 1.696 4.425.17.85-.339 1.361-1.696 1.361zM395.1 107.964c.17-4.254-.169-7.828-1.356-11.061-1.527-2.042-3.224-3.233-5.09-3.574-1.867-.34-3.733-.17-5.6.681-1.866.68-3.562 1.702-5.259 3.233-1.696 1.532-3.054 3.064-3.902 4.595-.34 1.021-.848 2.553-1.188 4.595-.339 2.212-.678 4.424-.848 6.637-.17 2.382-.17 5.445-.17 7.317.17 1.872.51 3.063 1.188 3.234 1.188 0 1.527 0 2.036-.681.509-.51 1.188-1.532 1.357-2.383.17-.85.679-2.722.679-3.743v-2.893c2.714.51 4.92.51 6.786-.17 1.867-.681 3.903-1.873 5.939-3.574 0 0 .17.85.509 2.382.339 1.532.678 1.702 1.018 3.233.509 1.702 1.018 2.893 1.527 3.744.678.851 1.187.51 1.866-1.02.17-3.745.34-6.127.509-10.552zm-3.223-4.424c-.34 1.361-1.018 2.552-2.036 3.744-1.018 1.02-2.205 1.872-3.732 2.552-1.527.681-2.885 1.021-4.412 1.021-2.884-.85-4.241-2.212-4.071-4.424.17-2.042 1.018-4.084 2.544-5.786a12.227 12.227 0 0 1 5.6-3.574c2.205-.68 4.071.17 5.598 2.212.679 1.532.849 2.893.51 4.255zM416.648 111.028c.34-4.085.17-7.658-.679-10.892-1.357-2.042-2.884-3.233-4.75-3.573-1.697-.17-3.563.17-5.09 1.02-1.697.852-3.224 2.043-4.581 3.574-1.357 1.532-2.375 3.064-3.054 4.425-.34.85-.509 2.212-.679 4.084-.17 1.872-.339 3.744-.339 5.616 0 1.872 0 3.574.17 4.935.17 1.361.509 2.212 1.018 2.553.848 0 1.527-.17 1.866-.51.34-.341.679-1.022.848-1.532.17-.681.17-1.362.17-2.213 0-.85-.17-1.531-.17-2.382 2.036.51 3.903.51 5.43 0 1.527-.51 3.223-1.532 5.09-3.063 0 0-.34 1.19-.34 3.063 0 1.531 0 3.063.51 4.424.338 1.362.847 2.043 1.526 2.723.51.34 1.018.51 1.697-.85.17-3.064 1.018-7.488 1.357-11.402zm-2.715-4.255c-.339 1.362-1.018 2.553-1.866 3.574-.848 1.02-2.036 1.702-3.223 2.382-1.188.51-2.376.851-3.733.851-2.375-.68-3.393-2.042-3.393-3.914 0-1.872.678-3.744 1.866-5.445 1.188-1.702 2.884-2.893 4.92-3.744 2.036-.681 3.733-.17 5.09 2.042.51 1.531.679 2.893.34 4.254z"/>
        </g>
        <g fill="#231F20" fill-rule="nonzero">
            <path d="M308.403 49.935c-2.036.85-3.393 2.382-4.242 3.914-.17.34-1.526 2.552-1.866 4.254 1.357-2.042 3.393-4.595 5.43-5.616 2.714-1.531 4.92-1.02 7.125 0-.509-1.361-2.036-2.382-2.714-2.723-1.527-.51-2.885-.17-3.733.17zM327.236 54.019c1.187.68 1.696 1.872 2.036 2.893 0 .17.509 1.702.509 2.723-.51-1.362-1.358-3.234-2.376-4.085-1.357-1.19-2.884-1.19-4.241-1.02.509-.681 1.527-1.022 2.036-1.192.848 0 1.527.34 2.036.68z"/>
        </g>
        <path stroke="#50A7E6" stroke-dasharray="6" stroke-linecap="square" stroke-width="3" d="M13.493 117.255V272.15M350.825 184.142v88.008M134.933 247.779v32.495M87.706 247.779v32.495M182.16 247.779v32.495M525.563 115.088h164.704-164.704zm163.944 1.944v165.36-165.36zM296.852 184.142v88.008M403.45 184.142v88.008"/>
        <g stroke="#50A7E6" stroke-dasharray="6" stroke-linecap="square" stroke-width="3">
            <path d="M549.06 247.779v31.568M502.045 247.779v31.568"/>
        </g>
        <g fill="#50A7E6">
            <g transform="translate(676.013 278.92)">
                <circle cx="13.5" cy="13.5" r="13.5" opacity=".242"/>
                <circle cx="13.5" cy="13.5" r="10.8" opacity=".368"/>
                <circle cx="13.5" cy="13.5" r="8.1"/>
            </g>
        </g>
        <g fill="#50A7E6">
            <g transform="translate(603.15 278.92)">
                <circle cx="13.5" cy="13.5" r="13.5" opacity=".242"/>
                <circle cx="13.5" cy="13.5" r="10.8" opacity=".368"/>
                <circle cx="13.5" cy="13.5" r="8.1"/>
            </g>
        </g>
        <g fill="#50A7E6">
            <g transform="translate(535.683 278.92)">
                <circle cx="13.5" cy="13.5" r="13.5" opacity=".242"/>
                <circle cx="13.5" cy="13.5" r="10.8" opacity=".368"/>
                <circle cx="13.5" cy="13.5" r="8.1"/>
            </g>
        </g>
        <g fill="#50A7E6">
            <g transform="translate(488.457 278.92)">
                <circle cx="13.5" cy="13.5" r="13.5" opacity=".242"/>
                <circle cx="13.5" cy="13.5" r="10.8" opacity=".368"/>
                <circle cx="13.5" cy="13.5" r="8.1"/>
            </g>
        </g>
        <g fill="#50A7E6">
            <g transform="translate(389.956 278.92)">
                <circle cx="13.5" cy="13.5" r="13.5" opacity=".242"/>
                <circle cx="13.5" cy="13.5" r="10.8" opacity=".368"/>
                <circle cx="13.5" cy="13.5" r="8.1"/>
            </g>
        </g>
        <g fill="#50A7E6">
            <g transform="translate(337.332 278.92)">
                <circle cx="13.5" cy="13.5" r="13.5" opacity=".242"/>
                <circle cx="13.5" cy="13.5" r="10.8" opacity=".368"/>
                <circle cx="13.5" cy="13.5" r="8.1"/>
            </g>
        </g>
        <g fill="#50A7E6">
            <g transform="translate(283.359 278.92)">
                <circle cx="13.5" cy="13.5" r="13.5" opacity=".242"/>
                <circle cx="13.5" cy="13.5" r="10.8" opacity=".368"/>
                <circle cx="13.5" cy="13.5" r="8.1"/>
            </g>
        </g>
        <g fill="#50A7E6">
            <g transform="translate(168.666 278.92)">
                <circle cx="13.5" cy="13.5" r="13.5" opacity=".242"/>
                <circle cx="13.5" cy="13.5" r="10.8" opacity=".368"/>
                <circle cx="13.5" cy="13.5" r="8.1"/>
            </g>
        </g>
        <g fill="#50A7E6">
            <g transform="translate(121.44 278.92)">
                <circle cx="13.5" cy="13.5" r="13.5" opacity=".242"/>
                <circle cx="13.5" cy="13.5" r="10.8" opacity=".368"/>
                <circle cx="13.5" cy="13.5" r="8.1"/>
            </g>
        </g>
        <g fill="#50A7E6">
            <g transform="translate(74.213 278.92)">
                <circle cx="13.5" cy="13.5" r="13.5" opacity=".242"/>
                <circle cx="13.5" cy="13.5" r="10.8" opacity=".368"/>
                <circle cx="13.5" cy="13.5" r="8.1"/>
            </g>
        </g>
        <g fill="#50A7E6">
            <g transform="translate(0 278.92)">
                <circle cx="13.5" cy="13.5" r="13.5" opacity=".242"/>
                <circle cx="13.5" cy="13.5" r="10.8" opacity=".368"/>
                <circle cx="13.5" cy="13.5" r="8.1"/>
            </g>
        </g>
        <path stroke="#50A7E6" stroke-dasharray="6" stroke-linecap="square" stroke-width="3" d="M547.827 202.319v21.867M616.643 200.98v81.412"/>
        <path fill="#2E4550" fill-rule="nonzero" stroke="url(#a)" stroke-width="13" d="M475.95 184.142H218.967c-22.527 0-40.856-18.453-40.856-41.119 0-20.458 14.927-37.471 34.409-40.597 3.38-30.872 31.285-54.658 63.538-50.574C284.922 21.439 312.883 0 344.914 0c28.44 0 53.801 16.722 65.332 42.34a59.516 59.516 0 0 1 23.273-4.768c31.953 0 58.154 25.27 59.892 57 17.17 7.059 28.779 24.077 28.779 43.04 0 25.651-20.75 46.53-46.24 46.53z"/>
        <path fill-rule="nonzero" stroke="#FFF" stroke-dasharray="3,3" d="M475.95 184.142H218.967c-22.527 0-40.856-18.453-40.856-41.119 0-20.458 14.927-37.471 34.409-40.597 3.38-30.872 31.285-54.658 63.538-50.574C284.922 21.439 312.883 0 344.914 0c28.44 0 53.801 16.722 65.332 42.34a59.516 59.516 0 0 1 23.273-4.768c31.953 0 58.154 25.27 59.892 57 17.17 7.059 28.779 24.077 28.779 43.04 0 25.651-20.75 46.53-46.24 46.53z"/>
        <rect width="116.392" height="38.265" x="74.713" y="209.013" fill="#2E4550" stroke="#50A7E6" rx="4"/>
        <rect width="94.802" height="38.265" x="482.21" y="211.721" fill="#2E4550" stroke="#50A7E6" rx="4"/>
        <rect width="101.549" height="38.265" x="529.437" y="161.624" fill="#2E4550" stroke="#50A7E6" rx="4"/>
        <g>
            <path d="M114.693 212.575h35.082v35.204h-35.082z"/>
            <path fill="#50A7E6" fill-rule="nonzero" d="M144.476 216.946l1.251-1.264a10.573 10.573 0 0 0-7.496-3.107 10.605 10.605 0 0 0-7.496 3.107l1.244 1.249a8.835 8.835 0 0 1 6.252-2.588 8.79 8.79 0 0 1 6.245 2.603zm-1.245 1.143a7.03 7.03 0 0 0-5-2.076 7.03 7.03 0 0 0-5 2.076l1.245 1.249a5.316 5.316 0 0 1 3.755-1.55c1.357 0 2.714.52 3.74 1.557l1.26-1.256zm-.502 9.53h-2.999v-6.017h-2.998v6.017h-14.993a3.003 3.003 0 0 0-2.998 3.01v6.017a3.003 3.003 0 0 0 2.998 3.009h20.99a3.003 3.003 0 0 0 2.998-3.009v-6.018a3.003 3.003 0 0 0-2.998-3.009zm-16.492 7.523h-2.998v-3.01h2.998v3.01zm5.248 0h-2.999v-3.01h2.999v3.01zm5.247 0h-2.999v-3.01h2.999v3.01z"/>
        </g>
        <g>
            <path d="M511.395 215.283h35.083v35.204h-35.083z"/>
            <path fill="#50A7E6" fill-rule="nonzero" d="M541.178 219.654l1.252-1.264a10.573 10.573 0 0 0-7.496-3.107 10.605 10.605 0 0 0-7.497 3.107l1.245 1.248a8.835 8.835 0 0 1 6.252-2.587 8.79 8.79 0 0 1 6.244 2.603zm-1.244 1.143a7.03 7.03 0 0 0-5-2.076 7.03 7.03 0 0 0-5 2.076l1.244 1.249a5.316 5.316 0 0 1 3.756-1.55c1.356 0 2.713.519 3.74 1.557l1.26-1.256zm-.503 9.53h-2.998v-6.017h-2.999v6.017h-14.992a3.003 3.003 0 0 0-2.999 3.01v6.017a3.003 3.003 0 0 0 2.999 3.009h20.99a3.003 3.003 0 0 0 2.998-3.009v-6.018a3.003 3.003 0 0 0-2.999-3.009zm-16.491 7.523h-2.999v-3.01h2.999v3.01zm5.247 0h-2.998v-3.01h2.998v3.01zm5.247 0h-2.998v-3.01h2.998v3.01z"/>
        </g>
        <g>
            <path d="M565.369 165.186h35.082v35.203H565.37z"/>
            <path fill="#50A7E6" fill-rule="nonzero" d="M595.151 169.556l1.252-1.264a10.573 10.573 0 0 0-7.496-3.106 10.605 10.605 0 0 0-7.496 3.106l1.244 1.25a8.835 8.835 0 0 1 6.252-2.588 8.79 8.79 0 0 1 6.244 2.602zm-1.244 1.144a7.03 7.03 0 0 0-5-2.077 7.03 7.03 0 0 0-5 2.077l1.244 1.248a5.316 5.316 0 0 1 3.756-1.55c1.357 0 2.713.52 3.74 1.558l1.26-1.256zm-.502 9.53h-2.999v-6.018h-2.998v6.018h-14.993a3.003 3.003 0 0 0-2.998 3.009v6.018a3.003 3.003 0 0 0 2.998 3.008h20.99a3.003 3.003 0 0 0 2.998-3.008v-6.018a3.003 3.003 0 0 0-2.998-3.009zm-16.492 7.522h-2.999v-3.009h2.999v3.01zm5.247 0h-2.998v-3.009h2.998v3.01zm5.248 0h-2.999v-3.009h2.999v3.01z"/>
        </g>
        <g>
            <path fill="#000" fill-rule="nonzero" d="M300.633 130.944c-.317.947-.634 2.368-.159 4.736.476 2.527 1.902 4.106 2.852 5.053 2.06 2.369 4.12 3.316 7.13 4.895 3.01 1.579 10.297 3.316 13.466 3.631 6.495.79 16.793 0 24.08-6.315 4.278-3.632-2.376-12.316-8.555-21.948-1.9-2.842-3.326-5.842-5.228-8.684a153.233 153.233 0 0 1-5.545-8.368c-2.06-3.316-2.693-6.632-3.168-9.158-.317-1.895-.475-3.158-.317-5.527.158-1.105.158-2.052.317-2.684.158-.79.475-1.895 1.109-3 .634-.947 2.06-2.368 3.485-2.526 2.694-.158 6.02 1.579 8.238 3l6.338-3.79c-1.11-.947-2.06-1.42-3.01-2.368-1.902-1.579-2.06-2.368-4.753-3a26.624 26.624 0 0 0-6.654-.474c-3.803.474-5.545 1.895-6.337 2.527-.476.315-2.377 2.21-3.01 3.158-1.268 1.894-2.694 4.578-3.01 8.368-.317 4.105.475 8.368.95 10.263.95 3.316 3.01 7.737 4.753 10.421 1.742 2.684 2.218 3.158 4.277 6.158.476.79 1.901 2.684 2.377 3.474.475.79.95 1.737 1.426 2.526 1.109 2.21 1.425 3 1.584 4.579.158.632-.159 2.053-.475 2.368-1.11 1.58-2.694 2.685-6.813 2.527-2.693-.158-.792.158-3.802-.158 1.267-.79 1.109-.474 3.168-1.895 3.803-2.526 3.01-8.21-.792-10.737-4.752-2.842-9.03-2.368-11.565-2.368-.475 0-1.426 0 .159-.79 2.534-1.42 3.01-3 3.168-4.105.317-4.579-4.753-6.79-11.407-6.316a202.08 202.08 0 0 0-6.495.474c-.159 0 .317-.158 1.109-.947.792-.79 1.267-1.737 1.109-2.842-.317-2.053-2.693-2.369-3.802-2.369-1.743 0-7.13.316-6.971 2.053.158.79 1.426.947 2.693 1.105.95 0 2.376.158 3.01 0-.475.316-.95.316-2.06.79-1.267.631-1.742.789-2.851 1.263-4.911 2.526-4.436 8.526 4.12 8.684 2.217 0 3.484-.158 3.168 0-1.585.79-2.535 1.579-3.01 2.21-2.852 2.685-3.327 4.895-2.852 7.106.317 1.894 2.376 4.736 6.812 5.526 2.218.474 2.535.474 3.327.474 0 0-1.109 1.263-1.584 3z"/>
            <path fill="#211F1F" fill-rule="nonzero" d="M311.247 126.68c1.743-.473 4.753-.789 5.862.948.159.316.792 0 .476-.316-1.268-1.895-4.595-1.737-6.496-1.263-.317.158-.158.79.158.631z"/>
            <path fill="#F7AD41" fill-rule="nonzero" d="M334.22 127.944c0 .473-.476 1.42-.793 1.894-.475.632-1.742 1.58-2.376 1.737-1.901.79-2.693.948-5.387.79-2.535-.158-4.436-.316-7.446-.948 2.377-.947 4.278-1.894 6.179-3.315 2.376-1.737 3.01-6-.634-8.369-4.436-2.684-9.822-3-12.199-2.842-2.218.158-3.485 0-3.485 0s3.168-1.579 4.277-2.21c1.743-1.264 2.535-2.053 2.535-3.948 0-1.579-1.9-5.684-10.297-5.053-1.268.158-7.763.632-9.03.632-.635 0 .316-.632 1.425-1.421.95-.79 2.693-1.895 2.693-3.316-.158-2.368-4.594-1.737-4.594-1.737s-3.802 0-4.278.474c-.475.474 2.377.316 3.327.474.792.158 2.852.158 2.694.79-1.11.947-1.902 1.262-2.694 1.736s-1.425.632-2.693 1.263c-4.594 2.527-2.535 6.79 4.12 6.79 3.801 0 11.248-1.421 7.762 0-2.218.947-4.436 1.42-6.97 3.631-3.328 2.842-3.17 4.58-2.694 6.316.475 1.737 2.852 3.947 7.288 4.421 2.376.316 2.535.79 5.228.316-.634.316-1.11.631-1.743 1.105-1.109 1.105-1.743 1.895-2.218 3-.634 1.421-.634 3.158-.317 4.58.476 1.42 1.11 2.841 1.901 3.789 1.743 2.21 4.278 3.79 7.13 5.21 2.851 1.421 8.238 2.842 11.248 3 6.02.474 12.199-1.105 15.843-5.053 3.643-4.105 5.703-11.368-.159-20.684-1.742-2.842-3.168-5.684-4.911-8.368-1.743-2.684-3.644-5.369-5.228-8.053-2.06-3.158-2.535-6.473-2.852-9-.317-1.737-.475-3.158-.317-5.368.159-1.105.159-1.895.317-2.684.159-.79.475-1.895.95-2.843.634-.947 2.06-2.368 3.328-2.526 2.535-.158 5.703 1.421 7.763 2.842l5.861-3.631c-.95-.948-1.9-1.421-2.851-2.21-1.743-1.58-2.06-2.053-4.753-2.685-1.584-.316-3.485-.632-6.02-.316-3.644.474-4.912 2.21-5.704 2.842-.317.316-1.267 1.263-1.9 2.21-1.11 1.738-2.694 4.738-3.01 8.37-.16 3.157.158 6.473.791 8.841.792 3.158 3.169 8.685 5.07 11.21 1.901 2.37 3.485 4.422 5.228 7.422.475.631 1.109 1.737 1.584 2.526.476.79.792 1.421 1.11 2.21 1.425 2.211 2.217 3.632 1.9 6.159z"/>
            <path fill="#000" fill-rule="nonzero" d="M324.397 94.944c.317 2.052.792 4.263 1.426 5.684 3.96 7.579 7.287 11.842 10.614 17.526 3.169 5.21 5.545 10.58 4.278 16.58-1.11 4.736-6.179 11.21-14.734 12.315l-5.07.158c1.426.947 7.447 1.579 13.942.947 3.644-.158 7.446-1.263 10.298-3.158 10.298-6.158 10.298-14.526 8.238-20.842-1.267-3.631-4.436-8.368-7.288-11.21-3.01-3.158-6.178-5.685-10.139-10.895-2.535-3.158-2.218-5.684-2.852-9.474 0-.473-.158-.79-.158-1.105 2.852-6.158 2.218-9.158-2.693-9.79-1.426-.157-3.644.632-4.595 2.369-.633.947-.792 1.895-1.267 3.631-.317 1.895-.317 5.053 0 7.264z"/>
            <path fill="#FFF" fill-rule="nonzero" d="M325.189 95.102c.317 2.052.95 4.42 1.584 5.842 3.01 6.315 6.654 11.368 10.298 17.368 3.01 4.737 5.545 9.947 4.594 16.263-.95 6-6.178 10.895-11.09 12.316-1.9.632-3.326.632-3.326.632 3.485.315 6.495-.158 7.92-.316 3.486-.474 6.338-1.421 9.031-3.158 8.872-6 9.981-12.947 7.605-19.895-1.268-3.631-3.169-6.631-6.179-9.947-2.852-3.158-5.545-6.316-9.664-10.737-2.376-2.684-3.168-6.158-3.802-9.947 0-.474-.159-.79-.159-1.106 2.694-6 3.327-8.842-1.267-9.473-1.426-.316-3.327.158-4.12 1.579-.474.947-1.108 2.368-1.425 4.105-.317 2.526-.317 4.105 0 6.474z"/>
            <path fill="#F7AD41" fill-rule="nonzero" d="M333.586 81.049c.158-.158.792-.632 1.109-1.105.158-.474 1.9-3 2.693-3.474-.95-.316-2.06-.474-2.06-.632-1.584-.315-2.376-.473-4.91-.158-1.11.158-2.06.474-2.694.79.95 6.316 1.584 4.263 2.06 5.053.158 0 .316.157.475.157 1.267.316.633-.157 2.06.632.791-.79.316-.158 1.267-1.263z"/>
            <path fill="#000" fill-rule="nonzero" d="M324.872 132.049c-1.743-.474-9.189.631-10.931 9.947 0-.158-3.327-15.316 10.931-9.947zM303.485 126.365c-.159.158 0 .79 0 .79l-.317 1.578c1.742-2.368 6.178-4.579 8.713-5.368 3.01-.79 4.278-.632 4.278-.948 0-.315-2.694-.158-3.01 0-3.01.632-5.228 1.106-9.664 3.948zM309.505 116.891c.317 0 .475-.158.792-.158h4.753c0-.158 0-.474-.159-.631-5.228-.316-5.386-.158-8.396.157-.792.158-4.12.79-4.436 1.264.158.157.158.157 3.327-.316.95-.158 2.693-.474 4.119-.316zM332.635 129.838c-1.267 2.527-5.703 4.264-3.96 13.895 0 0-9.348-9.79 3.96-13.895zM323.605 80.733c0 1.737.475 3 .475 3.947-1.109-.473-2.06-2.684-2.218-4.578 0 0 3.01-2.843 2.693-2.369.476-.947-.95.947-.95 3z"/>
            <path fill="#000" fill-rule="nonzero" d="M304.594 130.312c2.06-2.368 6.337-4.263 11.565-1.579-8.238-8.053-16.16 1.58-15.526 4.58.634 3.473 3.327 5.21 3.485 5.21-1.742-2.527-1.742-5.685.476-8.21zM331.843 119.102c2.376 1.894 4.12 1.263 5.07 1.42-1.585 2.053-4.436 1.422-4.753 1.264 0 0-2.693-5.369-3.96-6.474 1.583 1.263 1.9 1.579 3.643 3.79zM325.506 109.786c2.535 1.105 4.119.316 4.911.473-.634 1.106-2.693 3.316-4.277 1.895 0 0-2.852-3.947-4.436-5.842 1.267 1.579 1.742 2.526 3.802 3.474zM320.12 99.68c2.059 1.737 4.118 1.106 5.069 1.264-1.426 1.894-4.436 1.736-4.753 1.579 0 0-1.584-5.21-2.218-6.79 1.11 3.158.476 1.737 1.901 3.947zM319.327 89.26c.792 2.368 1.585 2.684 2.535 3.631-2.376.79-3.485-1.263-3.644-1.579 0 0 .792-5.053.792-6.79 0 2.053-.316 2.211.317 4.737zM309.188 123.365c.634.315 2.06-.316 2.535.158 4.436-1.106 7.604-.632 10.614 2.052 0 0-.792-3.158-3.168-3.947-1.426-.632-3.644-1.263-9.981 1.737zM300 123.365c.633-3.158 4.277-7.106 11.564-6.948 0 0-11.248-5.368-11.565 6.948zM333.903 124.944c1.109 1.263.792 5.684 6.02 8.842 0 0-9.189 1.105-6.02-8.842z"/>
            <path fill="#000" fill-rule="nonzero" d="M294.296 116.733c3.644-4.105 9.98-6.316 15.05-2.053 0 0-4.119-10.105-15.05 2.053zM331.368 76.944c-.792 1.263-1.268 2.21-1.743 3-.475-.79-.158-2.842.792-4.264 0 0 3.486-.473 3.01-.315.792-.158-1.109.315-2.06 1.579zM314.891 118.154c-2.851.948-4.436 3.632-5.703 5.369-.634-3.158 1.743-6.79 4.119-7.264 6.337-1.42 10.14 2.685 10.298 2.843-3.327-1.264-6.337-1.58-8.714-.948zM339.923 106.786c-.317.473-.634 1.105-.95 1.579-.635.79-1.902 1.263-2.852 1.737-1.268.473-2.852.473-4.278.157v.316c1.584.316 3.169.474 4.911 0 1.743-.473 3.169-1.737 3.802-3.158l-.633-.631zM352.755 123.207c-3.643 3.79-7.287 4.105-11.565 3.947v.316c1.426.158 2.693.316 4.278.158 2.851-.316 5.386-1.263 7.287-4.105v-.316zM353.706 132.207c-2.06 1.895-2.852 3.316-6.654 3.947-2.693.474-4.911.158-6.496-.158 0 .158-.158.474-.316.632 1.584.631 3.802 1.105 6.178.79 3.169-.474 4.753-.948 7.288-4.106.317-.316.158-1.263 0-1.105zM350.696 139.154c-.95 1.58-3.169 3.474-6.496 4.421-1.109.316-2.693.632-3.96.316a20.533 20.533 0 0 1-3.327-1.105c-.159-.158-.476-.316-.634-.474-.158.158-.158.316-.317.316.475.316.792.631 1.267.947.951.632 2.06.79 3.169.948 1.901.315 4.436 0 6.337-1.106 3.802-2.21 4.12-4.42 3.96-4.263zM346.577 114.049c-2.06 3.316-4.753 3.79-9.981 3.947 0 .158.158.158 0 .316 1.267.158 2.376.316 3.802.158 2.218-.158 5.387-1.105 6.337-4.105 0-.316-.158-.474-.158-.316zM335.487 101.733l-.159.158c-.633.474-1.109.947-1.742 1.263-.792.316-1.268.474-2.377.79-1.584.315-2.693 0-3.485-.316-.159 0 .475.316.634.474 1.425.789 4.119.315 5.228-.158.633-.316 1.267-.79 1.9-1.264.16-.157.16-.157.318-.315-.159-.316-.159-.474-.317-.632zM333.11 96.68l-.158.158c-.634.316-1.267.632-1.901.79-.792.158-1.426.158-2.377.158-1.584-.158-2.693-.632-3.327-1.263-.158 0 .317.473.476.631 1.109 1.105 3.96 1.263 5.228 1.105.634-.157 1.426-.315 2.06-.789.158 0 .158-.158.316-.158-.317-.316-.317-.474-.317-.632zM331.05 91.47c-.316 0-.474.158-.791.158-.792 0-1.426 0-2.377-.158-1.584-.316-2.535-.947-3.168-1.579-.159 0 .317.474.475.632.95 1.105 3.802 1.579 5.07 1.579.475 0 .95-.158 1.267-.316-.317 0-.317-.158-.475-.316zM329.942 86.733c-.317-.158-.792-.474-1.268-.79-1.267-.947-1.742-2.052-2.06-2.841-.158-.158 0 .631 0 .789.318 1.263 1.902 2.684 3.17 3.474.158-.316.158-.474.158-.632z"/>
            <path fill="#F7AD41" d="M350.696 77.417c-1.743-.473-7.288-2.842-7.605-4.105-.792-2.21-1.267-2.368-2.218-2.684-.95-.474-2.218 1.263-2.851 1.579-13.467-6.158-17.903 4.737-17.903 5.684-.158.947-.633 1.421-.633 1.421-8.08 8.053-2.535 10.579-2.535 10.579s0 .474.634.632c.158 0 .316.157.475.157.475.158.95.474 1.267.632.476.158.95.474 1.426.632 1.901.947 3.96 1.105 6.02 1.736 2.694.948 5.228 2.053 7.922 2.685.158-.158.317-.316.475-.316 1.584-.316 5.862-1.421 6.654-2.369 1.901-2.21 2.218-3.947 6.179-4.105 5.386.158 9.98-10.105 2.693-12.158z"/>
            <path fill="#000" fill-rule="nonzero" d="M326.615 93.523c.95.79 1.426.947 2.376 1.263 2.218.631 4.753 1.579 6.813 1.579 4.752-.316 7.129-1.737 8.238-3.79l5.07-2.368c3.168.316 4.91-1.58 6.337-8.684.95-4.421-6.496-4.895-8.08-6.158-1.743-1.263-3.169-1.895-3.96-3.474-.318-.632-1.268-1.737-2.219-1.737-1.426-.158-2.218.316-3.01.948-5.228-3.948-15.843-1.58-18.377 5.21-.476.947-.476 1.579-.793 2.21-.475.948-1.584 1.422-2.218 2.211-1.267 1.421-2.851 4.105-2.376 6.474.317 1.263.158 1.105.792 2.052.317.474.634.79.792.948.159.316.634.631 1.426 1.42 1.11.632 3.96 2.053 7.288 2.211 2.376.158 1.584.158 3.802.79-.792-.79-2.218-1.737-2.852-2.21-4.91-.159-9.505-3.632-9.822-6-.317-3 2.218-5.37 4.277-7.422.317-.316.317-.473.476-.631.633-2.369 1.584-4.58 3.485-5.685 4.278-2.684 10.298-2.368 13.466 0 .792-1.263 2.218-2.21 3.169-2.052.475 0 .475.316.792.79.95 1.105 1.109 2.368 1.584 2.526 2.852 1.894 6.971 3.158 9.506 4.894 1.584.948 0 6.948-1.268 8.21-1.584 1.58-3.485 1.106-5.228 1.896 0 0-3.802 2.368-9.505 1.894-2.218-.158-4.753-.473-6.496-1.105a15.015 15.015 0 0 1-2.693-1.42c-.158 0-.317-.159-.634-.159 2.694 1.737 6.337 2.684 9.981 3.158.792.158-.317.79.95 1.105l2.694.158c.95 0 1.426-.158 1.426-.158-.792 1.106-3.486 2.842-7.921 2.527-2.852-.158-7.763-2.369-10.615-4.737.792.631.95 1.263 1.901 2.21"/>
            <path fill="#000" fill-rule="nonzero" d="M342.933 90.996c.792.632-1.743 1.895-1.743 1.895-12.357.474-16.318-7.105-16.318-7.105 4.595 6.316 18.06 5.21 18.06 5.21z"/>
            <path fill="#000" fill-rule="nonzero" d="M340.715 90.996c-5.703.158-9.03-.947-12.516-2.842-2.218-1.263-4.119-3-4.277-5.368 0-.474 0-.632.475-1.106-.95.158-1.426.948-1.743 1.895.317-.316.475-.631.634-.158 1.109 4.895 8.08 8.527 14.417 9.158l3.01-1.579z"/>
            <path fill="#000" fill-rule="nonzero" d="M326.932 93.68c.95.632 1.267.948 2.218 1.264 2.06.79 3.96 1.579 7.287 1.579 3.169-.158 4.436-.948 5.862-2.21-.158-.159-.158-.475-.158-.633v-.473c-1.11.947-3.803 2.21-7.605 1.895-2.851-.158-7.763-2.369-10.614-4.737 0 .158 1.267 2.21 3.01 3.315zM351.013 83.417c.95.316 2.218-1.263 1.425-2.21-1.109-.948-2.376 1.263-1.425 2.21z"/>
            <path fill="#945F28" d="M351.33 83.733c.475.158 1.267-.631.95-1.263-.634-.632-1.426.632-.95 1.263z"/>
            <path fill="#FFF" d="M340.081 68.575c.95-.316 2.218-1.42 4.12.79 1.9 2.052 1.584 4.42-.16 5.684 0 0-3.643-1.105-6.653-.474.317-1.42 1.267-5.368 2.693-6z"/>
            <path fill="#000" fill-rule="nonzero" d="M340.873 67.628c2.218-.474 5.545 1.737 4.595 5.21 0-2.684-3.01-4.894-4.595-4.105-.792.474-1.267 1.105-1.742 1.895-.317.474-1.11 2.21.158 2.526.317.158 1.109.316 1.267-.474.317-.789-.316-1.42-.475-1.42 1.11-.79 3.01 1.105 1.743 3 .475.315 3.802-.316 5.862 2.052-3.803-1.737-8.555-1.895-10.932-1.421.634-.474.634-.632.634-.79-.634-3.789 1.426-6.157 3.485-6.473zM346.418 90.049a4.398 4.398 0 0 1-2.06.474c2.536 4.42 3.803 9.473 3.803 9.473l.95-3.631 2.694 2.052c-.476-2.21-3.01-5.684-5.387-8.368z"/>
            <g>
                <path fill="#FFF" d="M333.427 75.365c1.426-2.369 1.268-5.685-2.06-7.263-3.326-1.58-4.594.315-5.703 1.263-1.742 1.579-1.426 6.79-1.267 8.526 3.96-1.895 8.872-2.368 9.03-2.526 0 .158.159-.474 0 0z"/>
                <path fill="#000" fill-rule="nonzero" d="M322.654 78.838c2.06-1.263 7.13-2.684 12.04-3.473.951-.158-1.108-.316-1.108-.316-2.06 0-3.169.631-3.644.474.792-3-2.377-4.58-3.486-2.843 0-.157 1.11.474 1.11 1.422 0 .947-1.11 1.105-1.585 1.263-1.743.315-1.267-2.369-1.109-3 .317-1.263.792-2.369 1.743-3.474 1.901-1.895 6.495-.79 7.604 2.526-.158-4.894-5.228-5.842-8.08-4.105-2.534 1.579-4.277 5.684-2.059 10.105-.792 1.263.317.158-1.426 1.421z"/>
            </g>
            <g>
                <path fill="#000" fill-rule="nonzero" d="M338.972 83.733c.634-1.737 3.169-.79 3.01 1.58-.95.63-1.9.473-2.693-.159.158.158-.634-.79-.317-1.42z"/>
                <path fill="#945F28" d="M339.606 85.154c.158-1.105 1.901-1.105 2.218.474-.475.631-1.11.631-1.743.474.159-.158-.634-.474-.475-.948z"/>
            </g>
            <path fill="#F7AD41" fill-rule="nonzero" d="M324.397 94.628l-5.387-2.053s.793 0 1.902-.158c1.425-.158 3.01-1.579 3.01-1.579l.475 3.79z"/>
            <path fill="#000" fill-rule="nonzero" d="M326.14 93.049l-1.902.947-.316-3.473 2.218 1.736zM306.02 105.365c-.634-.316-4.595.158-6.338 4.42 0 .159-3.802-6.789 6.337-4.42zM312.515 107.575c-1.901-.79-3.802-.473-6.812 2.053 1.425-7.263 9.188-3.632 9.98-1.421.793 2.21-.475 3.947-.475 4.105.317-2.053-.634-3.947-2.693-4.737z"/>
            <g fill="#000" fill-rule="nonzero">
                <path d="M363.053 133.786c-.475-.158-.792-.474-.95-.632-.159-.158-.159-.474-.317-.79.792-6 .95-6.947 1.742-12.63.793-5.527 1.426-11.054 2.218-16.422.476-.947 1.426-1.737 2.852-2.526 1.426-.79 2.376-.474 3.01 1.105-.634 5.368-1.267 10.737-1.901 16.263-.634 5.684-.792 6.632-1.584 12.632-.634 1.263-1.268 2.052-2.06 2.526-.792.316-1.9.474-3.01.474z"/>
                <path d="M380.48 129.838c-2.06-.947-8.872-6.947-10.298-8.368-1.426-.316-2.06-.947-2.06-1.737 0-.79.476-1.579 1.268-2.368.792-.79 1.584-1.58 2.535-2.369.95-.79 1.584-1.263 1.901-1.579.159-.158.634-.79 1.584-2.21.951-1.421 2.06-2.684 3.327-3.948 1.268-1.263 2.535-2.368 3.644-3 1.268-.631 2.218-.473 3.01.632.159.947 0 2.053-.633 3.316-.634 1.263-1.585 2.368-2.535 3.631-.95 1.264-2.06 2.369-3.169 3.474l-2.693 2.684c0 .158.475.948 1.426 2.21.95 1.264 1.742 2.685 2.693 4.264.792 1.579 1.426 2.842 1.584 4.105.159.79-.317 1.263-1.584 1.263zM406.779 114.523c.158-3.948-.158-7.264-1.267-10.264-1.426-1.894-3.01-3-4.753-3.315-1.743-.316-3.486-.158-5.228.631-1.743.632-3.327 1.58-4.912 3-1.584 1.421-2.851 2.842-3.643 4.263-.317.948-.793 2.369-1.11 4.264-.316 2.052-.633 4.105-.792 6.157-.158 2.211-.158 5.053-.158 6.79.158 1.737.475 2.842 1.109 3 1.109 0 1.426 0 1.901-.632.475-.473 1.11-1.42 1.268-2.21.158-.79.633-2.527.633-3.474v-2.684c2.535.474 4.595.474 6.337-.158 1.743-.632 3.644-1.737 5.545-3.316 0 0 .159.79.476 2.21.316 1.422.633 1.58.95 3 .475 1.58.95 2.685 1.426 3.474.634.79 1.109.474 1.743-.947.158-3.474.317-5.684.475-9.79zm-3.01-4.106c-.317 1.263-.95 2.369-1.901 3.474-.95.947-2.06 1.737-3.486 2.368-1.426.632-2.693.948-4.119.948-2.693-.79-3.96-2.053-3.802-4.105.158-1.895.95-3.79 2.376-5.369 1.426-1.579 3.169-2.684 5.228-3.316 2.06-.631 3.803.158 5.229 2.053.633 1.421.792 2.684.475 3.947zM426.9 117.365c.316-3.79.158-7.106-.635-10.106-1.267-1.894-2.693-3-4.436-3.315-1.584-.158-3.326.158-4.752.947-1.585.79-3.01 1.895-4.278 3.316-1.267 1.42-2.218 2.842-2.852 4.105-.316.79-.475 2.053-.633 3.79-.159 1.736-.317 3.473-.317 5.21s0 3.316.158 4.579c.159 1.263.476 2.053.95 2.368.793 0 1.427-.157 1.744-.473.316-.316.633-.948.792-1.421.158-.632.158-1.263.158-2.053s-.158-1.421-.158-2.21c1.9.473 3.644.473 5.07 0 1.425-.474 3.01-1.422 4.752-2.843 0 0-.317 1.106-.317 2.843 0 1.42 0 2.842.476 4.105.316 1.263.792 1.895 1.425 2.526.476.316.951.474 1.585-.79.158-2.841.95-6.947 1.267-10.578zm-2.536-3.948c-.317 1.263-.95 2.369-1.742 3.316-.793.947-1.901 1.58-3.01 2.21-1.11.474-2.218.79-3.486.79-2.218-.631-3.168-1.895-3.168-3.631 0-1.737.633-3.474 1.742-5.053 1.11-1.579 2.694-2.684 4.595-3.474 1.9-.631 3.485-.158 4.752 1.895.476 1.421.634 2.684.317 3.947z"/>
            </g>
            <g fill="#231F20" fill-rule="nonzero">
                <path d="M325.823 60.68c-1.901.79-3.169 2.211-3.96 3.632-.16.316-1.427 2.368-1.744 3.947 1.268-1.894 3.169-4.263 5.07-5.21 2.535-1.421 4.594-.947 6.654 0-.475-1.263-1.901-2.21-2.535-2.526-1.426-.474-2.693-.158-3.485.157zM343.408 64.47c1.11.632 1.584 1.737 1.901 2.684 0 .158.476 1.58.476 2.526-.476-1.263-1.268-3-2.218-3.789-1.268-1.105-2.694-1.105-3.961-.947.475-.632 1.426-.948 1.901-1.106.792 0 1.426.316 1.901.632z"/>
            </g>
        </g>
    </g>
</svg>
