<svg xmlns="http://www.w3.org/2000/svg" width="332" height="244" viewBox="0 0 332 244">
    <defs>
        <linearGradient id="a" x1="-12.775%" x2="122.432%" y1="46.239%" y2="46.239%">
            <stop offset="0%" stop-color="#50A7E6"/>
            <stop offset="100%" stop-color="#2E4550"/>
        </linearGradient>
    </defs>
    <g fill="none" fill-rule="evenodd">
        <path fill="#FAFAFA" stroke="url(#a)" stroke-width="20" d="M138.462-39.652l132.377 76.48a3 3 0 0 1 1.5 2.598v152.967a3 3 0 0 1-1.5 2.597l-132.343 76.461a3 3 0 0 1-3.053-.03L51.13 220.424a3 3 0 0 1-1.447-2.567V11.672a3 3 0 0 1 1.498-2.597l84.277-48.727a3 3 0 0 1 3.003 0z" transform="rotate(90 160.511 121.398)"/>
        <path fill="#2E4550" d="M321.562 99.348L245.08 231.726a3 3 0 0 1-2.598 1.5H89.517a3 3 0 0 1-2.598-1.5L10.46 99.383a3 3 0 0 1 .03-3.054l50.996-84.31a3 3 0 0 1 2.567-1.448h206.185a3 3 0 0 1 2.597 1.498l48.727 84.277a3 3 0 0 1 0 3.002z"/>
        <path stroke="#FFF" stroke-dasharray="3" d="M326.709 97.984l-79.055 136.844a3 3 0 0 1-2.598 1.5H86.942a3 3 0 0 1-2.597-1.5L5.31 98.018a3 3 0 0 1 .03-3.053l52.734-87.19a3 3 0 0 1 2.567-1.448h213.083a3 3 0 0 1 2.597 1.499l50.387 87.156a3 3 0 0 1 0 3.002z"/>
        <text fill="#2E4550" font-family="OpenSans-Semibold, Open Sans" font-size="9" font-weight="500" transform="translate(5 6)">
            <tspan x="103.338" y="218.138">KAA SOLUTION CLUSTER</tspan>
        </text>
        <text fill="#2E4550" font-family="OpenSans, Open Sans" font-size="9" transform="translate(5 6)">
            <tspan x="88.495" y="21.741">app 1</tspan>
        </text>
        <text fill="#2E4550" font-family="OpenSans, Open Sans" font-size="9" transform="translate(5 6)">
            <tspan x="149.011" y="21.741">app 2</tspan>
        </text>
        <text fill="#2E4550" font-family="OpenSans, Open Sans" font-size="9" transform="translate(5 6)">
            <tspan x="208.385" y="21.741">app 3</tspan>
        </text>
        <g transform="translate(204.25 31.695)">
            <rect width="42.93" height="174.512" fill="#50A7E6" stroke="#4697D1" stroke-width="2" rx="2"/>
            <g transform="translate(11.558 9.972)">
                <path stroke="#FFF" stroke-width="1.5" d="M1.343 20.075c.433-1.257.953-2.47 1.386-3.77.043-.13.087-.26.13-.304.693.65 1.343 1.3 2.08 1.864 1.429 1.04 3.075 1.69 4.765 2.253.346.087.459.069.589.415.346 1.084 2.859 3.4 1.144 3.313-7.625.058-11.437.058-11.437 0 .433-1.257.91-2.557 1.343-3.77zM4.869 0a10.5 10.5 0 0 0 0 15.004 10.74 10.74 0 0 0 15.145 0L4.869 0z"/>
                <ellipse cx="16.869" cy="4.249" fill="#FFF" fill-rule="nonzero" rx="1.43" ry="1.416"/>
                <path stroke="#FFF" stroke-width="1.143" d="M13.152 7.931l2.86-2.832"/>
            </g>
            <g transform="translate(11.558 43.212)">
                <path stroke="#FFF" stroke-width="1.5" d="M1.343 20.075c.433-1.257.953-2.47 1.386-3.77.043-.13.087-.26.13-.304.693.65 1.343 1.3 2.08 1.864 1.429 1.04 3.075 1.69 4.765 2.253.346.087.459.069.589.415.346 1.084 2.859 3.4 1.144 3.313-7.625.058-11.437.058-11.437 0 .433-1.257.91-2.557 1.343-3.77zM4.869 0a10.5 10.5 0 0 0 0 15.004 10.74 10.74 0 0 0 15.145 0L4.869 0z"/>
                <ellipse cx="16.869" cy="4.249" fill="#FFF" fill-rule="nonzero" rx="1.43" ry="1.416"/>
                <path stroke="#FFF" stroke-width="1.143" d="M13.152 7.931l2.86-2.832"/>
            </g>
            <g transform="translate(11.558 76.453)">
                <path stroke="#FFF" stroke-width="1.5" d="M1.343 20.075c.433-1.257.953-2.47 1.386-3.77.043-.13.087-.26.13-.304.693.65 1.343 1.3 2.08 1.864 1.429 1.04 3.075 1.69 4.765 2.253.346.087.459.069.589.415.346 1.084 2.859 3.4 1.144 3.313-7.625.058-11.437.058-11.437 0 .433-1.257.91-2.557 1.343-3.77zM4.869 0a10.5 10.5 0 0 0 0 15.004 10.74 10.74 0 0 0 15.145 0L4.869 0z"/>
                <ellipse cx="16.869" cy="4.249" fill="#FFF" fill-rule="nonzero" rx="1.43" ry="1.416"/>
                <path stroke="#FFF" stroke-width="1.143" d="M13.152 7.931l2.86-2.832"/>
            </g>
            <g transform="translate(11.558 109.693)">
                <path stroke="#FFF" stroke-width="1.5" d="M1.343 20.075c.433-1.257.953-2.47 1.386-3.77.043-.13.087-.26.13-.304.693.65 1.343 1.3 2.08 1.864 1.429 1.04 3.075 1.69 4.765 2.253.346.087.459.069.589.415.346 1.084 2.859 3.4 1.144 3.313-7.625.058-11.437.058-11.437 0 .433-1.257.91-2.557 1.343-3.77zM4.869 0a10.5 10.5 0 0 0 0 15.004 10.74 10.74 0 0 0 15.145 0L4.869 0z"/>
                <ellipse cx="16.869" cy="4.249" fill="#FFF" fill-rule="nonzero" rx="1.43" ry="1.416"/>
                <path stroke="#FFF" stroke-width="1.143" d="M13.152 7.931l2.86-2.832"/>
            </g>
            <g transform="translate(11.558 142.933)">
                <path stroke="#FFF" stroke-width="1.5" d="M1.343 20.075c.433-1.257.953-2.47 1.386-3.77.043-.13.087-.26.13-.304.693.65 1.343 1.3 2.08 1.864 1.429 1.04 3.075 1.69 4.765 2.253.346.087.459.069.589.415.346 1.084 2.859 3.4 1.144 3.313-7.625.058-11.437.058-11.437 0 .433-1.257.91-2.557 1.343-3.77zM4.869 0a10.5 10.5 0 0 0 0 15.004 10.74 10.74 0 0 0 15.145 0L4.869 0z"/>
                <ellipse cx="16.869" cy="4.249" fill="#FFF" fill-rule="nonzero" rx="1.43" ry="1.416"/>
                <path stroke="#FFF" stroke-width="1.143" d="M13.152 7.931l2.86-2.832"/>
            </g>
        </g>
        <g transform="translate(84.36 31.695)">
            <rect width="43.389" height="174.698" fill="#50A7E6" stroke="#4697D1" stroke-width="2" rx="4"/>
            <g fill="#FFF" fill-rule="nonzero">
                <path stroke="#FFF" stroke-width=".5" d="M34.505 17.286v-.283c0-3.87-3.124-7.02-6.963-7.02a6.935 6.935 0 0 0-5.969 3.4 6.935 6.935 0 0 0-5.968-3.4c-3.84 0-6.963 3.15-6.963 7.02v.283c-.01 1.65-.021 3.705 2.61 6.832 2.696 3.203 8.897 8.43 10.321 8.43 1.424 0 7.626-5.227 10.321-8.43 2.632-3.127 2.62-5.181 2.611-6.832zm-3.369 6.183c-3.049 3.623-8.665 7.97-9.563 8.075-.897-.105-6.514-4.452-9.562-8.075-2.393-2.844-2.384-4.615-2.375-6.178v-.288c0-3.318 2.678-6.017 5.969-6.017a5.956 5.956 0 0 1 5.51 3.699.497.497 0 0 0 .917 0 5.956 5.956 0 0 1 5.51-3.7c3.29 0 5.968 2.7 5.968 6.018v.288c.01 1.563.019 3.334-2.374 6.178z"/>
                <path d="M29.495 20.441h-6.49l-.836-1.657a.487.487 0 0 0-.89.058l-1.371 3.761-1.58-7.084a.484.484 0 0 0-.448-.378.478.478 0 0 0-.485.32l-1.83 5.463h-2.56a.484.484 0 1 0 0 .968h2.91a.477.477 0 0 0 .46-.322l1.386-4.141 1.56 7.002c.047.21.227.365.442.379l.032.001a.485.485 0 0 0 .456-.318l1.554-4.262.466.92c.082.163.25.257.434.257h6.79a.484.484 0 1 0 0-.967z"/>
            </g>
            <g fill="#FFF" fill-rule="nonzero">
                <path stroke="#FFF" stroke-width=".5" d="M34.505 50.562v-.283c0-3.871-3.124-7.02-6.963-7.02a6.935 6.935 0 0 0-5.969 3.4 6.935 6.935 0 0 0-5.968-3.4c-3.84 0-6.963 3.149-6.963 7.02v.283c-.01 1.65-.021 3.705 2.61 6.832 2.696 3.203 8.897 8.43 10.321 8.43 1.424 0 7.626-5.227 10.321-8.43 2.632-3.127 2.62-5.182 2.611-6.832zm-3.369 6.183c-3.049 3.623-8.665 7.97-9.563 8.075-.897-.105-6.514-4.452-9.562-8.075-2.393-2.844-2.384-4.615-2.375-6.178v-.288c0-3.318 2.678-6.018 5.969-6.018a5.956 5.956 0 0 1 5.51 3.7.497.497 0 0 0 .917 0 5.956 5.956 0 0 1 5.51-3.7c3.29 0 5.968 2.7 5.968 6.018v.288c.01 1.563.019 3.334-2.374 6.178z"/>
                <path d="M29.495 53.717h-6.49l-.836-1.658a.487.487 0 0 0-.89.058l-1.371 3.762-1.58-7.084a.484.484 0 0 0-.448-.378.478.478 0 0 0-.485.32l-1.83 5.463h-2.56a.484.484 0 1 0 0 .967h2.91a.477.477 0 0 0 .46-.32l1.386-4.142 1.56 7.002c.047.21.227.365.442.379l.032.001a.485.485 0 0 0 .456-.318l1.554-4.262.466.919c.082.164.25.258.434.258h6.79a.484.484 0 1 0 0-.967z"/>
            </g>
            <g fill="#FFF" fill-rule="nonzero">
                <path stroke="#FFF" stroke-width=".5" d="M34.505 83.837v-.282c0-3.871-3.124-7.02-6.963-7.02a6.935 6.935 0 0 0-5.969 3.4 6.935 6.935 0 0 0-5.968-3.4c-3.84 0-6.963 3.149-6.963 7.02v.282c-.01 1.651-.021 3.706 2.61 6.832 2.696 3.204 8.897 8.43 10.321 8.43 1.424 0 7.626-5.226 10.321-8.43 2.632-3.126 2.62-5.18 2.611-6.832zm-3.369 6.184c-3.049 3.622-8.665 7.97-9.563 8.075-.897-.105-6.514-4.453-9.562-8.075-2.393-2.844-2.384-4.615-2.375-6.178v-.288c0-3.318 2.678-6.018 5.969-6.018a5.956 5.956 0 0 1 5.51 3.7.497.497 0 0 0 .917 0 5.956 5.956 0 0 1 5.51-3.7c3.29 0 5.968 2.7 5.968 6.018v.288c.01 1.563.019 3.334-2.374 6.178z"/>
                <path d="M29.495 86.993h-6.49l-.836-1.658a.487.487 0 0 0-.89.058l-1.371 3.762-1.58-7.084a.484.484 0 0 0-.448-.378.478.478 0 0 0-.485.32l-1.83 5.463h-2.56a.484.484 0 1 0 0 .967h2.91a.477.477 0 0 0 .46-.32l1.386-4.143 1.56 7.003c.047.21.227.364.442.378l.032.002a.485.485 0 0 0 .456-.318l1.554-4.262.466.919c.082.164.25.258.434.258h6.79a.484.484 0 1 0 0-.967z"/>
            </g>
            <g fill="#FFF" fill-rule="nonzero">
                <path stroke="#FFF" stroke-width=".5" d="M34.505 117.113v-.282c0-3.871-3.124-7.02-6.963-7.02a6.935 6.935 0 0 0-5.969 3.4 6.935 6.935 0 0 0-5.968-3.4c-3.84 0-6.963 3.149-6.963 7.02v.282c-.01 1.651-.021 3.705 2.61 6.832 2.696 3.204 8.897 8.43 10.321 8.43 1.424 0 7.626-5.226 10.321-8.43 2.632-3.126 2.62-5.18 2.611-6.832zm-3.369 6.183c-3.049 3.623-8.665 7.97-9.563 8.076-.897-.105-6.514-4.453-9.562-8.076-2.393-2.843-2.384-4.615-2.375-6.177v-.288c0-3.318 2.678-6.018 5.969-6.018a5.956 5.956 0 0 1 5.51 3.7.497.497 0 0 0 .917 0 5.956 5.956 0 0 1 5.51-3.7c3.29 0 5.968 2.7 5.968 6.018v.288c.01 1.563.019 3.334-2.374 6.177z"/>
                <path d="M29.495 120.268h-6.49l-.836-1.657a.487.487 0 0 0-.89.058l-1.371 3.762-1.58-7.085a.484.484 0 0 0-.448-.377.478.478 0 0 0-.485.32l-1.83 5.463h-2.56a.484.484 0 1 0 0 .967h2.91a.477.477 0 0 0 .46-.321l1.386-4.142 1.56 7.002c.047.21.227.365.442.38h.032a.485.485 0 0 0 .456-.317l1.554-4.263.466.92c.082.164.25.258.434.258h6.79a.484.484 0 1 0 0-.968z"/>
            </g>
            <g fill="#FFF" fill-rule="nonzero">
                <path stroke="#FFF" stroke-width=".5" d="M34.505 150.39v-.284c0-3.87-3.124-7.02-6.963-7.02a6.935 6.935 0 0 0-5.969 3.4 6.935 6.935 0 0 0-5.968-3.4c-3.84 0-6.963 3.15-6.963 7.02v.283c-.01 1.65-.021 3.705 2.61 6.832 2.696 3.203 8.897 8.43 10.321 8.43 1.424 0 7.626-5.227 10.321-8.43 2.632-3.127 2.62-5.181 2.611-6.832zm-3.369 6.182c-3.049 3.623-8.665 7.97-9.563 8.076-.897-.105-6.514-4.453-9.562-8.076-2.393-2.843-2.384-4.615-2.375-6.177v-.289c0-3.318 2.678-6.017 5.969-6.017a5.956 5.956 0 0 1 5.51 3.7.497.497 0 0 0 .917 0 5.956 5.956 0 0 1 5.51-3.7c3.29 0 5.968 2.7 5.968 6.017v.289c.01 1.562.019 3.334-2.374 6.177z"/>
                <path d="M29.495 153.544h-6.49l-.836-1.657a.487.487 0 0 0-.89.058l-1.371 3.762-1.58-7.085a.484.484 0 0 0-.448-.377.478.478 0 0 0-.485.32l-1.83 5.463h-2.56a.484.484 0 1 0 0 .967h2.91a.477.477 0 0 0 .46-.321l1.386-4.142 1.56 7.002c.047.21.227.365.442.38h.032a.485.485 0 0 0 .456-.317l1.554-4.263.466.92c.082.163.25.257.434.257h6.79a.484.484 0 1 0 0-.967z"/>
            </g>
        </g>
        <g transform="translate(144.876 31.695)">
            <rect width="43.389" height="174.698" fill="#50A7E6" stroke="#4697D1" stroke-width="2" rx="2"/>
            <g fill="#FFF" fill-rule="nonzero">
                <path d="M27.718 18.782h-6.617v-2.44c0-.449-.33-.813-.735-.813-.406 0-.736.364-.736.813v3.254c0 .449.33.813.736.813h7.352c.406 0 .735-.364.735-.813 0-.45-.33-.814-.735-.814zM32.865 21.63c-2.432 0-4.412 2.052-4.412 4.575 0 2.522 1.98 4.575 4.412 4.575s4.411-2.053 4.411-4.575c0-2.523-1.98-4.576-4.411-4.576zm0 7.625c-1.622 0-2.941-1.368-2.941-3.05 0-1.683 1.319-3.05 2.94-3.05 1.623 0 2.942 1.367 2.942 3.05 0 1.682-1.32 3.05-2.941 3.05zM9.925 21.63c-2.432 0-4.411 2.052-4.411 4.575 0 2.522 1.98 4.575 4.411 4.575 2.433 0 4.412-2.053 4.412-4.575 0-2.523-1.98-4.576-4.412-4.576zm0 7.625c-1.622 0-2.94-1.368-2.94-3.05 0-1.683 1.318-3.05 2.94-3.05 1.622 0 2.941 1.367 2.941 3.05 0 1.682-1.319 3.05-2.94 3.05z"/>
                <path d="M28.881 26.51H13.91c-.413 0-.749.273-.749.61 0 .337.336.61.75.61H28.88c.413 0 .749-.273.749-.61 0-.337-.336-.61-.749-.61z"/>
                <path d="M32.267 17.24c-1.095-.926-6.092-4.762-13.727-4.762-1.444 0-5.13.157-8.45 1.587H6.58a.749.749 0 0 0-.69.49.827.827 0 0 0 .16.864l.732.774c-1.624 1.545-2.444 3.493-2.444 5.802 0 2.724.231 6.345 2.242 6.345.413 0 .748-.355.748-.793 0-.438-.335-.793-.748-.793-.006-.002-.747-.44-.747-4.759 0-2.108.82-3.776 2.507-5.105a.81.81 0 0 0 .3-.58.817.817 0 0 0-.217-.618l-.038-.041h1.853c.099 0 .198-.02.287-.062 3.108-1.375 6.641-1.524 8.015-1.524 7.914 0 12.915 4.519 12.964 4.563.136.125.31.195.49.195 4.849 0 6.718 3.293 6.728 3.965v3.173c0 .414-.576.772-.747.793H36.48c-.413 0-.748.355-.748.793 0 .438.335.793.748.793h1.495c.903 0 2.242-1 2.242-2.38v-3.172c0-1.503-2.447-5.423-7.95-5.548z"/>
            </g>
            <g fill="#FFF" fill-rule="nonzero">
                <path d="M27.718 52.058h-6.617v-2.44c0-.449-.33-.813-.735-.813-.406 0-.736.364-.736.813v3.254c0 .449.33.813.736.813h7.352c.406 0 .735-.364.735-.813 0-.45-.33-.814-.735-.814zM32.865 54.905c-2.432 0-4.412 2.053-4.412 4.576 0 2.522 1.98 4.575 4.412 4.575s4.411-2.053 4.411-4.575c0-2.523-1.98-4.576-4.411-4.576zm0 7.626c-1.622 0-2.941-1.368-2.941-3.05 0-1.683 1.319-3.05 2.94-3.05 1.623 0 2.942 1.367 2.942 3.05 0 1.682-1.32 3.05-2.941 3.05zM9.925 54.905c-2.432 0-4.411 2.053-4.411 4.576 0 2.522 1.98 4.575 4.411 4.575 2.433 0 4.412-2.053 4.412-4.575 0-2.523-1.98-4.576-4.412-4.576zm0 7.626c-1.622 0-2.94-1.368-2.94-3.05 0-1.683 1.318-3.05 2.94-3.05 1.622 0 2.941 1.367 2.941 3.05 0 1.682-1.319 3.05-2.94 3.05z"/>
                <path d="M28.881 59.786H13.91c-.413 0-.749.273-.749.61 0 .336.336.61.75.61H28.88c.413 0 .749-.274.749-.61 0-.337-.336-.61-.749-.61z"/>
                <path d="M32.267 50.516c-1.095-.926-6.092-4.762-13.727-4.762-1.444 0-5.13.157-8.45 1.586H6.58a.749.749 0 0 0-.69.49.827.827 0 0 0 .16.865l.732.774c-1.624 1.545-2.444 3.493-2.444 5.802 0 2.724.231 6.345 2.242 6.345.413 0 .748-.356.748-.793 0-.438-.335-.793-.748-.793-.006-.002-.747-.44-.747-4.759 0-2.108.82-3.776 2.507-5.106a.81.81 0 0 0 .3-.579.817.817 0 0 0-.217-.618l-.038-.041h1.853c.099 0 .198-.021.287-.062 3.108-1.376 6.641-1.525 8.015-1.525 7.914 0 12.915 4.52 12.964 4.564.136.125.31.195.49.195 4.849 0 6.718 3.293 6.728 3.965v3.172c0 .414-.576.773-.747.794H36.48c-.413 0-.748.355-.748.793 0 .437.335.793.748.793h1.495c.903 0 2.242-1 2.242-2.38v-3.172c0-1.503-2.447-5.423-7.95-5.548z"/>
            </g>
            <g fill="#FFF" fill-rule="nonzero">
                <path d="M27.718 85.334h-6.617v-2.44c0-.45-.33-.814-.735-.814-.406 0-.736.365-.736.814v3.253c0 .45.33.814.736.814h7.352c.406 0 .735-.365.735-.814 0-.449-.33-.813-.735-.813zM32.865 88.181c-2.432 0-4.412 2.053-4.412 4.575 0 2.523 1.98 4.576 4.412 4.576s4.411-2.053 4.411-4.576c0-2.522-1.98-4.575-4.411-4.575zm0 7.626c-1.622 0-2.941-1.368-2.941-3.05 0-1.683 1.319-3.05 2.94-3.05 1.623 0 2.942 1.367 2.942 3.05 0 1.682-1.32 3.05-2.941 3.05zM9.925 88.181c-2.432 0-4.411 2.053-4.411 4.575 0 2.523 1.98 4.576 4.411 4.576 2.433 0 4.412-2.053 4.412-4.576 0-2.522-1.98-4.575-4.412-4.575zm0 7.626c-1.622 0-2.94-1.368-2.94-3.05 0-1.683 1.318-3.05 2.94-3.05 1.622 0 2.941 1.367 2.941 3.05 0 1.682-1.319 3.05-2.94 3.05z"/>
                <path d="M28.881 93.061H13.91c-.413 0-.749.274-.749.61 0 .337.336.61.75.61H28.88c.413 0 .749-.273.749-.61 0-.336-.336-.61-.749-.61z"/>
                <path d="M32.267 83.792c-1.095-.927-6.092-4.762-13.727-4.762-1.444 0-5.13.157-8.45 1.586H6.58a.749.749 0 0 0-.69.49.827.827 0 0 0 .16.865l.732.774c-1.624 1.545-2.444 3.493-2.444 5.802 0 2.723.231 6.345 2.242 6.345.413 0 .748-.356.748-.794 0-.437-.335-.793-.748-.793-.006-.001-.747-.439-.747-4.758 0-2.108.82-3.777 2.507-5.106a.81.81 0 0 0 .3-.579.817.817 0 0 0-.217-.618l-.038-.042h1.853c.099 0 .198-.02.287-.061 3.108-1.376 6.641-1.525 8.015-1.525 7.914 0 12.915 4.52 12.964 4.564.136.125.31.195.49.195 4.849 0 6.718 3.293 6.728 3.965v3.172c0 .414-.576.773-.747.793H36.48c-.413 0-.748.356-.748.794 0 .437.335.793.748.793h1.495c.903 0 2.242-1 2.242-2.38V89.34c0-1.504-2.447-5.423-7.95-5.548z"/>
            </g>
            <g fill="#FFF" fill-rule="nonzero">
                <path d="M27.718 118.61h-6.617v-2.44c0-.45-.33-.814-.735-.814-.406 0-.736.365-.736.814v3.253c0 .45.33.814.736.814h7.352c.406 0 .735-.365.735-.814 0-.449-.33-.813-.735-.813zM32.865 121.457c-2.432 0-4.412 2.053-4.412 4.575 0 2.523 1.98 4.576 4.412 4.576s4.411-2.053 4.411-4.576c0-2.522-1.98-4.575-4.411-4.575zm0 7.626c-1.622 0-2.941-1.368-2.941-3.05 0-1.683 1.319-3.051 2.94-3.051 1.623 0 2.942 1.368 2.942 3.05 0 1.683-1.32 3.05-2.941 3.05zM9.925 121.457c-2.432 0-4.411 2.053-4.411 4.575 0 2.523 1.98 4.576 4.411 4.576 2.433 0 4.412-2.053 4.412-4.576 0-2.522-1.98-4.575-4.412-4.575zm0 7.626c-1.622 0-2.94-1.368-2.94-3.05 0-1.683 1.318-3.051 2.94-3.051 1.622 0 2.941 1.368 2.941 3.05 0 1.683-1.319 3.05-2.94 3.05z"/>
                <path d="M28.881 126.337H13.91c-.413 0-.749.274-.749.61 0 .337.336.61.75.61H28.88c.413 0 .749-.273.749-.61 0-.336-.336-.61-.749-.61z"/>
                <path d="M32.267 117.068c-1.095-.927-6.092-4.762-13.727-4.762-1.444 0-5.13.157-8.45 1.586H6.58a.749.749 0 0 0-.69.49.827.827 0 0 0 .16.865l.732.774c-1.624 1.545-2.444 3.492-2.444 5.802 0 2.723.231 6.344 2.242 6.344.413 0 .748-.355.748-.793 0-.437-.335-.793-.748-.793-.006-.001-.747-.44-.747-4.758 0-2.108.82-3.777 2.507-5.106a.81.81 0 0 0 .3-.579.817.817 0 0 0-.217-.619l-.038-.04h1.853c.099 0 .198-.021.287-.063 3.108-1.375 6.641-1.524 8.015-1.524 7.914 0 12.915 4.519 12.964 4.563.136.126.31.196.49.196 4.849 0 6.718 3.292 6.728 3.965v3.172c0 .414-.576.773-.747.793H36.48c-.413 0-.748.356-.748.793 0 .438.335.793.748.793h1.495c.903 0 2.242-.999 2.242-2.379v-3.172c0-1.504-2.447-5.423-7.95-5.548z"/>
            </g>
            <g fill="#FFF" fill-rule="nonzero">
                <path d="M27.718 150.222h-6.617v-2.44c0-.45-.33-.814-.735-.814-.406 0-.736.365-.736.814v3.253c0 .45.33.814.736.814h7.352c.406 0 .735-.365.735-.814 0-.449-.33-.813-.735-.813zM32.865 153.069c-2.432 0-4.412 2.053-4.412 4.575 0 2.523 1.98 4.576 4.412 4.576s4.411-2.053 4.411-4.576c0-2.522-1.98-4.575-4.411-4.575zm0 7.626c-1.622 0-2.941-1.368-2.941-3.05 0-1.683 1.319-3.051 2.94-3.051 1.623 0 2.942 1.368 2.942 3.05 0 1.683-1.32 3.05-2.941 3.05zM9.925 153.069c-2.432 0-4.411 2.053-4.411 4.575 0 2.523 1.98 4.576 4.411 4.576 2.433 0 4.412-2.053 4.412-4.576 0-2.522-1.98-4.575-4.412-4.575zm0 7.626c-1.622 0-2.94-1.368-2.94-3.05 0-1.683 1.318-3.051 2.94-3.051 1.622 0 2.941 1.368 2.941 3.05 0 1.683-1.319 3.05-2.94 3.05z"/>
                <path d="M28.881 157.95H13.91c-.413 0-.749.273-.749.61 0 .336.336.61.75.61H28.88c.413 0 .749-.274.749-.61 0-.337-.336-.61-.749-.61z"/>
                <path d="M32.267 148.68c-1.095-.927-6.092-4.762-13.727-4.762-1.444 0-5.13.157-8.45 1.586H6.58a.749.749 0 0 0-.69.49.827.827 0 0 0 .16.865l.732.774c-1.624 1.545-2.444 3.492-2.444 5.802 0 2.723.231 6.345 2.242 6.345.413 0 .748-.356.748-.794 0-.437-.335-.793-.748-.793-.006-.001-.747-.439-.747-4.758 0-2.108.82-3.777 2.507-5.106a.81.81 0 0 0 .3-.579.817.817 0 0 0-.217-.618l-.038-.042h1.853c.099 0 .198-.02.287-.062 3.108-1.375 6.641-1.524 8.015-1.524 7.914 0 12.915 4.52 12.964 4.563.136.126.31.196.49.196 4.849 0 6.718 3.292 6.728 3.965v3.172c0 .414-.576.773-.747.793H36.48c-.413 0-.748.356-.748.793 0 .438.335.794.748.794h1.495c.903 0 2.242-1 2.242-2.38v-3.172c0-1.504-2.447-5.423-7.95-5.548z"/>
            </g>
        </g>
    </g>
</svg>
