<svg xmlns="http://www.w3.org/2000/svg" width="705" height="305" viewBox="0 0 705 305">
    <g fill="none" fill-rule="evenodd" transform="translate(2)">
        <path fill="#2E4550" stroke="#50A7E6" stroke-width="2" d="M61 1c-6.627 0-12 5.373-12 12v28.433c0 6.627 5.373 12 12 12h583.366c6.627 0 12-5.373 12-12V13c0-6.627-5.373-12-12-12H61z"/>
        <g fill="#50A7E6" transform="translate(240 9)">
            <ellipse cx="7.471" cy="17.374" rx="7.471" ry="7.709"/>
            <path d="M17.507 32.713l4.391.073a.286.286 0 0 0 .204-.09.286.286 0 0 0 .082-.202l-.102-4.44a.259.259 0 0 0-.173-.238c-.106-.042-.201-.02-.287.067l-1.362 1.388-7.252-7.383a.248.248 0 0 0-.189-.08.273.273 0 0 0-.192.089l-1.168 1.19a.282.282 0 0 0-.088.195.257.257 0 0 0 .08.192l7.25 7.383-1.362 1.388a.268.268 0 0 0-.066.291.255.255 0 0 0 .234.177zM25.84 20.816l3.415-3.11a.285.285 0 0 0 0-.412l-3.415-3.066a.29.29 0 0 0-.31-.044.254.254 0 0 0-.17.254v1.963H14.263a.271.271 0 0 0-.284.28v1.682a.27.27 0 0 0 .284.28H25.36v1.963c0 .117.056.201.17.254a.289.289 0 0 0 .31-.044zM21.76 6.856l.196-4.344a.271.271 0 0 0-.08-.2.252.252 0 0 0-.19-.075l-4.238.229a.268.268 0 0 0-.232.178.242.242 0 0 0 .056.281l1.284 1.308-7.252 7.383a.258.258 0 0 0-.002.376l1.101 1.121a.249.249 0 0 0 .184.081c.07 0 .131-.028.185-.083l7.252-7.384 1.284 1.308c.077.078.169.097.277.057a.271.271 0 0 0 .175-.236z"/>
        </g>
        <path fill="#50A7E6" fill-rule="nonzero" d="M289.015 34.593V19.412h3.252v12.523h6.221v2.658h-9.473zm25.63-7.611c0 2.513-.63 4.444-1.888 5.794-1.26 1.35-3.064 2.025-5.414 2.025-2.35 0-4.154-.675-5.413-2.025-1.26-1.35-1.889-3.288-1.889-5.815 0-2.527.631-4.456 1.894-5.789 1.262-1.333 3.072-1.999 5.429-1.999s4.16.672 5.408 2.015c1.249 1.343 1.873 3.274 1.873 5.794zm-11.194 0c0 1.696.325 2.973.975 3.832.65.858 1.623 1.287 2.917 1.287 2.595 0 3.892-1.706 3.892-5.12 0-3.419-1.29-5.129-3.871-5.129-1.294 0-2.27.431-2.927 1.293-.657.862-.986 2.14-.986 3.837zm23.332 7.611l-1.112-3.613h-5.592l-1.112 3.613h-3.504l5.414-15.243h3.976l5.434 15.243h-3.504zm-1.888-6.313a1060.775 1060.775 0 0 1-1.736-5.556c-.13-.429-.222-.768-.278-1.017-.231.886-.892 3.077-1.983 6.573h3.997zm20.049-1.423c0 2.5-.719 4.413-2.156 5.743-1.438 1.329-3.513 1.993-6.227 1.993h-4.343V19.412h4.815c2.504 0 4.449.654 5.833 1.962 1.385 1.309 2.078 3.136 2.078 5.483zm-3.378.083c0-3.26-1.455-4.89-4.365-4.89h-1.73v9.885h1.394c3.134 0 4.7-1.665 4.7-4.995zm12.138-7.528h4.774c2.175 0 3.754.306 4.736.919.983.613 1.474 1.587 1.474 2.923 0 .907-.215 1.651-.645 2.233a2.581 2.581 0 0 1-1.715 1.048v.104c.972.215 1.673.616 2.103 1.205.43.588.646 1.37.646 2.347 0 1.384-.506 2.464-1.516 3.24-1.011.775-2.384 1.162-4.118 1.162h-5.739V19.412zm3.252 6.012h1.889c.881 0 1.52-.135 1.914-.405.396-.27.593-.716.593-1.34 0-.58-.215-.998-.645-1.25-.43-.253-1.11-.38-2.04-.38h-1.71v3.375zm0 2.555v3.956h2.12c.895 0 1.556-.17 1.982-.509.427-.339.64-.858.64-1.557 0-1.26-.909-1.89-2.727-1.89h-2.015zm20.144 6.614l-1.113-3.613h-5.591l-1.112 3.613h-3.505l5.414-15.243h3.976l5.435 15.243H377.1zm-1.889-6.313a1060.775 1060.775 0 0 1-1.736-5.556c-.13-.429-.222-.768-.278-1.017-.231.886-.892 3.077-1.983 6.573h3.997zm7.323 6.313V19.412h3.252v12.523h6.222v2.658h-9.474zm21.528 0l-1.112-3.613h-5.592l-1.112 3.613h-3.504l5.413-15.243h3.977l5.434 15.243h-3.504zm-1.888-6.313a1060.833 1060.833 0 0 1-1.737-5.556c-.13-.429-.222-.768-.278-1.017-.23.886-.891 3.077-1.983 6.573h3.998zm20.93 6.313h-4.134l-6.672-11.484h-.095c.133 2.028.2 3.475.2 4.34v7.144h-2.906V19.412h4.102l6.662 11.37h.073c-.105-1.973-.157-3.367-.157-4.184v-7.186h2.927v15.181zm10.376-12.72c-1.224 0-2.172.455-2.844 1.365-.671.91-1.007 2.18-1.007 3.806 0 3.385 1.284 5.078 3.85 5.078 1.078 0 2.382-.267 3.914-.8v2.7c-1.26.52-2.665.779-4.218.779-2.23 0-3.937-.67-5.12-2.01-1.181-1.339-1.772-3.262-1.772-5.768 0-1.578.29-2.96.87-4.148.58-1.187 1.415-2.098 2.503-2.731 1.087-.633 2.362-.95 3.824-.95 1.49 0 2.986.356 4.49 1.07l-1.05 2.616c-.573-.27-1.15-.505-1.73-.706-.58-.2-1.15-.301-1.71-.301zm16.01 12.72h-8.834V19.412h8.833v2.637h-5.581v3.334h5.193v2.637h-5.193v3.915h5.581v2.658zm6.451-8.442h1.05c1.028 0 1.787-.17 2.276-.509.49-.339.735-.872.735-1.599 0-.72-.25-1.232-.75-1.537-.5-.304-1.275-.457-2.324-.457h-.987v4.102zm0 2.617v5.825h-3.252V19.412h4.47c2.084 0 3.626.375 4.626 1.127 1 .75 1.5 1.891 1.5 3.421 0 .893-.248 1.688-.745 2.383-.496.696-1.2 1.241-2.108 1.636 2.308 3.413 3.811 5.617 4.51 6.614h-3.608l-3.662-5.825h-1.73z"/>
        <path stroke="#2E4550" stroke-linecap="square" stroke-width="4" d="M49.574 96.09v96.832V96.09zm-1.968 0H412.34 47.606zm244.589 0v96.832V96.09zm121.31 0v96.832V96.09zM350.517 55.403v38.948"/>
        <path stroke="#2E4550" stroke-dasharray="6" stroke-linecap="square" stroke-width="3" d="M534.815 102.069l-.583 94.512M653.793 100.076v94.512"/>
        <path stroke="#D44242" stroke-dasharray="6" stroke-linecap="square" stroke-width="3" d="M170.884 101.309v89.293"/>
        <path stroke="#2E4550" stroke-dasharray="6" stroke-linecap="square" stroke-width="3" d="M415.255 96.09H653.21"/>
        <path fill="#50A7E6" fill-opacity=".24" stroke="#50A7E6" stroke-width="4" d="M174.124 194.012l42.684 24.242a6 6 0 0 1 3.036 5.217v47.731a7 7 0 0 1-3.543 6.087l-42.177 23.954a6 6 0 0 1-5.926 0l-42.178-23.954a7 7 0 0 1-3.543-6.087v-47.149a7 7 0 0 1 3.543-6.087l42.178-23.954a6 6 0 0 1 5.926 0z"/>
        <path fill="#2E4550" d="M173.031 204.412l33.432 18.917a6 6 0 0 1 3.046 5.222v37.628a6 6 0 0 1-3.046 5.222l-33.432 18.918a6 6 0 0 1-5.91 0L133.69 271.4a6 6 0 0 1-3.045-5.222v-37.628a6 6 0 0 1 3.045-5.222l33.432-18.917a6 6 0 0 1 5.91 0z"/>
        <path stroke="#2E4550" stroke-linecap="round" stroke-width="5" d="M219.284 274.71l-45.722 25.966a6 6 0 0 1-5.926 0l-42.685-24.242a6 6 0 0 1-3.037-5.217V219.41"/>
        <text fill="#50A7E6" font-family="OpenSans-Bold, Open Sans" font-size="11" font-weight="bold" transform="translate(121.31 192.918)">
            <tspan x="28.598" y="50.156">SERVICE </tspan> <tspan x="27.126" y="65.156">replica 2</tspan>
        </text>
        <path fill="#50A7E6" fill-opacity=".24" stroke="#50A7E6" stroke-width="4" d="M52.645 194.216l42.499 24.36a6 6 0 0 1 3.016 5.205v48.062a7 7 0 0 1-3.519 6.074l-41.996 24.07a6 6 0 0 1-5.967 0L4.68 277.917a7 7 0 0 1-3.519-6.074V224.36a7 7 0 0 1 3.52-6.073l41.996-24.07a6 6 0 0 1 5.967 0z"/>
        <path fill="#2E4550" d="M51.556 204.672l33.283 19.006a6 6 0 0 1 3.025 5.21v37.9a6 6 0 0 1-3.025 5.21l-33.283 19.006a6 6 0 0 1-5.95 0l-33.283-19.006a6 6 0 0 1-3.025-5.21v-37.9a6 6 0 0 1 3.025-5.21l33.282-19.006a6 6 0 0 1 5.951 0z"/>
        <path stroke="#2E4550" stroke-linecap="round" stroke-width="5" d="M97.602 275.329l-45.517 26.088a6 6 0 0 1-5.967 0l-42.5-24.36a6 6 0 0 1-3.016-5.205v-52.119"/>
        <path fill="#50A7E6" fill-rule="nonzero" d="M33.926 241.244c0 .706-.256 1.263-.77 1.67-.513.406-1.228.61-2.143.61-.844 0-1.59-.158-2.238-.472v-1.54c.533.235.984.4 1.354.497.37.096.707.144 1.013.144.368 0 .65-.07.846-.208.197-.14.295-.346.295-.621a.68.68 0 0 0-.13-.41 1.446 1.446 0 0 0-.38-.345c-.168-.11-.51-.287-1.025-.53-.483-.224-.845-.44-1.087-.647a2.435 2.435 0 0 1-.578-.723 2.045 2.045 0 0 1-.216-.963c0-.692.236-1.236.71-1.632.474-.396 1.13-.594 1.965-.594.411 0 .803.048 1.176.144.373.097.763.232 1.17.407l-.54 1.29a7.964 7.964 0 0 0-1.046-.359 3.4 3.4 0 0 0-.814-.102c-.317 0-.56.074-.73.22a.72.72 0 0 0-.253.573c0 .146.034.273.102.382.069.109.178.214.327.316.15.102.504.284 1.063.548.738.35 1.245.7 1.519 1.052.273.352.41.782.41 1.293zm5.985 2.172h-4.552v-7.824h4.552v1.36h-2.876v1.717h2.676v1.36h-2.676v2.017h2.876v1.37zm3.324-4.35h.54c.53 0 .922-.088 1.174-.263.252-.175.378-.45.378-.824 0-.371-.128-.635-.386-.792-.258-.157-.657-.236-1.198-.236h-.508v2.114zm0 1.348v3.002H41.56v-7.824h2.302c1.074 0 1.87.194 2.384.58.516.388.773.976.773 1.764 0 .46-.127.87-.383 1.228-.256.359-.618.64-1.087.843a315.824 315.824 0 0 0 2.325 3.41h-1.86l-1.887-3.003h-.892zm10.142-4.822h1.692l-2.687 7.824h-1.827l-2.681-7.824h1.692l1.486 4.656c.083.275.169.595.257.96.088.366.143.62.165.763.04-.328.175-.902.405-1.723l1.498-4.656zm2.686 7.824v-7.824h1.676v7.824h-1.676zm7.023-6.556c-.631 0-1.12.235-1.465.704-.346.47-.52 1.123-.52 1.962 0 1.744.662 2.617 1.985 2.617.555 0 1.227-.138 2.016-.412v1.391c-.649.268-1.373.401-2.173.401-1.15 0-2.029-.345-2.638-1.035-.61-.69-.914-1.681-.914-2.973 0-.814.15-1.526.449-2.138.3-.612.729-1.081 1.29-1.408.56-.326 1.217-.49 1.97-.49.767 0 1.539.184 2.313.552l-.54 1.349a9 9 0 0 0-.892-.364 2.685 2.685 0 0 0-.881-.156zm8.25 6.556h-4.553v-7.824h4.552v1.36H68.46v1.717h2.676v1.36H68.46v2.017h2.876v1.37zm-40.313 8.85c.224 0 .41.017.557.049l-.124 1.53a1.907 1.907 0 0 0-.487-.053c-.526 0-.936.134-1.23.401-.293.268-.44.643-.44 1.124v3.045H27.65v-5.983H28.9l.243 1.006h.081c.188-.335.44-.605.76-.81a1.886 1.886 0 0 1 1.04-.308zm3.936 1.162c-.35 0-.624.11-.822.33-.198.219-.311.53-.34.933h2.313c-.007-.403-.113-.714-.319-.934-.205-.22-.482-.329-.832-.329zm.232 5.041c-.973 0-1.733-.265-2.28-.797-.549-.532-.823-1.284-.823-2.258 0-1.003.254-1.778.76-2.326.506-.547 1.206-.821 2.1-.821.854 0 1.52.24 1.995.722.476.482.713 1.147.713 1.996v.792H33.76c.018.464.157.826.416 1.087.26.26.624.39 1.092.39.364 0 .708-.037 1.033-.112a5.201 5.201 0 0 0 1.016-.358v1.263a3.898 3.898 0 0 1-.924.318c-.328.07-.728.104-1.2.104zm7.125 0c-.71 0-1.266-.255-1.67-.765h-.087c.058.5.087.789.087.867v2.424h-1.649v-8.616h1.34l.233.776h.076c.386-.592.957-.888 1.714-.888.713 0 1.272.273 1.675.819.404.545.606 1.304.606 2.274 0 .639-.095 1.193-.284 1.664-.19.471-.459.83-.808 1.076-.35.246-.76.37-1.233.37zm-.486-4.896c-.407 0-.705.124-.892.371-.188.248-.285.658-.292 1.229v.176c0 .643.096 1.103.29 1.381.192.278.497.418.915.418.74 0 1.109-.603 1.109-1.81 0-.588-.091-1.03-.273-1.324-.182-.294-.468-.441-.857-.441zm5.822 4.79h-1.649v-8.328h1.649v8.327zm1.66-7.53c0-.532.299-.798.897-.798.598 0 .897.266.897.797 0 .254-.074.45-.224.592-.15.14-.374.211-.673.211-.598 0-.897-.267-.897-.803zm1.719 7.53h-1.65v-5.984h1.65v5.983zm4.184.106c-1.881 0-2.822-1.022-2.822-3.066 0-1.017.256-1.794.768-2.33.511-.538 1.245-.806 2.2-.806.699 0 1.326.135 1.881.406l-.487 1.263c-.259-.103-.5-.188-.724-.254a2.356 2.356 0 0 0-.67-.099c-.858 0-1.287.603-1.287 1.81 0 1.17.429 1.755 1.287 1.755.317 0 .61-.042.88-.126.271-.084.541-.215.812-.394v1.397a2.671 2.671 0 0 1-.808.348 4.59 4.59 0 0 1-1.03.096zm7.076-.107l-.319-.813h-.043c-.278.346-.563.586-.857.72-.294.133-.677.2-1.149.2-.58 0-1.037-.164-1.37-.492-.333-.328-.5-.796-.5-1.402 0-.635.224-1.103.673-1.405.449-.301 1.125-.468 2.03-.5l1.049-.032v-.263c0-.606-.314-.91-.941-.91-.483 0-1.05.145-1.703.434l-.546-1.102c.696-.36 1.467-.541 2.314-.541.81 0 1.432.175 1.865.524.432.35.649.882.649 1.595v3.987H62.29zm-.486-2.772l-.638.022c-.48.014-.836.1-1.07.256-.235.157-.352.396-.352.718 0 .46.267.69.8.69.382 0 .687-.109.916-.327.23-.217.344-.506.344-.866v-.493zm9.92 2.772h-1.671v-4.527l.016-.744.027-.814c-.277.275-.47.455-.578.54l-.908.723-.806-.995 2.546-2.007h1.373v7.824z"/>
        <g>
            <path fill="#50A7E6" fill-opacity=".24" stroke="#50A7E6" stroke-width="4" d="M295.206 194.216l42.499 24.36a6 6 0 0 1 3.016 5.205v48.062a7 7 0 0 1-3.52 6.074l-41.995 24.07a6 6 0 0 1-5.968 0l-41.996-24.07a7 7 0 0 1-3.52-6.074V224.36a7 7 0 0 1 3.52-6.073l41.996-24.07a6 6 0 0 1 5.968 0z"/>
            <path fill="#2E4550" d="M294.117 204.672l33.283 19.006a6 6 0 0 1 3.024 5.21v37.9a6 6 0 0 1-3.024 5.21l-33.283 19.006a6 6 0 0 1-5.95 0l-33.284-19.006a6 6 0 0 1-3.024-5.21v-37.9a6 6 0 0 1 3.024-5.21l33.283-19.006a6 6 0 0 1 5.95 0z"/>
            <path stroke="#2E4550" stroke-linecap="round" stroke-width="5" d="M340.163 275.329l-45.517 26.088a6 6 0 0 1-5.967 0l-42.5-24.36a6 6 0 0 1-3.017-5.205v-52.119"/>
            <path fill="#50A7E6" fill-rule="nonzero" d="M276.487 241.244c0 .706-.257 1.263-.77 1.67-.514.406-1.228.61-2.144.61-.843 0-1.589-.158-2.238-.472v-1.54c.534.235.985.4 1.355.497.369.096.707.144 1.013.144.368 0 .65-.07.846-.208.197-.14.295-.346.295-.621a.68.68 0 0 0-.13-.41 1.446 1.446 0 0 0-.381-.345c-.168-.11-.51-.287-1.025-.53-.482-.224-.845-.44-1.086-.647a2.435 2.435 0 0 1-.579-.723 2.045 2.045 0 0 1-.216-.963c0-.692.237-1.236.711-1.632.474-.396 1.129-.594 1.965-.594.411 0 .803.048 1.176.144.373.097.763.232 1.17.407l-.54 1.29a7.964 7.964 0 0 0-1.046-.359 3.4 3.4 0 0 0-.814-.102c-.317 0-.56.074-.73.22a.72.72 0 0 0-.254.573c0 .146.034.273.103.382.068.109.177.214.327.316.15.102.504.284 1.062.548.739.35 1.245.7 1.52 1.052.273.352.41.782.41 1.293zm5.984 2.172h-4.551v-7.824h4.551v1.36h-2.875v1.717h2.675v1.36h-2.675v2.017h2.875v1.37zm3.325-4.35h.54c.53 0 .921-.088 1.174-.263.252-.175.378-.45.378-.824 0-.371-.129-.635-.386-.792-.258-.157-.657-.236-1.198-.236h-.508v2.114zm0 1.348v3.002h-1.676v-7.824h2.303c1.074 0 1.869.194 2.384.58.515.388.773.976.773 1.764 0 .46-.128.87-.384 1.228-.256.359-.618.64-1.086.843a315.824 315.824 0 0 0 2.324 3.41h-1.86l-1.886-3.003h-.892zm10.141-4.822h1.693l-2.687 7.824h-1.827l-2.682-7.824h1.692l1.487 4.656c.083.275.168.595.257.96.088.366.143.62.165.763.04-.328.174-.902.405-1.723l1.497-4.656zm2.687 7.824v-7.824h1.676v7.824h-1.676zm7.022-6.556c-.63 0-1.119.235-1.465.704-.346.47-.519 1.123-.519 1.962 0 1.744.662 2.617 1.984 2.617.555 0 1.228-.138 2.017-.412v1.391c-.649.268-1.373.401-2.173.401-1.15 0-2.03-.345-2.638-1.035-.61-.69-.914-1.681-.914-2.973 0-.814.15-1.526.449-2.138.299-.612.729-1.081 1.289-1.408.56-.326 1.217-.49 1.97-.49.768 0 1.54.184 2.314.552l-.54 1.349a9 9 0 0 0-.892-.364 2.685 2.685 0 0 0-.882-.156zm8.25 6.556h-4.552v-7.824h4.552v1.36h-2.876v1.717h2.676v1.36h-2.676v2.017h2.876v1.37zm-40.312 8.85c.224 0 .41.017.557.049l-.124 1.53a1.907 1.907 0 0 0-.487-.053c-.526 0-.936.134-1.23.401-.293.268-.44.643-.44 1.124v3.045h-1.65v-5.983h1.25l.243 1.006h.081c.187-.335.44-.605.76-.81a1.886 1.886 0 0 1 1.04-.308zm3.936 1.162c-.35 0-.624.11-.822.33-.198.219-.312.53-.34.933h2.313c-.007-.403-.113-.714-.319-.934-.205-.22-.483-.329-.832-.329zm.232 5.041c-.973 0-1.733-.265-2.281-.797s-.822-1.284-.822-2.258c0-1.003.253-1.778.76-2.326.506-.547 1.206-.821 2.1-.821.854 0 1.519.24 1.995.722.475.482.713 1.147.713 1.996v.792h-3.897c.018.464.156.826.416 1.087.26.26.623.39 1.092.39.364 0 .708-.037 1.032-.112a5.201 5.201 0 0 0 1.017-.358v1.263a3.898 3.898 0 0 1-.925.318c-.328.07-.728.104-1.2.104zm7.125 0c-.71 0-1.267-.255-1.67-.765h-.087c.058.5.087.789.087.867v2.424h-1.65v-8.616h1.342l.232.776h.076c.385-.592.956-.888 1.713-.888.714 0 1.272.273 1.676.819.404.545.606 1.304.606 2.274 0 .639-.095 1.193-.284 1.664-.19.471-.459.83-.808 1.076-.35.246-.76.37-1.233.37zm-.486-4.896c-.408 0-.705.124-.892.371-.188.248-.285.658-.292 1.229v.176c0 .643.096 1.103.289 1.381.193.278.498.418.916.418.739 0 1.108-.603 1.108-1.81 0-.588-.09-1.03-.273-1.324-.182-.294-.467-.441-.856-.441zm5.822 4.79h-1.65v-8.328h1.65v8.327zm1.66-7.53c0-.532.298-.798.897-.798.598 0 .897.266.897.797 0 .254-.075.45-.224.592-.15.14-.374.211-.673.211-.599 0-.898-.267-.898-.803zm1.718 7.53h-1.648v-5.984h1.648v5.983zm4.184.106c-1.88 0-2.821-1.022-2.821-3.066 0-1.017.255-1.794.767-2.33.512-.538 1.245-.806 2.2-.806.7 0 1.327.135 1.882.406l-.487 1.263c-.26-.103-.5-.188-.724-.254a2.356 2.356 0 0 0-.67-.099c-.858 0-1.287.603-1.287 1.81 0 1.17.429 1.755 1.286 1.755.318 0 .611-.042.882-.126.27-.084.54-.215.81-.394v1.397a2.671 2.671 0 0 1-.808.348 4.59 4.59 0 0 1-1.03.096zm7.077-.107l-.32-.813h-.042c-.278.346-.564.586-.857.72-.294.133-.677.2-1.149.2-.58 0-1.037-.164-1.37-.492-.334-.328-.5-.796-.5-1.402 0-.635.224-1.103.673-1.405.448-.301 1.125-.468 2.03-.5l1.048-.032v-.263c0-.606-.313-.91-.94-.91-.483 0-1.05.145-1.703.434l-.546-1.102c.695-.36 1.467-.541 2.313-.541.811 0 1.433.175 1.866.524.432.35.648.882.648 1.595v3.987h-1.151zm-.487-2.772l-.638.022c-.479.014-.836.1-1.07.256-.234.157-.351.396-.351.718 0 .46.266.69.8.69.382 0 .687-.109.916-.327.229-.217.343-.506.343-.866v-.493zm11.007-3.302c0 .489-.15.905-.45 1.247-.298.343-.718.578-1.259.707v.032c.638.078 1.121.27 1.45.575.327.305.491.716.491 1.234 0 .752-.276 1.338-.827 1.758-.551.419-1.339.628-2.362.628-.858 0-1.619-.14-2.282-.422v-1.408c.307.154.644.278 1.011.375.368.096.732.144 1.092.144.552 0 .959-.093 1.222-.278.263-.186.395-.484.395-.894 0-.367-.152-.628-.455-.781-.302-.154-.785-.23-1.448-.23h-.6v-1.269h.61c.613 0 1.06-.08 1.344-.238.283-.159.424-.43.424-.816 0-.592-.375-.888-1.124-.888-.26 0-.524.042-.792.128a3.884 3.884 0 0 0-.895.444l-.773-1.14c.72-.513 1.58-.77 2.579-.77.818 0 1.464.164 1.938.492.474.328.71.785.71 1.37z"/>
        </g>
        <g>
            <path fill="#50A7E6" fill-opacity=".24" stroke="#50A7E6" stroke-width="4" d="M416.99 194.216l42.498 24.36a6 6 0 0 1 3.017 5.205v48.062a7 7 0 0 1-3.52 6.074l-41.996 24.07a6 6 0 0 1-5.967 0l-41.996-24.07a7 7 0 0 1-3.52-6.074V224.36a7 7 0 0 1 3.52-6.073l41.996-24.07a6 6 0 0 1 5.967 0z"/>
            <path fill="#2E4550" d="M415.9 204.672l33.283 19.006a6 6 0 0 1 3.025 5.21v37.9a6 6 0 0 1-3.025 5.21L415.9 291.004a6 6 0 0 1-5.95 0l-33.283-19.006a6 6 0 0 1-3.025-5.21v-37.9a6 6 0 0 1 3.025-5.21l33.283-19.006a6 6 0 0 1 5.95 0z"/>
            <path stroke="#2E4550" stroke-linecap="round" stroke-width="5" d="M461.946 275.329l-45.516 26.088a6 6 0 0 1-5.967 0l-42.5-24.36a6 6 0 0 1-3.017-5.205v-52.119"/>
            <path fill="#50A7E6" fill-rule="nonzero" d="M398.27 241.244c0 .706-.256 1.263-.77 1.67-.513.406-1.228.61-2.143.61-.843 0-1.59-.158-2.238-.472v-1.54c.533.235.985.4 1.354.497.37.096.707.144 1.014.144.367 0 .65-.07.846-.208.196-.14.294-.346.294-.621a.68.68 0 0 0-.13-.41 1.446 1.446 0 0 0-.38-.345c-.168-.11-.51-.287-1.025-.53-.483-.224-.845-.44-1.087-.647a2.435 2.435 0 0 1-.578-.723 2.045 2.045 0 0 1-.216-.963c0-.692.237-1.236.71-1.632.475-.396 1.13-.594 1.966-.594.41 0 .803.048 1.176.144.373.097.763.232 1.17.407l-.54 1.29a7.964 7.964 0 0 0-1.047-.359 3.4 3.4 0 0 0-.813-.102c-.317 0-.56.074-.73.22a.72.72 0 0 0-.254.573c0 .146.034.273.103.382.068.109.177.214.327.316.15.102.503.284 1.062.548.739.35 1.245.7 1.519 1.052.274.352.41.782.41 1.293zm5.985 2.172h-4.552v-7.824h4.552v1.36h-2.876v1.717h2.676v1.36h-2.676v2.017h2.876v1.37zm3.325-4.35h.54c.53 0 .921-.088 1.173-.263.253-.175.379-.45.379-.824 0-.371-.13-.635-.387-.792-.257-.157-.657-.236-1.197-.236h-.508v2.114zm0 1.348v3.002h-1.676v-7.824h2.303c1.074 0 1.868.194 2.384.58.515.388.773.976.773 1.764 0 .46-.128.87-.384 1.228-.256.359-.618.64-1.087.843a315.824 315.824 0 0 0 2.325 3.41h-1.86l-1.886-3.003h-.892zm10.141-4.822h1.692l-2.687 7.824H414.9l-2.681-7.824h1.692l1.487 4.656c.082.275.168.595.256.96.089.366.144.62.165.763.04-.328.175-.902.406-1.723l1.497-4.656zm2.687 7.824v-7.824h1.676v7.824h-1.676zm7.022-6.556c-.63 0-1.119.235-1.465.704-.346.47-.519 1.123-.519 1.962 0 1.744.661 2.617 1.984 2.617.555 0 1.227-.138 2.016-.412v1.391c-.648.268-1.373.401-2.173.401-1.15 0-2.029-.345-2.638-1.035s-.913-1.681-.913-2.973c0-.814.15-1.526.448-2.138.3-.612.73-1.081 1.29-1.408.56-.326 1.217-.49 1.97-.49.768 0 1.539.184 2.314.552l-.54 1.349a9 9 0 0 0-.893-.364 2.685 2.685 0 0 0-.881-.156zm8.25 6.556h-4.552v-7.824h4.551v1.36h-2.876v1.717h2.676v1.36h-2.676v2.017h2.876v1.37zm-40.312 8.85c.223 0 .409.017.557.049l-.125 1.53a1.907 1.907 0 0 0-.486-.053c-.526 0-.936.134-1.23.401-.294.268-.44.643-.44 1.124v3.045h-1.65v-5.983h1.25l.243 1.006h.08c.188-.335.441-.605.76-.81a1.886 1.886 0 0 1 1.04-.308zm3.935 1.162c-.35 0-.623.11-.821.33-.199.219-.312.53-.341.933h2.314c-.008-.403-.114-.714-.32-.934-.205-.22-.482-.329-.832-.329zm.233 5.041c-.973 0-1.734-.265-2.282-.797-.547-.532-.821-1.284-.821-2.258 0-1.003.253-1.778.76-2.326.506-.547 1.206-.821 2.1-.821.854 0 1.518.24 1.994.722s.714 1.147.714 1.996v.792h-3.898c.018.464.157.826.416 1.087.26.26.624.39 1.092.39.364 0 .709-.037 1.033-.112a5.201 5.201 0 0 0 1.016-.358v1.263a3.898 3.898 0 0 1-.924.318c-.328.07-.728.104-1.2.104zm7.125 0c-.71 0-1.267-.255-1.67-.765h-.087c.057.5.086.789.086.867v2.424h-1.649v-8.616h1.341l.233.776h.075c.386-.592.957-.888 1.714-.888.713 0 1.272.273 1.676.819.403.545.605 1.304.605 2.274 0 .639-.094 1.193-.284 1.664-.189.471-.458.83-.808 1.076-.35.246-.76.37-1.232.37zm-.487-4.896c-.407 0-.704.124-.892.371-.187.248-.285.658-.292 1.229v.176c0 .643.097 1.103.29 1.381.192.278.498.418.916.418.739 0 1.108-.603 1.108-1.81 0-.588-.091-1.03-.273-1.324-.182-.294-.468-.441-.857-.441zm5.822 4.79h-1.649v-8.328h1.65v8.327zm1.66-7.53c0-.532.299-.798.897-.798.598 0 .898.266.898.797 0 .254-.075.45-.225.592-.15.14-.374.211-.673.211-.598 0-.897-.267-.897-.803zm1.719 7.53h-1.649v-5.984h1.649v5.983zm4.184.106c-1.881 0-2.822-1.022-2.822-3.066 0-1.017.256-1.794.768-2.33.512-.538 1.245-.806 2.2-.806.7 0 1.326.135 1.881.406l-.486 1.263c-.26-.103-.501-.188-.725-.254a2.356 2.356 0 0 0-.67-.099c-.858 0-1.287.603-1.287 1.81 0 1.17.43 1.755 1.287 1.755.317 0 .61-.042.881-.126.27-.084.54-.215.811-.394v1.397a2.671 2.671 0 0 1-.808.348 4.59 4.59 0 0 1-1.03.096zm7.076-.107l-.319-.813h-.043c-.277.346-.563.586-.857.72-.293.133-.676.2-1.148.2-.58 0-1.037-.164-1.37-.492-.334-.328-.5-.796-.5-1.402 0-.635.223-1.103.672-1.405.449-.301 1.126-.468 2.03-.5l1.049-.032v-.263c0-.606-.314-.91-.94-.91-.484 0-1.051.145-1.704.434l-.546-1.102c.696-.36 1.467-.541 2.314-.541.811 0 1.433.175 1.865.524.433.35.649.882.649 1.595v3.987h-1.152zm-.486-2.772l-.638.022c-.48.014-.836.1-1.07.256-.235.157-.352.396-.352.718 0 .46.267.69.8.69.382 0 .688-.109.917-.327.228-.217.343-.506.343-.866v-.493zm11.493 1.15h-.952v1.622h-1.632v-1.621h-3.374v-1.15l3.466-5.053h1.54v4.918h.952v1.285zm-2.584-1.284v-1.327c0-.221.009-.542.027-.963.018-.421.032-.666.043-.733h-.043a5.951 5.951 0 0 1-.481.856l-1.45 2.167h1.904z"/>
        </g>
        <g>
            <path fill="#50A7E6" fill-opacity=".24" stroke="#50A7E6" stroke-dasharray="3" stroke-width="2" d="M537.206 193.646l42.499 24.359a6 6 0 0 1 3.016 5.205v52.119l-48.499 27.798-48.499-27.798v-55.596l45.515-26.087a6 6 0 0 1 5.968 0z"/>
            <path fill="#2E4550" stroke="#555854" stroke-width="1.5" d="M536.678 204.672l33.282 19.006a6 6 0 0 1 3.025 5.21v37.9a6 6 0 0 1-3.025 5.21l-33.282 19.006a6 6 0 0 1-5.951 0l-33.283-19.006a6 6 0 0 1-3.025-5.21v-37.9a6 6 0 0 1 3.025-5.21l33.283-19.006a6 6 0 0 1 5.95 0z"/>
            <path fill="#50A7E6" fill-rule="nonzero" d="M515.709 237.1a.408.408 0 0 1-.141.17.358.358 0 0 1-.191.049.489.489 0 0 1-.25-.085 8.477 8.477 0 0 0-.326-.19 2.68 2.68 0 0 0-.44-.188 1.867 1.867 0 0 0-.595-.085c-.207 0-.387.024-.54.074-.153.049-.282.117-.387.205a.822.822 0 0 0-.235.315 1.025 1.025 0 0 0-.078.403c0 .186.053.342.158.466.105.124.244.23.418.318.173.087.37.166.592.235.221.07.447.144.678.222.23.079.457.17.678.274.222.104.42.236.593.395.173.159.312.353.418.583.105.23.157.51.157.839 0 .358-.062.693-.185 1.006a2.318 2.318 0 0 1-.543.816 2.559 2.559 0 0 1-.872.548c-.343.133-.736.2-1.179.2a3.993 3.993 0 0 1-1.464-.285c-.227-.091-.439-.2-.636-.329a3.126 3.126 0 0 1-.529-.427l.432-.707a.55.55 0 0 1 .146-.129.361.361 0 0 1 .191-.052c.093 0 .192.038.3.112.106.075.233.158.379.25.145.091.317.174.514.25.198.074.435.111.712.111.424 0 .753-.1.985-.298.233-.2.349-.485.349-.858a.79.79 0 0 0-.158-.51 1.271 1.271 0 0 0-.418-.331 3.14 3.14 0 0 0-.592-.227c-.222-.063-.447-.13-.676-.203a5.859 5.859 0 0 1-.675-.263 2.189 2.189 0 0 1-.592-.4 1.82 1.82 0 0 1-.418-.617c-.105-.246-.158-.55-.158-.912a2.16 2.16 0 0 1 .684-1.573c.223-.212.497-.382.822-.51a3.02 3.02 0 0 1 1.112-.192c.473 0 .908.073 1.307.22.398.146.738.35 1.018.613l-.365.696zm6.698-1.442v1.173h-3.548v2.197h2.795v1.135h-2.795v2.241h3.548v1.178h-5.048v-7.924h5.048zm2.829 4.828v3.096h-1.49v-7.924h2.442c.546 0 1.014.056 1.403.167.39.112.709.268.958.469.249.2.432.44.548.72.116.28.174.588.174.924 0 .267-.04.519-.119.756a2.181 2.181 0 0 1-.897 1.156c-.22.147-.47.263-.75.351.189.106.351.258.488.455l2.003 2.926h-1.34a.66.66 0 0 1-.329-.076.67.67 0 0 1-.23-.22l-1.682-2.537a.588.588 0 0 0-.208-.203.734.734 0 0 0-.335-.06h-.636zm0-1.058h.93c.28 0 .525-.034.733-.104.209-.07.38-.165.515-.287.135-.123.235-.268.302-.436.066-.168.1-.353.1-.554 0-.401-.134-.71-.402-.926-.267-.215-.676-.323-1.226-.323h-.952v2.63zm4.926-3.77h1.202c.129 0 .234.031.315.093a.57.57 0 0 1 .183.241l1.882 4.834c.063.157.123.33.18.518.057.188.112.386.163.594.085-.42.19-.79.316-1.112l1.876-4.834a.572.572 0 0 1 .177-.23.482.482 0 0 1 .316-.104h1.201l-3.233 7.924h-1.345l-3.233-7.924zm10.324 7.924h-1.494v-7.924h1.494v7.924zm7.302-1.868a.28.28 0 0 1 .21.093l.587.63a3.219 3.219 0 0 1-1.198.915c-.475.212-1.044.318-1.708.318-.594 0-1.129-.1-1.603-.301-.474-.201-.879-.48-1.215-.839a3.664 3.664 0 0 1-.772-1.282 4.77 4.77 0 0 1-.268-1.628c0-.595.1-1.14.298-1.636.2-.495.48-.921.842-1.28a3.812 3.812 0 0 1 1.298-.835c.504-.199 1.06-.299 1.669-.299.594 0 1.114.094 1.558.283.445.188.826.437 1.143.748l-.498.685a.45.45 0 0 1-.113.115.324.324 0 0 1-.191.05.438.438 0 0 1-.26-.1 2.768 2.768 0 0 0-.855-.427 2.689 2.689 0 0 0-.795-.099c-.377 0-.723.065-1.038.195-.316.13-.587.315-.814.556a2.554 2.554 0 0 0-.531.88 3.348 3.348 0 0 0-.191 1.164c0 .446.063.842.19 1.19.128.347.3.639.518.876.218.238.475.42.77.546a2.4 2.4 0 0 0 .952.189c.203 0 .387-.011.55-.033.165-.022.316-.057.455-.104.138-.048.27-.11.393-.184.123-.075.246-.167.368-.277a.525.525 0 0 1 .116-.08c.04-.02.085-.03.133-.03zm6.97-6.056v1.173h-3.55v2.197h2.796v1.135h-2.795v2.241h3.548v1.178h-5.048v-7.924h5.048zm-42.27 20.878v-5.623h.802c.14 0 .238.026.293.077.056.05.093.139.111.263l.083.68a2.68 2.68 0 0 1 .714-.823c.273-.2.58-.301.92-.301.28 0 .512.064.697.192l-.178 1.013c-.01.066-.035.113-.072.14a.245.245 0 0 1-.149.041.94.94 0 0 1-.227-.038 1.534 1.534 0 0 0-.382-.038c-.284 0-.528.077-.73.232-.204.156-.375.383-.515.683v3.502h-1.368zm6.869-5.71c.358 0 .687.056.988.17.3.112.56.278.778.495.218.217.387.484.51.8a2.994 2.994 0 0 1 .168 1.337.405.405 0 0 1-.05.16.201.201 0 0 1-.097.082.417.417 0 0 1-.155.024h-3.51c.041.577.198 1.001.471 1.272.273.27.635.405 1.085.405.222 0 .413-.025.573-.077.16-.05.3-.107.42-.17a9.81 9.81 0 0 0 .316-.17.533.533 0 0 1 .263-.076c.056 0 .104.01.144.033.04.022.076.053.105.093l.399.493a2.272 2.272 0 0 1-.51.441 2.868 2.868 0 0 1-.589.285 3.25 3.25 0 0 1-.625.151c-.213.03-.418.044-.618.044-.394 0-.762-.065-1.101-.195a2.468 2.468 0 0 1-.886-.575 2.696 2.696 0 0 1-.592-.943c-.144-.374-.216-.808-.216-1.301 0-.384.063-.745.188-1.083.126-.338.306-.632.54-.882.234-.25.52-.448.858-.595.338-.146.719-.219 1.143-.219zm.028.97c-.399 0-.71.11-.936.334-.225.222-.369.538-.432.948h2.569c0-.176-.024-.341-.072-.496a1.14 1.14 0 0 0-.222-.409c-.1-.117-.225-.209-.376-.276a1.293 1.293 0 0 0-.531-.102zm3.542 6.575v-7.458h.836c.089 0 .165.02.227.06.063.04.104.103.122.187l.11.52c.23-.26.493-.47.79-.63a2.16 2.16 0 0 1 1.043-.241c.31 0 .593.064.85.192.256.128.478.313.664.556.186.243.33.542.432.899.101.356.152.764.152 1.224 0 .42-.057.81-.172 1.168a2.847 2.847 0 0 1-.49.931 2.26 2.26 0 0 1-.769.617c-.3.148-.637.222-1.01.222a2.05 2.05 0 0 1-.817-.145 2 2 0 0 1-.6-.403v2.301h-1.368zm2.658-6.494c-.285 0-.527.06-.728.179a2.098 2.098 0 0 0-.562.501v2.52a1.3 1.3 0 0 0 .506.398c.183.075.38.113.59.113.206 0 .394-.039.562-.116.168-.076.31-.193.426-.35.116-.157.206-.356.268-.595.063-.24.094-.521.094-.847 0-.328-.026-.607-.08-.835a1.606 1.606 0 0 0-.23-.557.905.905 0 0 0-.362-.312 1.14 1.14 0 0 0-.484-.099zm5.06-3.485v8.144h-1.368v-8.144h1.367zm3 2.52v5.624h-1.368v-5.623h1.367zm.204-1.638a.765.765 0 0 1-.072.33.904.904 0 0 1-.813.52.832.832 0 0 1-.335-.069.888.888 0 0 1-.46-.452.842.842 0 0 1 0-.669.87.87 0 0 1 1.138-.457.884.884 0 0 1 .47.458c.048.106.072.219.072.34zm5.331 2.828a.678.678 0 0 1-.119.12.277.277 0 0 1-.169.045.379.379 0 0 1-.205-.063 6.603 6.603 0 0 0-.238-.143 1.528 1.528 0 0 0-.803-.206c-.24 0-.45.043-.63.13-.181.085-.332.208-.452.37-.12.16-.209.355-.268.583a3.104 3.104 0 0 0-.089.775c0 .3.033.567.097.8.065.234.158.43.28.59.122.158.27.279.443.361.173.082.369.124.586.124.218 0 .394-.027.53-.08.134-.053.247-.111.34-.175.092-.064.172-.123.24-.176a.365.365 0 0 1 .23-.08c.11 0 .194.043.25.127l.392.493a2.463 2.463 0 0 1-.492.441 2.673 2.673 0 0 1-1.14.436c-.204.03-.405.044-.604.044-.35 0-.681-.065-.991-.195-.31-.13-.58-.318-.811-.567a2.728 2.728 0 0 1-.548-.912 3.493 3.493 0 0 1-.202-1.23c0-.414.06-.796.18-1.149.12-.352.296-.657.528-.915.233-.258.52-.46.864-.606.343-.146.738-.219 1.185-.219.424 0 .796.068 1.115.203.32.135.606.329.86.58l-.359.494zm5.74 4.434h-.614c-.13 0-.23-.02-.304-.058-.074-.038-.13-.116-.167-.233l-.121-.4c-.144.128-.285.24-.424.337a2.578 2.578 0 0 1-.429.244 2.204 2.204 0 0 1-.47.148c-.166.033-.35.05-.554.05-.24 0-.461-.033-.664-.097a1.436 1.436 0 0 1-.523-.287 1.307 1.307 0 0 1-.34-.477 1.676 1.676 0 0 1-.122-.663c0-.212.056-.421.168-.628.113-.206.3-.392.562-.559.262-.166.611-.304 1.046-.413.436-.11.977-.172 1.622-.187v-.329c0-.376-.08-.654-.24-.835-.161-.181-.394-.272-.7-.272a1.71 1.71 0 0 0-.939.25c-.109.064-.21.121-.302.172a.617.617 0 0 1-.304.077.398.398 0 0 1-.238-.071.563.563 0 0 1-.16-.175l-.25-.433c.653-.592 1.441-.888 2.364-.888.332 0 .628.054.888.161.26.108.481.258.662.45.18.192.318.42.412.688.094.266.141.559.141.876v3.552zm-2.657-.844c.14 0 .27-.013.388-.039.118-.025.23-.064.335-.115.105-.05.206-.114.304-.189s.197-.163.296-.266v-.948a7.56 7.56 0 0 0-.999.102c-.267.049-.482.112-.645.189a.827.827 0 0 0-.346.268.59.59 0 0 0-.102.335c0 .237.07.407.213.51.142.102.328.153.556.153zm10.883-6.505c0 .193-.061.35-.185.471-.124.12-.33.18-.617.18h-2.203l-.288 1.656c.361-.073.692-.11.99-.11.421 0 .791.062 1.11.187.32.124.588.295.806.515.218.219.382.476.493.77.11.294.166.61.166.95 0 .42-.075.804-.225 1.151-.149.347-.357.644-.622.89a2.81 2.81 0 0 1-.944.574 3.38 3.38 0 0 1-1.188.202c-.25 0-.489-.025-.714-.076a3.568 3.568 0 0 1-1.633-.855l.421-.576a.414.414 0 0 1 .354-.186c.093 0 .186.03.28.088.094.058.204.122.33.191.125.07.27.134.437.192.166.059.367.088.603.088.25 0 .472-.04.664-.12.192-.081.352-.193.48-.338.126-.144.222-.316.287-.515.065-.199.097-.415.097-.65 0-.43-.127-.767-.38-1.01-.252-.243-.624-.365-1.115-.365-.387 0-.777.07-1.168.208l-.852-.24.664-3.848h3.952v.576z"/>
        </g>
        <g>
            <path fill="#50A7E6" fill-opacity=".24" stroke="#50A7E6" stroke-dasharray="3" stroke-width="2" d="M655.97 193.646l42.499 24.359a6 6 0 0 1 3.016 5.205v52.119l-48.499 27.798-48.499-27.798v-55.596l45.516-26.087a6 6 0 0 1 5.967 0z"/>
            <path fill="#2E4550" stroke="#555854" stroke-width="1.5" d="M655.442 204.672l33.283 19.006a6 6 0 0 1 3.024 5.21v37.9a6 6 0 0 1-3.024 5.21l-33.283 19.006a6 6 0 0 1-5.951 0l-33.283-19.006a6 6 0 0 1-3.025-5.21v-37.9a6 6 0 0 1 3.025-5.21l33.283-19.006a6 6 0 0 1 5.95 0z"/>
            <path fill="#50A7E6" fill-rule="nonzero" d="M634.473 237.1a.408.408 0 0 1-.141.17.358.358 0 0 1-.191.049.489.489 0 0 1-.25-.085 8.477 8.477 0 0 0-.326-.19 2.68 2.68 0 0 0-.44-.188 1.867 1.867 0 0 0-.595-.085c-.207 0-.386.024-.54.074-.153.049-.282.117-.387.205a.822.822 0 0 0-.235.315 1.025 1.025 0 0 0-.078.403c0 .186.053.342.158.466.105.124.244.23.418.318.173.087.37.166.592.235.222.07.448.144.678.222.231.079.457.17.678.274.222.104.42.236.593.395.173.159.312.353.418.583.105.23.157.51.157.839 0 .358-.061.693-.185 1.006a2.318 2.318 0 0 1-.542.816 2.559 2.559 0 0 1-.872.548c-.344.133-.737.2-1.18.2a3.993 3.993 0 0 1-1.464-.285c-.227-.091-.439-.2-.636-.329a3.126 3.126 0 0 1-.529-.427l.432-.707a.55.55 0 0 1 .147-.129.361.361 0 0 1 .19-.052c.093 0 .192.038.3.112.107.075.233.158.379.25.145.091.317.174.515.25.197.074.434.111.71.111.425 0 .754-.1.986-.298.233-.2.349-.485.349-.858a.79.79 0 0 0-.158-.51 1.271 1.271 0 0 0-.418-.331 3.14 3.14 0 0 0-.592-.227c-.222-.063-.447-.13-.675-.203a5.859 5.859 0 0 1-.676-.263 2.189 2.189 0 0 1-.592-.4 1.82 1.82 0 0 1-.418-.617c-.105-.246-.158-.55-.158-.912a2.16 2.16 0 0 1 .684-1.573c.223-.212.497-.382.822-.51a3.02 3.02 0 0 1 1.113-.192c.472 0 .907.073 1.306.22.399.146.738.35 1.019.613l-.366.696zm6.698-1.442v1.173h-3.548v2.197h2.795v1.135h-2.795v2.241h3.548v1.178h-5.048v-7.924h5.048zm2.829 4.828v3.096h-1.49v-7.924h2.442c.546 0 1.014.056 1.403.167.39.112.709.268.958.469.25.2.432.44.548.72.116.28.174.588.174.924 0 .267-.04.519-.119.756a2.181 2.181 0 0 1-.896 1.156c-.22.147-.47.263-.75.351.188.106.35.258.487.455l2.004 2.926h-1.34a.66.66 0 0 1-.33-.076.67.67 0 0 1-.23-.22l-1.682-2.537a.588.588 0 0 0-.208-.203.734.734 0 0 0-.334-.06H644zm0-1.058h.93c.28 0 .525-.034.733-.104.209-.07.38-.165.515-.287.135-.123.235-.268.302-.436.066-.168.1-.353.1-.554 0-.401-.134-.71-.402-.926-.267-.215-.676-.323-1.226-.323H644v2.63zm4.927-3.77h1.2c.13 0 .235.031.316.093a.57.57 0 0 1 .183.241l1.882 4.834c.063.157.123.33.18.518.057.188.112.386.163.594.085-.42.19-.79.316-1.112l1.877-4.834a.572.572 0 0 1 .177-.23.482.482 0 0 1 .315-.104h1.201l-3.232 7.924h-1.346l-3.232-7.924zm10.324 7.924h-1.495v-7.924h1.495v7.924zm7.301-1.868a.28.28 0 0 1 .21.093l.587.63a3.219 3.219 0 0 1-1.198.915c-.474.212-1.044.318-1.708.318-.594 0-1.128-.1-1.603-.301-.474-.201-.879-.48-1.215-.839a3.664 3.664 0 0 1-.772-1.282 4.77 4.77 0 0 1-.268-1.628c0-.595.1-1.14.299-1.636.199-.495.48-.921.841-1.28a3.812 3.812 0 0 1 1.298-.835c.504-.199 1.06-.299 1.67-.299.593 0 1.113.094 1.557.283.445.188.826.437 1.143.748l-.498.685a.45.45 0 0 1-.113.115.324.324 0 0 1-.191.05.438.438 0 0 1-.26-.1 2.768 2.768 0 0 0-.855-.427 2.689 2.689 0 0 0-.795-.099c-.376 0-.722.065-1.038.195-.315.13-.587.315-.814.556a2.554 2.554 0 0 0-.531.88 3.348 3.348 0 0 0-.191 1.164c0 .446.064.842.19 1.19.128.347.3.639.519.876.217.238.474.42.769.546a2.4 2.4 0 0 0 .952.189c.203 0 .387-.011.55-.033.165-.022.316-.057.455-.104.138-.048.27-.11.393-.184.123-.075.246-.167.368-.277a.525.525 0 0 1 .116-.08c.04-.02.085-.03.133-.03zm6.97-6.056v1.173h-3.549v2.197h2.796v1.135h-2.796v2.241h3.548v1.178h-5.048v-7.924h5.048zm-42.27 20.878v-5.623h.802c.14 0 .238.026.293.077.056.05.093.139.111.263l.083.68a2.68 2.68 0 0 1 .714-.823c.273-.2.58-.301.92-.301.28 0 .512.064.697.192l-.177 1.013c-.011.066-.035.113-.072.14a.245.245 0 0 1-.15.041.94.94 0 0 1-.227-.038 1.534 1.534 0 0 0-.382-.038c-.284 0-.527.077-.73.232-.203.156-.375.383-.515.683v3.502h-1.368zm6.87-5.71c.357 0 .686.056.987.17.301.112.56.278.778.495.218.217.387.484.51.8a2.994 2.994 0 0 1 .168 1.337.405.405 0 0 1-.05.16.201.201 0 0 1-.097.082.417.417 0 0 1-.155.024h-3.51c.041.577.198 1.001.471 1.272.273.27.635.405 1.085.405.222 0 .413-.025.573-.077.16-.05.301-.107.421-.17a9.81 9.81 0 0 0 .316-.17.533.533 0 0 1 .262-.076c.056 0 .104.01.144.033.041.022.076.053.106.093l.398.493a2.272 2.272 0 0 1-.51.441 2.868 2.868 0 0 1-.589.285 3.25 3.25 0 0 1-.625.151c-.212.03-.418.044-.617.044-.395 0-.763-.065-1.102-.195a2.468 2.468 0 0 1-.886-.575 2.696 2.696 0 0 1-.592-.943c-.144-.374-.216-.808-.216-1.301 0-.384.063-.745.188-1.083.126-.338.306-.632.54-.882.234-.25.52-.448.858-.595.338-.146.719-.219 1.143-.219zm.027.97c-.399 0-.71.11-.936.334-.225.222-.369.538-.431.948h2.568c0-.176-.024-.341-.072-.496a1.14 1.14 0 0 0-.221-.409c-.1-.117-.225-.209-.377-.276a1.293 1.293 0 0 0-.531-.102zm3.543 6.575v-7.458h.835c.09 0 .165.02.227.06.063.04.104.103.122.187l.11.52c.23-.26.493-.47.79-.63a2.16 2.16 0 0 1 1.043-.241c.31 0 .593.064.85.192.256.128.478.313.664.556.187.243.33.542.432.899.101.356.152.764.152 1.224 0 .42-.057.81-.171 1.168a2.847 2.847 0 0 1-.49.931 2.26 2.26 0 0 1-.77.617c-.3.148-.637.222-1.01.222a2.05 2.05 0 0 1-.816-.145 2 2 0 0 1-.601-.403v2.301h-1.367zm2.657-6.494c-.284 0-.527.06-.728.179a2.098 2.098 0 0 0-.562.501v2.52a1.3 1.3 0 0 0 .506.398c.183.075.38.113.59.113.207 0 .394-.039.562-.116.168-.076.31-.193.426-.35.116-.157.206-.356.269-.595.062-.24.094-.521.094-.847 0-.328-.027-.607-.08-.835a1.606 1.606 0 0 0-.23-.557.905.905 0 0 0-.363-.312 1.14 1.14 0 0 0-.484-.099zm5.06-3.485v8.144h-1.368v-8.144h1.367zm3 2.52v5.624h-1.368v-5.623h1.368zm.204-1.638a.765.765 0 0 1-.072.33.904.904 0 0 1-.813.52.832.832 0 0 1-.335-.069.888.888 0 0 1-.46-.452.842.842 0 0 1 0-.669.87.87 0 0 1 1.138-.457.884.884 0 0 1 .47.458c.048.106.072.219.072.34zm5.331 2.828a.678.678 0 0 1-.119.12.277.277 0 0 1-.169.045.379.379 0 0 1-.204-.063 6.603 6.603 0 0 0-.239-.143 1.528 1.528 0 0 0-.803-.206c-.24 0-.45.043-.63.13-.181.085-.331.208-.451.37-.12.16-.21.355-.269.583a3.104 3.104 0 0 0-.088.775c0 .3.032.567.096.8.065.234.158.43.28.59.122.158.27.279.443.361.173.082.369.124.587.124.217 0 .394-.027.528-.08.135-.053.248-.111.34-.175.093-.064.173-.123.241-.176a.365.365 0 0 1 .23-.08c.11 0 .194.043.25.127l.392.493a2.463 2.463 0 0 1-.492.441 2.673 2.673 0 0 1-1.14.436c-.204.03-.405.044-.604.044-.35 0-.68-.065-.99-.195-.31-.13-.581-.318-.812-.567a2.728 2.728 0 0 1-.548-.912 3.493 3.493 0 0 1-.202-1.23c0-.414.06-.796.18-1.149.12-.352.296-.657.529-.915.232-.258.52-.46.863-.606.343-.146.738-.219 1.185-.219.424 0 .796.068 1.115.203.32.135.606.329.861.58l-.36.494zm5.74 4.434h-.614c-.129 0-.23-.02-.304-.058-.074-.038-.13-.116-.166-.233l-.122-.4c-.144.128-.285.24-.424.337a2.578 2.578 0 0 1-.429.244 2.204 2.204 0 0 1-.47.148c-.166.033-.35.05-.554.05-.24 0-.461-.033-.664-.097a1.436 1.436 0 0 1-.523-.287 1.307 1.307 0 0 1-.34-.477 1.676 1.676 0 0 1-.122-.663c0-.212.056-.421.168-.628.113-.206.3-.392.562-.559.262-.166.611-.304 1.047-.413.435-.11.976-.172 1.622-.187v-.329c0-.376-.08-.654-.241-.835-.16-.181-.394-.272-.7-.272a1.71 1.71 0 0 0-.939.25c-.109.064-.21.121-.302.172a.617.617 0 0 1-.304.077.398.398 0 0 1-.238-.071.563.563 0 0 1-.16-.175l-.25-.433c.654-.592 1.441-.888 2.364-.888.332 0 .628.054.889.161.26.108.48.258.661.45.18.192.318.42.412.688.095.266.142.559.142.876v3.552zm-2.656-.844c.14 0 .269-.013.387-.039.118-.025.23-.064.335-.115.105-.05.207-.114.304-.189.098-.075.197-.163.297-.266v-.948a7.56 7.56 0 0 0-1 .102c-.267.049-.482.112-.645.189a.827.827 0 0 0-.346.268.59.59 0 0 0-.102.335c0 .237.071.407.213.51.142.102.328.153.557.153zm9.117-4.105c.302 0 .597.05.883.148.286.099.537.247.755.447.218.199.393.446.526.742s.2.641.2 1.036c0 .369-.069.715-.205 1.038a2.562 2.562 0 0 1-.576.847 2.686 2.686 0 0 1-.894.57 3.094 3.094 0 0 1-1.154.208c-.428 0-.812-.067-1.152-.202a2.507 2.507 0 0 1-.869-.568 2.445 2.445 0 0 1-.55-.876 3.234 3.234 0 0 1-.192-1.138c0-.372.077-.755.23-1.148.153-.392.39-.8.711-1.225l1.91-2.537a.79.79 0 0 1 .29-.225.992.992 0 0 1 .441-.093h1.218l-2.375 2.877-.147.176a4.233 4.233 0 0 0-.135.17 2.427 2.427 0 0 1 1.085-.247zm-1.916 2.46c0 .22.03.42.092.6.06.182.151.336.27.464.12.128.27.227.447.298.177.072.382.107.614.107.218 0 .418-.036.6-.11a1.377 1.377 0 0 0 .778-.77c.074-.176.111-.37.111-.577 0-.227-.035-.43-.105-.611a1.28 1.28 0 0 0-.299-.46 1.285 1.285 0 0 0-.465-.289 1.738 1.738 0 0 0-.598-.098 1.54 1.54 0 0 0-.592.11 1.333 1.333 0 0 0-.75.764 1.58 1.58 0 0 0-.103.573z"/>
        </g>
        <path fill="#2E4550" stroke="#767C80" d="M173.84 201.96l35.409 20.044a6 6 0 0 1 3.044 5.222v39.884a6 6 0 0 1-3.044 5.221l-35.409 20.044a6 6 0 0 1-5.911 0l-35.41-20.044a6 6 0 0 1-3.044-5.221v-39.884a6 6 0 0 1 3.045-5.222l35.409-20.044a6 6 0 0 1 5.911 0z"/>
        <g fill="#50A7E6">
            <path d="M170.042 240.398l-17.387 17.285c-.646.643-.97 1.413-.97 2.31 0 .914.324 1.675.97 2.285l2.707 2.741c.664.626 1.438.94 2.323.94.902 0 1.668-.314 2.298-.94l17.412-17.31a13.03 13.03 0 0 1-4.43-2.907 12.934 12.934 0 0 1-2.923-4.404zm-9.574 19.113a1.577 1.577 0 0 1-1.149.482c-.442 0-.825-.16-1.149-.482a1.557 1.557 0 0 1-.485-1.142c0-.44.162-.821.485-1.143a1.575 1.575 0 0 1 1.149-.482c.443 0 .826.16 1.15.482.323.322.484.703.484 1.143 0 .44-.161.82-.485 1.142zM193.366 236.032c-.145-.17-.345-.254-.6-.254-.153 0-.753.3-1.8.901-1.047.6-2.2 1.286-3.46 2.056l-2.017 1.231-4.928-2.716v-5.686l7.48-4.29c.273-.186.41-.423.41-.71 0-.288-.137-.525-.41-.711-.748-.508-1.663-.901-2.744-1.18a12.404 12.404 0 0 0-3.102-.42c-3.148 0-5.842 1.114-8.08 3.339-2.239 2.225-3.358 4.903-3.358 8.033s1.12 5.809 3.358 8.034c2.238 2.225 4.932 3.338 8.08 3.338 2.4 0 4.6-.707 6.6-2.12 2-1.413 3.4-3.253 4.2-5.52.391-1.134.587-2.031.587-2.691a.94.94 0 0 0-.216-.634z"/>
        </g>
        <circle cx="170.14" cy="148.048" r="23" fill="#50A7E6" stroke="#4697D1" stroke-width="3"/>
        <g fill="#FFF">
            <path d="M183.59 135.521a1.115 1.115 0 0 0-.811-.339c-.313 0-.583.114-.812.34l-2.344 2.302a13.987 13.987 0 0 0-4.417-2.793 13.729 13.729 0 0 0-5.12-.99c-3.306 0-6.19.99-8.655 2.97-2.464 1.982-4.087 4.566-4.868 7.755v.125c0 .155.057.288.171.401.114.113.25.17.406.17h3.588c.264 0 .444-.137.54-.41.505-1.19.824-1.886.956-2.089a9.05 9.05 0 0 1 3.354-3.194 9.146 9.146 0 0 1 4.507-1.16c2.416 0 4.514.815 6.293 2.445l-2.489 2.463a1.094 1.094 0 0 0-.342.803c0 .31.114.577.342.803.229.226.5.339.812.339h8.078c.312 0 .582-.113.81-.34.229-.225.343-.493.343-.802v-7.996c0-.309-.113-.577-.342-.803zM182.904 150.031h-3.462c-.264 0-.444.137-.54.41-.505 1.19-.823 1.886-.956 2.088a9.055 9.055 0 0 1-3.353 3.195 9.144 9.144 0 0 1-4.508 1.16 9.075 9.075 0 0 1-3.371-.642 9.318 9.318 0 0 1-2.903-1.821l2.47-2.445c.229-.226.343-.494.343-.803 0-.31-.114-.577-.343-.803a1.114 1.114 0 0 0-.811-.34h-8.078c-.312 0-.583.114-.811.34a1.092 1.092 0 0 0-.343.803v7.995c0 .31.114.578.343.803.228.226.499.34.811.34.313 0 .583-.114.812-.34l2.326-2.302a13.78 13.78 0 0 0 4.39 2.802c1.64.654 3.339.981 5.093.981 3.294 0 6.167-.99 8.619-2.971s4.062-4.566 4.832-7.754a.547.547 0 0 0-.154-.526.56.56 0 0 0-.406-.17z"/>
        </g>
        <circle cx="534" cy="148" r="23" fill="#50A7E6" stroke="#4697D1" stroke-width="3"/>
        <text fill="#FFF" font-family="Lato-Bold, Lato" font-size="33" font-weight="bold">
            <tspan x="525.077" y="159.1">+</tspan>
        </text>
        <circle cx="653" cy="148" r="23" fill="#50A7E6" stroke="#4697D1" stroke-width="3"/>
        <text fill="#FFF" font-family="Lato-Bold, Lato" font-size="33" font-weight="bold">
            <tspan x="644.077" y="159.1">+</tspan>
        </text>
    </g>
</svg>
