<svg xmlns="http://www.w3.org/2000/svg" width="699" height="103" viewBox="0 0 699 103">
    <defs>
        <linearGradient id="a" x1="50%" x2="50%" y1="0%" y2="86.715%">
            <stop offset="0%" stop-color="#50A7E6"/>
            <stop offset="100%" stop-color="#2E4550"/>
        </linearGradient>
        <linearGradient id="b" x1="50%" x2="50%" y1="0%" y2="86.715%">
            <stop offset="0%" stop-color="#50A7E6"/>
            <stop offset="100%" stop-color="#2E4550"/>
        </linearGradient>
        <linearGradient id="c" x1="50%" x2="50%" y1="0%" y2="86.715%">
            <stop offset="0%" stop-color="#50A7E6"/>
            <stop offset="100%" stop-color="#2E4550"/>
        </linearGradient>
        <linearGradient id="d" x1="50%" x2="50%" y1="0%" y2="86.715%">
            <stop offset="0%" stop-color="#50A7E6"/>
            <stop offset="100%" stop-color="#2E4550"/>
        </linearGradient>
        <linearGradient id="f" x1="50%" x2="50%" y1="0%" y2="86.715%">
            <stop offset="0%" stop-color="#50A7E6"/>
            <stop offset="100%" stop-color="#2E4550"/>
        </linearGradient>
        <linearGradient id="e" x1="50%" x2="50%" y1="0%" y2="100%">
            <stop offset="0%" stop-color="#50A7E6"/>
            <stop offset="100%" stop-color="#2E4550"/>
        </linearGradient>
        <linearGradient id="g" x1="50%" x2="50%" y1="0%" y2="50%">
            <stop offset="0%" stop-color="#50A7E6"/>
            <stop offset="100%" stop-color="#2E4550"/>
        </linearGradient>
        <linearGradient id="h" x1="50%" x2="50%" y1="0%" y2="100%">
            <stop offset="0%" stop-color="#50A7E6"/>
            <stop offset="100%" stop-color="#2E4550"/>
        </linearGradient>
        <linearGradient id="i" x1=".639%" x2="118.342%" y1="100%" y2="100%">
            <stop offset="0%" stop-color="#2E4550"/>
            <stop offset="100%" stop-color="#50A7E6"/>
        </linearGradient>
        <linearGradient id="j" x1="50%" x2="50%" y1="-77.642%" y2="100%">
            <stop offset="0%" stop-color="#4697D1"/>
            <stop offset="100%" stop-color="#2E4550"/>
        </linearGradient>
    </defs>
    <g fill="none" fill-rule="evenodd">
        <path fill="url(#a)" d="M182.542 44.197l-2.595-10.892.975-.252-.92-3.997-1.01.232-3.049-8.9c-.14-.593-3.359.386-3.22.971l2.263 8.853-1.052.23.946 3.997 1.063-.212.356 1.495-11.772 15.09h-26.413c-.685-6.327-6.032-11.27-12.51-11.27-1.74 0-3.426.35-5.01 1.04l1.091 2.525a9.741 9.741 0 0 1 3.92-.814c4.964 0 9.071 3.714 9.742 8.52h-1.9c-.653-3.76-3.918-6.63-7.843-6.63-4.393 0-7.968 3.59-7.968 8.005 0 4.414 3.575 8.005 7.968 8.005 3.925 0 7.19-2.869 7.842-6.629h33.214c.609 0 1.023-.165 1.617-.875l9.244-11.841 1.015 4.27a8.016 8.016 0 0 0-4.24 7.07c0 4.414 3.576 8.005 7.969 8.005 4.393 0 7.968-3.59 7.968-8.005 0-4.32-3.427-7.841-7.69-7.99zm-56.938 9.367h3.595c-.554 1.458-1.95 2.501-3.595 2.501-2.128 0-3.859-1.739-3.859-3.877 0-2.137 1.731-3.876 3.86-3.876 1.643 0 3.04 1.042 3.594 2.5h-3.595c-.756 0-1.37.617-1.37 1.376 0 .76.614 1.376 1.37 1.376zm56.661 2.501c-2.128 0-3.859-1.739-3.859-3.877a3.87 3.87 0 0 1 1.158-2.762l.672 2.826a2.057 2.057 0 0 0 2.477 1.527 2.064 2.064 0 0 0 1.52-2.488l-.652-2.733a3.871 3.871 0 0 1-1.316 7.507zM167.184 7.87l2.494.884c.282.098 2.327.897 6.136 2.397a1.653 1.653 0 0 1-.542 3.21c-.12 0-.457-.087-1.014-.259l1.062 4.303-2.66.654-1.584-6.41-1.424-.518a1.74 1.74 0 0 1-.565.098c-.131 0-1.16-.328-3.086-.984a1.79 1.79 0 0 1-1.089-2.282 1.778 1.778 0 0 1 2.272-1.093z"/>
        <path fill="url(#b)" d="M441.53 13.908c-6.568 2.59-13.489 4.885-28.218 1.44a78.623 78.623 0 0 0-7.455-1.39c.292 4.69 18.918 9.085 23.424 10.015 8.345-4.099 13.23-6.236 12.25-10.065zM386.848 45.16c0 8.374 6.782 15.187 15.116 15.187 8.335 0 15.118-6.813 15.118-15.187 0-.487-.028-.967-.073-1.442l3.233-.733c.23 1.83.126 3.689.126 3.689h10.913c5.651 0 10.392-2.279 12.918-8.802 1.52-3.927 3.39-7.482 6.208-10.493a25.089 25.089 0 0 1 17.967-7.55c2.78 0 5.509.45 8.116 1.34a2.098 2.098 0 0 0 2.668-1.322 2.115 2.115 0 0 0-1.315-2.679 29.228 29.228 0 0 0-9.469-1.565c-3.607 0-7.093.663-10.335 1.88-1.638-3.446-3.567-6.43-7.353-6.339-2.014.05-3.963.709-6.12 1.572l.099.381c1.584 6.186-4.368 9.1-12.606 13.131l-2.349 1.153-1.08-.224c-16.935-3.493-25.684-7.868-26.004-12.998l-.036-.576a97.589 97.589 0 0 0-5.94-.392h-8.774c0 1.235 3.682 3.29 7.544 5.105l-1.323 2.797 16.288 7.784c4.853 2.313 7.946 6.928 8.887 9.996l-3.25.737c-2.212-5.635-7.674-9.637-14.058-9.637-8.334 0-15.116 6.813-15.116 15.187zm4.853 0c0-5.686 4.605-10.312 10.263-10.312 4.07 0 7.582 2.397 9.24 5.853l-5.312 1.205c-.938-1.141-2.339-1.884-3.926-1.884-2.822 0-5.115 2.3-5.115 5.138 0 2.835 2.293 5.135 5.115 5.135 2.541 0 4.634-1.868 5.03-4.309l5.214-1.181c.005.12.018.234.018.355 0 5.686-4.603 10.312-10.264 10.312-5.658 0-10.263-4.626-10.263-10.312zm58.907-37.265c-1.349.033-2.64.28-3.914.64l-1.337-2.562-4.189.013h-.004a1.623 1.623 0 0 1-1.619-1.621 1.622 1.622 0 0 1 1.614-1.63l3.943-.012a2.101 2.101 0 0 1 3.495.35l2.52 4.834c-.091-.002-.172-.015-.263-.015l-.246.003zm2.648 37.265c0 8.374 6.783 15.187 15.118 15.187 8.336 0 15.118-6.813 15.118-15.187 0-8.374-6.782-15.187-15.118-15.187-1.848 0-3.614.351-5.252.964l-3.28-6.291a24.24 24.24 0 0 0-3.68 2.05l3.26 6.253c-3.73 2.768-6.166 7.202-6.166 12.211zm4.854 0c0-3.131 1.4-5.933 3.6-7.826l2.52 4.836a5.122 5.122 0 0 0-.97 2.99c0 2.835 2.292 5.135 5.114 5.135 2.823 0 5.113-2.3 5.113-5.135 0-2.838-2.29-5.138-5.113-5.138-.168 0-.325.033-.49.05l-2.49-4.778a10.163 10.163 0 0 1 2.98-.446c5.66 0 10.264 4.626 10.264 10.312 0 5.686-4.604 10.312-10.264 10.312-5.66 0-10.264-4.626-10.264-10.312z"/>
        <path fill="url(#c)" d="M576.994 47.446l-.004 4.96 53.082.02-.011-4.98c0-.157.02-.31.022-.465l-53.111.035c.005.145.022.286.022.43zm83.777-.487l8.395-.005c-2.046 2.337-4.698 4.13-8.397 4.967l.027-4.475c0-.164-.02-.324-.025-.487zm-114.492.08c-.004.137-.02.27-.02.407l.025 4.76c-7.718-.69-10.624-3.117-11.92-5.16l11.915-.007zm87.708.407c0 6.339 5.132 11.496 11.442 11.496 6.308 0 11.44-5.157 11.44-11.496 0-6.338-5.132-11.495-11.44-11.495-6.31 0-11.442 5.157-11.442 11.495zm5.106 0c0-3.51 2.841-6.365 6.336-6.365 3.492 0 6.334 2.855 6.334 6.365 0 3.51-2.842 6.365-6.334 6.365-3.495 0-6.336-2.856-6.336-6.365zm-88.908 0c0 6.339 5.133 11.496 11.442 11.496 6.308 0 11.439-5.157 11.439-11.496 0-6.338-5.13-11.495-11.439-11.495-6.31 0-11.442 5.157-11.442 11.495zm5.105 0c0-3.51 2.843-6.365 6.337-6.365 3.493 0 6.336 2.855 6.336 6.365 0 3.51-2.843 6.365-6.336 6.365-3.494 0-6.337-2.856-6.337-6.365zm-21.8-4.651c0-9.332 16.653-18.464 46.028-16.59 0 0 10.96-5.032 26.01-11.424 19.127-8.12 47.388 1.509 70.983 6.84-1.096 5.163-1.326 14.557-5.346 21.387l-11.021.007c-1.9-6.36-7.774-11.01-14.715-11.01-6.95 0-12.827 4.66-14.721 11.03l-5.362.005c3.993-6.607 4.106-14.853 4.11-19.79h.002l.001-6.503c-2.467-.3-4.878-.486-7.203-.486-4.654 0-11.188 1.038-15.136 2.927l-15.828 6.873c14.338-.347 25.255-1.297 34.235-2.339-.013 5.416-.275 13.686-5.007 19.32l-44.164.03c-1.882-6.389-7.768-11.067-14.729-11.067-6.97 0-12.861 4.688-14.736 11.088l-13.414.01c0-.194.014-.308.014-.308zm101.074-20.211c5.638-.753 10.547-1.46 15.27-1.92-5.228-1.134-10.348-2.303-15.27-3.156v5.076zm-95.965 15.41c5.07 0 9.513-2.637 12.077-6.61-5.902 1.742-9.917 4.144-12.184 6.605.038 0 .071.005.107.005z" transform="matrix(-1 0 0 1 1209.987 0)"/>
        <path fill="url(#d)" d="M317.971 26.508h-.125a18.898 18.898 0 0 0-5.018.727l-6.897-17.362-18.194 10.808s-12.2.024-12.249.026l-1.934-4.114-3.77-.008 5.84 12.582 3.768.011-1.86-4.053 10.832-.006c.4-.003.793-.111 1.136-.315l13.924-8.27-17.168 23.553a5.198 5.198 0 0 0-.849-.078 5.15 5.15 0 0 0-4.722 3.15h-2.805c-1.077-9.347-9.1-16.65-18.763-16.65h-.126c-10.417.067-18.838 8.55-18.773 18.907.07 10.293 8.545 18.667 18.894 18.667h.125c5.046-.033 9.778-2.018 13.323-5.59a18.584 18.584 0 0 0 5.287-10.894h3.108c.885 1.582 2.569 2.662 4.519 2.648 2.845-.019 5.135-2.322 5.116-5.15a5.037 5.037 0 0 0-.679-2.462l16.415-22.521 3.3 8.35c-6.278 3.092-10.597 9.531-10.55 16.952.067 10.293 8.542 18.667 18.891 18.667h.125c5.046-.033 9.779-2.018 13.323-5.59 3.546-3.57 5.48-8.302 5.448-13.321-.067-10.292-8.542-18.664-18.892-18.664zm-52.337 16.65a6.857 6.857 0 0 0-6.564-4.687c-3.792.023-6.849 3.095-6.822 6.87.023 3.773 3.117 6.805 6.91 6.78a6.857 6.857 0 0 0 6.412-4.522h8.294a14.697 14.697 0 0 1-4.114 8.136 14.89 14.89 0 0 1-10.538 4.42h-.1c-8.187 0-14.89-6.623-14.945-14.764-.052-8.193 6.61-14.902 14.95-14.955 7.489 0 13.717 5.546 14.768 12.723h-8.25zm45.27-37.722l-1.56 2.721 1.614 4.087 3.742-6.538a1.703 1.703 0 0 0-.577-2.291l-4.66-2.916a1.726 1.726 0 0 0-2.368.536c-.507.8-.262 1.854.54 2.356l3.269 2.045zm17.703 50.3a14.895 14.895 0 0 1-10.54 4.42h-.1c-8.187 0-14.89-6.624-14.943-14.765-.037-5.742 3.23-10.744 8.054-13.249l2.981 7.543a6.813 6.813 0 0 0-2.956 5.656c.025 3.77 3.122 6.806 6.912 6.78 3.79-.022 6.845-3.1 6.82-6.87-.025-3.77-3.122-6.808-6.91-6.783a6.705 6.705 0 0 0-.644.037l-2.994-7.58c1.18-.302 2.41-.482 3.684-.49 8.187 0 14.892 6.622 14.943 14.763a14.727 14.727 0 0 1-4.307 10.537z"/>
        <path fill="url(#f)" stroke="url(#e)" stroke-width="2" d="M63.324 4.57v.001zm0 0l.12-.068.133-.035 3.04-1.826-.692-1.15-2.892 1.737H5.643l-3.16-1.61-.61 1.196 3.16 1.61.218.03.186.117s-.002 0 0 0h57.887z" transform="translate(0 46.602)"/>
        <g transform="translate(11.249 53.287)">
            <path stroke="url(#g)" stroke-width="1.5" d="M3.882 7.799A3.89 3.89 0 0 1 0 3.899 3.89 3.89 0 0 1 3.882 0a3.89 3.89 0 0 1 3.881 3.9 3.89 3.89 0 0 1-3.881 3.899zm0-1.114a2.779 2.779 0 0 0 2.772-2.786 2.779 2.779 0 0 0-2.772-2.785A2.779 2.779 0 0 0 1.109 3.9a2.779 2.779 0 0 0 2.773 2.786z"/>
            <circle cx="3.901" cy="3.863" r="1.15" fill="url(#h)"/>
        </g>
        <g transform="translate(50.249 53.287)">
            <path stroke="url(#g)" stroke-width="1.5" d="M3.882 7.799A3.89 3.89 0 0 1 0 3.899 3.89 3.89 0 0 1 3.882 0a3.89 3.89 0 0 1 3.881 3.9 3.89 3.89 0 0 1-3.881 3.899zm0-1.114a2.779 2.779 0 0 0 2.772-2.786 2.779 2.779 0 0 0-2.772-2.785A2.779 2.779 0 0 0 1.109 3.9a2.779 2.779 0 0 0 2.773 2.786z"/>
            <circle cx="3.901" cy="3.863" r="1.15" fill="url(#h)"/>
        </g>
        <g transform="translate(2.799 84.466)">
            <path fill="url(#i)" fill-rule="nonzero" d="M3.483 11.252h672.645a3 3 0 0 0 0-6H3.483a3 3 0 1 0 0 6z"/>
            <path fill="#50A7E6" stroke="#50A7E6" d="M695.514 7.767l-25.242 7.248V.52z"/>
            <ellipse cx="31.027" cy="8.296" fill="#50A7E6" stroke="url(#j)" stroke-width="3" rx="8.265" ry="8.296"/>
            <ellipse cx="151.027" cy="8.296" fill="#50A7E6" stroke="url(#j)" stroke-width="3" rx="8.265" ry="8.296"/>
            <ellipse cx="286.027" cy="8.296" fill="#50A7E6" stroke="url(#j)" stroke-width="3" rx="8.265" ry="8.296"/>
            <ellipse cx="432.027" cy="8.296" fill="#50A7E6" stroke="url(#j)" stroke-width="3" rx="8.265" ry="8.296"/>
            <ellipse cx="602.027" cy="8.296" fill="#50A7E6" stroke="url(#j)" stroke-width="3" rx="8.265" ry="8.296"/>
        </g>
    </g>
</svg>
