<?xml version="1.0" encoding="UTF-8"?>
<svg width="110px" height="103px" viewBox="0 0 110 103" version="1.1" xmlns="http://www.w3.org/2000/svg" xmlns:xlink="http://www.w3.org/1999/xlink">
    <!-- Generator: Sketch 55 (78076) - https://sketchapp.com -->
    <title>Ensure</title>
    <desc>Created with Sketch.</desc>
    <g id="Homepage" stroke="none" stroke-width="1" fill="none" fill-rule="evenodd">
        <g transform="translate(-275.000000, -1234.000000)" id="Flexible-IoT">
            <g transform="translate(180.000000, 776.000000)">
                <g id="Ensure" transform="translate(14.000000, 460.000000)">
                    <g transform="translate(81.000000, 0.000000)">
                        <polygon id="Polygon" fill="#2E4550" opacity="0.18" points="32.6071429 0 51.999926 11.1964286 51.999926 33.5892857 32.6071429 44.7857143 13.2143597 33.5892857 13.2143597 11.1964286"></polygon>
                        <polygon id="Polygon" fill="#2E4550" opacity="0.18" points="77.3928571 0 96.7856403 11.1964286 96.7856403 33.5892857 77.3928571 44.7857143 58.000074 33.5892857 58.000074 11.1964286"></polygon>
                        <polygon id="Polygon-Copy" stroke="#2E4550" stroke-width="4" fill="#2E4550" opacity="0.18" points="55.3928571 39.2857143 74.7856403 50.4821429 74.7856403 72.875 55.3928571 84.0714286 36.000074 72.875 36.000074 50.4821429"></polygon>
                        <path d="M55.1959377,85.6416609 L56.1398072,85.644057 L56.1254148,89.5726102 L55.1815453,89.5702141 L55.1959377,85.6416609 Z M55.1729099,91.927346 L56.1167794,91.9297421 L56.1023871,95.8582953 L55.1585176,95.8558991 L55.1729099,91.927346 Z M55.1498821,98.213031 L56.0937516,98.2154272 L56.0836767,100.965482 L55.1398072,100.963086 L55.1498821,98.213031 Z" id="Line-3" fill="#2E4550" fill-rule="nonzero"></path>
                        <g id="Group" transform="translate(20.428571, 0.000000)">
                            <polygon id="Polygon-Copy-2" stroke="#2E4550" stroke-width="3" fill-opacity="0.68" fill="#2E4550" points="34.5714286 0 64.511164 17.2857143 64.511164 51.8571429 34.5714286 69.1428571 4.63169318 51.8571429 4.63169318 17.2857143"></polygon>
                            <g id="Sheld" transform="translate(17.482143, 13.357143)" fill="#FFFFFF">
                                <g id="shield-(1)">
                                    <path d="M32.0342174,4.2599114 L18.4993841,0.234486779 C17.4486159,-0.0781349588 16.337342,-0.0781349588 15.286249,0.234486779 L1.75157812,4.2598295 C0.752300652,4.55697167 0.0544144918,5.49819488 0.0544144918,6.5488398 L0.0544144918,17.8525276 C0.0544144918,23.0838024 1.59856782,28.1210501 4.5199763,32.4197014 C7.37210783,36.6166298 11.3413607,39.8453891 15.9981854,41.7565833 C16.2866635,41.8749323 16.5897603,41.9341478 16.8928571,41.9341478 C17.195954,41.9341478 17.4990508,41.8748504 17.7874476,41.7565833 C22.4442723,39.8453891 26.4135252,36.6167936 29.2656568,32.4197014 C32.186984,28.1209682 33.7311374,23.0838024 33.7311374,17.8525276 L33.7311374,6.5489217 C33.7312998,5.49827679 33.0334136,4.55697167 32.0342174,4.2599114 Z M31.8381628,17.8524457 C31.8381628,22.6967313 30.4086047,27.3607495 27.7042045,31.3402268 C25.0622591,35.2278096 21.3864384,38.2182327 17.0739681,39.9880632 C16.9571799,40.0359761 16.8286156,40.0359761 16.7118274,39.9880632 C12.3993571,38.2182327 8.72345519,35.2278915 6.081591,31.3402268 C3.37719076,27.3607495 1.94763273,22.6968132 1.94763273,17.8524457 L1.94763273,6.5488398 C1.94763273,6.33875996 2.08724245,6.15054808 2.28711418,6.09108688 L15.8218662,2.06566226 C16.1722306,1.96140041 16.5325845,1.90939234 16.8929384,1.90939234 C17.253211,1.90939234 17.6135649,1.96148231 17.9639293,2.06574416 L31.4988437,6.09108688 C31.6985531,6.15046617 31.8381628,6.33867806 31.8381628,6.5488398 L31.8381628,17.8524457 Z" id="Shape" fill-rule="nonzero"></path>
                                    <path d="M5.5,9.05137905 L5.5,17.2857143 C5.5,17.7196523 5.14822373,18.0714286 4.71428571,18.0714286 C4.2803477,18.0714286 3.92857143,17.7196523 3.92857143,17.2857143 L3.92857143,9.42857143 L3.92857143,8.61734009 C3.92857143,8.16807979 4.2281765,7.77396487 4.66106385,7.65378433 L9.68077613,6.26018456 C10.1139685,6.13991933 10.5691951,6.3594162 10.7448588,6.77325393 C10.8939344,7.12445412 10.73008,7.53000779 10.3788799,7.6790834 C10.3516626,7.69063644 10.3237317,7.70043017 10.2952595,7.70840419 L5.5,9.05137905 Z" id="Combined-Shape"></path>
                                </g>
                                <path d="M24.7081959,14.5701061 C24.1284991,14.0004408 23.1890519,14.0004408 22.6092067,14.5701061 L16.2381818,20.8342357 L14.3193647,18.9478031 C13.7396679,18.3781378 12.8002208,18.3781378 12.2203756,18.9478031 C11.6408272,19.5176143 11.6408272,20.4415694 12.2203756,21.0115265 L15.188613,23.9298939 C15.4786098,24.2145806 15.8582474,24.3571429 16.2381818,24.3571429 C16.6181162,24.3571429 16.9977538,24.2145806 17.2876022,23.929748 L24.7081959,16.6338296 C25.2877442,16.0640184 25.2877442,15.1400633 24.7081959,14.5701061 Z" id="Path" fill-rule="nonzero"></path>
                            </g>
                        </g>
                        <path d="M13.3571429,10.5634515 L13.0722096,11 L10.731686,9.67137415 L11.0166193,9.23482565 L13.3571429,10.5634515 Z M9.61230523,8.43765014 L9.32737194,8.87419863 L6.98684842,7.54557278 L7.27178172,7.10902428 L9.61230523,8.43765014 Z M5.86746761,6.31184877 L5.58253432,6.74839727 L3.2420108,5.41977141 L3.5269441,4.98322292 L5.86746761,6.31184877 Z M2.12262999,4.18604741 L1.83769669,4.6225959 L0,3.57940564 L0.284933297,3.14285714 L2.12262999,4.18604741 Z" id="Line-12" fill="#2E4550" fill-rule="nonzero"></path>
                        <path d="M110,10.5634515 L109.715067,11 L107.374543,9.67137415 L107.659476,9.23482565 L110,10.5634515 Z M106.255162,8.43765014 L105.970229,8.87419863 L103.629706,7.54557278 L103.914639,7.10902428 L106.255162,8.43765014 Z M102.510325,6.31184877 L102.225391,6.74839727 L99.8848679,5.41977141 L100.169801,4.98322292 L102.510325,6.31184877 Z M98.7654871,4.18604741 L98.4805538,4.6225959 L96.6428571,3.57940564 L96.9277904,3.14285714 L98.7654871,4.18604741 Z" id="Line-12" fill="#2E4550" fill-rule="nonzero" transform="translate(103.321429, 7.071429) scale(-1, 1) translate(-103.321429, -7.071429) "></path>
                    </g>
                </g>
            </g>
        </g>
    </g>
</svg>