<svg xmlns="http://www.w3.org/2000/svg" width="110" height="103" viewBox="0 0 110 103">
    <g fill="none" fill-rule="evenodd">
        <path fill="#2E4550" d="M32.607 2L52 13.196V35.59L32.607 46.786 13.214 35.589V13.196zM77.393 2l19.393 11.196V35.59L77.393 46.786 58 35.589V13.196z" opacity=".18"/>
        <path fill="#2E4550" stroke="#2E4550" stroke-width="4" d="M55.393 41.286l19.393 11.196v22.393L55.393 86.071 36 74.875V52.482z" opacity=".18"/>
        <path fill="#2E4550" fill-rule="nonzero" d="M55.196 87.642l.944.002-.015 3.929-.943-.003.014-3.928zm-.023 6.285l.944.003-.015 3.928-.943-.002.014-3.929zm-.023 6.286l.944.002-.01 2.75-.944-.002.01-2.75z"/>
        <path fill="#2E4550" fill-opacity=".68" stroke="#2E4550" stroke-width="3" d="M55 2l29.94 17.286v34.571L55 71.143 25.06 53.857V19.286z"/>
        <g fill="#FFF" fill-rule="nonzero">
            <path d="M51.44 50.006c-3.647-.866-6.183-4.221-5.9-7.805.038-.473.466-.815.957-.764a.947.947 0 0 1 .121.02c.43.102.735.495.7.928-.215 2.731 1.717 5.288 4.496 5.948.482.115.788.582.685 1.044-.104.462-.578.744-1.06.63z"/>
            <path d="M32.547 32.38l9.378 5.22v6.984c0 5.38 5.627 9.795 12.583 9.795s12.583-4.415 12.583-9.795V37.84l1.797-1.124c.782 1.445 1.329 3.453 1.485 5.78-.938.402-1.641 1.285-1.641 2.33v4.816c0 1.365 1.172 2.49 2.579 2.49 1.407 0 2.579-1.125 2.579-2.49v-4.817c0-1.204-.86-2.168-2.032-2.408-.235-2.65-.782-4.818-1.72-6.504l5.471-3.452a.848.848 0 0 0 .391-.723c0-.32-.156-.562-.469-.722L55.29 21.06c-.235-.08-.47-.08-.626 0L32.47 30.936c-.313.16-.469.4-.469.722.156.241.313.562.547.723zm39.858 12.365v4.817c0 .482-.469.883-1.016.883s-1.016-.401-1.016-.883v-4.817c0-.482.469-.883 1.016-.883.625 0 1.016.401 1.016.883zm-6.8-.241c0 4.496-4.923 8.19-11.019 8.19s-11.02-3.694-11.02-8.19v-6.102l11.645 6.503c.079.08.235.08.391.08.156 0 .313 0 .39-.08l9.692-6.101v5.7h-.078zM55.019 23.983l16.216 7.984-3.815 2.382c-.34-.42-.682-.84-1.158-1.121-2.385-1.891-5.11-1.33-5.247-1.33-.34.07-.613.42-.545.84.068.35.409.63.818.56 0 0 2.18-.42 4.088 1.05.272.21.545.49.817.771l-10.97 6.864-17.988-10.086 17.784-7.914z"/>
        </g>
        <path fill="#2E4550" fill-rule="nonzero" d="M13.357 12.563l-.285.437-2.34-1.329.285-.436 2.34 1.328zm-3.745-2.125l-.285.436-2.34-1.328.285-.437 2.34 1.329zM5.867 8.312l-.284.436L3.242 7.42l.285-.437 2.34 1.329zM2.123 6.186l-.285.437L0 5.579l.285-.436 1.838 1.043zM96.643 12.563l.285.437 2.34-1.329-.285-.436-2.34 1.328zm3.745-2.125l.285.436 2.34-1.328-.285-.437-2.34 1.329zm3.745-2.126l.284.436 2.341-1.328-.285-.437-2.34 1.329zm3.744-2.126l.285.437L110 5.579l-.285-.436-1.838 1.043z"/>
    </g>
</svg>
