<svg xmlns="http://www.w3.org/2000/svg" width="110" height="103" viewBox="0 0 110 103">
    <g fill="none" fill-rule="evenodd">
        <path fill="#2E4550" d="M32.607 2L52 13.196V35.59L32.607 46.786 13.214 35.589V13.196zM77.393 2l19.393 11.196V35.59L77.393 46.786 58 35.589V13.196z" opacity=".18"/>
        <path fill="#2E4550" stroke="#2E4550" stroke-width="4" d="M55.393 41.286l19.393 11.196v22.393L55.393 86.071 36 74.875V52.482z" opacity=".18"/>
        <path fill="#2E4550" fill-rule="nonzero" d="M55.196 87.642l.944.002-.015 3.929-.943-.003.014-3.928zm-.023 6.285l.944.003-.015 3.928-.943-.002.014-3.929zm-.023 6.286l.944.002-.01 2.75-.944-.002.01-2.75z"/>
        <path fill="#2E4550" fill-opacity=".68" stroke="#2E4550" stroke-width="3" d="M55 2l29.94 17.286v34.571L55 71.143 25.06 53.857V19.286z"/>
        <g fill="#FFF" fill-rule="nonzero">
            <path d="M72.43 19.005a.92.92 0 0 0-.65-.65 18.963 18.963 0 0 0-9.62-.04 18.727 18.727 0 0 0-1.575.484 18.88 18.88 0 0 0-7.012 4.423l-.02.018-.023.026-.024.025-2.814 3.276a16.55 16.55 0 0 0-14.485 8.237.919.919 0 0 0 .568 1.35l5.108 1.301-1 2.714a3.687 3.687 0 0 0 .85 3.87l5.014 5.013a3.687 3.687 0 0 0 3.87.85l2.714-.999 1.3 5.108a.919.919 0 0 0 1.352.568 16.557 16.557 0 0 0 3.398-2.616 16.577 16.577 0 0 0 4.838-11.87l3.276-2.814.024-.023.027-.024.015-.016a18.884 18.884 0 0 0 4.91-8.59c.814-3.151.8-6.478-.04-9.62zM38.46 34.687a14.736 14.736 0 0 1 10.59-6.209l-6.278 7.307-4.312-1.098zM58.08 50.663a14.81 14.81 0 0 1-1.982 1.664L55 48.014l7.307-6.278a14.737 14.737 0 0 1-4.227 8.927zm7.335-14.93c-3.8 3.237-7.516 6.407-11.145 9.51-2.296 1.705-3.69 2.614-5.222 2.208-1.531-.407-6.035-5.213-6.156-6.247-.122-1.035.682-2.472 2.264-4.489a563.318 563.318 0 0 0 9.894-11.277 15.524 15.524 0 0 1 5.317-3.443c2.654-.931 5.741-1.179 9.26-.742.44 3.933.192 6.999-.746 9.198a15.395 15.395 0 0 1-3.466 5.281zM40.897 44.811a.895.895 0 0 0-1.265 0l-1.837 1.838a.895.895 0 0 0 1.265 1.265l1.837-1.837a.895.895 0 0 0 0-1.266zM43.071 47.715a.902.902 0 0 0-1.275 0l-6.175 6.174a.902.902 0 0 0 1.276 1.275l6.174-6.174a.902.902 0 0 0 0-1.275zM45.962 49.9a.936.936 0 0 0-1.324 0l-3.204 3.205a.936.936 0 1 0 1.324 1.324l3.204-3.204a.936.936 0 0 0 0-1.324z"/>
            <path d="M66.117 23.017c-3.642-.884-7.425.955-8.8 4.276-.18.44.046.939.506 1.116a.947.947 0 0 0 .117.037c.429.104.88-.107 1.046-.509 1.047-2.531 3.93-3.932 6.705-3.259.482.117.967-.16 1.084-.619.118-.458-.177-.925-.658-1.042z"/>
        </g>
        <path fill="#2E4550" fill-rule="nonzero" d="M13.357 12.563l-.285.437-2.34-1.329.285-.436 2.34 1.328zm-3.745-2.125l-.285.436-2.34-1.328.285-.437 2.34 1.329zM5.867 8.312l-.284.436L3.242 7.42l.285-.437 2.34 1.329zM2.123 6.186l-.285.437L0 5.579l.285-.436 1.838 1.043zM96.643 12.563l.285.437 2.34-1.329-.285-.436-2.34 1.328zm3.745-2.125l.285.436 2.34-1.328-.285-.437-2.34 1.329zm3.745-2.126l.284.436 2.341-1.328-.285-.437-2.34 1.329zm3.744-2.126l.285.437L110 5.579l-.285-.436-1.838 1.043z"/>
    </g>
</svg>
