<svg xmlns="http://www.w3.org/2000/svg" width="749" height="233" viewBox="0 0 749 233"><path fill="#80A13F" d="M474.1 178.8c-9.3 0-16.8 7.5-16.8 16.8v21.8c0 9.3 7.5 16.8 16.8 16.8 9.301 0 16.801-7.5 16.801-16.8v-21.8a16.774 16.774 0 0 0-16.801-16.8z"/><path fill="#95BB5F" d="M457.3 195.6v21.8c0 9.3 7.5 16.8 16.8 16.8v-55.4c-9.3 0-16.8 7.5-16.8 16.8z"/><path fill="#C0DF6B" d="M470.7 197.1c0-4.5-3.7-8.199-8.2-8.199 0 4.599 3.7 8.199 8.2 8.199zM470.7 207c0-4.5-3.7-8.2-8.2-8.2 0 4.5 3.7 8.2 8.2 8.2zM470.7 216.9c0-4.5-3.7-8.2-8.2-8.2 0 4.5 3.7 8.2 8.2 8.2zM470.7 226.7c0-4.5-3.7-8.2-8.2-8.2 0 4.6 3.7 8.2 8.2 8.2zM477.5 197.1c0-4.5 3.7-8.199 8.2-8.199 0 4.599-3.7 8.199-8.2 8.199zM477.5 207c0-4.5 3.7-8.2 8.2-8.2 0 4.5-3.7 8.2-8.2 8.2zM477.5 216.9c0-4.5 3.7-8.2 8.2-8.2 0 4.5-3.7 8.2-8.2 8.2zM477.5 226.7c0-4.5 3.7-8.2 8.2-8.2 0 4.6-3.7 8.2-8.2 8.2z"/><path fill="#80A13F" d="M247.1 178.8c-9.3 0-16.8 7.5-16.8 16.8v21.8c0 9.3 7.5 16.8 16.8 16.8s16.8-7.5 16.8-16.8v-21.8c0-9.3-7.5-16.8-16.8-16.8z"/><path fill="#95BB5F" d="M230.3 195.6v21.8c0 9.3 7.5 16.8 16.8 16.8v-55.4c-9.3 0-16.8 7.5-16.8 16.8z"/><path fill="#C0DF6B" d="M243.7 197.1c0-4.5-3.7-8.199-8.2-8.199 0 4.599 3.7 8.199 8.2 8.199zM243.7 207c0-4.5-3.7-8.2-8.2-8.2 0 4.5 3.7 8.2 8.2 8.2zM243.7 216.9c0-4.5-3.7-8.2-8.2-8.2 0 4.5 3.7 8.2 8.2 8.2zM243.7 226.7c0-4.5-3.7-8.2-8.2-8.2 0 4.6 3.7 8.2 8.2 8.2zM250.5 197.1c0-4.5 3.7-8.199 8.2-8.199 0 4.599-3.7 8.199-8.2 8.199zM250.5 207c0-4.5 3.7-8.2 8.2-8.2 0 4.5-3.7 8.2-8.2 8.2zM250.5 216.9c0-4.5 3.7-8.2 8.2-8.2 0 4.5-3.7 8.2-8.2 8.2zM250.5 226.7c0-4.5 3.7-8.2 8.2-8.2 0 4.6-3.7 8.2-8.2 8.2z"/><g><path fill="#707070" d="M673.2 182.3h5.5v53.2h-5.5z"/><path fill="#80A13F" d="M675.9 138.1c-9.301 0-16.801 7.5-16.801 16.801v21.8c0 9.3 7.5 16.8 16.801 16.8 9.3 0 16.8-7.5 16.8-16.8v-21.8c0-9.301-7.5-16.801-16.8-16.801z"/><path fill="#95BB5F" d="M659.1 154.9v21.8c0 9.3 7.5 16.8 16.801 16.8v-55.4c-9.301 0-16.801 7.5-16.801 16.8z"/><path fill="#C0DF6B" d="M672.5 156.4c0-4.5-3.7-8.2-8.2-8.2.1 4.5 3.7 8.2 8.2 8.2zM672.5 166.3c0-4.5-3.7-8.2-8.2-8.2.1 4.5 3.7 8.2 8.2 8.2zM672.5 176.1c0-4.5-3.7-8.199-8.2-8.199.1 4.599 3.7 8.199 8.2 8.199zM672.5 186c0-4.5-3.7-8.2-8.2-8.2.1 4.5 3.7 8.2 8.2 8.2zM679.3 156.4c0-4.5 3.7-8.2 8.2-8.2 0 4.5-3.7 8.2-8.2 8.2zM679.3 166.3c0-4.5 3.7-8.2 8.2-8.2 0 4.5-3.7 8.2-8.2 8.2zM679.3 176.1c0-4.5 3.7-8.199 8.2-8.199 0 4.599-3.7 8.199-8.2 8.199zM679.3 186c0-4.5 3.7-8.2 8.2-8.2 0 4.5-3.7 8.2-8.2 8.2z"/><g><path fill="#454545" d="M665.8 223.8h42.8v3h-42.8z"/><path fill="#454545" d="M660.6 207.7h5.301v26.6H660.6zM706.7 207.7h5.3v26.6h-5.3z"/><path fill="#454545" d="M660.6 221.5h5.301v14.1H660.6zM706.7 221.5h5.3v14.1h-5.3z"/><path fill="#707070" d="M657.7 206.5H715v4.7h-57.3zM657.7 213.5H715v4.7h-57.3z"/><path fill="#454545" d="M655 220.2h62.6v3.8H655z"/><circle fill="#454545" cx="709.3" cy="208.9" r="1.1"/><circle fill="#454545" cx="709.3" cy="215.9" r="1.1"/><g><circle fill="#454545" cx="663.2" cy="208.9" r="1.1"/><circle fill="#454545" cx="663.2" cy="215.9" r="1.1"/></g></g><g><path fill="#707070" d="M724.4 182.3h5.5v53.2h-5.5z"/><path fill="#80A13F" d="M727.1 138.1c-9.3 0-16.8 7.5-16.8 16.801v21.8c0 9.3 7.5 16.8 16.8 16.8 9.301 0 16.801-7.5 16.801-16.8v-21.8A16.774 16.774 0 0 0 727.1 138.1z"/><path fill="#95BB5F" d="M710.3 154.9v21.8c0 9.3 7.5 16.8 16.8 16.8v-55.4c-9.3 0-16.8 7.5-16.8 16.8z"/><path fill="#C0DF6B" d="M723.7 156.4c0-4.5-3.7-8.2-8.2-8.2 0 4.5 3.7 8.2 8.2 8.2zM723.7 166.3c0-4.5-3.7-8.2-8.2-8.2 0 4.5 3.7 8.2 8.2 8.2zM723.7 176.1c0-4.5-3.7-8.199-8.2-8.199 0 4.599 3.7 8.199 8.2 8.199zM723.7 186c0-4.5-3.7-8.2-8.2-8.2 0 4.5 3.7 8.2 8.2 8.2zM730.5 156.4c0-4.5 3.7-8.2 8.2-8.2 0 4.5-3.7 8.2-8.2 8.2zM730.5 166.3c0-4.5 3.7-8.2 8.2-8.2 0 4.5-3.7 8.2-8.2 8.2zM730.5 176.1c0-4.5 3.7-8.199 8.2-8.199 0 4.599-3.7 8.199-8.2 8.199zM730.5 186c0-4.5 3.7-8.2 8.2-8.2 0 4.5-3.7 8.2-8.2 8.2z"/></g><g><g fill="#454545"><path d="M694.7 100.6l4.5 4.6-3.5 3.1-2.5-2.2z"/><path d="M697.3 105.4h7.7v3.6h-7.7zM692.1 102.5h3.301v4.4H692.1z"/><path d="M695.4 105.4h-5.5c0 3.2 2.5 5.7 5.6 5.7 3.1 0 5.6-2.6 5.6-5.7h-5.7zM690.5 101.7l-2.4 1.4 2.4 1.8v.5z"/><path d="M699.5 105.4h7.7c0 2.2-.9 4.2-2.3 5.6l-5.4-5.6z"/><ellipse cx="692.6" cy="102.5" rx="2.801" ry="2.9"/><path d="M695.5 105.4c1.3 1.3 3.4 1.3 4.6 0 1.301-1.3 1.301-3.5 0-4.8l-4.6 4.8z"/><path d="M693.9 107.1a5.552 5.552 0 0 0 7.899 0c2.2-2.2 2.2-5.9 0-8.1l-1.6 1.7c1.3 1.3 1.3 3.5 0 4.8s-3.4 1.3-4.601 0l-1.698 1.6zM689.9 102.5h2.8v2.9h-2.8z"/></g></g></g><g><path fill="#A5A5A5" d="M393.1 32s-5.6-18.8-32.899-17.7c-26.4 1.1-32 17.7-32 17.7h-44.7v186h154.3V32H393.1z"/><g fill="#444342"><path d="M278.5 92.2h167.2v7.4H278.5z"/><path d="M278.5 95.8h167.2v7.4H278.5z"/></g><path fill="#5B5B5B" d="M269.6 97.7h182.2v9.4H269.6z"/><path fill="#EAE8E5" d="M269.6 102.3h182.2v9.4H269.6z"/><path fill="#A5A5A5" d="M269.7 111.7h181.8v121.7H269.7z"/><path fill="#4C3D31" d="M277.3 213.5v-51.6s2.2-11.101 10.7-11.7c8.5-.601 10.8 11.7 10.8 11.7v51.7l-21.5-.1z"/><path fill="#EAE8E5" d="M278.4 212.5v-50.4s2-9.699 9.6-10.199 9.7 10.399 9.7 10.399v50.3l-19.3-.1z"/><path fill="#4C3D31" d="M306.6 213.5v-51.6s2.2-11.101 10.7-11.7c8.5-.601 10.8 11.7 10.8 11.7v51.7l-21.5-.1z"/><path fill="#EAE8E5" d="M307.8 212.5v-50.3s2-9.8 9.601-10.3c7.6-.5 9.699 10.199 9.699 10.199V212.7l-19.3-.2z"/><path fill="#4C3D31" d="M337.9 158.3h36.6v75.101h-36.6zM356.1 139.1h2.7v16.4h-2.7z"/><path fill="#4C3D31" d="M341.3 156.8l15.601-.2.199-17.5s-.699-5.199-7.3-5.6c-6.6-.4-8.3 5.6-8.3 5.6l-.2 17.7z"/><path fill="#EAE8E5" d="M342.5 157h13.1v-17.7s0-4.6-6.6-4.6c-5.7 0-6.6 4.8-6.6 4.8l.1 17.5z"/><path fill="#4C3D31" d="M358 156.6h15.6v-17.9s-.399-4.9-7.199-5.2c-6.801-.4-8.7 5.6-8.7 5.6l.299 17.5z"/><path fill="#EAE8E5" d="M359.5 157h13.3v-17.7s0-4.6-6.7-4.6c-5.8 0-6.699 4.8-6.699 4.8l.099 17.5zM342.4 160.3h13.199v41.2H342.4zM359.4 160.3h13.199v41.2H359.4z"/><linearGradient id="a" gradientUnits="userSpaceOnUse" x1="608.368" y1="-331.05" x2="621.567" y2="-331.05" gradientTransform="matrix(1 0 0 -1 -266 -114)"><stop offset=".017" stop-color="#332820"/><stop offset="1" stop-color="#704a2b"/></linearGradient><path fill="url(#a)" d="M342.4 203.2v27.7h13.2v-27.7h-13.2zm12.5 27.1h-12.2v-26.7h12.2v26.7z"/><linearGradient id="b" gradientUnits="userSpaceOnUse" x1="625.4" y1="-331.05" x2="638.623" y2="-331.05" gradientTransform="matrix(1 0 0 -1 -266 -114)"><stop offset=".017" stop-color="#332820"/><stop offset="1" stop-color="#704a2b"/></linearGradient><path fill="url(#b)" d="M359.4 203.2v27.7h13.2v-27.7h-13.2zm12.6 27.1h-12.2v-26.7H372v26.7z"/><path fill="#332820" d="M357.2 139.1h.5v94.301h-.5z"/><path fill="#F4C058" d="M359 205.2c0 .2-.2.399-.4.399a.43.43 0 0 1-.399-.399v-10.4c0-.2.2-.399.399-.399.2 0 .4.199.4.399v10.4z"/><path fill="#332820" d="M359.2 203.1c0 .301-.3.601-.601.601-.3 0-.6-.3-.6-.601v-6.5c0-.3.3-.6.6-.6.301 0 .601.3.601.6v6.5z"/><path fill="#F4C058" d="M356.8 205.2c0 .2-.2.399-.399.399-.2 0-.4-.199-.4-.399v-10.4c0-.2.2-.399.4-.399a.43.43 0 0 1 .399.399v10.4z"/><path fill="#332820" d="M357 203.1c0 .301-.3.601-.6.601-.301 0-.601-.3-.601-.601v-6.5c0-.3.3-.6.601-.6.3 0 .6.3.6.6v6.5z"/><g fill="#444342"><path d="M339.4 155.5h38.399v3.5H339.4z"/><path d="M341.5 157h32.1v.7h-32.1z"/></g><path fill="#332820" d="M335.9 122h5.6v114.7h-5.6zM373.6 122h5.9v115h-5.9z"/><path fill="#4C3D31" d="M386 213.5v-51.6s2.1-11.101 10.2-11.7c8.1-.601 10.3 11.7 10.3 11.7v51.7l-20.5-.1z"/><path fill="#EAE8E5" d="M387.1 212.5v-50.4s1.9-9.699 9.101-10.199 9.2 10.399 9.2 10.399v50.3l-18.301-.1z"/><path fill="#4C3D31" d="M406.2 213.5v-51.6s2.1-11.101 10.2-11.7c8.1-.601 10.3 11.7 10.3 11.7v51.7l-20.5-.1z"/><path fill="#EAE8E5" d="M407.3 212.5v-50.7s1.9-9.399 9.101-9.899c7.199-.5 9.199 10.1 9.199 10.1v50.6l-18.3-.101z"/><path fill="#4C3D31" d="M426.6 213.5v-51.6s2.101-11.101 10.2-11.7c8.101-.601 10.3 11.7 10.3 11.7v51.7l-20.5-.1z"/><path fill="#EAE8E5" d="M427.6 212.5v-50.7s1.9-9.399 9.101-9.899 9.2 10.3 9.2 10.3V212.6l-18.301-.1z"/><g fill="#635A4E"><path d="M437.1 188.8h.801v25h-.801zM439.3 160.1s0-2.5-2.6-2.5c-2.601 0-2.601 2.4-2.601 2.5 0 0-.399 4.2 2.601 4.4s2.6-4.4 2.6-4.4z"/><path d="M443.3 167.9c-.2-.9-.8-1.301-.8-1.301l-4.5-.5-.1-2c-.9.5-1.801.301-2.5-.199 0 .8 0 2-.101 2.1-.3.2-3.8 1.1-3.7 1.1-.1.101-.3.2-.5.5-.399.7-1.3 1.801-1.3 1.801s.9 1.3 2.3 2c0 0 .4-1 .801-1 .399 0 2.699 2.899 4.3 2.899.5 0 3.3-1.5 3.7-2.2 0 0 0-.1.1-.199 0 0 .2-.601.7-.5.399 0 .8 1 .8 1 1.5-.7 2.2-1.7 2.2-1.7s-1.2-1.001-1.4-1.801z"/></g><path fill="#A5A5A5" d="M433.1 170.1s2.2-.699 3.801 1.801c0 0 1.6-2.5 4.199-1.801 0 0 .7 1.101-.199 2.9-.9 1.8-1.601 3.8-1.101 4.9.5 1.1 1.8 4.1 2.4 6.8.6 2.5.1 5.3.1 5.3s-4.1 2-9.399 0c0 0 .1-6.1.8-8.1.7-2.101.899-3.5.8-4.2 0-.8-1.2-4.101-1.7-4.9-.401-.7-.101-2.3.299-2.7z"/><path fill="#261D24" d="M434.1 175.8s1.301.601 2.4.5c2.1-.1 3.3-.5 3.3-.5s-.2 1.8.101 2.5c0 0-3.101.7-5.4.3-.001 0-.001-1.6-.401-2.8z"/><path fill="#FCF0DE" d="M437.4 175.8h-.5c-.601 0-1.101.7-1.101 1.601 0 .899.5 1.6 1.101 1.6h.5c.6 0 1.1-.7 1.1-1.6 0-.801-.5-1.601-1.1-1.601zm0 3h-.4c-.5 0-.9-.6-.9-1.3s.4-1.3.9-1.3h.4c.5 0 .899.6.899 1.3-.099.8-.399 1.3-.899 1.3z"/><path fill="#A5A5A5" d="M435 166.1s.3 2 1.8 2.101c1.5.2 1.4-2.101 1.4-2.101s.2-.1.3 0c0 0 .1 2.301-1.7 2.301s-2.1-2.2-2.1-2.2.2-.101.3-.101z"/><ellipse fill="#FCF0DE" cx="437" cy="168.9" rx=".5" ry=".6"/><g><g fill="#635A4E"><path d="M316.8 188.8h.8v25h-.8zM318.9 160.1s0-2.5-2.601-2.5c-2.6 0-2.6 2.4-2.6 2.5 0 0-.4 4.2 2.6 4.4s2.601-4.4 2.601-4.4z"/><path d="M323 167.9c-.2-.9-.8-1.301-.8-1.301l-4.5-.5-.101-2c-.899.5-1.8.301-2.5-.199 0 .8 0 2-.1 2.1-.3.2-3.8 1.1-3.7 1.1-.1.101-.3.2-.5.5-.399.7-1.3 1.801-1.3 1.801s.9 1.3 2.3 2c0 0 .4-1 .8-1s2.7 2.899 4.301 2.899c.5 0 3.3-1.5 3.699-2.2 0 0 0-.1.101-.199 0 0 .2-.601.7-.5.399 0 .8 1 .8 1 1.5-.7 2.2-1.7 2.2-1.7s-1.2-1.001-1.4-1.801z"/></g><path fill="#A5A5A5" d="M312.8 170.1s2.2-.699 3.8 1.801c0 0 1.601-2.5 4.2-1.801 0 0 .7 1.101-.2 2.9-.899 1.8-1.6 3.8-1.1 4.9.5 1.1 1.8 4.1 2.4 6.8.6 2.5.1 5.3.1 5.3s-4.1 2-9.4 0c0 0 .101-6.1.801-8.1.699-2.101.899-3.5.8-4.2 0-.8-1.2-4.101-1.7-4.9-.401-.7-.101-2.3.299-2.7z"/><path fill="#261D24" d="M313.8 175.8s1.3.601 2.4.5c2.1-.1 3.3-.5 3.3-.5s-.2 1.8.1 2.5c0 0-3.1.7-5.399.3-.001 0-.101-1.6-.401-2.8z"/><path fill="#FCF0DE" d="M317.1 175.8h-.5c-.6 0-1.1.7-1.1 1.601 0 .899.5 1.6 1.1 1.6h.5c.601 0 1.101-.7 1.101-1.6-.001-.801-.501-1.601-1.101-1.601zm-.1 3h-.4c-.5 0-.899-.6-.899-1.3s.399-1.3.899-1.3h.4c.5 0 .9.6.9 1.3 0 .8-.4 1.3-.9 1.3z"/><path fill="#A5A5A5" d="M314.7 166.1s.3 2 1.8 2.101c1.5.2 1.4-2.101 1.4-2.101s.199-.1.3 0c0 0 .1 2.301-1.7 2.301s-2.1-2.2-2.1-2.2.1-.101.3-.101z"/><ellipse fill="#FCF0DE" cx="316.7" cy="168.9" rx=".5" ry=".6"/></g><g><g fill="#635A4E"><path d="M288.1 188.8h.8v25h-.8zM290.3 160.1s0-2.5-2.6-2.5-2.6 2.4-2.6 2.5c0 0-.4 4.2 2.6 4.4s2.6-4.4 2.6-4.4z"/><path d="M294.3 167.9c-.2-.9-.8-1.301-.8-1.301l-4.5-.5-.1-2c-.9.5-1.8.301-2.5-.199 0 .8 0 2-.1 2.1-.3.2-3.8 1.1-3.7 1.1-.1.101-.3.2-.5.5-.4.7-1.3 1.801-1.3 1.801s.9 1.3 2.3 2c0 0 .4-1 .8-1s2.7 2.899 4.3 2.899c.5 0 3.3-1.5 3.7-2.2 0 0 0-.1.1-.199 0 0 .2-.601.7-.5.4 0 .8 1 .8 1 1.5-.7 2.2-1.7 2.2-1.7s-1.2-1.001-1.4-1.801z"/></g><path fill="#A5A5A5" d="M284.1 170.1s2.2-.699 3.8 1.801c0 0 1.6-2.5 4.2-1.801 0 0 .7 1.101-.2 2.9s-1.6 3.8-1.1 4.9c.5 1.1 1.8 4.1 2.4 6.8.6 2.5.1 5.3.1 5.3s-4.1 2-9.4 0c0 0 .1-6.1.8-8.1.7-2.101.9-3.5.8-4.2 0-.8-1.2-4.101-1.7-4.9-.4-.7-.1-2.3.3-2.7z"/><path fill="#261D24" d="M285.1 175.8s1.3.601 2.4.5c2.1-.1 3.3-.5 3.3-.5s-.2 1.8.1 2.5c0 0-3.1.7-5.4.3 0 0 0-1.6-.4-2.8z"/><path fill="#FCF0DE" d="M288.4 175.8h-.5c-.6 0-1.1.7-1.1 1.601 0 .899.5 1.6 1.1 1.6h.5c.6 0 1.1-.7 1.1-1.6 0-.801-.5-1.601-1.1-1.601zm0 3h-.4c-.5 0-.9-.6-.9-1.3s.4-1.3.9-1.3h.4c.5 0 .9.6.9 1.3-.1.8-.4 1.3-.9 1.3z"/><path fill="#A5A5A5" d="M286 166.1s.3 2 1.8 2.101c1.5.2 1.4-2.101 1.4-2.101s.2-.1.3 0c0 0 .1 2.301-1.7 2.301s-2.1-2.2-2.1-2.2.2-.101.3-.101z"/><ellipse fill="#FCF0DE" cx="288" cy="168.9" rx=".5" ry=".6"/></g><g><path fill="#344946" d="M391.7 168.3s.2-4.1 4-4.5c3.8-.399 4 4.5 4 4.5h.399s-.399-5.3-4.199-4.899c-3.801.399-4.5 3.1-4.801 4.899h.601z"/><path fill="#A5A5A5" d="M388.7 175.6s.8-7.5 2.3-7.699c1.4-.2 9.7-.7 10.1 0 .4.699 1.9 8 1.4 8.199-.6.2-14.2 1.2-13.8-.5z"/><path fill="#A5A5A5" d="M390.7 168s0 2.6 4.5 2.8 5.7-3 5.7-3-.7 3.2-5.601 3.4c-4.999.1-4.899-2.7-4.599-3.2z"/><path fill="#344946" d="M397.5 170.8c0 .5-.4.9-.9.9h-2c-.5 0-.899-.4-.899-.9s.399-.899.899-.899h2c.5-.001.9.399.9.899z"/></g><g fill="#323D47"><path d="M387 176.1h18.9v2.801H387zM387 194.7h18.9v2.8H387z"/></g><g><path fill="#A5A5A5" d="M409.6 189.3s-.899 3.3-.6 4.4c.3 1.1 4.8 1.1 7 1.1 2.2-.1 5.2.101 5.7-1.2.5-1.3-.3-4.1-.3-4.1s-9.3-1-11.8-.2z"/><path fill="#56493A" d="M409.5 187.2h12s0 2-.1 2.2c-.1.2-11.7.2-11.8-.1-.1-.2-.1-2.1-.1-2.1z"/><path fill="#776957" d="M420.6 187.5c-.1-1.5-.8-5.1-4.899-5.2-4.4 0-5.2 4-5.4 5.101-.1.1-.3.399-.3.6 0 .4.2.3.3.7 0 .3.3.3.601.2.3-.101 0-.301.199-.5.101-.101.301-.7-.1-1 .1-1.9 1.5-4.4 4.5-4.7 3.3-.3 4.2 3.1 4.5 4.6-.5.3-.3.8-.2 1 .2.2-.1.5.2.5.3.101.5.101.6-.2 0-.3.301-.3.301-.699-.002-.102-.102-.302-.302-.402z"/><ellipse fill="#F5F5F5" cx="410.6" cy="188" rx=".3" ry=".3"/><ellipse fill="#F5F5F5" cx="420.3" cy="188" rx=".3" ry=".3"/><linearGradient id="c" gradientUnits="userSpaceOnUse" x1="681.123" y1="-306.161" x2="687.405" y2="-306.161" gradientTransform="matrix(1 0 0 -1 -266 -114)"><stop offset=".031" stop-color="#ceaf93"/><stop offset=".964" stop-color="#ead5c3"/></linearGradient><path fill="url(#c)" d="M415.1 194.5s4.601.2 5.7-.6c1.101-.801.4-4.101.4-4.101h-4.5c0 .001-.2 3.801-1.6 4.701z"/></g><g fill="#323D47"><path d="M406.5 176.1h19.9v2.801h-19.9zM406.5 194.7h19.9v2.8h-19.9z"/></g><path fill="#F7AD41" d="M294.8 104.7l-12.2 13.8h162l-10-13.8z"/><path fill="#FFBD66" d="M282.6 118.5v5.8s5.4 6.3 13.6 3.601c8.2-2.7 11.899-3.801 17-.7 5.1 3.1 16.5 3.6 20.5-1.8s12.6 3.8 24.899 2.5c12.2-1.301 14.7-6.5 21-2.9 6.301 3.6 12 6.1 17.9 3.8 5.8-2.3 10-7.399 16.1-4.7 6.101 2.7 6.4 4.7 14.101 4.801 7.6.1 16.7-4.801 16.7-4.801l.399-5.6H282.6z"/><g><path fill="#444342" d="M322.3 84.6h78.3v3.9h-78.3z"/><path fill="#444342" d="M365.6 45.5h19.9v41.6h-19.9z"/><path fill="#EAE8E5" d="M367.3 47.2h16.601v36.5H367.3z"/><path fill="#444342" d="M374.7 46.5h1.899v39H374.7z"/><path fill="#444342" d="M367.3 54.1h16.9v1.7h-16.9zM367.3 63.7h16.8v1.7h-16.8zM367.3 75.1h16.8v1.7h-16.8zM364.1 43.7H387v2.7h-22.9z"/><g><path fill="#444342" d="M334.3 45.5h19.9v41.6h-19.9z"/><path fill="#EAE8E5" d="M336 47.2h16.6v36.5H336z"/><path fill="#444342" d="M343.3 46.5h1.9v39h-1.9z"/><path fill="#444342" d="M336 54.1h16.9v1.7H336zM336 63.7h16.8v1.7H336zM336 75.1h16.8v1.7H336zM332.8 43.7h22.9v2.7h-22.9z"/></g></g><path fill="#444342" d="M395.6 31.1s-8.5-21-37.8-18.6c-22.899 1.9-28.8 14.9-30 18.6h-51l4.4 4H330s5.1-19.7 30.6-19.3c28.801.4 32 19.3 32 19.3h47.8l5.699-4H395.6z"/><path fill="#F7AD41" d="M300.8 58.4l1.7 10.4h4.6l1.4-10.6z"/><path fill="#444342" d="M303.2 54.8l-3.5 2.6v1.4h9.8v-1.4l-3.9-2.6z"/><path fill="#444342" d="M306.8 54.8h-.8c.1-.2.1-.3.1-.5s-.1-.5-.2-.7h.8v-.9H305c.4-.2.7-.6.7-1.1s-.3-.9-.8-1.1v-2h-.9v2c-.5.2-.8.6-.8 1.1s.3.9.7 1.1h-1.8v.9h.8c-.1.2-.2.4-.2.7 0 .2 0 .3.1.5h-.8v.5h1.1c.3.3.8.6 1.3.6s1-.2 1.3-.6h1.1v-.5zM300.5 58.4l1.5 10.7h5.6l.9-10.7h-.5l-1.1 9.8h-4.4l-1.1-9.8z"/><path fill="#444342" d="M303.9 68.6v3h2.3s.8-.5.2-1h-1.8l.1-2h-.8z"/><path fill="#F7AD41" d="M419 58.4l-1.7 10.4h-4.6l-1.4-10.6z"/><path fill="#444342" d="M416.6 54.8l3.5 2.6v1.4h-9.8v-1.4l3.9-2.6z"/><path fill="#444342" d="M412.8 54.8h.8c-.1-.2-.1-.3-.1-.5s.1-.5.2-.7h-.8v-.9h1.8c-.4-.2-.7-.6-.7-1.1s.3-.9.8-1.1v-2h.9v2c.5.2.8.6.8 1.1s-.3.9-.7 1.1h1.8v.9h-.8c.101.2.2.4.2.7 0 .2 0 .3-.1.5h.8v.5h-1.1c-.3.3-.8.6-1.3.6s-1-.2-1.3-.6h-1.1v-.5h-.1zM419.2 58.4l-1.4 10.7h-5.6l-.9-10.7h.5l1.1 9.8h4.3l1.2-9.8z"/><path fill="#444342" d="M415.8 68.6v3h-2.3s-.8-.5-.2-1h1.8l-.1-2h.8z"/></g><g><path fill="#F7AD41" d="M502.1 128.4h138.101v104.8H502.1z"/><path fill="#F8F7F8" d="M638 130.4c-2.6-.2-4.9.8-6.7 2-1.8-1.2-4.1-2-6.7-2-2.5 0-4.8.699-6.6 1.899-1.7-1.2-4.1-1.899-6.6-1.899s-4.7.699-6.5 1.8c-1.7-1.101-4-1.8-6.5-1.8s-4.8.7-6.6 1.9c-1.7-1.2-4.1-1.899-6.6-1.899-2.601 0-4.9.8-6.7 2-1.8-1.2-4.1-2-6.7-2-2.5 0-4.8.699-6.6 1.899-1.7-1.2-4.101-1.899-6.601-1.899-2.699 0-5.199.8-6.899 2.199-1.8-1.3-4.2-2.199-6.9-2.199-2.5 0-4.8.699-6.6 1.899-1.7-1.2-4.101-1.899-6.601-1.899-2.6 0-4.899.8-6.699 2a12.06 12.06 0 0 0-6.7-2c-2.5 0-4.8.699-6.601 1.899-1.699-1.2-16.399 1.4-16.399 5.5 0 4.101 4.399 7.4 9.8 7.4 2.5 0 4.8-.7 6.6-1.9 1.7 1.2 4.101 1.9 6.601 1.9 2.6 0 4.899-.8 6.7-2 1.8 1.2 4.1 2 6.699 2 2.5 0 4.801-.7 6.601-1.9 1.7 1.2 4.1 1.9 6.6 1.9 2.7 0 5.2-.8 6.9-2.2 1.8 1.3 4.2 2.2 6.899 2.2 2.5 0 4.801-.7 6.601-1.9 1.7 1.2 4.1 1.9 6.6 1.9 2.601 0 4.9-.8 6.7-2 1.8 1.2 4.1 2 6.7 2 2.5 0 4.8-.7 6.6-1.9 1.7 1.2 4.101 1.9 6.601 1.9s4.699-.7 6.5-1.8c1.699 1.1 4 1.8 6.5 1.8s4.8-.7 6.6-1.9c1.7 1.2 4.1 1.9 6.6 1.9 2.601 0 4.9-.8 6.7-2 1.8 1.2 4.101 2 6.7 2 5.4 0 9.8-4.101 9.8-8.2.098-1.7-8.002-6.5-9.802-6.6z"/><path fill="none" d="M647 136.4h.5c-1.5-2.101-8-5.9-9.5-6-2.6-.2-4.9.8-6.7 2-1.8-1.2-4.1-2-6.7-2-2.5 0-4.8.699-6.6 1.899-1.7-1.2-4.1-1.899-6.6-1.899s-4.7.699-6.5 1.8c-1.7-1.101-4-1.8-6.5-1.8s-4.8.7-6.6 1.9c-1.7-1.2-4.1-1.899-6.6-1.899-2.601 0-4.9.8-6.7 2-1.8-1.2-4.1-2-6.7-2-2.5 0-4.8.699-6.6 1.899-1.7-1.2-4.101-1.899-6.601-1.899-2.699 0-5.199.8-6.899 2.199-1.8-1.3-4.2-2.199-6.9-2.199-2.5 0-4.8.699-6.6 1.899-1.7-1.2-4.101-1.899-6.601-1.899-2.6 0-4.899.8-6.699 2a12.06 12.06 0 0 0-6.7-2c-2.5 0-4.8.699-6.601 1.899-1.699-1.2-16.399 1.4-16.399 5.5 0 1.8.8 3.4 2.2 4.7v-6.1h3v8c1 .399 2 .6 3.1.8v-8.8h1.5v8.899c1.3 0 2.6-.2 3.7-.6v-8.3h3v7c.899.6 2 1.1 3.1 1.399V136.4h1.5v8.699c.601.101 1.2.101 1.8.101.801 0 1.5-.101 2.2-.2v-8.7h3v7.7c.5-.2 1-.5 1.5-.8.5.399 1.101.7 1.7.899v-7.8h1.5v8.4c1.1.3 2.3.5 3.5.5h.2v-8.8h3v8.399c1.2-.3 2.2-.8 3.1-1.3v-7.1h1.5v7.6c1.101.5 2.3.9 3.7 1.1V136.4h3v8.8c1.1-.101 2.2-.4 3.1-.7v-8h1.5v7.3c.301-.2.7-.399.9-.6.8.6 1.7 1.1 2.7 1.399v-8.1h3v8.8c.4 0 .8.101 1.2.101.7 0 1.3-.101 2-.2v-8.7h1.5v8.4c1.2-.301 2.2-.801 3.1-1.4.3.2.6.4.9.5v-7.5h3v8.6c.899.2 1.7.301 2.7.301h.399V136.6h1.5v8.7c1.4-.2 2.601-.6 3.7-1.2v-7.5h3v7.9c1 .4 2 .7 3.1.8v-8.7h1.5v8.9h.101c1.5 0 3-.3 4.2-.7v-8.1h3v7.3c.899.5 2 .9 3.1 1.2v-8.5h1.5v8.8c.4 0 .8.1 1.3.1.8 0 1.6-.1 2.4-.199V136.8h3v7.601c.399-.2.7-.4 1.1-.601.6.4 1.3.8 2.1 1.101V136.8h1.5v8.5c.9.2 1.9.3 2.9.3.4 0 .8 0 1.1-.1v-8.8h3v8.2c.9-.301 1.7-.7 2.5-1.2.2.1.4.3.7.399v-7.3h1.5v8.101c1.101.399 2.4.699 3.7.8v-8.8h3v8.6c1.1-.2 2.2-.6 3.1-1v-7.6h1.5v7c1.2.8 2.601 1.3 4.101 1.6v-8.6h3v8.8c1.1-.101 2.2-.3 3.1-.7v-8.2h1.5v7.5c1.601-.899 2.9-2.2 3.7-3.6v-4.3H647z"/><path fill="#A5A5A5" d="M497.5 136.4v6.1c.8.8 1.9 1.4 3 1.9v-8h-3zM503.6 136.4v8.8c.5.1 1 .1 1.4.1h.1v-8.9h-1.5zM508.8 136.4v8.3c1.101-.3 2-.8 2.8-1.4.101 0 .101.101.2.101v-7h-3v-.001zM514.9 136.4v8.399l1.5.3V136.4h-1.5zM520.5 136.4v8.699c1.1-.199 2.1-.5 3-1V136.4h-3zM526.6 136.4v7.8l1.5.6v-8.4h-1.5zM531.8 136.4v8.8c1.101 0 2.101-.2 3-.4v-8.4h-3zM538 136.4v7.1c.1-.1.2-.1.3-.2.4.3.8.5 1.2.7v-7.6H538zM543.2 136.4v8.699c.5.101 1.1.101 1.7.101.5 0 .899 0 1.3-.101v-8.8h-3v.101zM549.3 136.4v8c.5-.2 1-.4 1.5-.7v-7.3h-1.5zM554.5 136.4v8.1c.9.3 1.9.6 3 .7v-8.8h-3zM560.6 136.4v8.699l1.5-.3V136.4h-1.5zM566.2 136.4v7.5c.899.5 1.899.899 3 1.1v-8.6h-3zM572.3 136.4v8.8c.5 0 1-.101 1.5-.101V136.4h-1.5zM577.5 136.4v7.5c.4-.2.7-.4 1.1-.601.601.4 1.2.8 2 1.101v-7.9h-3.1v-.1zM583.7 136.4v8.699c.5.101 1 .101 1.5.101v-8.9h-1.5v.1zM589.5 136.4v8.1c.9-.3 1.6-.7 2.3-1.2.2.101.4.3.7.4v-7.3h-3zM595.7 136.4v8.5c.5.1 1 .199 1.5.199v-8.8h-1.5v.101zM600.9 136.4v8.6c1.1-.2 2.1-.6 3-1v-7.6h-3zM607 136.4v8.1c.5.2 1 .3 1.5.5v-8.5H607v-.1zM612.6 136.4v8.8c1.101-.101 2.101-.3 3-.601V136.4h-3zM618.7 136.4v7.3c.5.3 1 .5 1.5.7v-8.1h-1.5v.1zM623.9 136.4v8.8h.699c.801 0 1.601-.101 2.301-.2v-8.6h-3zM630 136.4v7.6c.5-.2.9-.5 1.3-.8.101.1.2.1.2.1v-7H630v.1zM635.7 136.4v8.6c.8.1 1.5.2 2.3.2h.7v-8.8h-3zM641.8 136.4v8.199c.5-.199 1-.399 1.5-.699v-7.5h-1.5z"/><path fill="#E5DFE5" d="M600.9 137.2l-57.7.2-47.9.1s.101-1.9 2-3.4c1.9-1.6 4.601-4.199 4.601-4.199l138.6.199s7.3 3.601 7.5 7l-47.101.1z"/><path fill="#A5A5A5" d="M497.5 137.5l6.9-7.6h2l-5.9 7.6zM503.6 137.5l5.2-7.6h1.5l-5.2 7.6zM508.8 137.5l4.5-7.6h2.4l-3.9 7.6zM514.9 137.5l3.5-7.6h1.5l-3.4 7.6zM520.5 137.5l3-7.6h2.6l-2.6 7.6zM526.6 137.5l2.1-7.6h1.1l-1.7 7.5zM531.8 137.4l1.5-7.5h2.6l-1.1 7.5zM538 137.4l1-7.5h1.3l-.8 7.5zM543.2 137.4l.6-7.5h2.7l-.3 7.5zM549.3 137.4l.2-7.5 1.4.1-.1 7.4zM554.5 137.4l.2-7.4 2.9-.1-.1 7.5zM560.6 137.4l.2-7.5h1.4v7.4zM566.2 137.3v-7.4h3v7.4zM572.3 129.9h1.5v7.399h-1.5zM577.5 137.3l-.7-7.5h2.6l1.1 7.5zM583.7 137.3l-1.3-7.5h1.5l1.3 7.5zM641.8 137.1l-7.4-7h1.6l7.3 7zM635.7 137.1l-6.3-7h2.8l6.5 7zM630 137.1l-5.7-7h1.4l5.9 7zM623.9 137.2l-5.4-7.1h2.7l5.7 7zM618.7 137.2l-5.8-7.2 1.6.1 5.7 7.1zM612.6 137.2l-5.5-7.2h2.7l5.8 7.1zM608.5 137.2l-3.8-7.2h-1.3l3.6 7.2zM589.5 137.3l-2.2-7.3h2.5l2.8 7.3zM600.9 137.2l-3.2-7.2h2.4l3.8 7.2zM595.7 137.2l-3.1-7.2h1.5l3.1 7.2z"/><g><path fill="#F7AD41" d="M501.8 129.9v-7s21.601-25.5 67.2-25 71.4 24.8 71.4 24.8v7.5l-138.6-.3z"/></g><g><path fill="#444342" d="M592 148.8h43.9v83.601H592z"/><g fill="#EAE8E5"><path d="M608 171.6h11.8v16H608zM595.1 171.6h11.801v16H595.1zM620.9 171.6h11.8v16h-11.8zM608 153.9h11.8v16H608zM595.1 153.9h11.801v16H595.1zM620.9 153.9h11.8v16h-11.8z"/><g><path d="M608 189.2h11.8v16H608zM595.1 189.2h11.801v16H595.1zM620.9 189.2h11.8v16h-11.8z"/></g><g><path d="M608 207h11.8v16H608zM595.1 207h11.801v16H595.1zM620.9 207h11.8v16h-11.8z"/></g></g></g><path fill="#F8F7F8" d="M508.6 148.8h75.601v71.9H508.6z"/><path fill="#EAE8E5" d="M511.2 151.2h70.399v66.899H511.2z"/><g><path fill="#6B949B" d="M522.1 195.3h.9v18.101h-.9zM523.4 173.1v-2c1.3-.5 2.199-2.1 2.199-4 0-2.3-1.399-4.199-3.1-4.199s-2.8 1.899-3.1 4.199c-.299 2.6 2.201 3.8 2.201 3.8v2.199c-.6.2-1.6.2-2.5.2-1.1 0-1.899-.1-1.899-.1s2.2 2.8 5.3 3.3c3.1.4 5.4-3.3 5.4-3.3h-4.5v-.099z"/><path fill="#845259" d="M526.2 189.9c-.8-2.5-.7-3.301-.7-4.601s.3-4.899.6-5.899c.301-1.101.4-2.601.4-2.601s.2.2.5.3l.2.601s.5.2 1.1 0c.5-.2.7-.9.7-.9l-.3-.399c.6-1.4.1-4.7-2.5-3.2 0 0-1.3 2.1-3.7 2.399-2.4.2-3.3-2.199-3.3-2.199s-1.101-1-2.2-.601c-1.1.4-1.6 1.101-1.3 2.5 0 .2.1.4.1.601l-.399 1s-.301.399.399.699c.601.301 1.101.2 1.101.2l.3-.399c.2 0 .2.1.6 0 0 0 .101 1.199.2 1.699s1.3 3.4 1.5 6.4c.1 3-.4 3.7-1.4 5.9-.899 2.199-2.199 9.1-2.199 9.1s8.8.8 14 0c-.002-.2-2.702-7.4-3.702-10.6z"/></g><g><g fill="#6B949B"><path d="M545.5 195.3h.9v18.101h-.9zM546.8 173.1v-2c1.3-.5 2.2-2.1 2.2-4 0-2.3-1.4-4.199-3.1-4.199-1.7 0-3 1.899-3.101 4.199-.1 3.2 2.2 3.9 2.2 3.9l-.1 2.1c-.601.2-1.601.2-2.5.2-1.101 0-1.9-.1-1.9-.1s2.2 2.8 5.3 3.3c3.101.4 5.4-3.3 5.4-3.3h-4.4v-.1z"/></g><path fill="#303D3A" d="M541.8 174s-1.8 3.4-.3 5 2 3.8 1.9 4.8c-.101 1.101-.601 2.5-1.601 5.601-1 3-1.1 10.5-1.1 10.5s4.2 1 6.899.699c2.7-.3 5-1.199 5-1.199s.301-6.9-1.8-10.7c-2.1-3.9-1.8-5.3-1.6-6.5s1.3-2.5 1.7-3.5c.399-1.101-.601-4.601-.601-4.601h-8.5v-.1z"/></g><g><path fill="#F8F7F8" d="M531.6 149.8h1.601v61.5H531.6z"/></g><g><path fill="#F8F7F8" d="M556.2 149.8h1.6v61.5h-1.6z"/></g><g><path fill="#6B949B" d="M568.4 195.2h.899v18.2h-.899zM574.3 172.9h-4.6v-2c1.3-.5 2.2-2.101 2.2-4.101 0-2.3-1.4-4.2-3.101-4.2s-3 1.9-3.1 4.2c-.101 2.8 2.1 4 2.1 4l.101 2.101c-.601.3-1.601.199-2.5.199-1.101 0-1.9-.1-1.9-.1s-.6.2-.2.7c.4.5 2.601 3.899 2.7 3.1 0-.1 0-.3-.1-.6.8.8 1.8 1.399 2.8 1.6 1.6.2 3-1.1 4.1-2.399 0 .399 0 .6.101.699.5.301 1.899-2.3 1.899-2.8 0-.399-.5-.399-.5-.399z"/><path fill="#EFAA2E" d="M576.9 188.9l-4.301-4.301s-1.6-1.399.2-4.6c1.3-2.3.3-4 .3-4v-3.1c-.3-.2-.6 0-.6 0s-.9 2.1-3.2 2.1-3.3-2-3.3-2c-.3-.5-.6 0-.6 0-.2 1-.301 2.5-.301 2.5s-.8 1.4-.5 2.7c.2.6.4 2.2.601 3.6 0 .3.3 2.601-.601 4.4l-5.5 7s.9 1.2 1.9 2.899c1 1.601 1.7 1.2 1.7 1.2-.2 1.2 2.7 2.3 3.2 1.5s2.399-.3 4.399.7 4.3-1.1 4.3-1.1 2 .199 3.2-1.101c1.2-1.2 1.3-3 1.3-3 .9-.8 1.4-2.7 1.4-2.7s-1.797-.997-3.597-2.697z"/></g><g><path fill="#444342" d="M509.1 223.7s-2.1-.5-2.199-3.9c-.101-3.399 0-8.399 0-8.399h79s.3 6.8 0 9.199c-.301 2.4-3 3.101-3 3.101H509.1v-.001z"/></g></g><g><path fill="#444342" d="M86.9 128.4H225v104.8H86.9z"/><path fill="#F8F7F8" d="M89.1 130.4c2.6-.2 4.9.8 6.7 2 1.8-1.2 4.1-2 6.7-2 2.5 0 4.8.699 6.6 1.899 1.7-1.2 4.1-1.899 6.6-1.899s4.7.699 6.5 1.8c1.7-1.101 4-1.8 6.5-1.8s4.8.699 6.6 1.899c1.7-1.2 4.1-1.899 6.6-1.899 2.6 0 4.9.8 6.7 2 1.8-1.2 4.1-2 6.7-2 2.5 0 4.8.699 6.6 1.899 1.7-1.2 4.1-1.899 6.6-1.899 2.7 0 5.2.8 6.9 2.199 1.8-1.3 4.2-2.199 6.9-2.199 2.5 0 4.8.699 6.6 1.899 1.7-1.2 4.1-1.899 6.6-1.899 2.6 0 4.9.8 6.7 2 1.8-1.2 4.1-2 6.7-2 2.5 0 4.8.699 6.6 1.899 1.7-1.2 16.4 1.4 16.4 5.5 0 4.101-4.4 7.4-9.8 7.4-2.5 0-4.8-.7-6.6-1.9-1.7 1.2-4.1 1.9-6.6 1.9-2.6 0-4.9-.8-6.7-2-1.8 1.2-4.1 2-6.7 2-2.5 0-4.8-.7-6.6-1.9-1.7 1.2-4.1 1.9-6.6 1.9-2.7 0-5.2-.8-6.9-2.2-1.8 1.3-4.2 2.2-6.9 2.2-2.5 0-4.8-.7-6.6-1.9-1.7 1.2-4.1 1.9-6.6 1.9-2.6 0-4.9-.8-6.7-2-1.8 1.2-4.1 2-6.7 2-2.5 0-4.8-.7-6.6-1.9-1.7 1.2-4.1 1.9-6.6 1.9s-4.7-.7-6.5-1.8c-1.7 1.1-4 1.8-6.5 1.8s-4.8-.7-6.6-1.9c-1.7 1.2-4.1 1.9-6.6 1.9-2.6 0-4.9-.8-6.7-2-1.8 1.2-4.1 2-6.7 2-5.4 0-9.8-4.101-9.8-8.2-.1-1.699 8-6.499 9.8-6.599z"/><path fill="none" d="M80.1 136.4h-.5c1.5-2.101 8-5.9 9.5-6 2.6-.2 4.9.8 6.7 2 1.8-1.2 4.1-2 6.7-2 2.5 0 4.8.699 6.6 1.899 1.7-1.2 4.1-1.899 6.6-1.899s4.7.699 6.5 1.8c1.7-1.101 4-1.8 6.5-1.8s4.8.699 6.6 1.899c1.7-1.2 4.1-1.899 6.6-1.899 2.6 0 4.9.8 6.7 2 1.8-1.2 4.1-2 6.7-2 2.5 0 4.8.699 6.6 1.899 1.7-1.2 4.1-1.899 6.6-1.899 2.7 0 5.2.8 6.9 2.199 1.8-1.3 4.2-2.199 6.9-2.199 2.5 0 4.8.699 6.6 1.899 1.7-1.2 4.1-1.899 6.6-1.899 2.6 0 4.9.8 6.7 2 1.8-1.2 4.1-2 6.7-2 2.5 0 4.8.699 6.6 1.899 1.7-1.2 16.4 1.4 16.4 5.5 0 1.8-.8 3.4-2.2 4.7v-6.1h-3v8c-1 .399-2 .6-3.1.8v-8.8H222v8.899c-1.3 0-2.6-.2-3.7-.6v-8.3h-3v7c-.9.6-2 1.1-3.1 1.399V136.4h-1.5v8.699c-.6.101-1.2.101-1.8.101-.8 0-1.5-.101-2.2-.2v-8.7h-3v7.7c-.5-.2-1-.5-1.5-.8-.5.399-1.1.7-1.7.899v-7.8H199v8.4c-1.1.3-2.3.5-3.5.5h-.2v-8.8h-3v8.399c-1.2-.3-2.2-.8-3.1-1.3v-7.1h-1.5v7.6c-1.1.5-2.3.9-3.7 1.1V136.4h-3v8.8c-1.1-.101-2.2-.4-3.1-.7v-8h-1.5v7.3c-.3-.2-.7-.399-.9-.6-.8.6-1.7 1.1-2.7 1.399v-8.1h-3v8.8c-.4 0-.8.101-1.2.101-.7 0-1.3-.101-2-.2v-8.7H165v8.4c-1.2-.301-2.2-.801-3.1-1.4-.3.2-.6.4-.9.5v-7.5h-3v8.6c-.9.2-1.7.301-2.7.301h-.4V136.6h-1.5v8.7c-1.4-.2-2.6-.6-3.7-1.2v-7.5h-3v7.9c-1 .4-2 .7-3.1.8v-8.7h-1.5v8.9h-.1c-1.5 0-3-.3-4.2-.7v-8.1h-3v7.3c-.9.5-2 .9-3.1 1.2v-8.5h-1.5v8.8c-.4 0-.8.1-1.3.1-.8 0-1.6-.1-2.4-.199V136.8h-3v7.601c-.4-.2-.7-.4-1.1-.601-.6.4-1.3.8-2.1 1.101V136.8h-1.5v8.5c-.9.2-1.9.3-2.9.3-.4 0-.8 0-1.1-.1v-8.8h-3v8.2c-.9-.301-1.7-.7-2.5-1.2-.2.1-.4.3-.7.399v-7.3h-1.5v8.101c-1.1.399-2.4.699-3.7.8v-8.8h-3v8.6c-1.1-.2-2.2-.6-3.1-1v-7.6h-1.5v7c-1.2.8-2.6 1.3-4.1 1.6v-8.6h-3v8.8c-1.1-.101-2.2-.3-3.1-.7v-8.2h-1.5v7.5c-1.6-.899-2.9-2.2-3.7-3.6v-4.3h-.3z"/><path fill="#A5A5A5" d="M229.7 136.4v6.1c-.8.8-1.9 1.4-3 1.9v-8h3zM223.5 136.4v8.8c-.5.1-1 .1-1.4.1h-.1v-8.9h1.5zM218.3 136.4v8.3c-1.1-.3-2-.8-2.8-1.4-.1 0-.1.101-.2.101v-7h3v-.001zM212.2 136.4v8.399l-1.5.3V136.4h1.5zM206.6 136.4v8.699c-1.1-.199-2.1-.5-3-1V136.4h3zM200.5 136.4v7.8l-1.5.6v-8.4h1.5zM195.3 136.4v8.8c-1.1 0-2.1-.2-3-.4v-8.4h3zM189.1 136.4v7.1c-.1-.1-.2-.1-.3-.2-.4.3-.8.5-1.2.7v-7.6h1.5zM183.9 136.4v8.699c-.5.101-1.1.101-1.7.101-.5 0-.9 0-1.3-.101v-8.8h3v.101zM177.8 136.4v8c-.5-.2-1-.4-1.5-.7v-7.3h1.5zM172.6 136.4v8.1c-.9.3-1.9.6-3 .7v-8.8h3zM166.5 136.4v8.699l-1.5-.3V136.4h1.5zM160.9 136.4v7.5c-.9.5-1.9.899-3 1.1v-8.6h3zM154.8 136.4v8.8c-.5 0-1-.101-1.5-.101V136.4h1.5zM149.6 136.4v7.5c-.4-.2-.7-.4-1.1-.601-.6.4-1.2.8-2 1.101v-7.9h3.1v-.1zM143.4 136.4v8.699c-.5.101-1 .101-1.5.101v-8.9h1.5v.1zM137.6 136.4v8.1c-.9-.3-1.6-.7-2.3-1.2-.2.101-.4.3-.7.4v-7.3h3zM131.4 136.4v8.5c-.5.1-1 .199-1.5.199v-8.8h1.5v.101zM126.2 136.4v8.6c-1.1-.2-2.1-.6-3-1v-7.6h3zM120.1 136.4v8.1c-.5.2-1 .3-1.5.5v-8.5h1.5v-.1zM114.6 136.4v8.8c-1.1-.101-2.1-.3-3-.601V136.4h3zM108.4 136.4v7.3c-.5.3-1 .5-1.5.7v-8.1h1.5v.1zM103.2 136.4v8.8h-.7c-.8 0-1.6-.101-2.3-.2v-8.6h3zM97.1 136.4v7.6c-.5-.2-.9-.5-1.3-.8-.1.1-.2.1-.2.1v-7h1.5v.1zM91.4 136.4v8.6c-.8.1-1.5.2-2.3.2h-.7v-8.8h3zM85.3 136.4v8.199c-.5-.199-1-.399-1.5-.699v-7.5h1.5z"/><path fill="#E5DFE5" d="M126.2 137.2l57.7.2 47.9.1s-.1-1.9-2-3.4c-1.9-1.6-4.6-4.199-4.6-4.199l-138.6.199s-7.3 3.601-7.5 7l47.1.1z"/><path fill="#A5A5A5" d="M229.7 137.5l-6.9-7.6h-2.1l5.9 7.6zM223.5 137.5l-5.2-7.6h-1.5l5.2 7.6zM218.3 137.5l-4.5-7.6h-2.4l3.9 7.6zM212.2 137.5l-3.5-7.6h-1.5l3.4 7.6zM206.6 137.5l-3-7.6H201l2.6 7.6zM200.5 137.5l-2.1-7.6h-1.1l1.7 7.5zM195.3 137.4l-1.5-7.5h-2.6l1.1 7.5zM189.1 137.4l-1-7.5h-1.3l.8 7.5zM183.9 137.4l-.6-7.5h-2.7l.3 7.5zM177.8 137.4l-.2-7.5-1.4.1.1 7.4zM172.6 137.4l-.2-7.4-2.9-.1.1 7.5zM166.5 137.4l-.2-7.5h-1.4l.1 7.4zM160.9 137.3v-7.4h-3v7.4zM153.3 129.9h1.5v7.399h-1.5zM149.6 137.3l.7-7.5h-2.6l-1.1 7.5zM143.4 137.3l1.3-7.5h-1.5l-1.3 7.5zM85.3 137.1l7.4-7h-1.6l-7.3 7zM91.4 137.1l6.3-7h-2.8l-6.5 7zM97.1 137.1l5.7-7h-1.4l-5.8 7zM103.2 137.2l5.4-7.1h-2.7l-5.7 7zM108.4 137.2l5.8-7.2-1.6.1-5.7 7.1zM114.6 137.2l5.4-7.2h-2.7l-5.8 7.1zM118.6 137.2l3.8-7.2h1.3l-3.6 7.2zM137.6 137.3l2.2-7.3h-2.5l-2.7 7.3zM126.2 137.2l3.2-7.2H127l-3.8 7.2zM131.4 137.2l3.2-7.2H133l-3.1 7.2z"/><g><path fill="#444342" d="M225.3 129.9v-7s-21.6-25.5-67.2-25-71.4 24.8-71.4 24.8v7.5l138.6-.3z"/></g><g><path fill="#EFAA2E" d="M91.3 148.8h43.9v83.601H91.3z"/><g fill="#444342"><path d="M107.3 171.6h11.8v16h-11.8zM120.2 171.6H132v16h-11.8zM94.5 171.6h11.8v16H94.5zM107.3 153.9h11.8v16h-11.8zM120.2 153.9H132v16h-11.8zM94.5 153.9h11.8v16H94.5z"/><g><path d="M107.3 189.2h11.8v16h-11.8zM120.2 189.2H132v16h-11.8zM94.5 189.2h11.8v16H94.5z"/></g><g><path d="M107.3 207h11.8v16h-11.8zM120.2 207H132v16h-11.8zM94.5 207h11.8v16H94.5z"/></g></g></g><path fill="#F8F7F8" d="M142.9 148.8h75.6v71.9h-75.6z"/><path fill="#EAE8E5" d="M145.5 151.2h70.4v66.899h-70.4z"/><g><path fill="#6B949B" d="M204.1 193.9h.9V212h-.9zM203.7 171.7v-2c-1.3-.5-2.2-2.101-2.2-4 0-2.3 1.4-4.2 3.1-4.2 1.7 0 2.8 1.9 3.1 4.2.3 2.6-2.2 3.8-2.2 3.8v2.2c.6.2 1.6.2 2.5.2 1.1 0 1.9-.101 1.9-.101s-2.2 2.8-5.3 3.3c-3.1.4-5.4-3.3-5.4-3.3h4.5v-.099z"/><path fill="#845259" d="M200.9 188.6c.8-2.5.7-3.3.7-4.6s-.3-4.9-.6-5.9c-.3-1.1-.4-2.6-.4-2.6s-.2.2-.5.3l-.2.601s-.5.199-1.1 0c-.5-.2-.7-.9-.7-.9l.3-.4c-.6-1.399-.1-4.699 2.5-3.199 0 0 1.3 2.1 3.7 2.399 2.4.2 3.3-2.2 3.3-2.2s1.1-1 2.2-.6 1.6 1.1 1.3 2.5c0 .2-.1.4-.1.6l.4 1s.3.4-.4.7c-.6.3-1.1.2-1.1.2l-.3-.4c-.2 0-.2.101-.6 0 0 0-.1 1.2-.2 1.7s-1.3 3.4-1.5 6.4c-.1 3 .4 3.7 1.4 5.899.9 2.2 2.2 9.101 2.2 9.101s-8.8.8-14 0c0-.201 2.7-7.401 3.7-10.601z"/></g><g><g fill="#6B949B"><path d="M180.7 193.9h.9V212h-.9zM180.3 171.7v-2c-1.3-.5-2.2-2.101-2.2-4 0-2.3 1.4-4.2 3.1-4.2 1.7 0 3 1.9 3.1 4.2.1 3.2-2.2 3.899-2.2 3.899l.1 2.101c.6.2 1.6.2 2.5.2 1.1 0 1.9-.101 1.9-.101s-2.2 2.8-5.3 3.3c-3.1.4-5.4-3.3-5.4-3.3h4.4v-.099z"/></g><path fill="#303D3A" d="M185.3 172.6s1.8 3.4.3 5c-1.5 1.5-2 3.801-1.9 4.801.1 1 .6 2.5 1.6 5.6s1.1 10.5 1.1 10.5-4.2 1-6.9.7-5-1.2-5-1.2-.3-6.9 1.8-10.7c2.1-3.899 1.8-5.3 1.6-6.5-.2-1.2-1.3-2.5-1.7-3.5-.4-1.1.6-4.6.6-4.6h8.5v-.101z"/></g><g><path fill="#F8F7F8" d="M193.9 149.8h1.6v61.8h-1.6z"/></g><g><path fill="#F8F7F8" d="M169.3 149.8h1.6v61.8h-1.6z"/></g><g><path fill="#6B949B" d="M157.8 193.8h.9V212h-.9zM152.8 171.5h4.6v-2c-1.3-.5-2.2-2.2-2.2-4.1 0-2.301 1.4-4.2 3.1-4.2 1.7 0 3 1.899 3.1 4.2.1 2.8-2.1 4-2.1 4l-.1 2.1c.6.3 1.6.2 2.5.2 1.1 0 1.9-.101 1.9-.101s.6.2.2.7c-.4.5-2.6 3.9-2.7 3.101 0-.101 0-.301.1-.601-.8.8-1.8 1.4-2.8 1.601-1.6.199-3-1.101-4.1-2.4 0 .4 0 .6-.1.7-.5.3-1.9-2.3-1.9-2.8s.5-.4.5-.4z"/><path fill="#EFAA2E" d="M150.2 187.6l4.3-4.3s1.6-1.399-.2-4.6c-1.3-2.3-.3-4-.3-4v-3.1c.3-.199.6 0 .6 0s.9 2.101 3.2 2.101c2.3 0 3.2-1.9 3.2-1.9.3-.5.6 0 .6 0 .2 1 .3 2.5.3 2.5s.8 1.4.5 2.7c-.2.6-.4 2.2-.6 3.6 0 .301-.3 2.601.6 4.4l5.5 7s-.9 1.2-1.9 2.9c-1 1.699-1.7 1.199-1.7 1.199.2 1.2-2.7 2.301-3.2 1.5-.5-.8-2.4-.3-4.4.7s-4.3-1.1-4.3-1.1-2 .2-3.2-1.101c-1.2-1.199-1.3-3-1.3-3-.9-.8-1.4-2.699-1.4-2.699s1.9-1.1 3.7-2.8z"/></g><g><path fill="#F7AD41" d="M218 223.7s2.1-.5 2.2-3.9c.1-3.399 0-8.399 0-8.399h-79s-.3 6.8 0 9.199c.3 2.4 3 3.101 3 3.101H218v-.001z"/></g></g><g fill="#EFAA2E"><path d="M279.8 47.9c-9.6 0-17.5-7.8-17.5-17.5 0-9.6 7.8-17.5 17.5-17.5 9.6 0 17.5 7.8 17.5 17.5 0 9.5-7.9 17.5-17.5 17.5zm0-32.7c-8.3 0-15.1 6.8-15.1 15.1s6.8 15.1 15.1 15.1 15.1-6.8 15.1-15.1c.1-8.3-6.7-15.1-15.1-15.1z"/><path d="M279.8 54.5c-13.4 0-24.2-11-24.2-24.2S266.5 6 279.8 6C293.2 6 304 17 304 30.3s-10.7 24.2-24.2 24.2zm0-46c-12.1 0-21.9 9.9-21.9 21.9s9.9 21.9 21.9 21.9c12.1 0 21.9-9.9 21.9-21.9s-9.8-21.9-21.9-21.9z"/><circle cx="279.8" cy="30.3" r="10.7"/></g><g fill="#EFAA2E"><path d="M713.3 220.9c-9.6 0-17.5-7.801-17.5-17.5 0-9.601 7.8-17.5 17.5-17.5 9.601 0 17.5 7.8 17.5 17.5 0 9.5-7.9 17.5-17.5 17.5zm0-32.7c-8.3 0-15.1 6.8-15.1 15.1s6.8 15.1 15.1 15.1 15.1-6.8 15.1-15.1c.1-8.3-6.7-15.1-15.1-15.1z"/><path d="M713.3 227.5c-13.399 0-24.2-11-24.2-24.2 0-13.3 11-24.2 24.2-24.2 13.4 0 24.2 11 24.2 24.2s-10.7 24.2-24.2 24.2zm0-46c-12.1 0-21.899 9.9-21.899 21.9 0 12.1 9.899 21.899 21.899 21.899 12.101 0 21.9-9.899 21.9-21.899 0-12.1-9.8-21.9-21.9-21.9z"/><circle cx="713.3" cy="203.3" r="10.7"/></g><g fill="#EFAA2E"><path d="M215.3 183.9c-9.6 0-17.5-7.801-17.5-17.5 0-9.601 7.8-17.5 17.5-17.5 9.6 0 17.5 7.8 17.5 17.5 0 9.5-7.9 17.5-17.5 17.5zm0-32.7c-8.3 0-15.1 6.8-15.1 15.1s6.8 15.1 15.1 15.1 15.1-6.801 15.1-15.101c.1-8.299-6.7-15.099-15.1-15.099z"/><path d="M215.3 190.5c-13.4 0-24.2-11-24.2-24.2 0-13.3 11-24.2 24.2-24.2 13.4 0 24.2 11 24.2 24.2s-10.7 24.2-24.2 24.2zm0-46c-12.1 0-21.9 9.9-21.9 21.9 0 12.1 9.9 21.899 21.9 21.899s21.9-9.899 21.9-21.899c0-12.1-9.8-21.9-21.9-21.9z"/><circle cx="215.3" cy="166.3" r="10.7"/></g><path fill="#444342" d="M39.6 228.9c-1.2 0-2.1.899-2.1 2.1s.9 2.1 2.1 2.1c1.2 0 2.1-.899 2.1-2.1 0-1.1-.9-2.1-2.1-2.1zm3.3-14.7l15.5-.2v1.4L44 216.6l-1.1-2.4zm15.5-2.8l-16.6.2-1.2-2.699 17.8 1.199v1.3zM27.3 196c-.7 0-1.3.5-1.3 1.2s.5 1.3 1.2 1.3l6.3.3 1.7 4c0 .101 0 .101.1.101l2.2 5.199v.101l4.1 9.5L38 220.6s-.1 0-.1.101l-.2.2-.3.3c-.4.5-.6 1.1-.7 1.8l-.2 3.9c0 .699.5 1.3 1.2 1.3h20.8c.7 0 1.3-.601 1.3-1.3 0-.7-.6-1.301-1.3-1.301H39.2l.1-2.5c0-.1 0-.3.1-.399l.1-.101 4-3.3 16.1-1.399c.7-.101 1.2-.7 1.2-1.4L61 209v-.1l.1-3.601c0-.7-.5-1.2-1.1-1.3l-22.6-2.8-1.8-4.101c-.2-.399-.6-.8-1.1-.8L27.3 196zm12.3 10.3l-1.1-2.5 20 2.5v1.2l-18.9-1.2zm17.8 22.6c-1.2 0-2.1.899-2.1 2.1s.9 2.1 2.1 2.1c1.2 0 2.1-.899 2.1-2.1 0-1.1-.9-2.1-2.1-2.1z"/><g fill="#EFAA2E"><path d="M28.3 209.4c-9.6 0-17.5-7.801-17.5-17.5 0-9.601 7.8-17.5 17.5-17.5 9.6 0 17.5 7.8 17.5 17.5 0 9.5-7.9 17.5-17.5 17.5zm0-32.7c-8.3 0-15.1 6.8-15.1 15.1s6.8 15.1 15.1 15.1 15.1-6.801 15.1-15.101c.1-8.299-6.7-15.099-15.1-15.099z"/><path d="M28.3 216c-13.4 0-24.2-11-24.2-24.2 0-13.3 11-24.2 24.2-24.2 13.4 0 24.2 11 24.2 24.2S41.8 216 28.3 216zm0-46c-12.1 0-21.9 9.9-21.9 21.9 0 12.1 9.9 21.899 21.9 21.899S50.2 203.9 50.2 191.9c0-12.1-9.8-21.9-21.9-21.9z"/><circle cx="28.3" cy="191.8" r="10.7"/></g></svg>