<svg xmlns="http://www.w3.org/2000/svg" width="126" height="126" viewBox="0 0 126 126"><g fill="#303941" fill-rule="evenodd"><path d="M45.565 101.048c-.87.163-1.25.571-1.141 1.222.108.652.597.869 1.466.652.87-.218 1.25-.598 1.141-1.141-.108-.597-.597-.842-1.466-.733zm-4.644.652c-.869 0-1.304.298-1.304.896 0 .706.462 1.004 1.385.896.869 0 1.304-.299 1.304-.896 0-.705-.462-1.005-1.385-.896zm-6.355-.246c-.217.598.136 1.005 1.059 1.223.815.325 1.331.162 1.548-.489.163-.597-.19-1.031-1.059-1.304-.815-.217-1.331-.029-1.548.57z"/><path d="M118.686 7.313c-4.59-4.589-10.115-6.884-16.58-6.884H23.892c-6.463 0-11.99 2.295-16.58 6.884C2.723 11.903.428 17.43.428 23.893v78.215c0 6.464 2.295 11.99 6.884 16.579 4.59 4.59 10.117 6.885 16.58 6.885h18.25c1.194 0 2.091-.041 2.688-.121.597-.082 1.194-.436 1.792-1.061.598-.624.896-1.534.896-2.729 0-.162-.014-2.01-.041-5.541-.028-3.53-.041-6.328-.041-8.392l-1.874.326c-1.195.217-2.702.312-4.522.285a34.78 34.78 0 0 1-5.662-.57c-1.956-.353-3.775-1.168-5.459-2.444-1.683-1.276-2.878-2.946-3.584-5.01l-.815-1.875c-.543-1.248-1.398-2.634-2.566-4.154-1.168-1.521-2.349-2.553-3.544-3.096l-.57-.408a5.955 5.955 0 0 1-1.059-.978 4.486 4.486 0 0 1-.733-1.141c-.163-.38-.028-.693.407-.938.435-.244 1.222-.365 2.363-.365l1.629.244c1.086.217 2.43.868 4.033 1.955 1.602 1.086 2.919 2.498 3.951 4.236 1.25 2.227 2.756 3.924 4.522 5.092 1.765 1.168 3.544 1.752 5.336 1.752 1.792 0 3.34-.136 4.644-.406a16.153 16.153 0 0 0 3.666-1.224c.489-3.639 1.82-6.437 3.992-8.392-3.096-.326-5.879-.815-8.351-1.467-2.471-.652-5.024-1.711-7.658-3.178-2.635-1.467-4.821-3.285-6.559-5.459-1.738-2.173-3.164-5.025-4.277-8.555-1.113-3.531-1.67-7.605-1.67-12.221 0-6.572 2.146-12.167 6.437-16.784-2.01-4.942-1.82-10.482.57-16.62 1.575-.489 3.911-.122 7.007 1.1 3.096 1.223 5.363 2.269 6.803 3.137 1.44.868 2.594 1.602 3.463 2.2 5.052-1.412 10.266-2.118 15.643-2.118 5.377 0 10.592.706 15.644 2.118l3.096-1.955c2.119-1.304 4.617-2.499 7.496-3.585 2.879-1.086 5.078-1.385 6.6-.896 2.443 6.138 2.661 11.678.65 16.62 4.291 4.617 6.438 10.212 6.438 16.784 0 4.617-.557 8.705-1.67 12.262-1.113 3.557-2.552 6.409-4.318 8.555-1.765 2.146-3.965 3.951-6.599 5.418-2.635 1.466-5.187 2.526-7.659 3.177-2.472.653-5.255 1.142-8.351 1.468 2.823 2.444 4.235 6.3 4.235 11.569v19.472c0 .924.135 1.67.407 2.241.272.57.706.963 1.304 1.181.599.218 1.127.353 1.59.407.462.055 1.127.082 1.996.082h18.25c6.463 0 11.99-2.295 16.578-6.885 4.59-4.59 6.885-10.117 6.885-16.58V23.893c-.001-6.463-2.296-11.991-6.885-16.58z"/><path d="M25.196 91.516c-.38.271-.326.705.163 1.303.544.543.978.625 1.304.244.38-.271.326-.705-.164-1.304-.543-.488-.977-.57-1.303-.243zm-2.688-2.037c-.163.381.027.707.57.978.434.272.788.218 1.059-.163.163-.38-.027-.706-.57-.979-.543-.163-.896-.108-1.059.164zm5.214 5.215c-.489.271-.489.76 0 1.466s.95.896 1.385.57c.489-.381.489-.896 0-1.549-.434-.704-.896-.869-1.385-.487zm2.852 3.665c-.489.435-.381.949.326 1.548.651.651 1.194.733 1.629.243.435-.434.326-.949-.326-1.547-.651-.651-1.194-.733-1.629-.244z"/></g></svg>