<svg xmlns="http://www.w3.org/2000/svg" width="126" height="126" viewBox="0 0 126 126"><path fill="#303941" fill-rule="evenodd" d="M118.686 7.313C114.098 2.724 108.571.429 102.108.429H23.893c-6.463 0-11.99 2.295-16.58 6.884C2.724 11.903.429 17.43.429 23.893v78.214c0 6.463 2.295 11.99 6.884 16.58 4.59 4.59 10.117 6.885 16.58 6.885h78.214c6.463 0 11.99-2.295 16.578-6.885 4.59-4.59 6.885-10.117 6.885-16.58V23.893c0-6.463-2.295-11.991-6.884-16.58zm-80.128 97.89h-18.82V48.66h18.82v56.543zm-1.71-67.011c-1.955 1.874-4.535 2.811-7.74 2.811h-.082c-3.096 0-5.607-.937-7.536-2.811-1.929-1.874-2.893-4.196-2.893-6.966 0-2.824.992-5.16 2.974-7.007 1.983-1.847 4.549-2.771 7.699-2.771 3.15 0 5.676.924 7.577 2.771 1.901 1.847 2.879 4.183 2.933 7.007 0 2.769-.977 5.091-2.932 6.966zm69.414 67.011h-18.82V74.977c0-8.526-3.15-12.791-9.451-12.791-2.389 0-4.399.665-6.028 1.996a12.552 12.552 0 0 0-3.667 4.848c-.38.978-.57 2.498-.57 4.562v31.611h-18.82c.163-34.11.163-52.958 0-56.543h18.82v7.983c3.957-6.187 9.576-9.287 16.865-9.287 6.518 0 11.76 2.146 15.725 6.436 3.965 4.291 5.947 10.619 5.947 18.982v32.429h-.001z"/></svg>