<svg xmlns="http://www.w3.org/2000/svg" width="126" height="126" viewBox="0 0 126 126"><g fill="#303941" fill-rule="evenodd"><path d="M118.686 7.313C114.098 2.724 108.571.429 102.108.429H23.893c-6.463 0-11.99 2.295-16.58 6.884C2.724 11.903.429 17.43.429 23.893v78.214c0 6.463 2.295 11.99 6.884 16.58 4.59 4.59 10.117 6.885 16.58 6.885h78.214c6.463 0 11.99-2.295 16.578-6.885 4.59-4.59 6.885-10.117 6.885-16.58V23.893c0-6.463-2.295-11.991-6.884-16.58zM74.325 18.515h5.459v22.16c0 1.304.026 2.01.081 2.119.054.869.49 1.303 1.304 1.303 1.086 0 2.228-.841 3.422-2.525V18.515h5.459V48.66h-5.46V45.4c-2.227 2.444-4.318 3.667-6.273 3.667-1.737 0-2.905-.733-3.504-2.2-.326-.977-.487-2.471-.487-4.481V18.515h-.001zm-20.612 9.777c0-3.15.57-5.513 1.711-7.088 1.466-2.064 3.584-3.096 6.354-3.096 2.662 0 4.781 1.033 6.355 3.096 1.141 1.575 1.711 3.938 1.711 7.088v10.592c0 3.259-.57 5.622-1.711 7.088-1.574 2.065-3.693 3.097-6.355 3.097-2.77 0-4.888-1.033-6.354-3.097-1.141-1.575-1.711-3.938-1.711-7.088V28.292zM39.047 8.168l4.318 15.888L47.52 8.168h6.111l-7.333 24.116h.001V48.66H40.27V32.284c-.598-2.987-1.847-7.278-3.748-12.872l-1.874-5.622-1.956-5.622h6.355zm67.135 98.339c-.543 2.335-1.697 4.317-3.464 5.947-1.764 1.63-3.813 2.581-6.149 2.853-7.441.814-18.631 1.222-33.567 1.222-14.937 0-26.126-.408-33.567-1.222-2.335-.272-4.385-1.223-6.151-2.853-1.765-1.63-2.919-3.612-3.462-5.947-1.086-4.563-1.629-11.624-1.629-21.184 0-9.397.543-16.457 1.629-21.183.543-2.39 1.697-4.386 3.462-5.989 1.766-1.603 3.843-2.54 6.233-2.811 7.386-.816 18.548-1.223 33.485-1.223 14.991 0 26.181.408 33.567 1.223 2.336.272 4.398 1.208 6.19 2.811 1.793 1.602 2.962 3.598 3.505 5.989 1.03 4.508 1.547 11.569 1.547 21.183 0 9.56-.543 16.62-1.629 21.184z"/><path d="M24.87 70.251h6.355v34.463h6.029V70.251h6.518v-5.703H24.87zm29.82 27.375c-1.195 1.683-2.336 2.525-3.422 2.525-.76 0-1.168-.408-1.222-1.222-.055-.108-.082-.814-.082-2.119V74.812h-5.377v23.627c0 2.064.163 3.531.489 4.399.489 1.521 1.63 2.281 3.422 2.281 2.01 0 4.074-1.222 6.192-3.666v3.259h5.458V74.814H54.69v22.812zm21.103-23.22c-1.956 0-3.803 1.086-5.54 3.259V64.548h-5.459v40.166h5.459v-2.933c1.791 2.227 3.64 3.34 5.54 3.34 2.227 0 3.666-1.141 4.316-3.422.381-1.141.57-3.123.57-5.947V83.857c0-2.879-.191-4.889-.57-6.029-.65-2.281-2.089-3.422-4.316-3.422zm-.49 21.753c0 2.662-.787 3.991-2.363 3.993-.922 0-1.819-.436-2.688-1.305v-18.25c.869-.867 1.766-1.303 2.688-1.303 1.576 0 2.363 1.357 2.363 4.073v12.792zm20.285-.041c0 .571-.014 1.019-.04 1.345-.026.325-.041.516-.041.569-.325 1.412-1.14 2.118-2.444 2.118-1.847 0-2.77-1.385-2.77-4.155V90.7h10.836v-6.192c0-3.15-.57-5.485-1.711-7.007-1.466-2.063-3.584-3.096-6.355-3.096-2.77 0-4.942 1.033-6.518 3.096-1.086 1.468-1.629 3.804-1.629 7.007v10.51c0 3.205.57 5.541 1.711 7.008 1.575 2.064 3.775 3.096 6.6 3.096 2.879 0 5.051-1.086 6.519-3.259a7.666 7.666 0 0 0 1.222-3.259c.108-.761.163-1.929.163-3.504v-.733h-5.542v1.751h-.001zm-5.293-12.669c0-2.77.896-4.154 2.688-4.154 1.793 0 2.688 1.384 2.688 4.154v2.771h-5.376v-2.771zM61.778 44.097c1.738 0 2.607-1.384 2.607-4.154v-12.71c0-2.824-.869-4.237-2.607-4.237-1.738 0-2.607 1.413-2.607 4.237v12.71c0 2.769.869 4.154 2.607 4.154z"/></g></svg>