<svg xmlns="http://www.w3.org/2000/svg" width="135.7" height="150" viewBox="0 0 135.7 150"><g><ellipse transform="rotate(8.257 92.191 70.583)" fill="#EFD0B4" cx="92.2" cy="70.6" rx="3.4" ry="3.4"/><path fill="#E2901A" d="M92.6 67.3c-16-3-22.1-9.4-22.6-28 0-.7-.1-7.1-6.2-7.4-3.2-.2-5.7 3-5.5 5.1 0 .2.3 2.4.4 3.1 3 20.1 12.7 31.3 33 33.8.4-3.6.4-3 .9-6.6z"/><path fill="#707070" d="M90.8 82.6h-3.1v-2.8h3.1c1.9 0 3.4-1.4 3.4-3 0-1.7-1.5-3-3.4-3h-6.4V71h6.4c3.5 0 6.3 2.6 6.3 5.9 0 3.1-2.8 5.7-6.3 5.7z"/><path fill="#E5BD99" d="M52.7 117.6l-.9-29.3 11.7 1.3-3.4 27.6z"/><path fill="#F7AD41" d="M52.5 108.9l.2 8.7 7.4-.4 1-8.3z"/><path fill="#9E9E9E" d="M68.1 120.8c-.5-.5-4.8-1.1-6.4-3.6-.3-.4-.8-2.3-1.2-2.6-.4-.2-.6.6-.8 1-.4.8-3.7 1.7-6.2.2-.4-.3-.7-.8-1.1-.5-.3.3-.5.7-.5 1.1-.1.5-.3 3-.3 4.5 0 2 .5 2.4 1.2 2.5 1.8.2 10 1.3 10.8 1.4 1.6.2 3.6-.2 4.6-.7.5-.3.8-1 .9-1.6-.1-.6-.6-1.3-1-1.7z"/><path fill="#F7AD41" d="M55.4 122c-.6-1.7-2.1-2.8-3.8-3.4-.1.8-.1 1.7-.1 2.4 0 2 .5 2.4 1.2 2.5.5.1 1.6.2 2.8.3.1-.6 0-1.2-.1-1.8zM69 122.5c.1-.7-.4-1.3-.9-1.7-.2-.2-1.6-.5-3-1.1-.9 1.7-.9 3.6-.1 5.2 1.2-.1 2.3-.4 3-.8.6-.3.9-1 1-1.6z"/><path fill="#FFF" d="M60.4 117.7l1.1-.8c0-.1-.1-.3-.2-.4l-1.2.9.3.3zM61.3 118.6l1-.7-.3-.3-.9.7.2.3zM62.4 119.6l.9-.8c-.1-.1-.2-.2-.3-.2l-.8.7.2.3z"/><path fill="#E2901A" d="M62.4 98.3l1.1-8.7-11.7-1.3.3 10z"/><path fill="#9E9E9E" d="M58.772 126.293l-1.345-1.988 8.284-5.6 1.345 1.987z"/><path fill="#9E9E9E" d="M58.854 126.363l-6.898.181-.069-2.599 6.898-.181z"/><path fill="#E2901A" d="M44.153 66.06l19.361 23.564-9.04 7.427-19.36-23.565z"/><g fill="#9E9E9E"><path d="M21.087 103.923l6.81 43.674-.592.093-6.811-43.674z"/><path d="M23.908 103.705l1.194 44.183-.6.016-1.194-44.182z"/><path d="M10.568 108.406l27.736 34.414-.467.376L10.1 108.782z"/><path d="M12.893 106.81l23.126 37.667-.512.314-23.125-37.667z"/><path d="M3.69 117.548l41.225 15.939-.216.56-41.225-15.94z"/><path d="M4.908 115.008l38.86 21.06-.286.528-38.86-21.06z"/><g><path d="M45.991 122.082l.093.593-43.665 6.842-.093-.593z"/><path d="M46.28 124.925l.017.6-44.187 1.162-.016-.6z"/></g><g><path d="M41.245 111.732l.376.468-34.472 27.665-.376-.468z"/><path d="M42.849 113.936l.315.51-37.61 23.218-.315-.51z"/></g><g><path d="M31.932 105.088l.56.217L16.476 146.5l-.559-.218z"/><path d="M34.497 106.24l.527.287-21.115 38.83-.527-.287z"/></g></g><path fill="#9E9E9E" d="M24.2 105.5c11.2 0 20.3 9.1 20.3 20.3 0 11.2-9.1 20.3-20.3 20.3-11.2 0-20.3-9.1-20.3-20.3 0-11.2 9.1-20.3 20.3-20.3zm0-3.9C10.8 101.6 0 112.4 0 125.8 0 139.2 10.8 150 24.2 150c13.4 0 24.2-10.8 24.2-24.2 0-13.4-10.8-24.2-24.2-24.2z"/><g fill="#9E9E9E"><path d="M105.633 103.873l6.81 43.674-.592.092-6.811-43.674z"/><path d="M108.46 103.648l1.195 44.182-.6.016-1.194-44.182z"/><path d="M95.088 108.362l27.736 34.414-.468.377-27.735-34.414z"/><path d="M97.418 106.764l23.125 37.667-.511.314-23.126-37.667z"/><path d="M88.19 117.532l41.226 15.938-.216.56-41.226-15.939z"/><path d="M89.414 114.986l38.86 21.06-.285.528-38.86-21.06z"/><g><path d="M130.55 122.137l.092.593-43.67 6.83-.092-.594z"/><path d="M130.838 124.98l.015.6-44.187 1.149-.015-.6z"/></g><g><path d="M125.826 111.769l.375.468-34.471 27.665-.376-.468z"/><path d="M127.427 113.973l.315.51-37.61 23.22-.315-.511z"/></g><g><path d="M116.529 105.106l.56.218-16.01 41.199-.56-.218z"/><path d="M119.09 106.26l.527.287-21.114 38.83-.527-.287z"/></g></g><path fill="#9E9E9E" d="M108.8 105.5c11.2 0 20.3 9.1 20.3 20.3 0 11.2-9.1 20.3-20.3 20.3-11.2 0-20.3-9.1-20.3-20.3 0-11.2 9.1-20.3 20.3-20.3zm0-3.9c-13.4 0-24.2 10.8-24.2 24.2 0 13.4 10.8 24.2 24.2 24.2 13.4 0 24.2-10.8 24.2-24.2 0-13.4-10.9-24.2-24.2-24.2z"/><path fill="#C1C1C1" d="M90.462 87.935l2.978 2.361L69.333 120.7l-2.977-2.361zM64.917 118.974l.52 3.764-42.992 5.938-.52-3.765z"/><path fill="#C1C1C1" d="M91.573 85.898l-.229 3.793-49.91-3.007.229-3.793z"/><path fill="#C1C1C1" d="M110.873 125.834l-3.442 1.611-24.083-51.438 3.441-1.611zM24.865 128.756l-3.477-1.534 18.767-42.543 3.477 1.534z"/><path fill="#C1C1C1" d="M36.3 79.9l3.7-1.7 29 41.6-3.2 2.2z"/><circle fill="#9E9E9E" cx="66.1" cy="120.5" r="4"/><circle fill="#E2901A" cx="24.2" cy="125.8" r="4.4"/><circle fill="#E2901A" cx="108.8" cy="125.8" r="4.4"/><path fill="#E5BD99" d="M69.3 38.2l-7.8-5.3 4.6-6.1 8.2 5.2z"/><path fill="#C1C1C1" d="M27.6 76.7c-1.2-6 20.8-1 20.8-1 1.2.3 1.2.9 0 1.2L35 80.7c-6.1 1.4-7.4-4-7.4-4zM67.1 32.2c-5.3-4.1-13.7-2.2-18.6 4.1L34.4 54.6l20 13.9 13.4-17.3c4.9-6.3 4.6-14.9-.7-19z"/><circle fill="#EFD0B4" cx="74.9" cy="22" r="11.7"/><ellipse transform="rotate(24.802 85.405 26.75)" fill="#EFD0B4" cx="85.4" cy="26.8" rx="1.2" ry="1.6"/><path fill="#9E9E9E" d="M73.533 114.626l1.292 2.023-8.429 5.382-1.291-2.023z"/><path fill="#9E9E9E" d="M73.5 114.6h6.9v2.6h-6.9z"/><path fill="#E5BD99" d="M67.4 108.4L63.5 81l11.6-6-.3 32.7z"/><path fill="#F7AD41" d="M66.2 99.8l1.2 8.6 7.4-.7.1-8.8z"/><path fill="#E2901A" d="M75.1 75L37.5 63.3l-1.1 14.6L64 84.4l.5 3.9H75l.1-13.3z"/><path fill="#27AE60" d="M74.8 106.9c0 .1 0 .1 0 0z"/><path fill="#E2901A" d="M32.4 57.3c-4.9 6.4-4.6 14.9.7 19s13.7 2.2 18.6-4.1l3.1-4-20.4-13.6-2 2.7z"/><path fill="#9E9E9E" d="M89.8 84.8h-3.1V82h3.1c1.9 0 3.4-1.4 3.4-3s-1.5-3-3.4-3h-6.4v-2.8h6.4c3.5 0 6.3 2.6 6.3 5.9s-2.9 5.7-6.3 5.7z"/><ellipse transform="rotate(9.411 89.107 72.804)" fill="#EFD0B4" cx="89.1" cy="72.8" rx="3.4" ry="3.4"/><g><path fill="#F7AD41" d="M89.6 69.5c-15.9-3.3-21.9-9.9-22-28.5 0-.7.1-7.1-6.1-7.5-3.2-.2-5.7 2.9-5.6 5 0 .2-3.5 34.5 32.7 37.5.4-3.5.4-2.9 1-6.5z"/></g><path fill="#34495E" d="M71.8 33.4s-.6-.2-.8-.2c-.2-.1-.8-.3-.8-.3L76 18.1l1.6.6-5.8 14.7z"/><path fill="#34495E" d="M77.1 33.6s-.7.1-1.1.2h-1.1L66 22.3l1.3-1.1 9.8 12.4z"/><path fill="#DBDBDB" d="M61.2 9c-4.7 6.5-.8 13.3 1 15.4 1.8 2.1 5.4-1.9 7-4.1 3.3-4.5 7.6-1.2 9.9-.3 6.4 2.4 12.1-.1 15.2-.8 0 0-4.2-14.5-15.2-16.1-12-1.8-15.3 2.4-17.9 5.9z"/><circle fill="#1D457A" cx="66.2" cy="120.7" r="2.2"/><g><path fill="#9E9E9E" d="M83.2 110.3c-.5-.4-4.9-.5-6.8-2.8-.3-.4-1-2.2-1.5-2.4-.5-.2-.5.7-.6 1.1-.3.9-3.5 2.1-6.2.9-.5-.2-.8-.7-1.2-.3-.3.3-.4.8-.4 1.1 0 .5 0 3 .2 4.5.3 2 .7 2.3 1.4 2.3 1.8 0 10.1.1 10.9.1 1.6 0 3.5-.6 4.5-1.3.5-.3.7-1.1.7-1.7 0-.6-.5-1.2-1-1.5z"/><path fill="#F7AD41" d="M70.7 112.9c-.8-1.7-2.4-2.6-4.2-2.9 0 .8.1 1.7.2 2.4.3 2 .7 2.3 1.4 2.3h2.8c.1-.6 0-1.2-.2-1.8zM84.2 111.9c0-.7-.6-1.2-1.1-1.6-.3-.2-1.6-.3-3.1-.8-.7 1.7-.5 3.7.6 5.1 1.1-.2 2.2-.7 2.9-1.1.5-.3.7-1.1.7-1.6z"/><path fill="#FFF" d="M75.2 108l1-.9c-.1-.1-.1-.2-.2-.4l-1.1 1 .3.3zM76.2 108.9l.9-.8-.3-.3-.8.8.2.3zM77.4 109.7l.8-.9c-.1-.1-.3-.1-.4-.2l-.7.8.3.3z"/></g><g fill="#E2962A"><path opacity=".8" d="M96.7 90.7c-8.8 0-16.2-7.2-16.2-16.2 0-8.8 7.2-16.2 16.2-16.2 8.8 0 16.2 7.2 16.2 16.2-.2 9.1-7.4 16.2-16.2 16.2zm0-30c-7.7 0-13.8 6.3-13.8 13.8s6.3 13.8 13.8 13.8 13.8-6.3 13.8-13.8-6.2-13.8-13.8-13.8z"/><path opacity=".6" d="M96.7 96.9c-12.2 0-22.3-10.1-22.3-22.3s9.9-22.3 22.3-22.3 22.3 10 22.3 22.3-10 22.3-22.3 22.3zm0-42.3c-11.1 0-20.1 9-20.1 20.1s9 20.1 20.1 20.1 20.1-9 20.1-20.1c-.1-11.1-9.1-20.1-20.1-20.1z"/><circle cx="96.7" cy="74.6" r="9.9"/></g></g></svg>