<svg xmlns="http://www.w3.org/2000/svg" width="110" height="103" viewBox="0 0 110 103">
    <g fill="none" fill-rule="evenodd">
        <path fill="#2E4550" d="M32.607 2L52 13.196V35.59L32.607 46.786 13.214 35.589V13.196zM77.393 2l19.393 11.196V35.59L77.393 46.786 58 35.589V13.196z" opacity=".18"/>
        <path fill="#2E4550" stroke="#2E4550" stroke-width="4" d="M55.393 41.286l19.393 11.196v22.393L55.393 86.071 36 74.875V52.482z" opacity=".18"/>
        <path fill="#2E4550" fill-rule="nonzero" d="M55.196 87.642l.944.002-.015 3.929-.943-.003.014-3.928zm-.023 6.285l.944.003-.015 3.928-.943-.002.014-3.929zm-.023 6.286l.944.002-.01 2.75-.944-.002.01-2.75z"/>
        <path fill="#2E4550" fill-opacity=".68" stroke="#2E4550" stroke-width="3" d="M55 2l29.94 17.286v34.571L55 71.143 25.06 53.857V19.286z"/>
        <g fill="#FFF" fill-rule="nonzero">
            <path d="M74.748 32.381l-3.089-.524a17.439 17.439 0 0 0-1.24-2.996l1.82-2.546a2.71 2.71 0 0 0-.295-3.502l-2.739-2.74a2.698 2.698 0 0 0-3.492-.293l-2.556 1.82a17.257 17.257 0 0 0-3.106-1.278l-.515-3.052A2.715 2.715 0 0 0 56.852 15h-3.87a2.715 2.715 0 0 0-2.684 2.27l-.533 3.125c-1.03.322-2.031.745-2.987 1.26l-2.528-1.82a2.698 2.698 0 0 0-1.58-.506c-.727 0-1.416.285-1.922.8L38 22.868a2.72 2.72 0 0 0-.294 3.502l1.838 2.583c-.505.965-.91 1.967-1.222 3.005l-3.052.515A2.715 2.715 0 0 0 33 35.157v3.87c0 1.333.956 2.463 2.27 2.684l3.125.533c.322 1.03.745 2.031 1.26 2.987l-1.811 2.519a2.71 2.71 0 0 0 .294 3.502l2.74 2.739a2.698 2.698 0 0 0 3.492.294l2.583-1.839c.928.488 1.902.883 2.904 1.195l.515 3.089A2.715 2.715 0 0 0 53.056 59h3.879a2.715 2.715 0 0 0 2.684-2.27l.524-3.089a17.438 17.438 0 0 0 2.996-1.24l2.546 1.82c.46.33 1.011.505 1.58.505.727 0 1.407-.285 1.922-.8l2.739-2.739a2.72 2.72 0 0 0 .294-3.502L70.4 45.13c.506-.965.929-1.967 1.241-2.997l3.088-.514A2.715 2.715 0 0 0 77 38.935v-3.87a2.683 2.683 0 0 0-2.251-2.684zm-.743 6.501c0 .116-.08.215-.197.233l-3.755.626a1.2 1.2 0 0 0-.966.885 14.313 14.313 0 0 1-1.556 3.746c-.241.411-.223.921.054 1.314l2.208 3.112a.244.244 0 0 1-.026.304l-2.665 2.664a.227.227 0 0 1-.17.072.22.22 0 0 1-.134-.045l-3.102-2.208a1.208 1.208 0 0 0-1.315-.054 14.313 14.313 0 0 1-3.746 1.556c-.465.116-.814.5-.885.966l-.635 3.755a.232.232 0 0 1-.233.197h-3.764a.232.232 0 0 1-.232-.197l-.626-3.755a1.2 1.2 0 0 0-.885-.966 14.862 14.862 0 0 1-3.666-1.502 1.238 1.238 0 0 0-.608-.161c-.242 0-.492.071-.698.223l-3.13 2.227a.266.266 0 0 1-.133.044.24.24 0 0 1-.17-.071l-2.665-2.665a.242.242 0 0 1-.026-.304l2.2-3.084c.276-.394.294-.912.053-1.324a14.179 14.179 0 0 1-1.574-3.737 1.224 1.224 0 0 0-.966-.885l-3.782-.644a.232.232 0 0 1-.196-.232v-3.765c0-.116.08-.214.196-.232l3.729-.626c.474-.08.858-.43.974-.894.331-1.314.84-2.584 1.53-3.755.24-.412.214-.921-.063-1.306l-2.227-3.13a.244.244 0 0 1 .027-.303l2.665-2.665a.227.227 0 0 1 .17-.071.22.22 0 0 1 .134.045l3.084 2.2c.394.276.912.294 1.324.053a14.179 14.179 0 0 1 3.737-1.574c.456-.125.805-.5.885-.966l.644-3.782a.232.232 0 0 1 .233-.196h3.764c.116 0 .214.08.232.196l.626 3.729c.08.474.43.858.894.974 1.35.34 2.638.868 3.836 1.574.411.241.921.224 1.314-.054l3.085-2.217a.266.266 0 0 1 .134-.045.24.24 0 0 1 .17.072l2.665 2.664c.08.08.089.206.026.304l-2.208 3.103a1.208 1.208 0 0 0-.054 1.314 14.313 14.313 0 0 1 1.556 3.747c.116.464.5.813.966.885l3.755.635a.232.232 0 0 1 .197.232v3.764h-.01z"/>
            <path d="M55.5 27c-5.242 0-9.5 4.258-9.5 9.5s4.258 9.5 9.5 9.5 9.5-4.258 9.5-9.5-4.258-9.5-9.5-9.5zm0 16.517a7.022 7.022 0 0 1-7.017-7.017 7.022 7.022 0 0 1 7.017-7.017 7.022 7.022 0 0 1 7.017 7.017 7.022 7.022 0 0 1-7.017 7.017z"/>
            <path d="M57.651 31.282c-3.55-.48-6.963 1.665-7.938 4.991a.823.823 0 0 0 .592 1.02.858.858 0 0 0 1.058-.57c.743-2.535 3.344-4.17 6.05-3.804.468.064.902-.251.968-.703.066-.452-.261-.87-.73-.934z"/>
        </g>
        <path fill="#2E4550" fill-rule="nonzero" d="M13.357 12.563l-.285.437-2.34-1.329.285-.436 2.34 1.328zm-3.745-2.125l-.285.436-2.34-1.328.285-.437 2.34 1.329zM5.867 8.312l-.284.436L3.242 7.42l.285-.437 2.34 1.329zM2.123 6.186l-.285.437L0 5.579l.285-.436 1.838 1.043zM96.643 12.563l.285.437 2.34-1.329-.285-.436-2.34 1.328zm3.745-2.125l.285.436 2.34-1.328-.285-.437-2.34 1.329zm3.745-2.126l.284.436 2.341-1.328-.285-.437-2.34 1.329zm3.744-2.126l.285.437L110 5.579l-.285-.436-1.838 1.043z"/>
    </g>
</svg>
