<svg xmlns="http://www.w3.org/2000/svg" width="110" height="103" viewBox="0 0 110 103">
    <g fill="none" fill-rule="evenodd">
        <path fill="#2E4550" d="M32.607 2L52 13.196V35.59L32.607 46.786 13.214 35.589V13.196zM77.393 2l19.393 11.196V35.59L77.393 46.786 58 35.589V13.196z" opacity=".18"/>
        <path fill="#2E4550" stroke="#2E4550" stroke-width="4" d="M55.393 41.286l19.393 11.196v22.393L55.393 86.071 36 74.875V52.482z" opacity=".18"/>
        <path fill="#2E4550" fill-rule="nonzero" d="M55.196 87.642l.944.002-.015 3.929-.943-.003.014-3.928zm-.023 6.285l.944.003-.015 3.928-.943-.002.014-3.929zm-.023 6.286l.944.002-.01 2.75-.944-.002.01-2.75z"/>
        <path fill="#2E4550" fill-opacity=".68" stroke="#2E4550" stroke-width="3" d="M55 2l29.94 17.286v34.571L55 71.143 25.06 53.857V19.286z"/>
        <g fill-rule="nonzero">
            <path fill="#FFF" d="M54.274 24.322c-4.025-.54-7.892 1.87-8.997 5.604-.146.493.155 1.005.671 1.145.044.011.087.02.13.026.474.063.936-.215 1.07-.667.841-2.846 3.789-4.682 6.855-4.27.532.071 1.023-.283 1.098-.79.074-.507-.296-.977-.827-1.048zM58.618 41.5l-3.381-2.973a1.552 1.552 0 0 0-2.045 0l-3.382 2.974a.905.905 0 0 0-.074 1.292.94.94 0 0 0 1.313.073l2.236-1.966v11.256c0 .506.416.915.93.915.513 0 .929-.41.929-.915V40.9l2.236 1.967a.934.934 0 0 0 .619.232c.255 0 .51-.103.693-.305a.905.905 0 0 0-.074-1.292z"/>
            <path stroke="#FFF" stroke-width="3" d="M59.735 49.136h7.641c6.124 0 11.107-4.814 11.107-10.732 0-5.918-4.983-10.733-11.107-10.733-.802 0-1.596.083-2.373.247a12.621 12.621 0 0 0-4.132-5.247c-2.262-1.673-4.967-2.557-7.821-2.557-2.788 0-5.442.847-7.674 2.45-1.984 1.423-3.478 3.324-4.353 5.528a11.195 11.195 0 0 0-5.52 3.524A10.531 10.531 0 0 0 33 38.404c0 5.918 4.982 10.732 11.106 10.732h5.085"/>
        </g>
        <path fill="#2E4550" fill-rule="nonzero" d="M13.357 12.563l-.285.437-2.34-1.329.285-.436 2.34 1.328zm-3.745-2.125l-.285.436-2.34-1.328.285-.437 2.34 1.329zM5.867 8.312l-.284.436L3.242 7.42l.285-.437 2.34 1.329zM2.123 6.186l-.285.437L0 5.579l.285-.436 1.838 1.043zM96.643 12.563l.285.437 2.34-1.329-.285-.436-2.34 1.328zm3.745-2.125l.285.436 2.34-1.328-.285-.437-2.34 1.329zm3.745-2.126l.284.436 2.341-1.328-.285-.437-2.34 1.329zm3.744-2.126l.285.437L110 5.579l-.285-.436-1.838 1.043z"/>
    </g>
</svg>
