<svg xmlns="http://www.w3.org/2000/svg" width="110" height="103" viewBox="0 0 110 103">
    <g fill="none" fill-rule="evenodd">
        <path fill="#2E4550" d="M32.607 2L52 13.196V35.59L32.607 46.786 13.214 35.589V13.196zM77.393 2l19.393 11.196V35.59L77.393 46.786 58 35.589V13.196z" opacity=".18"/>
        <path fill="#2E4550" stroke="#2E4550" stroke-width="4" d="M55.393 41.286l19.393 11.196v22.393L55.393 86.071 36 74.875V52.482z" opacity=".18"/>
        <path fill="#2E4550" fill-rule="nonzero" d="M55.196 87.642l.944.002-.015 3.929-.943-.003.014-3.928zm-.023 6.285l.944.003-.015 3.928-.943-.002.014-3.929zm-.023 6.286l.944.002-.01 2.75-.944-.002.01-2.75z"/>
        <path fill="#2E4550" fill-opacity=".68" stroke="#2E4550" stroke-width="3" d="M55 2l29.94 17.286v34.571L55 71.143 25.06 53.857V19.286z"/>
        <g fill="#FFF" fill-rule="nonzero">
            <path d="M75.696 53.982L65.144 43.43a17.59 17.59 0 0 0 3.998-11.18c0-9.748-7.93-17.679-17.678-17.679-9.748 0-17.678 7.931-17.678 17.679 0 9.748 7.93 17.679 17.678 17.679 4.24 0 8.132-1.503 11.18-4l10.552 10.553a1.763 1.763 0 0 0 2.5 0 1.766 1.766 0 0 0 0-2.5zm-24.39-6.735c-8.268 0-14.996-6.728-14.996-14.997 0-8.27 6.728-14.997 14.997-14.997S66.304 23.98 66.304 32.25c0 8.27-6.728 14.997-14.997 14.997z"/>
            <path d="M50.345 20.393c-4.024-.54-7.892 1.87-8.996 5.604-.146.493.154 1.006.67 1.145.044.012.088.02.13.026.475.064.937-.215 1.07-.667.842-2.846 3.789-4.681 6.855-4.27.532.071 1.023-.282 1.098-.79.075-.507-.295-.976-.827-1.048z"/>
        </g>
        <path fill="#FFF" fill-rule="nonzero" d="M49.107 28.714v12.572h-3.143V28.714h3.143zm4.714 3.143v9.429H50.68v-9.429h3.142zm4.715-4.714v14.143h-3.143V27.143h3.143z"/>
        <path fill="#2E4550" fill-rule="nonzero" d="M13.357 12.563l-.285.437-2.34-1.329.285-.436 2.34 1.328zm-3.745-2.125l-.285.436-2.34-1.328.285-.437 2.34 1.329zM5.867 8.312l-.284.436L3.242 7.42l.285-.437 2.34 1.329zM2.123 6.186l-.285.437L0 5.579l.285-.436 1.838 1.043zM96.643 12.563l.285.437 2.34-1.329-.285-.436-2.34 1.328zm3.745-2.125l.285.436 2.34-1.328-.285-.437-2.34 1.329zm3.745-2.126l.284.436 2.341-1.328-.285-.437-2.34 1.329zm3.744-2.126l.285.437L110 5.579l-.285-.436-1.838 1.043z"/>
    </g>
</svg>
